<svg xmlns="http://www.w3.org/2000/svg" width="2450" height="500" viewBox="0 0 2450 500"><defs><style>.cls-1{fill:#939393;stroke:#939393;}.cls-1,.cls-2,.cls-3,.cls-4,.cls-6{stroke-miterlimit:10;stroke-width:3px;}.cls-2,.cls-5{fill:#fff;}.cls-2,.cls-6{stroke:#fff;}.cls-3{fill:#c7eff9;stroke:#c7eff9;}.cls-4{stroke:#000;}.cls-6{fill:none;}</style></defs><title>animation-fox-02</title><g id="_2" data-name="2"><g id="Layer_1" data-name="Layer 1"><g id="Layer_3" data-name="Layer 3"><g id="Layer_10" data-name="Layer 10"><path class="cls-1" d="M1204.18,300.92s1.44,30.12,11.94,42.78,12.09-1.17,12.09-1.17a185.61,185.61,0,0,1,3.56-23.78c2.34-10.67,11-25.46,11.36-21.35"/><path class="cls-1" d="M1296.68,306.64s-6.67,19.31-1.62,35,10.7,6.67,10.7,6.67l21.86-48.78"/></g><g id="Layer_5-2" data-name="Layer 5"><path class="cls-2" d="M1269.1,215.49c-1,.59,10.44,20.27,11.41,19.68,0,0-32.31.73-49.8-5.59s-38.87-2.67-47.37-2.42c-12.39,1.45-33.77,7.28-45.92,24.29s-58.79,64.14-70.94,68.51,35,23.81,54.91,15.55,20.55-16.28,22.35-28.18c0,0-.24-3.41-.39-8.26-.39-10.94-.54-29.35,2.82-33,4.86-5.35,8.74,1,8.74,1l12.59,31.53,2.23,14.87,40.57-8a39.57,39.57,0,0,1,18-3.4c10.21.49,28.18,7.29,28.18,7.29s19.92,9.72,36.93,9.23,28.18-9.72,32.55-18,3.7-24.39,4.62-34.74c1-10.69,3.64-10.93,8.5-13.84s23.33-3.89,28.67-5.84a6.8,6.8,0,0,0,4.37-2.91L1376,234c-34-34-92.32-38.39-92.32-38.39Z"/></g><path class="cls-3" d="M1313.8,171.76c-1.7-6.85-9.67-17.92-25.75-34.49l-10.69,17c-5.79,8.17,0,22.35,0,22.35l-24.78,22.84,9.71,2.43-3.88,7.77,10.69,5.83c8.35-9,18.61-15.2,33-15.06,0,0,9.71,2.43,11.66,4.37s13.12,12.64,21.86,20.9,23.81,8.26,23.81,8.26l16-.49-2-7.77,9.23-5.83-4.86-7.29,6.56-4.13-10-18.71a23.55,23.55,0,0,0,8.26-10.69c2.92-7.29-5.92-20.16-14.57-31.58a59.22,59.22,0,0,0-21.38,26.24c-6-2.82-11.66-4-16-.49C1324.49,168.75,1318.61,169.43,1313.8,171.76Z"/><g id="Layer_7" data-name="Layer 7"><circle class="cls-4" cx="1307.97" cy="215.98" r="8.75"/><circle class="cls-5" cx="1310.4" cy="213.55" r="4.62"/><circle class="cls-5" cx="1303.83" cy="220.11" r="1.94"/><circle class="cls-4" cx="1363.21" cy="214.67" r="7.43"/><circle class="cls-5" cx="1365.3" cy="212.58" r="3.89"/><circle class="cls-5" cx="1359.71" cy="218.17" r="1.65"/><path d="M1361.17,233.71c0,1.85,7.1,5.79,8.26,5.35,3-1.07,6.32-5.35,6.32-5.35Z"/><polygon class="cls-2" points="1338.09 178.57 1333.72 189.26 1343.44 198.97 1346.84 189.74 1338.09 178.57"/><polygon class="cls-6" points="1321.52 188.33 1314.38 180.41 1308.65 190.28 1316.13 196.35 1321.52 188.33"/><polygon class="cls-6" points="1365.35 188.92 1359.42 182.45 1354.76 190.57 1360.93 195.52 1365.35 188.92"/><path d="M1375.31,233.71c-4.13,1.12-22.79-8.94-27.74-24.78C1349.51,218.17,1359.86,235.22,1375.31,233.71Z"/></g></g><g id="Layer_12" data-name="Layer 12"><path class="cls-3" d="M1143.25,295.18l-20.89,3.89v-6.81l-17,6.81,2-6.32-14.09,6.32s-10.21,12.14-21.38,18-12.64,5.83-12.64,5.83,21.87,8.75,28.67,11.67,16,2.91,24.78,2.91,18-3.4,22.35-6.8,9.23-12.15,9.23-19.92A146.68,146.68,0,0,0,1143.25,295.18Z"/></g><g id="Layer_9" data-name="Layer 9"><path class="cls-2" d="M1260.26,304.07s10,35.76,21.4,47.62,12-2,12-2l-2.24-47.93"/><path class="cls-2" d="M1166.33,288.31s-3.28,39,3.22,54.86,12,2.22,12,2.22a201.68,201.68,0,0,1,10.26-23.1c5.34-10.18,17.87-22.83,17.07-18.53"/></g></g></g><g id="_3" data-name="3"><g id="Layer_1-2" data-name="Layer 1"><g id="Layer_3-2" data-name="Layer 3"><g id="Layer_10-2" data-name="Layer 10"><path class="cls-1" d="M1202.61,305.3s7,29.35,19.59,39.86,11.67-3.37,11.67-3.37a183.4,183.4,0,0,1-.86-24c.34-10.92,6.1-27,7.25-23.08"/><path class="cls-1" d="M1291.25,304.71s-11.33,17-10.42,33.41,8.67,9.17,8.67,9.17l33.5-41.66"/></g><g id="Layer_5-3" data-name="Layer 5"><path class="cls-2" d="M1269.1,215.49c-1,.59,10.44,20.27,11.41,19.68,0,0-32.31.73-49.8-5.59s-38.87-2.67-47.37-2.42c-12.39,1.45-33.77,7.28-45.92,24.29s-58.79,64.14-70.94,68.51,35,23.81,54.91,15.55,20.55-16.28,22.35-28.18c0,0-.24-3.41-.39-8.26-.39-10.94-.54-29.35,2.82-33,4.86-5.35,8.74,1,8.74,1l12.59,31.53,2.23,14.87,40.57-8a39.57,39.57,0,0,1,18-3.4c10.21.49,28.18,7.29,28.18,7.29s19.92,9.72,36.93,9.23,28.18-9.72,32.55-18,3.7-24.39,4.62-34.74c1-10.69,3.64-10.93,8.5-13.84s23.33-3.89,28.67-5.84a6.8,6.8,0,0,0,4.37-2.91L1376,234c-34-34-92.32-38.39-92.32-38.39Z"/></g><path class="cls-3" d="M1313.8,171.76c-1.7-6.85-9.67-17.92-25.75-34.49l-10.69,17c-5.79,8.17,0,22.35,0,22.35l-24.78,22.84,9.71,2.43-3.88,7.77,10.69,5.83c8.35-9,18.61-15.2,33-15.06,0,0,9.71,2.43,11.66,4.37s13.12,12.64,21.86,20.9,23.81,8.26,23.81,8.26l16-.49-2-7.77,9.23-5.83-4.86-7.29,6.56-4.13-10-18.71a23.55,23.55,0,0,0,8.26-10.69c2.92-7.29-5.92-20.16-14.57-31.58a59.22,59.22,0,0,0-21.38,26.24c-6-2.82-11.66-4-16-.49C1324.49,168.75,1318.61,169.43,1313.8,171.76Z"/><g id="Layer_7-2" data-name="Layer 7"><circle class="cls-4" cx="1307.97" cy="215.98" r="8.75"/><circle class="cls-5" cx="1310.4" cy="213.55" r="4.62"/><circle class="cls-5" cx="1303.83" cy="220.11" r="1.94"/><circle class="cls-4" cx="1363.21" cy="214.67" r="7.43"/><circle class="cls-5" cx="1365.3" cy="212.58" r="3.89"/><circle class="cls-5" cx="1359.71" cy="218.17" r="1.65"/><path d="M1361.17,233.71c0,1.85,7.1,5.79,8.26,5.35,3-1.07,6.32-5.35,6.32-5.35Z"/><polygon class="cls-2" points="1338.09 178.57 1333.72 189.26 1343.44 198.97 1346.84 189.74 1338.09 178.57"/><polygon class="cls-6" points="1321.52 188.33 1314.38 180.41 1308.65 190.28 1316.13 196.35 1321.52 188.33"/><polygon class="cls-6" points="1365.35 188.92 1359.42 182.45 1354.76 190.57 1360.93 195.52 1365.35 188.92"/><path d="M1375.31,233.71c-4.13,1.12-22.79-8.94-27.74-24.78C1349.51,218.17,1359.86,235.22,1375.31,233.71Z"/></g></g><g id="Layer_12-2" data-name="Layer 12"><path class="cls-3" d="M1143.25,295.18l-20.89,3.89v-6.81l-17,6.81,2-6.32-14.09,6.32s-10.21,12.14-21.38,18-12.64,5.83-12.64,5.83,21.87,8.75,28.67,11.67,16,2.91,24.78,2.91,18-3.4,22.35-6.8,9.23-12.15,9.23-19.92A146.68,146.68,0,0,0,1143.25,295.18Z"/></g><g id="Layer_9-2" data-name="Layer 9"><path class="cls-2" d="M1266.73,303.8s10,35.75,21.4,47.62,12-2,12-2l-2.23-47.92"/><path class="cls-2" d="M1173.55,282.94s-10.74,37.66-7.41,54.45,11.34,4.49,11.34,4.49A204.89,204.89,0,0,1,1192,321.19c7.21-9,21.94-19,20.33-14.89"/></g></g></g><g id="_4" data-name="4"><g id="Layer_1-3" data-name="Layer 1"><g id="Layer_3-3" data-name="Layer 3"><g id="Layer_10-3" data-name="Layer 10"><path class="cls-1" d="M1200.38,309.48s11.14,28,25.17,36.6,11.06-5,11.06-5a183.73,183.73,0,0,1-4.34-23.64c-1.25-10.86,2.12-27.65,3.83-23.89"/><path class="cls-1" d="M1287.74,308s-11.34,17-10.42,33.42,8.66,9.16,8.66,9.16l33.5-41.66"/></g><g id="Layer_5-4" data-name="Layer 5"><path class="cls-2" d="M1268.25,218.77c-1,.58,10.45,20.26,11.42,19.68,0,0-32.31.72-49.81-5.59s-38.87-2.67-47.37-2.43c-12.39,1.46-33.77,7.29-45.92,24.29s-58.79,64.14-70.93,68.51,35,23.81,54.9,15.55,20.55-16.28,22.35-28.18c0,0-.24-3.4-.39-8.26-.39-10.93-.53-29.35,2.82-33,4.86-5.35,8.75,1,8.75,1l12.58,31.54,2.24,14.86,40.57-8a39.26,39.26,0,0,1,18-3.4c10.2.48,28.18,7.28,28.18,7.28s19.92,9.72,36.92,9.24,28.19-9.72,32.56-18,3.69-24.39,4.61-34.74c1-10.69,3.65-10.94,8.51-13.85s23.32-3.89,28.66-5.83a6.83,6.83,0,0,0,4.38-2.92l3.88-9.23c-34-34-92.31-38.38-92.31-38.38Z"/></g><path class="cls-3" d="M1313,175c-1.7-6.85-9.67-17.93-25.75-34.5l-10.69,17c-5.78,8.16,0,22.35,0,22.35l-24.78,22.83,9.72,2.43-3.89,7.78,10.69,5.83c8.36-9,18.61-15.21,33-15.06,0,0,9.72,2.42,11.66,4.37s13.12,12.63,21.87,20.89,23.8,8.26,23.8,8.26l16-.48-2-7.78,9.24-5.83-4.86-7.29,6.56-4.13-10-18.7a23.73,23.73,0,0,0,8.26-10.69c2.91-7.29-5.93-20.17-14.58-31.59A59.29,59.29,0,0,0,1346,177c-6-2.82-11.66-4-16-.48C1323.64,172,1317.76,172.71,1313,175Z"/><g id="Layer_7-3" data-name="Layer 7"><circle class="cls-4" cx="1307.12" cy="219.25" r="8.75"/><circle class="cls-5" cx="1309.55" cy="216.82" r="4.62"/><circle class="cls-5" cx="1302.99" cy="223.38" r="1.94"/><circle class="cls-4" cx="1362.37" cy="217.94" r="7.43"/><circle class="cls-5" cx="1364.45" cy="215.85" r="3.89"/><circle class="cls-5" cx="1358.87" cy="221.44" r="1.65"/><path d="M1360.32,237c0,1.84,7.1,5.78,8.26,5.34,3-1.07,6.32-5.34,6.32-5.34Z"/><polygon class="cls-2" points="1337.24 181.84 1332.87 192.53 1342.59 202.25 1345.99 193.02 1337.24 181.84"/><polygon class="cls-6" points="1320.68 191.61 1313.53 183.69 1307.8 193.55 1315.28 199.62 1320.68 191.61"/><polygon class="cls-6" points="1364.5 192.19 1358.58 185.73 1353.91 193.84 1360.08 198.8 1364.5 192.19"/><path d="M1374.46,237c-4.13,1.12-22.78-8.94-27.74-24.78C1348.66,221.44,1359,238.49,1374.46,237Z"/></g></g><g id="Layer_12-3" data-name="Layer 12"><path class="cls-3" d="M1143.25,295.18l-20.89,3.89v-6.81l-17,6.81,2-6.32-14.09,6.32s-10.21,12.14-21.38,18-12.64,5.83-12.64,5.83,21.87,8.75,28.67,11.67,16,2.91,24.78,2.91,18-3.4,22.35-6.8,9.23-12.15,9.23-19.92A146.68,146.68,0,0,0,1143.25,295.18Z"/></g><g id="Layer_9-3" data-name="Layer 9"><path class="cls-2" d="M1264.33,305.9s13.5,34.59,26,45.27S1302,348,1302,348l-7-47.47"/><path class="cls-2" d="M1171.33,282.73s-12.79,37-10.39,54S1172,341.8,1172,341.8a205,205,0,0,1,15.64-19.86c7.69-8.55,22.95-17.72,21.12-13.75"/></g></g></g><g id="_3-2" data-name="3"><g id="Layer_5_copy_3" data-name="Layer 5 copy 3"><g id="Layer_1-4" data-name="Layer 1"><g id="Layer_3-4" data-name="Layer 3"><g id="Layer_10-4" data-name="Layer 10"><path class="cls-1" d="M1552.61,305.3s7,29.35,19.59,39.86,11.67-3.37,11.67-3.37a183.4,183.4,0,0,1-.86-24c.34-10.92,6.1-27,7.25-23.08"/><path class="cls-1" d="M1641.25,304.71s-11.33,17-10.42,33.41,8.67,9.17,8.67,9.17l33.5-41.66"/></g><g id="Layer_5-5" data-name="Layer 5"><path class="cls-2" d="M1619.1,215.49c-1,.59,10.44,20.27,11.41,19.68,0,0-32.31.73-49.8-5.59s-38.87-2.67-47.37-2.42c-12.39,1.45-33.77,7.28-45.92,24.29s-58.79,64.14-70.94,68.51,35,23.81,54.91,15.55,20.55-16.28,22.35-28.18c0,0-.24-3.41-.39-8.26-.39-10.94-.54-29.35,2.82-33,4.86-5.35,8.74,1,8.74,1l12.59,31.53,2.23,14.87,40.57-8a39.57,39.57,0,0,1,18-3.4c10.21.49,28.18,7.29,28.18,7.29s19.92,9.72,36.93,9.23,28.18-9.72,32.55-18,3.7-24.39,4.62-34.74c1-10.69,3.64-10.93,8.5-13.84s23.33-3.89,28.67-5.84a6.8,6.8,0,0,0,4.37-2.91L1726,234c-34-34-92.32-38.39-92.32-38.39Z"/></g><path class="cls-3" d="M1663.8,171.76c-1.7-6.85-9.67-17.92-25.75-34.49l-10.69,17c-5.79,8.17,0,22.35,0,22.35l-24.78,22.84,9.71,2.43-3.88,7.77,10.69,5.83c8.35-9,18.61-15.2,33-15.06,0,0,9.71,2.43,11.66,4.37s13.12,12.64,21.86,20.9,23.81,8.26,23.81,8.26l16-.49-2-7.77,9.23-5.83-4.86-7.29,6.56-4.13-10-18.71a23.55,23.55,0,0,0,8.26-10.69c2.92-7.29-5.92-20.16-14.57-31.58a59.22,59.22,0,0,0-21.38,26.24c-6-2.82-11.66-4-16-.49C1674.49,168.75,1668.61,169.43,1663.8,171.76Z"/><g id="Layer_7-4" data-name="Layer 7"><circle class="cls-4" cx="1657.97" cy="215.98" r="8.75"/><circle class="cls-5" cx="1660.4" cy="213.55" r="4.62"/><circle class="cls-5" cx="1653.83" cy="220.11" r="1.94"/><circle class="cls-4" cx="1713.21" cy="214.67" r="7.43"/><circle class="cls-5" cx="1715.3" cy="212.58" r="3.89"/><circle class="cls-5" cx="1709.71" cy="218.17" r="1.65"/><path d="M1711.17,233.71c0,1.85,7.1,5.79,8.26,5.35,3-1.07,6.32-5.35,6.32-5.35Z"/><polygon class="cls-2" points="1688.09 178.57 1683.72 189.26 1693.44 198.97 1696.84 189.74 1688.09 178.57"/><polygon class="cls-6" points="1671.52 188.33 1664.38 180.41 1658.65 190.28 1666.13 196.35 1671.52 188.33"/><polygon class="cls-6" points="1715.35 188.92 1709.42 182.45 1704.76 190.57 1710.93 195.52 1715.35 188.92"/><path d="M1725.31,233.71c-4.13,1.12-22.79-8.94-27.74-24.78C1699.51,218.17,1709.86,235.22,1725.31,233.71Z"/></g></g><g id="Layer_12-4" data-name="Layer 12"><path class="cls-3" d="M1493.25,295.18l-20.89,3.89v-6.81l-17,6.81,2-6.32-14.09,6.32s-10.21,12.14-21.38,18-12.64,5.83-12.64,5.83,21.87,8.75,28.67,11.67,16,2.91,24.78,2.91,18-3.4,22.35-6.8,9.23-12.15,9.23-19.92A146.68,146.68,0,0,0,1493.25,295.18Z"/></g><g id="Layer_9-4" data-name="Layer 9"><path class="cls-2" d="M1616.73,303.8s10,35.75,21.4,47.62,12-2,12-2l-2.23-47.92"/><path class="cls-2" d="M1523.55,282.94s-10.74,37.66-7.41,54.45,11.34,4.49,11.34,4.49A204.89,204.89,0,0,1,1542,321.19c7.21-9,21.94-19,20.33-14.89"/></g></g></g><g id="Layer_1-5" data-name="Layer 1"><g id="Layer_3-5" data-name="Layer 3"><g id="Layer_10-5" data-name="Layer 10"><path class="cls-1" d="M852.61,305.3s6.95,29.35,19.59,39.86,11.67-3.37,11.67-3.37a183.4,183.4,0,0,1-.86-24c.34-10.92,6.1-27,7.25-23.08"/><path class="cls-1" d="M941.25,304.71s-11.33,17-10.42,33.41,8.67,9.17,8.67,9.17L973,305.63"/></g><g id="Layer_5-6" data-name="Layer 5"><path class="cls-2" d="M919.1,215.49c-1,.59,10.44,20.27,11.41,19.68,0,0-32.31.73-49.8-5.59s-38.87-2.67-47.37-2.42c-12.39,1.45-33.77,7.28-45.92,24.29S728.63,315.59,716.48,320s35,23.81,54.91,15.55,20.55-16.28,22.35-28.18c0,0-.24-3.41-.39-8.26-.39-10.94-.54-29.35,2.82-33,4.86-5.35,8.74,1,8.74,1l12.59,31.53,2.23,14.87,40.57-8a39.57,39.57,0,0,1,18-3.4c10.21.49,28.18,7.29,28.18,7.29s19.92,9.72,36.93,9.23,28.18-9.72,32.55-18,3.7-24.39,4.62-34.74c1-10.69,3.64-10.93,8.5-13.84s23.33-3.89,28.67-5.84a6.8,6.8,0,0,0,4.37-2.91L1026,234c-34-34-92.32-38.39-92.32-38.39Z"/></g><path class="cls-3" d="M963.8,171.76c-1.7-6.85-9.67-17.92-25.75-34.49l-10.69,17c-5.79,8.17,0,22.35,0,22.35l-24.78,22.84,9.71,2.43-3.88,7.77,10.69,5.83c8.35-9,18.61-15.2,33-15.06,0,0,9.71,2.43,11.66,4.37s13.12,12.64,21.86,20.9,23.81,8.26,23.81,8.26l16-.49-2-7.77,9.23-5.83-4.86-7.29,6.56-4.13-10-18.71a23.55,23.55,0,0,0,8.26-10.69c2.92-7.29-5.92-20.16-14.57-31.58a59.22,59.22,0,0,0-21.38,26.24c-6-2.82-11.66-4-16-.49C974.49,168.75,968.61,169.43,963.8,171.76Z"/><g id="Layer_7-5" data-name="Layer 7"><circle class="cls-4" cx="957.97" cy="215.98" r="8.75"/><circle class="cls-5" cx="960.4" cy="213.55" r="4.62"/><circle class="cls-5" cx="953.83" cy="220.11" r="1.94"/><circle class="cls-4" cx="1013.21" cy="214.67" r="7.43"/><circle class="cls-5" cx="1015.3" cy="212.58" r="3.89"/><circle class="cls-5" cx="1009.71" cy="218.17" r="1.65"/><path d="M1011.17,233.71c.05,1.85,7.1,5.79,8.26,5.35,3-1.07,6.32-5.35,6.32-5.35Z"/><polygon class="cls-2" points="988.09 178.57 983.72 189.26 993.44 198.97 996.84 189.74 988.09 178.57"/><polygon class="cls-6" points="971.52 188.33 964.38 180.41 958.65 190.28 966.13 196.35 971.52 188.33"/><polygon class="cls-6" points="1015.35 188.92 1009.42 182.45 1004.76 190.57 1010.93 195.52 1015.35 188.92"/><path d="M1025.31,233.71c-4.13,1.12-22.79-8.94-27.74-24.78C999.51,218.17,1009.86,235.22,1025.31,233.71Z"/></g></g><g id="Layer_12-5" data-name="Layer 12"><path class="cls-3" d="M793.25,295.18l-20.89,3.89v-6.81l-17,6.81,1.95-6.32-14.09,6.32S733,311.21,721.83,317s-12.64,5.83-12.64,5.83,21.87,8.75,28.67,11.67,16,2.91,24.78,2.91,18-3.4,22.35-6.8,9.23-12.15,9.23-19.92A146.68,146.68,0,0,0,793.25,295.18Z"/></g><g id="Layer_9-5" data-name="Layer 9"><path class="cls-2" d="M916.73,303.8s10,35.75,21.4,47.62,12-2,12-2l-2.23-47.92"/><path class="cls-2" d="M823.55,282.94s-10.74,37.66-7.41,54.45,11.34,4.49,11.34,4.49A204.89,204.89,0,0,1,842,321.19c7.21-9,21.94-19,20.33-14.89"/></g></g></g><g id="_2-2" data-name="2"><g id="Layer_1-6" data-name="Layer 1"><g id="Layer_3-6" data-name="Layer 3"><g id="Layer_10-6" data-name="Layer 10"><path class="cls-1" d="M502.06,306s1.45,30.12,11.95,42.78,12.09-1.17,12.09-1.17a182.16,182.16,0,0,1,3.56-23.78c2.34-10.67,11-25.46,11.36-21.35"/><path class="cls-1" d="M594.56,311.72s-6.66,19.32-1.62,35,10.71,6.67,10.71,6.67l21.86-48.78"/></g><g id="Layer_5-7" data-name="Layer 5"><path class="cls-2" d="M567,220.58c-1,.59,10.45,20.26,11.42,19.68,0,0-32.31.73-49.8-5.59s-38.87-2.67-47.38-2.43c-12.39,1.46-33.77,7.29-45.91,24.3s-58.79,64.14-70.94,68.51,35,23.81,54.9,15.55,20.56-16.28,22.35-28.18c0,0-.24-3.41-.38-8.27-.39-10.93-.54-29.34,2.81-33,4.86-5.34,8.75,1,8.75,1l12.58,31.53,2.24,14.87,40.57-8a39.44,39.44,0,0,1,18-3.4c10.2.49,28.18,7.29,28.18,7.29s19.92,9.72,36.93,9.23,28.18-9.72,32.55-18,3.69-24.39,4.62-34.74c1-10.69,3.64-10.93,8.5-13.85s23.32-3.88,28.67-5.83a6.86,6.86,0,0,0,4.37-2.91l3.89-9.23c-34-34-92.32-38.39-92.32-38.39Z"/></g><path class="cls-3" d="M611.68,176.85C610,170,602,158.92,585.93,142.36l-10.69,17c-5.78,8.16,0,22.35,0,22.35l-24.78,22.84,9.72,2.43-3.89,7.77L567,220.58c8.36-9,18.61-15.21,33-15.06,0,0,9.72,2.43,11.66,4.37s13.12,12.64,21.87,20.9,23.81,8.26,23.81,8.26l16-.49-1.94-7.77,9.23-5.83-4.86-7.29,6.56-4.13-10-18.71a23.55,23.55,0,0,0,8.26-10.69c2.91-7.29-5.93-20.16-14.58-31.58a59.36,59.36,0,0,0-21.38,26.24c-6-2.82-11.66-4-16-.49C622.37,173.84,616.49,174.52,611.68,176.85Z"/><g id="Layer_7-6" data-name="Layer 7"><circle class="cls-4" cx="605.85" cy="221.07" r="8.75"/><circle class="cls-5" cx="608.28" cy="218.64" r="4.62"/><circle class="cls-5" cx="601.72" cy="225.2" r="1.94"/><circle class="cls-4" cx="661.1" cy="219.76" r="7.43"/><circle class="cls-5" cx="663.19" cy="217.67" r="3.89"/><circle class="cls-5" cx="657.6" cy="223.26" r="1.65"/><path d="M659.06,238.8c.05,1.85,7.09,5.79,8.26,5.35,3-1.07,6.31-5.35,6.31-5.35Z"/><polygon class="cls-2" points="635.98 183.66 631.61 194.34 641.32 204.06 644.72 194.83 635.98 183.66"/><polygon class="cls-6" points="619.41 193.42 612.27 185.5 606.53 195.37 614.02 201.44 619.41 193.42"/><polygon class="cls-6" points="663.24 194 657.31 187.54 652.64 195.66 658.82 200.61 663.24 194"/><path d="M673.2,238.8c-4.13,1.12-22.79-8.94-27.75-24.78C647.4,223.26,657.75,240.31,673.2,238.8Z"/></g></g><g id="Layer_12-6" data-name="Layer 12"><path class="cls-3" d="M441.14,300.27l-20.89,3.88v-6.8l-17,6.8,1.94-6.31-14.09,6.31s-10.2,12.15-21.38,18S357.08,328,357.08,328s21.87,8.75,28.67,11.66,16,2.92,24.78,2.92,18-3.4,22.35-6.8,9.23-12.15,9.23-19.92A152.17,152.17,0,0,0,441.14,300.27Z"/></g><g id="Layer_9-6" data-name="Layer 9"><path class="cls-2" d="M558.15,309.16s10,35.75,21.4,47.62,12-2,12-2l-2.23-47.92"/><path class="cls-2" d="M464.22,293.4s-3.28,39,3.22,54.86,12,2.22,12,2.22a205.22,205.22,0,0,1,10.26-23.1c5.35-10.18,17.87-22.83,17.08-18.53"/></g></g><g id="Layer_1-7" data-name="Layer 1"><g id="Layer_3-7" data-name="Layer 3"><g id="Layer_10-7" data-name="Layer 10"><path class="cls-1" d="M1907.1,306.47s1.45,30.12,12,42.78,12.09-1.17,12.09-1.17a183.87,183.87,0,0,1,3.56-23.78c2.34-10.67,11-25.46,11.36-21.35"/><path class="cls-1" d="M1999.6,312.18s-6.66,19.32-1.62,35,10.71,6.67,10.71,6.67L2030.55,305"/></g><g id="Layer_5-8" data-name="Layer 5"><path class="cls-2" d="M1972,221c-1,.59,10.45,20.26,11.42,19.68,0,0-32.31.73-49.8-5.59s-38.87-2.67-47.38-2.43c-12.39,1.46-33.76,7.29-45.91,24.3s-58.79,64.13-70.94,68.51,35,23.81,54.9,15.55,20.56-16.28,22.35-28.19c0,0-.24-3.4-.38-8.26-.39-10.93-.54-29.34,2.81-33,4.86-5.34,8.75,1,8.75,1l12.58,31.53,2.24,14.87,40.57-8a39.44,39.44,0,0,1,18-3.4c10.2.49,28.18,7.29,28.18,7.29s19.92,9.72,36.93,9.23,28.18-9.72,32.55-18,3.69-24.39,4.62-34.74c1-10.69,3.64-10.93,8.5-13.85s23.32-3.88,28.67-5.83a6.84,6.84,0,0,0,4.37-2.91l3.89-9.23c-34-34-92.32-38.39-92.32-38.39Z"/></g><path class="cls-3" d="M2016.72,177.31c-1.7-6.85-9.66-17.93-25.75-34.5l-10.69,17c-5.78,8.16,0,22.35,0,22.35L1955.5,205l9.72,2.43-3.89,7.77L1972,221c8.36-9,18.61-15.21,33-15.06,0,0,9.72,2.43,11.66,4.37s13.12,12.64,21.87,20.9,23.81,8.26,23.81,8.26l16-.49-1.94-7.77,9.23-5.83-4.86-7.29,6.56-4.13-10-18.71a23.55,23.55,0,0,0,8.26-10.69c2.92-7.29-5.93-20.16-14.58-31.58a59.36,59.36,0,0,0-21.38,26.24c-6-2.82-11.66-4-16-.49C2027.41,174.3,2021.53,175,2016.72,177.31Z"/><g id="Layer_7-7" data-name="Layer 7"><circle class="cls-4" cx="2010.89" cy="221.53" r="8.75"/><circle class="cls-5" cx="2013.32" cy="219.1" r="4.62"/><circle class="cls-5" cx="2006.76" cy="225.66" r="1.94"/><circle class="cls-4" cx="2066.14" cy="220.22" r="7.43"/><circle class="cls-5" cx="2068.23" cy="218.13" r="3.89"/><circle class="cls-5" cx="2062.64" cy="223.71" r="1.65"/><path d="M2064.1,239.26c.05,1.85,7.09,5.79,8.26,5.35,3-1.07,6.31-5.35,6.31-5.35Z"/><polygon class="cls-2" points="2041.02 184.12 2036.65 194.81 2046.36 204.52 2049.76 195.29 2041.02 184.12"/><polygon class="cls-6" points="2024.45 193.88 2017.31 185.96 2011.57 195.82 2019.06 201.9 2024.45 193.88"/><polygon class="cls-6" points="2068.28 194.46 2062.35 188 2057.68 196.12 2063.86 201.07 2068.28 194.46"/><path d="M2078.24,239.26c-4.13,1.12-22.79-8.94-27.75-24.78C2052.44,223.71,2062.79,240.77,2078.24,239.26Z"/></g></g><g id="Layer_12-7" data-name="Layer 12"><path class="cls-3" d="M1846.18,300.73l-20.89,3.88v-6.8l-17,6.8,1.94-6.31-14.09,6.31s-10.2,12.15-21.38,18-12.63,5.83-12.63,5.83,21.87,8.75,28.67,11.66,16,2.92,24.78,2.92,18-3.4,22.35-6.8,9.23-12.15,9.23-19.92A152.17,152.17,0,0,0,1846.18,300.73Z"/></g><g id="Layer_9-7" data-name="Layer 9"><path class="cls-2" d="M1963.19,309.62s10,35.75,21.4,47.62,12-2,12-2l-2.23-47.92"/><path class="cls-2" d="M1869.26,293.86s-3.28,39,3.22,54.86,12,2.22,12,2.22a205.22,205.22,0,0,1,10.26-23.1c5.35-10.18,17.87-22.83,17.08-18.53"/></g></g></g><g id="_1-2" data-name="1"><g id="Layer_4_copy" data-name="Layer 4 copy"><g id="Layer_1-8" data-name="Layer 1"><g id="Layer_3-8" data-name="Layer 3"><g id="Layer_10-8" data-name="Layer 10"><path class="cls-1" d="M2259.78,306.16s-1.46,30.13,7.77,43.73,12.15,0,12.15,0a184,184,0,0,1,5.83-23.32c3.36-10.4,13.36-24.3,13.36-20.17"/><path class="cls-1" d="M2349.67,313.45s-1,20.41,8.26,34,12.15,3.4,12.15,3.4l7.28-53"/></g><g id="Layer_5-9" data-name="Layer 5"><path class="cls-2" d="M2318.09,221.13c-1,.58,10.44,20.26,11.42,19.68,0,0-32.32.73-49.81-5.59s-38.87-2.67-47.37-2.43c-12.39,1.46-33.77,7.29-45.92,24.3s-58.79,64.13-70.94,68.51,35,23.8,54.91,15.54,20.55-16.27,22.35-28.18c0,0-.24-3.4-.39-8.26-.39-10.93-.53-29.34,2.82-33,4.86-5.34,8.74,1,8.74,1l12.59,31.53,2.23,14.87,40.57-8a39.44,39.44,0,0,1,18-3.4c10.21.48,28.18,7.29,28.18,7.29s19.93,9.71,36.93,9.23,28.18-9.72,32.56-18,3.69-24.39,4.61-34.74c1-10.69,3.65-10.93,8.5-13.85s23.33-3.88,28.67-5.83a6.84,6.84,0,0,0,4.37-2.91l3.89-9.24c-34-34-92.32-38.38-92.32-38.38Z"/></g><path class="cls-3" d="M2362.79,177.4c-1.7-6.85-9.67-17.93-25.75-34.5l-10.69,17c-5.79,8.16,0,22.35,0,22.35l-24.78,22.84,9.71,2.43-3.88,7.77,10.69,5.83c8.35-9,18.61-15.21,33-15.06,0,0,9.71,2.43,11.66,4.37s13.12,12.63,21.86,20.89,23.81,8.26,23.81,8.26l16-.48-1.95-7.78,9.23-5.83-4.85-7.28,6.55-4.13-10-18.71a23.49,23.49,0,0,0,8.26-10.69c2.92-7.29-5.92-20.16-14.57-31.58a59.22,59.22,0,0,0-21.38,26.24c-6-2.82-11.66-4-16-.49C2373.48,174.39,2367.6,175.07,2362.79,177.4Z"/><g id="Layer_7-8" data-name="Layer 7"><circle class="cls-4" cx="2356.96" cy="221.62" r="8.75"/><circle class="cls-5" cx="2359.39" cy="219.19" r="4.62"/><circle class="cls-5" cx="2352.82" cy="225.74" r="1.94"/><circle class="cls-4" cx="2412.2" cy="220.31" r="7.43"/><circle class="cls-5" cx="2414.29" cy="218.22" r="3.89"/><circle class="cls-5" cx="2408.7" cy="223.8" r="1.65"/><path d="M2410.16,239.35c.05,1.85,7.1,5.78,8.26,5.35,3-1.07,6.32-5.35,6.32-5.35Z"/><polygon class="cls-2" points="2387.08 184.2 2382.71 194.89 2392.43 204.61 2395.83 195.38 2387.08 184.2"/><polygon class="cls-6" points="2370.51 193.97 2363.37 186.05 2357.64 195.91 2365.12 201.99 2370.51 193.97"/><polygon class="cls-6" points="2414.34 194.55 2408.41 188.09 2403.75 196.21 2409.92 201.16 2414.34 194.55"/><path d="M2424.3,239.35c-4.13,1.12-22.79-8.94-27.74-24.78C2398.5,223.8,2408.85,240.86,2424.3,239.35Z"/></g></g><g id="Layer_12-8" data-name="Layer 12"><path class="cls-3" d="M2192.24,300.82l-20.89,3.88v-6.8l-17,6.8,1.95-6.31-14.09,6.31s-10.21,12.15-21.38,18-12.64,5.83-12.64,5.83,21.87,8.75,28.67,11.66,16,2.92,24.78,2.92,18-3.4,22.35-6.8,9.23-12.15,9.23-19.93A146.65,146.65,0,0,0,2192.24,300.82Z"/></g><g id="Layer_9-8" data-name="Layer 9"><path class="cls-2" d="M2311.77,304.7s3.89,36.93,13.12,50.54,12.15,0,12.15,0l5.83-47.62"/><path class="cls-2" d="M2214.84,298.63s3.88,39,13.16,53.35,12.2,0,12.2,0a203.55,203.55,0,0,1,5.88-24.59c3.4-11,13.41-25.7,13.41-21.33"/></g></g></g><g id="Layer_1-9" data-name="Layer 1"><g id="Layer_3-9" data-name="Layer 3"><g id="Layer_10-9" data-name="Layer 10"><path class="cls-1" d="M158.68,305.61s-1.46,30.13,7.77,43.73,12.15,0,12.15,0A184,184,0,0,1,184.43,326c3.35-10.4,13.36-24.29,13.36-20.16"/><path class="cls-1" d="M248.57,312.9s-1,20.41,8.26,34,12.14,3.4,12.14,3.4l7.29-53"/></g><g id="Layer_5-10" data-name="Layer 5"><path class="cls-2" d="M217,220.58c-1,.59,10.45,20.26,11.42,19.68,0,0-32.31.73-49.8-5.59s-38.87-2.67-47.38-2.43c-12.39,1.46-33.77,7.29-45.91,24.3s-58.79,64.14-70.94,68.51,35,23.81,54.9,15.55,20.56-16.28,22.35-28.18c0,0-.24-3.41-.38-8.27-.39-10.93-.54-29.34,2.81-33,4.86-5.34,8.75,1,8.75,1l12.58,31.53,2.24,14.87,40.57-8a39.44,39.44,0,0,1,18-3.4c10.2.49,28.18,7.29,28.18,7.29s19.92,9.72,36.93,9.23,28.18-9.72,32.55-18,3.69-24.39,4.62-34.74c1-10.69,3.64-10.93,8.5-13.85s23.32-3.88,28.67-5.83a6.86,6.86,0,0,0,4.37-2.91l3.89-9.23c-34-34-92.32-38.39-92.32-38.39Z"/></g><path class="cls-3" d="M261.68,176.85C260,170,252,158.92,235.93,142.36l-10.69,17c-5.78,8.16,0,22.35,0,22.35l-24.78,22.84,9.72,2.43-3.89,7.77L217,220.58c8.36-9,18.61-15.21,33-15.06,0,0,9.72,2.43,11.66,4.37s13.12,12.64,21.87,20.9,23.81,8.26,23.81,8.26l16-.49-1.94-7.77,9.23-5.83-4.86-7.29,6.56-4.13-10-18.71a23.55,23.55,0,0,0,8.26-10.69c2.91-7.29-5.93-20.16-14.58-31.58a59.36,59.36,0,0,0-21.38,26.24c-6-2.82-11.66-4-16-.49C272.37,173.84,266.49,174.52,261.68,176.85Z"/><g id="Layer_7-9" data-name="Layer 7"><circle class="cls-4" cx="255.85" cy="221.07" r="8.75"/><circle class="cls-5" cx="258.28" cy="218.64" r="4.62"/><circle class="cls-5" cx="251.72" cy="225.2" r="1.94"/><circle class="cls-4" cx="311.1" cy="219.76" r="7.43"/><circle class="cls-5" cx="313.19" cy="217.67" r="3.89"/><circle class="cls-5" cx="307.6" cy="223.26" r="1.65"/><path d="M309.06,238.8c.05,1.85,7.09,5.79,8.26,5.35,3-1.07,6.31-5.35,6.31-5.35Z"/><polygon class="cls-2" points="285.98 183.66 281.61 194.34 291.32 204.06 294.72 194.83 285.98 183.66"/><polygon class="cls-6" points="269.41 193.42 262.27 185.5 256.53 195.37 264.02 201.44 269.41 193.42"/><polygon class="cls-6" points="313.24 194 307.31 187.54 302.64 195.66 308.81 200.61 313.24 194"/><path d="M323.2,238.8c-4.13,1.12-22.79-8.94-27.75-24.78C297.4,223.26,307.75,240.31,323.2,238.8Z"/></g></g><g id="Layer_12-9" data-name="Layer 12"><path class="cls-3" d="M91.14,300.27l-20.89,3.88v-6.8l-17,6.8,1.94-6.31-14.09,6.31s-10.2,12.15-21.38,18S7.08,328,7.08,328,29,336.71,35.75,339.62s16,2.92,24.78,2.92,18-3.4,22.35-6.8,9.23-12.15,9.23-19.92A152.17,152.17,0,0,0,91.14,300.27Z"/></g><g id="Layer_9-9" data-name="Layer 9"><path class="cls-2" d="M210.67,304.15s3.88,36.93,13.11,50.54,12.15,0,12.15,0l5.83-47.62"/><path class="cls-2" d="M113.73,298.08s3.89,39,13.17,53.35,12.2,0,12.2,0A202.9,202.9,0,0,1,145,326.85c3.41-11,13.41-25.71,13.41-21.33"/></g></g></g></svg>
