<svg id="Layer_2" data-name="Layer 2" xmlns="http://www.w3.org/2000/svg" width="126.73" height="353.49" viewBox="0 0 126.73 353.49"><defs><style>.cls-1{fill:#3a221a;}.cls-1,.cls-3{stroke:#3a221a;}.cls-1,.cls-2,.cls-3,.cls-4,.cls-5,.cls-6{stroke-miterlimit:10;}.cls-2{fill:#5b3829;stroke:#5b3829;}.cls-3{fill:none;}.cls-4{stroke:#000;}.cls-5{fill:#ffff03;stroke:#ffff03;}.cls-6{fill:#fff;stroke:#fff;}</style></defs><title>bear_side_now</title><g id="Layer_5" data-name="Layer 5"><path class="cls-1" d="M31.14,20.74,26.71,6.5c-2-4.23,7-8.51,9-4.28L49.28,12.41Z" transform="translate(0 0.02)"/><path class="cls-1" d="M94.87,25.25l7.74-12.75c3-3.62-4.78-10-7.74-6.35L79.28,12.8Z" transform="translate(0 0.02)"/></g><g id="Layer_6" data-name="Layer 6"><path class="cls-2" d="M40.65,62.72S23.43,81,11.72,115.15s5.37,49.46,0,63.29S.5,216.75.5,239.57,8,270,13.17,278.15s1.56,59.87,5.14,68,21.43,10,29.93,0-2.35-24.86,6.15-33.93,19.66-11.43,24.19-1.45,2.32,25.4,5.94,35.38,22.28,5.44,28.12,0,7.59-55.33,7.59-55.33,6-29.94,6-55.34-10.88-46.26-10.88-59,12.46-27.21,4.86-66.22S78.58,59.5,78.58,59.5Z" transform="translate(0 0.02)"/></g><g id="Layer_7" data-name="Layer 7"><path class="cls-2" d="M36.48,12.28S40.1,5.11,62.91,5.11,86.72,13.9,86.72,13.9s8.79,1.26,8.79,19.35V55.36s-9,27-37.58,27S28.43,49.3,28.43,49.3C27.17,33.24,29.79,20.81,36.48,12.28Z" transform="translate(0 0.02)"/><g id="Layer_4" data-name="Layer 4"><path class="cls-3" d="M54.93,44.34s-3.06,13.22-1.75,16.35,16.38,4.23,20.13.72c2.59-.83,1-13.48.33-17.07" transform="translate(0 0.02)"/><path class="cls-3" d="M55.22,62.73s-1.08,5.75,2.76,7.4,8.24.61,11,0,3.91-6.22,3.91-8.72" transform="translate(0 0.02)"/></g><g id="Layer_8" data-name="Layer 8"><path class="cls-4" d="M56.86,57.34c-.17,2.12,13.82,2.73,14,.61-.39,3.49-3.34,3.68-7.33,4.78C59.79,60.6,56.79,59.5,56.86,57.34Z" transform="translate(0 0.02)"/></g></g><g id="Layer_9" data-name="Layer 9"><path class="cls-1" d="M34.4,130.74s-12.69,25.62-3.17,51,21.85,2.49,21.85,2.49l5.81-53.51S50.26,162.6,50,175.84s-9.89,10.46-13.29-1.58S34.4,130.74,34.4,130.74Z" transform="translate(0 0.02)"/><path class="cls-1" d="M96.79,130.74s12.69,25.62,3.18,51-21.86,2.49-21.86,2.49L72.3,130.72s8.63,31.88,8.94,45.12,9.88,10.46,13.29-1.58S96.79,130.74,96.79,130.74Z" transform="translate(0 0.02)"/></g><g id="Layer_3" data-name="Layer 3"><circle class="cls-5" cx="45.96" cy="36.98" r="5.68"/><circle class="cls-3" cx="45.81" cy="36.67" r="6.15"/><circle class="cls-6" cx="42.74" cy="35.45" r="0.92"/><circle class="cls-6" cx="47.34" cy="38.52" r="2.46"/><circle class="cls-5" cx="84.06" cy="36.98" r="5.68"/><circle class="cls-3" cx="83.91" cy="36.67" r="6.15"/><circle class="cls-6" cx="80.83" cy="35.45" r="0.92"/><circle class="cls-6" cx="85.44" cy="38.52" r="2.46"/></g></svg>
