<?xml version="1.0" encoding="utf-8"?>
<!-- Generator: Adobe Illustrator 22.1.0, SVG Export Plug-In . SVG Version: 6.00 Build 0)  -->
<svg version="1.1" id="Layer_1" xmlns="http://www.w3.org/2000/svg" xmlns:xlink="http://www.w3.org/1999/xlink" x="0px" y="0px"
	 viewBox="0 0 1920 1080" style="enable-background:new 0 0 1920 1080;" xml:space="preserve">
<style type="text/css">
	.st0{display:none;}
	.st1{display:inline;fill:none;stroke:#000000;stroke-miterlimit:10;}
	.st2{fill:#3A221A;stroke:#3A221A;stroke-miterlimit:10;}
	.st3{fill:#5B3829;stroke:#5B3829;stroke-miterlimit:10;}
	.st4{stroke:#000000;stroke-miterlimit:10;}
	.st5{fill:#FFFF03;stroke:#FFFF03;stroke-miterlimit:10;}
</style>
<g id="Layer_1_1_" class="st0">

		<image style="display:inline;overflow:visible;enable-background:new    ;" width="720" height="960" xlink:href="BF2AAA0F.jpeg"  transform="matrix(1.259121e-16 -2.0563 2.0563 1.259121e-16 -572 811.5063)">
	</image>
</g>
<g id="legs-behind">
	<path class="st2" d="M690.5,314.5c0,0,15.5,36.5,7.5,42.5s-25.5,4.5-25.5,10.5s-3,4,4,9s36,3,43,0s19.3-57.9,19-58"/>
	<path class="st2" d="M509.5,283.5c10.8,4.4,1,55-8,60s-27,3-27,16c0,9,37.5,8,45,4.5s7-22.5,15-30.5s14-27,14-27"/>
	<path class="st2" d="M812.5,234.5c0,0,13,4,16,8s2,7,0,12s-16,11-16,11"/>
	<path class="st2" d="M402.5,198.5c0,0-3-4,0-11s13.6-0.4,13.1-0.9c4.4,2.1,1.9,7.9,1.9,7.9L402.5,198.5z"/>
</g>
<g id="body">
	<path class="st3" d="M358.5,258.5c-8-2-7.5-21.5-0.5-27.5c5.5-3.5,15.5-3.5,22-9s7-12.5,10.5-16.5s11.9-10.9,20.1-11.9
		c9.6-2.3,34.7-7,41.4-9.6c13-5,25.4-13.5,45.5-18.5c0,0,45.6-16.6,46.1-16.6c7.7-3.2,27.9-4.4,50.9-4.4s37,2,52,10s28,16,41,28
		s24,19,40,18s26-4,48,6s28,9,40,32s14,89-4,98c-15.8,4.6-73.8-12.5-120-9c-50.2,9-69.7-8.4-88.3-9.2s-44.7,13.5-69.1-9.3
		c-7.2-5.1-36.7-40.2-49.5-38.5c-13-1-24,0-42,3c-9.2,1.5-24.4,5.7-42.7,5.3c-17.5-0.4-29.8,4.2-34.8,1.2s-7.5-9.5-3.5-12.5
		s27,4,32-5S366.5,260.5,358.5,258.5z"/>
</g>
<g id="details_1_">
	<path class="st4" d="M353.5,237.5c0,0-4-9,1-9s1.1,0,10,0C362.5,231.5,358.8,234.5,353.5,237.5z"/>
	<path class="st2" d="M425,203c0,0-2.5-10.5-0.5-14.5s15,2,15,2l-1,14c0,0-1.5-2.5-2.5-6.5s-5.5-7.5-8.5-1.5S425,203,425,203z"/>
</g>
<g id="legs">
	<path class="st3" d="M545.5,300.5c4.3,21.9,12.4,37.4,16,48c3.2,9.5-18,10-24,15s-6,13,0,14s41,2,45-3s19-69,19-69"/>
	<path class="st3" d="M712.5,317.5c-3,0,25.8,13.3,25.8,13.3s6.7,3.2,17.5,6s15.7,15.7,10.8,18.8c-4.7,3.6-7.8,3-18,9
		c-8,5-11,17,0,17s47,3.5,50-4c3.5-8.6,27-56,22-56"/>
</g>
<circle class="st5" cx="403" cy="218.7" r="5.3"/>
</svg>
