<svg id="Layer_1" data-name="Layer 1" xmlns="http://www.w3.org/2000/svg" width="350" height="500" viewBox="0 0 350 500"><defs><style>.cls-1{fill:#3a221a;stroke:#3a221a;}.cls-1,.cls-2,.cls-3{stroke-miterlimit:10;}.cls-2{fill:#5b3829;stroke:#5b3829;}.cls-3{stroke:#000;}</style></defs><title>bearDie</title><g id="legs-behind"><path class="cls-1" d="M266.18,218.56c.18-.06-6.85-31.42-10.85-33.13s-20.56-2.86-24.56,0-2.29,1.71-2.29,5.14,10,2.57,14.57,6-4.29,24.27-4.29,24.27"/><path class="cls-1" d="M157.65,225.41s-3.43-10.85-8-15.42-4.28-15.42-8.57-17.42-25.7-2.57-25.7,2.57c0,7.42,10.28,6.28,15.42,9.14s10.74,31.76,4.57,34.27"/><path class="cls-1" d="M308.45,248.83s8,3.43,9.14,6.29,1.72,4.57,0,6.85-9.14,4.57-9.14,4.57"/><path class="cls-1" d="M82.82,289.39s1.43,3.31-1.09,4.51c.29-.28-5.77,3.49-7.48-.51s0-6.28,0-6.28Z"/></g><g id="body"><path class="cls-2" d="M69.17,250.55c-2.86-5.14-16-1.15-18.28-2.86s-.86-5.43,2-7.14,9.88.91,19.87.69c10.46-.23,19.14,2.17,24.4,3,10.28,1.72,16.56,2.29,24,1.72,7.31,1,24.16-19.08,28.27-22,13.94-13,28.85-4.85,39.48-5.31s21.76-10.39,50.44-5.25c26.39,2,59.52-7.77,68.54-5.14,10.29,5.14,9.14,42.84,2.29,56s-10.28,12.56-22.85,18.28-18.28,4-27.42,3.42-15.42,3.43-22.85,10.29-14.85,11.42-23.42,16S197.06,318,183.93,318s-24.68-.68-29.08-2.51c-.29,0-26.33-9.48-26.33-9.48-11.49-2.86-18.57-7.71-26-10.57-3.83-1.49-18.17-4.17-23.65-5.48-4.69-.58-9.49-4.52-11.49-6.8s-2.28-6.29-6-9.43-9.43-3.14-12.57-5.14c-4-3.43-4.29-14.57.28-15.71S72,255.69,69.17,250.55Z"/></g><g id="details"><path class="cls-3" d="M52.54,270H46.83c-2.86,0-.57-5.14-.57-5.14C49.29,266.54,51.4,268.26,52.54,270Z"/><path class="cls-1" d="M88.53,288.25c1.71,3.43,4.28,1.43,4.86-.86a15.08,15.08,0,0,1,1.42-3.71l.57,8s-7.42,3.42-8.56,1.14.28-8.28.28-8.28S86.82,284.82,88.53,288.25Z"/></g><g id="legs"><path class="cls-2" d="M187.92,226s-8.56-36.55-10.85-39.41-22.28-2.29-25.7-1.71-3.43,5.14,0,8,15.53,3.14,13.71,8.57c-2.06,6.06-6.69,14.91-9.14,27.42"/><path class="cls-2" d="M313.08,216.79c2.86,0-10.57-27.08-12.57-32-1.71-4.29-22.27-2.29-28.56-2.29s-4.57,6.86,0,9.71c5.83,3.43,7.6,3.09,10.29,5.15,2.79,1.77,0,9.14-6.17,10.73a60.91,60.91,0,0,0-10,3.43s-16.45,7.6-14.74,7.6"/></g><polygon class="cls-3" points="65.7 263.37 73.49 269.41 71.58 271.43 63.8 264.98 65.7 263.37"/><polygon class="cls-3" points="71.58 263.37 63.8 269.41 65.7 271.43 73.49 264.98 71.58 263.37"/></svg>
