<?xml version="1.0" encoding="utf-8"?>
<!-- Generator: Adobe Illustrator 22.1.0, SVG Export Plug-In . SVG Version: 6.00 Build 0)  -->
<svg version="1.1" xmlns="http://www.w3.org/2000/svg" xmlns:xlink="http://www.w3.org/1999/xlink" x="0px" y="0px"
	 viewBox="0 0 350 500" style="enable-background:new 0 0 350 500;" xml:space="preserve">
<style type="text/css">
	.st0{display:none;}
	.st1{fill:#3A221A;stroke:#3A221A;stroke-miterlimit:10;}
	.st2{fill:#5B3829;stroke:#5B3829;stroke-miterlimit:10;}
	.st3{stroke:#000000;stroke-miterlimit:10;}
</style>
<g id="Layer_1">
	<g id="Layer_1_1_" class="st0">

			<image style="display:inline;overflow:visible;enable-background:new    ;" width="720" height="960" xlink:href="BF2AAA0F.jpeg"  transform="matrix(1.259121e-16 -2.0563 2.0563 1.259121e-16 -1357 521.5063)">
		</image>
	</g>
	<g id="legs-behind">
		<path class="st1" d="M264.8,363.9c0.2-0.1-6.9-31.4-10.9-33.1c-4-1.7-20.6-2.9-24.6,0c-4,2.9-2.3,1.7-2.3,5.1s10,2.6,14.6,6
			s-4.3,24.3-4.3,24.3"/>
		<path class="st1" d="M156.2,370.7c0,0-3.4-10.9-8-15.4c-4.6-4.6-4.3-15.4-8.6-17.4s-25.7-2.6-25.7,2.6c0,7.4,10.3,6.3,15.4,9.1
			c5.1,2.9,10.7,31.8,4.6,34.3"/>
		<path class="st1" d="M307,394.2c0,0,8,3.4,9.1,6.3c1.1,2.9,1.7,4.6,0,6.9c-1.7,2.3-9.1,4.6-9.1,4.6"/>
		<path class="st1" d="M81.4,434.7c0,0,1.4,3.3-1.1,4.5c0.3-0.3-5.8,3.5-7.5-0.5c-1.7-4,0-6.3,0-6.3L81.4,434.7z"/>
	</g>
	<g id="body">
		<path class="st2" d="M67.7,395.9c-2.9-5.1-16-1.1-18.3-2.9c-2.3-1.7-0.9-5.4,2-7.1c2.9-1.7,9.9,0.9,19.9,0.7
			c10.5-0.2,19.1,2.2,24.4,3c10.3,1.7,16.6,2.3,24,1.7c7.3,1,24.2-19.1,28.3-22c13.9-13,28.8-4.9,39.5-5.3
			c10.6-0.5,21.8-10.4,50.4-5.3c26.4,2,59.5-7.8,68.5-5.1c10.3,5.1,9.1,42.8,2.3,56s-10.3,12.6-22.8,18.3s-18.3,4-27.4,3.4
			s-15.4,3.4-22.8,10.3c-7.4,6.9-14.9,11.4-23.4,16c-8.6,4.6-16.6,5.7-29.7,5.7c-13.1,0-24.7-0.7-29.1-2.5c-0.3,0-26.3-9.5-26.3-9.5
			c-11.5-2.9-18.6-7.7-26-10.6c-3.8-1.5-18.2-4.2-23.6-5.5c-4.7-0.6-9.5-4.5-11.5-6.8c-2-2.3-2.3-6.3-6-9.4
			c-3.7-3.1-9.4-3.1-12.6-5.1c-4-3.4-4.3-14.6,0.3-15.7C52.3,397,70.6,401,67.7,395.9z"/>
	</g>
	<g id="details_1_">
		<path class="st3" d="M51.1,415.3c-5.1,0-2.9,0-5.7,0c-2.9,0-0.6-5.1-0.6-5.1C47.9,411.9,50,413.6,51.1,415.3z"/>
		<path class="st1" d="M87.1,433.6c1.7,3.4,4.3,1.4,4.9-0.9c0.6-2.3,1.4-3.7,1.4-3.7l0.6,8c0,0-7.4,3.4-8.6,1.1
			c-1.1-2.3,0.3-8.3,0.3-8.3S85.4,430.2,87.1,433.6z"/>
	</g>
	<g id="legs">
		<path class="st2" d="M186.5,371.3c0,0-8.6-36.6-10.9-39.4c-2.3-2.9-22.3-2.3-25.7-1.7c-3.4,0.6-3.4,5.1,0,8s15.5,3.1,13.7,8.6
			c-2.1,6.1-6.7,14.9-9.1,27.4"/>
		<path class="st2" d="M311.7,362.1c2.9,0-10.6-27.1-12.6-32c-1.7-4.3-22.3-2.3-28.6-2.3s-4.6,6.9,0,9.7c5.8,3.4,7.6,3.1,10.3,5.1
			c2.8,1.8,0,9.1-6.2,10.7c-6.2,1.6-10,3.4-10,3.4s-16.5,7.6-14.7,7.6"/>
	</g>
	<polygon class="st3" points="64.3,408.7 72.1,414.7 70.2,416.8 62.4,410.3 	"/>
	<polygon class="st3" points="70.2,408.7 62.4,414.7 64.3,416.8 72.1,410.3 	"/>
</g>
<g id="Layer_2">
	<g id="Layer_3">
	</g>
	<g id="Layer_4">
		<circle class="st2" cx="48" cy="99.8" r="3.5"/>
	</g>
	<g id="Layer_5">
		<path class="st1" d="M128.3,93.5l-4.3-7c-1.6-2,2.6-5.5,4.3-3.5l8.6,3.6L128.3,93.5z"/>
		<path class="st1" d="M164.7,93.1l4.3-7c1.6-2-2.6-5.5-4.3-3.5l-8.6,3.6L164.7,93.1z"/>
	</g>
	<g id="Layer_6">
		<path class="st2" d="M134.8,113.8c0,0-9.5,10.1-15.9,28.9c-6.5,18.8,3,27.3,0,34.9c-3,7.6-6.2,21.1-6.2,33.7s4.2,16.8,7,21.3
			c2.8,4.5,0.9,33,2.8,37.5s11.8,5.5,16.5,0c4.7-5.5-1.3-13.7,3.4-18.7c4.7-5,10.8-6.3,13.3-0.8s1.3,14,3.3,19.5s12.3,3,15.5,0
			c3.2-3,4.2-30.5,4.2-30.5S182,223,182,209s-6-25.5-6-32.5s6.9-15,2.7-36.5c-4.2-21.5-23-28-23-28L134.8,113.8z"/>
	</g>
	<g id="Layer_7">
		<path class="st2" d="M132.5,86c0,0,2-4,14.6-4s13.1,4.8,13.1,4.8s4.8,0.7,4.8,10.7s0,12.2,0,12.2s-5,14.9-20.7,14.9
			s-16.3-18.2-16.3-18.2s-2.7-5.9-0.9-10.5S132.5,86,132.5,86z"/>
	</g>
</g>
</svg>
