<svg id="Layer_1" data-name="Layer 1" xmlns="http://www.w3.org/2000/svg" xmlns:xlink="http://www.w3.org/1999/xlink" width="1920" height="1080" viewBox="0 0 1920 1080"><defs><style>.cls-1{fill:#3a221a;stroke:#3a221a;}.cls-1,.cls-2,.cls-3{stroke-miterlimit:10;}.cls-2{fill:#5b3829;stroke:#5b3829;}.cls-3{stroke:#000;}.cls-4{opacity:0.75;}.cls-4,.cls-6{isolation:isolate;}.cls-5{fill:#ffff71;}.cls-6{fill:#fff;opacity:0.11;}</style></defs><title>bear_1</title><g id="legs-behind"><path class="cls-1" d="M690.5,314.5S706,351,698,357s-25.5,4.5-25.5,10.5-3,4,4,9,36,3,43,0,19.3-57.9,19-58"/><path class="cls-1" d="M509.5,283.5c10.8,4.4,1,55-8,60s-27,3-27,16c0,9,37.5,8,45,4.5s7-22.5,15-30.5,14-27,14-27"/><path class="cls-1" d="M812.5,234.5s13,4,16,8,2,7,0,12-16,11-16,11"/><path class="cls-1" d="M402.5,198.5s-3-4,0-11,15,1,14.5.5a7.41,7.41,0,0,1,.5,6.5Z"/></g><g id="body"><path class="cls-2" d="M358.5,258.5c-8-2-7.5-21.5-.5-27.5,5.5-3.5,15.5-3.5,22-9s7-12.5,10.5-16.5,11.9-10.9,20.1-11.9c9.6-2.3,34.7-7,41.4-9.6,13-5,25.4-13.5,45.5-18.5,0,0,50-21,50.5-21h46.5c23,0,37,2,52,10s28,16,41,28,24,19,40,18,26-4,48,6,28,9,40,32,14,89-4,98c-15.8,4.6-73.8-12.5-120-9-50.2,9-69.7-8.4-88.3-9.2s-44.7,13.5-69.1-9.3c-7.2-5.1-36.7-40.2-49.5-38.5-13-1-24,0-42,3-9.2,1.5-24.4,5.7-42.7,5.3-17.5-.4-29.8,4.2-34.8,1.2s-7.5-9.5-3.5-12.5,27,4,32-5S366.5,260.5,358.5,258.5Z"/></g><g id="details"><path class="cls-1" d="M550.9,146l11.2-32,10.4,32s-1.5,4.5-11.2,4.5S550.9,146,550.9,146Z"/><path class="cls-1" d="M683.2,181l30.2-26.2L706,194.6s-4.1,2.6-14.4-2.9S683.2,181,683.2,181Z"/><path class="cls-1" d="M624.7,147.3l23.4-29-1.1,37s-3.2,4.1-13.2.5S624.7,147.3,624.7,147.3Z"/><path class="cls-1" d="M757.9,202.5l20.5-29.1,2.1,34.6s-3.6,4.1-13.3,1.6S757.9,202.5,757.9,202.5Z"/><path class="cls-1" d="M486.5,170l-.5-32.7,20,25.5s.1,4.5-8.6,7.7S486.5,170,486.5,170Z"/></g><g id="details-2" data-name="details"><path class="cls-3" d="M353.5,237.5s-4-9,1-9h10C362.5,231.5,358.8,234.5,353.5,237.5Z"/><path class="cls-1" d="M425,203s-2.5-10.5-.5-14.5,12-1,15,2-1,14-1,14A26.06,26.06,0,0,1,436,198c-1-4-5.5-7.5-8.5-1.5S425,203,425,203Z"/><image class="cls-4" width="50" height="53" transform="translate(379 194)" xlink:href="BF2AAA0D.png"/><circle class="cls-5" cx="404" cy="220" r="5.5"/><path class="cls-6" d="M403.3,226.6a4.87,4.87,0,0,1-.4,1.1c.5-.6.9-1.2,1.4-1.8l-1.3,1.3,1.2-.9c-2.6,1.2-4.2.9-5.7-.9a8,8,0,0,1-1.8-4.1,7.2,7.2,0,0,1,4.4-7.4,6.87,6.87,0,0,1,7.5,1.1c3,2.5,2.9,5.7,1.7,9.1-.1.4.2,2.5.5,2.1,1.6-2.5,2.9-5.4,2-8.4a9.53,9.53,0,0,0-7.6-6.2,9.28,9.28,0,0,0-8.3,3.6,8.76,8.76,0,0,0-1.9,7.5c.5,2.9,2.5,6.3,5.9,6.3,2.3,0,3.9-2.3,4.6-4.2.2-.6-.9.5-.8.3A4.09,4.09,0,0,0,403.3,226.6Z"/><path class="cls-6" d="M402.6,229.2c-.1.3-.3.7-.4,1a13,13,0,0,1,1-1.5,5.14,5.14,0,0,1-3.6.7c1-5.3,1.9-10.5,2.9-15.8a5.75,5.75,0,0,1,5,.7,4.81,4.81,0,0,1,2.9,4q2.7,1.95,1.8,4.5a14,14,0,0,1-2.2,4.8c-.2.3.2,1.6.5,1.2,1.8-2.5,3.5-5.4,2.7-8.7a11,11,0,0,0-4.5-5.9c-2.8-2-6.1-1.5-9-.1a10.4,10.4,0,0,0-4.8,4.7c-1.4,3.3-.5,9.5,2.7,11.4a4.2,4.2,0,0,0,4.3.5c1.1-.6,1.4-1.6,2-2.7.2-.4-.2-.3-.3-.2C403.2,227.9,402.7,228.9,402.6,229.2Z"/><path class="cls-6" d="M404.2,224.8c-.1.4-.1.8-.2,1.2.2-.3.4-.5.6-.8a15.93,15.93,0,0,1-1.3,1.3c2.1-1.5,4.1-3,6.2-4.6-2.7,1.5-5.4,3-8.2,4.5,2.4-1,4.8-1.9,7.2-2.9-2.4.7-4.8,1.3-7.2,2l6.2-1.5c-3.4,0-6.8-.1-10.2-.1,2.5.4,5,.7,7.4,1.1-2.1-.7-4.1-1.5-6.2-2.2,1.7.7,3.5,1.4,5.2,2.1l-1.1-.8.6.6c0-4,.1-8,.1-12-1,2.7-2,5.5-3,8.2,3-1.7,5.9-3.4,8.9-5.1-2.4.5-4.8,1-7.3,1.6h0c.5.6,3.7.2,4.2.2-.1,0,4.3-.2,4.2-.3-.8,5.2-.9,6.5-.2,4.1a5.28,5.28,0,0,0,.4-2.5,6.16,6.16,0,0,0-1.8-4,7.81,7.81,0,0,0-3.7-2.2,6.45,6.45,0,0,0-5.5,1.2,8.67,8.67,0,0,0-2.9,3.4,6.89,6.89,0,0,0-.2,4.9c.3,1.3,1.3,3.4,2.6,4.1a7.75,7.75,0,0,0,3,.7c1,.1,2.2-1,3.1-1.5l2.7-1.5a9.39,9.39,0,0,0,1.8-1.2,8,8,0,0,0,1.3-4.3,1.37,1.37,0,0,0-.8.5l-2.7,2.4C406.7,222.2,404.4,223.7,404.2,224.8Z"/><path class="cls-6" d="M403.3,226.3l-.3,1.2c.5-.5.9-1.1,1.4-1.6l-1.7,1.7c1.6-1.3,3.2-2.6,4.7-3.9-2,1.4-3.9,2.8-5.9,4.2,1.7-1.1,3.4-2.2,5-3.3-1.3.6-2.5,1.2-3.8,1.9,1.1-.5,2.2-1,3.3-1.4-1.4.2-2.9.4-4.3.7a8.6,8.6,0,0,0,1.6-.1l-2.4-.9a5.09,5.09,0,0,1-1.1-4.1c-.7-1.2-.6-2.1.2-2.6a11,11,0,0,0,2.2-2.1c-.3.2-.6.5-.9.7.7-.4,1.4-.7,2.1-1.1-.3.1-.7.3-1,.4a17,17,0,0,0,2.2-.4c-.4,0-.7.1-1.1.1a16.34,16.34,0,0,1,5.9,3.3l-3.1-2.2c1.1,1.2,2.2,2.5,3.3,3.7-.8-1-1.5-2-2.3-3l2.1,4.5c-.5-1.2-1-2.4-1.5-3.7a18.46,18.46,0,0,0,.4,2.3c.2,1.1.3,2.3.6,3.4,0-.1.4,1.2.4,1.1,1.5-2.9,2.4-6.2,0-9.1a7.61,7.61,0,0,0-5.7-2.9c-4.3-.3-8.4,3.8-8.4,8a10,10,0,0,0,1.6,5.3c1.4,2.1,2.9,1.9,5.1,1.8.9,0,1.8-1.2,2.5-1.7s1.4-1.1,2.1-1.7a8.64,8.64,0,0,0,1.4-1.3,6,6,0,0,0,.8-2.9c-.3,0-.5.2-.7.5-.8.7-1.5,1.5-2.3,2.2C405.2,224,403.5,225.3,403.3,226.3Z"/><path class="cls-6" d="M402.9,226.2c-.1.3-.3.7-.4,1,.4-.4.7-.8,1.1-1.2-3.6,2.5-6.4-1-7.1-4-.9-3.8.9-7.1,4.3-8.9a6.5,6.5,0,0,1,4.7-.9,10.05,10.05,0,0,1,4.5,2.5,7.21,7.21,0,0,1,2.1,2.5c.1.6.1,1.2.2,1.8a12.63,12.63,0,0,1-2,6.2c-.1.2.3,1.2.6.8,1.7-2.5,3.3-5.5,2.6-8.6-.5-2.3-2.6-4.4-4.6-5.6a7.94,7.94,0,0,0-6.7-1,10.13,10.13,0,0,0-6.9,6c-1.5,4,0,11.1,5.3,11.5,1.9.1,3.1-1.2,3.8-2.8.1-.3-.1-.3-.3-.3C403.7,225.2,403,226,402.9,226.2Z"/><path class="cls-6" d="M403.9,224.4a5,5,0,0,0-.2,1.2l5.6-4.4c-3.5,1.5-7,3.1-10.5,4.6,2.4-.4,4.8-.8,7.2-1.3-2.9-.4-5.8-.7-8.7-1.1l5.9,1.5c-.8-.4-1.7-.8-2.5-1.3a10.93,10.93,0,0,0,1.5.8c-1.6-2.3-3-4.7-4.4-7.2.8,1.5,1.7,3.1,2.5,4.6-.4-1.5-.9-3-1.3-4.5.3,1.1.5,2.2.8,3.2a11.49,11.49,0,0,1,2.5-4.6l-1,1.3c2.2-1.7,5.9.2,7.8.7l-3.9-1.2c1.3.8,2.6,1.7,3.9,2.5L406,217l1.2,1.5c-.2-.4-.5-.7-.7-1.1a.37.37,0,0,0,.1.3,16.21,16.21,0,0,0,1.3,3.3,11.7,11.7,0,0,0,1.2,2c1.2-2,2.2-4.2,1.4-6.7s-3.2-4.1-5.5-4.8a7.14,7.14,0,0,0-7.2,2.4,7.68,7.68,0,0,0-1.9,7.5c.6,2.2,2,4.3,4.3,4.9a4.68,4.68,0,0,0,3.3-.5c1.5-.7,3.4-1.3,4.6-2.4s1.4-2.6,1.5-4a.91.91,0,0,0-.7.3c-.8.6-1.5,1.2-2.3,1.8C406.1,222.4,404.1,223.5,403.9,224.4Z"/><path class="cls-6" d="M403.5,227.1l-.3,1.2c1.3-1.5,2.5-3,3.8-4.5-1.4,1.6-2.8,3.1-4.2,4.7,1.5-1.5,3.1-3,4.6-4.5-1.6,1.3-3.2,2.6-4.8,4,1.5-1.1,3-2.2,4.4-3.4-3,1.7-6.4,1.8-7.3-1.7v-4.6a27.94,27.94,0,0,0,4.3-3.4c-.8.6-1.7,1.2-2.5,1.8,1.4-.6,2.7-1.1,4.1-1.7-1,.3-2,.7-3,1l3.3-.3h-2.2c.7.2,1.4.3,2.2.5a5.64,5.64,0,0,1-1.2-.4c1.7,1.3,3.5,2.5,5.2,3.8-1.1-.9-2.2-1.8-3.2-2.8l3.4,4.3c-.8-1.2-1.6-2.3-2.5-3.5.7,1.7,1.5,3.4,2.2,5.1-.5-1.4-1.1-2.8-1.6-4.2.1.8.3,1.7.4,2.5.2,1.3.4,2.5.7,3.8,0-.1.4,1.4.4,1.3,1.3-2.5,2.2-5,1.1-7.7a7.67,7.67,0,0,0-4.2-4.1,8,8,0,0,0-9.4,3,6.63,6.63,0,0,0-1.5,4.5,10.07,10.07,0,0,0,1.2,4.5c.7,1.3,1.4,2.4,2.9,2.8a5,5,0,0,0,2.1.1c1.7-.4,3.1-2.3,4.2-3.4a13.15,13.15,0,0,0,2-2.1,6.11,6.11,0,0,0,.8-3,1.34,1.34,0,0,0-.7.6c-.5.6-1.1,1.2-1.6,1.8-.6.8-1.3,1.5-1.9,2.3A17.67,17.67,0,0,0,403.5,227.1Z"/><path class="cls-6" d="M402.3,225c-.1.4-.2.7-.3,1.1.1-.2.3-.3.4-.5-.4.3-.7.6-1.1.9.6-.4,1.2-.8,1.7-1.1-.5.2-.9.3-1.4.5a6.37,6.37,0,0,1,.7-.2c-4.4.1-6.1-3.2-5.8-6.8a7.76,7.76,0,0,1,3.9-6c2.4-1.4,5.1-1,7.5.3a6,6,0,0,1,3.4,4.6,11.21,11.21,0,0,1-1.7,6.4c-.1.3.2,1.1.5.6,1.5-2.5,3.2-5.9,2.3-8.9-.6-2.1-2.9-4-4.8-5.1a7.87,7.87,0,0,0-6.5-.9,10.15,10.15,0,0,0-4.8,3.3,8.73,8.73,0,0,0-2.1,6.4c.2,3.2,1.8,6.4,5.2,7.1a4.11,4.11,0,0,0,4.9-3.1C404.3,223.5,402.4,224.5,402.3,225Z"/><path class="cls-6" d="M404.1,225.9a5,5,0,0,0-.2,1.2l.6-.9c-.4.5-.8.9-1.2,1.4,2.1-1.8,4.2-3.6,6.2-5.5-2.3,1.8-4.6,3.5-6.8,5.3,2.3-1.5,4.5-3.1,6.8-4.6-3.2,1.4-6.3,2.7-9.5,4.1,2.5-.9,5-1.8,7.6-2.7l-9.4.6c2.2.1,4.5.2,6.7.4-1.1-3.5-2.2-7.1-3.2-10.6-.3,2.4-.7,4.8-1,7.2a12.94,12.94,0,0,0,9.8-3.2c-2.9-.2-5.7-.5-8.6-.7,2.5,2.4,4.9,4.8,7.4,7.1l.2.2a6.42,6.42,0,0,0,1.2-2.5,5.24,5.24,0,0,0,.3-2.5,6.41,6.41,0,0,0-2-4,6.88,6.88,0,0,0-9.1-.8,8.85,8.85,0,0,0-2.8,3.3,7.87,7.87,0,0,0-.3,4.8c.2,1.2,1.2,3.5,2.3,4.2,1.4.9,2.4.6,4.1.4,1.2-.1,3.1-2.3,3.8-2.9s3.1-2.1,3.5-3.3a5.76,5.76,0,0,0,.5-2.9,2.36,2.36,0,0,0-.9.6c-.9.9-1.8,1.9-2.7,2.8C406.5,222.9,404.3,224.6,404.1,225.9Z"/><path class="cls-6" d="M403.2,224.9c-.4.6-.7,1.3-1.1,1.9,1.2-.8,2.3-1.5,3.5-2.3-1.3.7-2.6,1.5-3.9,2.2l3-1.5c-.6.2-1.3.4-1.9.6.4-.1.8-.2,1.3-.3-2.9.4-4.8-.5-5.6-2.7-.2-1-.4-1.9-.6-2.9a5.3,5.3,0,0,1,1.7-4.1c4.1-3.6,10.7-1,9.9,5.4a10.45,10.45,0,0,0,0,2.5c0,.1.1,1,.4.6a10.3,10.3,0,0,0,1.6-5.9,6.38,6.38,0,0,0-1.5-3.7c-2.1-2.6-6.1-4.2-9.3-2.9a9.48,9.48,0,0,0-4.2,3.2,7.73,7.73,0,0,0-1.7,3.8,8.53,8.53,0,0,0,.4,4.2,6.4,6.4,0,0,0,5.6,4.7c.5.1,2-.9,2.3-1,.6-.3,1.9-.7,2.2-1.3.6-1,1.1-2.1,1.7-3.1.3-.5-.8.2-.9.3A12.22,12.22,0,0,0,403.2,224.9Z"/><path class="cls-6" d="M402.3,225.1c-1.1.1-2.1.1-3.2.2l-1.1-.8a6.23,6.23,0,0,1-1.6-3.7,8,8,0,0,1,2.8-7.4c.6-.4,1.1-.7,1.7-1.1,1.2-.2,2.5-.4,3.7-.7a9.33,9.33,0,0,1,3.9,1.5,6.16,6.16,0,0,1,3.2,6,13.21,13.21,0,0,1-2,5.3c-.2.3.3.9.6.5,1.6-2.4,3.4-5.7,2.6-8.7-.6-2.2-2.8-4.2-4.6-5.3a10.45,10.45,0,0,0-4.5-1.5,10.1,10.1,0,0,0-6.5,2.8,9.61,9.61,0,0,0-2.8,5c-.6,3.5.2,8.2,4,9.6,2.1.8,4.3.2,4.9-2.1C403.6,224.1,402.4,224.8,402.3,225.1Z"/><path class="cls-6" d="M403.4,226.7l-.3,1.2c.5-.7,1.1-1.3,1.6-2-.6.6-1.2,1.3-1.8,1.9l6.1-5.2c-2.8,1.8-5.7,3.7-8.5,5.5,2.3-1.2,4.5-2.5,6.8-3.7l-8,1.8,5.4-.9c-2.3-.2-4.6-3.8-5.7-5.2.6.8,1.2,1.5,1.7,2.3-.1-.7-.3-1.5-.4-2.2,0,.2-.1.4-.1.6a5.5,5.5,0,0,1,.9-.7,8.79,8.79,0,0,0,3.6-5.3c-1,1.3-2,2.7-3.1,4,1.3-1,2.6-2,3.8-3-1.1.7-2.2,1.5-3.2,2.2,1.5-.5,3-1.1,4.4-1.6l-3.9,1.2h.9c-.2-.1-.5-.1-.7-.2a44.3,44.3,0,0,0,6,8.2c.2.2.2.2.2-.1a5.45,5.45,0,0,0,1.2-2.4,5.66,5.66,0,0,0,.3-2.6,7.51,7.51,0,0,0-2-4.2,7.16,7.16,0,0,0-9.3-.9,8.92,8.92,0,0,0-3,3.4,7.21,7.21,0,0,0-.4,4.8c.2,1.2,1.2,3.7,2.3,4.5,1.4.9,2.4.6,4,.6,1.1,0,3-2.3,3.7-2.9.9-.8,2.8-2,3.3-3.3a6.53,6.53,0,0,0,.6-2.9,1.56,1.56,0,0,0-.8.6,34.46,34.46,0,0,0-2.6,2.8C405.7,223.8,403.7,225.4,403.4,226.7Z"/></g><g id="legs"><path class="cls-2" d="M545.5,300.5c4.3,21.9,12.4,37.4,16,48,3.2,9.5-18,10-24,15s-6,13,0,14,41,2,45-3,19-69,19-69"/><path class="cls-2" d="M712.5,317.5c-3,0,25.8,13.3,25.8,13.3a106.65,106.65,0,0,0,17.5,6c10.8,2.8,15.7,15.7,10.8,18.8-4.7,3.6-7.8,3-18,9-8,5-11,17,0,17s47,3.5,50-4c3.5-8.6,27-56,22-56"/></g></svg>
