<svg id="forgrund" xmlns="http://www.w3.org/2000/svg" width="1600" height="900" viewBox="0 0 1600 900"><defs><style>.cls-1{fill:#354941;}.cls-2{fill:#2b3a33;}.cls-3{fill:#08211e;}</style></defs><title>forgrund</title><g id="Layer_11" data-name="Layer 11"><path class="cls-1" d="M1604,620l-144-65s-68-15-125,0-156,136-156,136l-39,102,463,49Z"/><path class="cls-2" d="M1232,892l43-130s-51-87-109-101-139,0-139,0-107,30-133,56-34,67-34,67l-28,66Z"/></g><path class="cls-3" d="M1601,775.56c-1.81-.85-26,31.54-66.5,31.45-37.68-.08-89.51-32.69-150.69-32.37-25.48.13-52.58-17.51-81-17.34-24.06.15-49,18.1-74.72,18.26-36.15.23-59.78-13.7-98.14-13.47-33.47.21-66.42,29.91-100.74,30.1-39.42.22-73.08-36.4-112.51-36.23-35.24.15-91.35,21.77-125.71,21.86-35.29.09-36.77-17.41-70.23-17.41-35.61,0-64.75,55.73-125.43,48.63-42-.16-125.89-94.92-160.49-95.35-38.17-.48-86.68,48.69-147.45,57.82S179.83,684.27,138,601.09,107.6,332.78,128.53,278,245.09,148.16,245.09,148.16s88.67-41.59,139.47-43.62,90.66,10.14,90.66,10.14l75.22,26.89S519.06,82.22,474.23,66,321.8,47.73,321.8,47.73c-117,15.37-115.07,17.76-126,2.54S230.14-15,230.14-15l-107.9,4.76S90.67,39.62,74.73,29.48,62.77-4,62.77-4L-3.53-9.47-6,906.93,1599,912S1601,798.39,1601,775.56Z"/></svg>
