<?xml version="1.0" encoding="utf-8"?>
<!-- Generator: Adobe Illustrator 22.1.0, SVG Export Plug-In . SVG Version: 6.00 Build 0)  -->
<svg version="1.1" id="Layer_1" xmlns="http://www.w3.org/2000/svg" xmlns:xlink="http://www.w3.org/1999/xlink" x="0px" y="0px"
	 viewBox="0 0 1400 1000" style="enable-background:new 0 0 1400 1000;" xml:space="preserve">
<style type="text/css">
	.st0{fill:#939393;stroke:#939393;stroke-width:3;stroke-miterlimit:10;}
	.st1{fill:#FFFFFF;stroke:#FFFFFF;stroke-width:3;stroke-miterlimit:10;}
	.st2{fill:#C7EFF9;stroke:#C7EFF9;stroke-width:3;stroke-miterlimit:10;}
	.st3{stroke:#000000;stroke-width:3;stroke-miterlimit:10;}
	.st4{fill:#FFFFFF;}
	.st5{fill:none;stroke:#FFFFFF;stroke-width:3;stroke-miterlimit:10;}
</style>
<title>fox-ani-02</title>
<g id="Layer_1_copy_4">
	<g id="Layer_1_1_">
		<g id="Layer_3">
			<g id="Layer_10">
				<path class="st0" d="M163.5,306.2c0,0-1.5,31.3,8.1,45.5s12.6,0,12.6,0c1.5-8.2,3.5-16.3,6.1-24.2c3.5-10.8,13.9-25.3,13.9-21"
					/>
				<path class="st0" d="M256.9,313.7c0,0-1,21.2,8.6,35.4s12.6,3.5,12.6,3.5l7.6-55"/>
			</g>
			<g id="Layer_5">
				<path class="st1" d="M224.1,217.8c-1,0.6,10.9,21.1,11.9,20.4c0,0-33.6,0.8-51.8-5.8s-40.4-2.8-49.2-2.5
					c-12.9,1.5-35.1,7.6-47.7,25.2c-12.6,17.7-61.1,66.7-73.7,71.2s36.4,24.8,57.1,16.2s21.4-16.9,23.2-29.3c0,0-0.3-3.5-0.4-8.6
					c-0.4-11.4-0.6-30.5,2.9-34.3c5-5.5,9.1,1,9.1,1l13.1,32.8l2.3,15.5l42.2-8.4c5.9-2.6,12.3-3.8,18.7-3.5
					c10.6,0.5,29.3,7.6,29.3,7.6s20.7,10.1,38.4,9.6s29.3-10.1,33.8-18.7s3.8-25.4,4.8-36.1c1-11.1,3.8-11.4,8.8-14.4
					c5-3,24.3-4,29.8-6.1c1.9-0.4,3.5-1.4,4.5-3l4-9.6c-35.4-35.4-96-39.9-96-39.9L224.1,217.8z"/>
			</g>
			<path class="st2" d="M270.5,172.3c-1.8-7.1-10-18.6-26.8-35.9l-11.1,17.7c-6,8.5,0,23.2,0,23.2l-25.8,23.7l10.1,2.5l-4,8.1
				l11.1,6.1c8.7-9.4,19.3-15.8,34.3-15.7c0,0,10.1,2.5,12.1,4.6s13.6,13.1,22.7,21.7S318,237,318,237l16.7-0.5l-2-8.1l9.6-6.1
				l-5-7.6l6.8-4.3L333.7,191c3.9-2.8,6.9-6.6,8.6-11.1c3-7.6-6.2-21-15.1-32.8c-9.9,6.7-17.7,16.2-22.3,27.3
				c-6.3-2.9-12.1-4.2-16.7-0.5C281.6,169.2,275.5,169.9,270.5,172.3z"/>
			<g id="Layer_7">
				<circle class="st3" cx="264.5" cy="218.3" r="9.1"/>
				<circle class="st4" cx="267" cy="215.8" r="4.8"/>
				<circle class="st4" cx="260.2" cy="222.6" r="2"/>
				<circle class="st3" cx="321.9" cy="216.9" r="7.7"/>
				<circle class="st4" cx="324.1" cy="214.8" r="4"/>
				<circle class="st4" cx="318.3" cy="220.6" r="1.7"/>
				<path d="M319.8,236.7c0,1.9,7.4,6,8.6,5.6c3.1-1.1,6.6-5.6,6.6-5.6H319.8z"/>
				<polygon class="st1" points="295.8,179.4 291.2,190.5 301.3,200.6 304.9,191 				"/>
				<polygon class="st5" points="278.6,189.6 271.1,181.3 265.2,191.6 273,197.9 				"/>
				<polygon class="st5" points="324.1,190.2 318,183.5 313.1,191.9 319.5,197 				"/>
				<path d="M334.5,236.7c-4.3,1.2-23.7-9.3-28.8-25.8C307.6,220.6,318.4,238.3,334.5,236.7z"/>
			</g>
		</g>
		<g id="Layer_12">
			<path class="st2" d="M93.3,300.6l-21.7,4v-7l-17.7,7.1l2-6.6l-14.7,6.6c0,0-10.6,12.6-22.2,18.7s-13.1,6.1-13.1,6.1
				s22.7,9.1,29.8,12.1s16.7,3,25.8,3s18.7-3.5,23.2-7.1s9.6-12.6,9.6-20.7C94.2,311.4,93.9,306,93.3,300.6z"/>
		</g>
		<g id="Layer_9">
			<path class="st1" d="M217.5,304.7c0,0,4,38.4,13.6,52.5s12.6,0,12.6,0l6.1-49.5"/>
			<path class="st1" d="M116.7,298.3c0,0,4,40.5,13.7,55.5s12.7,0,12.7,0c1.5-8.6,3.5-17.2,6.1-25.5c3.5-11.4,13.9-26.7,13.9-22.2"
				/>
		</g>
	</g>
</g>
<g id="Layer_1_copy_2">
	<g id="Layer_1-2">
		<g id="Layer_3-2">
			<g id="Layer_10-2">
				<path class="st0" d="M500.6,312.2c0,0,9.2,30,23.1,40s11.9-4.3,11.9-4.3c-1.4-8.2-2.2-16.5-2.5-24.9
					c-0.4-11.4,4.5-28.5,5.9-24.4"/>
				<path class="st0" d="M602.4,309.8c0,0-7.8,19.8-3.3,36.2s10.8,7.4,10.8,7.4l24.9-49.7"/>
			</g>
			<g id="Layer_5-2">
				<path class="st1" d="M574.1,217.8c-1,0.6,10.9,21.1,11.9,20.4c0,0-33.6,0.8-51.8-5.8s-40.4-2.8-49.2-2.5
					c-12.9,1.5-35.1,7.6-47.7,25.2c-12.6,17.7-61.1,66.7-73.7,71.2s36.4,24.8,57.1,16.2s21.4-16.9,23.2-29.3c0,0-0.3-3.5-0.4-8.6
					c-0.4-11.4-0.6-30.5,2.9-34.3c5-5.5,9.1,1,9.1,1l13.1,32.8l2.3,15.5l42.2-8.4c5.9-2.6,12.3-3.8,18.7-3.5
					c10.6,0.5,29.3,7.6,29.3,7.6s20.7,10.1,38.4,9.6s29.3-10.1,33.8-18.7s3.8-25.4,4.8-36.1c1-11.1,3.8-11.4,8.8-14.4
					c5-3,24.3-4,29.8-6.1c1.9-0.4,3.5-1.4,4.5-3l4-9.6c-35.4-35.4-96-39.9-96-39.9L574.1,217.8z"/>
			</g>
			<path class="st2" d="M620.5,172.3c-1.8-7.1-10-18.6-26.8-35.9l-11.1,17.7c-6,8.5,0,23.2,0,23.2l-25.8,23.7l10.1,2.5l-4,8.1
				l11.1,6.1c8.7-9.4,19.3-15.8,34.3-15.7c0,0,10.1,2.5,12.1,4.6s13.6,13.1,22.7,21.7S668,237,668,237l16.7-0.5l-2-8.1l9.6-6.1
				l-5-7.6l6.8-4.3L683.7,191c3.9-2.8,6.9-6.6,8.6-11.1c3-7.6-6.2-21-15.2-32.8c-9.9,6.7-17.7,16.2-22.3,27.3
				c-6.3-2.9-12.1-4.2-16.7-0.5C631.6,169.2,625.5,169.9,620.5,172.3z"/>
			<g id="Layer_7-2">
				<circle class="st3" cx="614.5" cy="218.3" r="9.1"/>
				<circle class="st4" cx="617" cy="215.8" r="4.8"/>
				<circle class="st4" cx="610.2" cy="222.6" r="2"/>
				<circle class="st3" cx="671.9" cy="216.9" r="7.7"/>
				<circle class="st4" cx="674.1" cy="214.8" r="4"/>
				<circle class="st4" cx="668.3" cy="220.6" r="1.7"/>
				<path d="M669.8,236.7c0,1.9,7.4,6,8.6,5.6c3.1-1.1,6.6-5.6,6.6-5.6H669.8z"/>
				<polygon class="st1" points="645.8,179.4 641.2,190.5 651.3,200.6 654.9,191 				"/>
				<polygon class="st5" points="628.5,189.6 621.1,181.3 615.2,191.6 623,197.9 				"/>
				<polygon class="st5" points="674.1,190.2 667.9,183.5 663.1,191.9 669.5,197 				"/>
				<path d="M684.5,236.7c-4.3,1.2-23.7-9.3-28.8-25.8C657.6,220.6,668.4,238.3,684.5,236.7z"/>
			</g>
		</g>
		<g id="Layer_12-2">
			<path class="st2" d="M443.3,300.6l-21.7,4v-7l-17.6,7.1l2-6.6l-14.6,6.6c0,0-10.6,12.6-22.2,18.7s-13.1,6.1-13.1,6.1
				s22.7,9.1,29.8,12.1s16.7,3,25.8,3s18.7-3.5,23.2-7.1s9.6-12.6,9.6-20.7C444.2,311.4,443.9,306,443.3,300.6z"/>
		</g>
		<g id="Layer_9-2">
			<path class="st1" d="M562.9,313.9c0,0,14.3,35.8,27.4,46.8s12.2-3.4,12.2-3.4l-7.6-49.3"/>
			<path class="st1" d="M468.2,290.1c0,0-10.8,39.2-7.2,56.7s11.8,4.6,11.8,4.6c4.5-7.5,9.5-14.8,14.9-21.6
				c7.4-9.4,22.6-19.9,21-15.7"/>
		</g>
	</g>
</g>
<g id="Layer_1_copy_3">
	<g id="Layer_1-3">
		<g id="Layer_3-3">
			<g id="Layer_10-3">
				<path class="st0" d="M862.5,306.2c0,0-1.5,31.3,8.1,45.5s12.6,0,12.6,0c1.5-8.2,3.5-16.3,6.1-24.2c3.5-10.8,13.9-25.3,13.9-21"
					/>
				<path class="st0" d="M955.9,313.7c0,0-1,21.2,8.6,35.4s12.6,3.5,12.6,3.5l7.6-55"/>
			</g>
			<g id="Layer_5-3">
				<path class="st1" d="M923.1,217.8c-1,0.6,10.9,21.1,11.9,20.4c0,0-33.6,0.8-51.8-5.8s-40.4-2.8-49.2-2.5
					c-12.9,1.5-35.1,7.6-47.7,25.2c-12.6,17.7-61.1,66.7-73.7,71.2s36.4,24.8,57.1,16.2s21.4-16.9,23.2-29.3c0,0-0.3-3.5-0.4-8.6
					c-0.4-11.4-0.6-30.5,2.9-34.3c5-5.5,9.1,1,9.1,1l13.1,32.8l2.3,15.5l42.2-8.4c5.9-2.6,12.3-3.8,18.7-3.5
					c10.6,0.5,29.3,7.6,29.3,7.6s20.7,10.1,38.4,9.6s29.3-10.1,33.8-18.7s3.8-25.4,4.8-36.1c1-11.1,3.8-11.4,8.8-14.4
					c5-3,24.3-4,29.8-6.1c1.9-0.4,3.5-1.4,4.6-3l4-9.6c-35.4-35.4-96-39.9-96-39.9L923.1,217.8z"/>
			</g>
			<path class="st2" d="M969.5,172.3c-1.8-7.1-10-18.6-26.8-35.9l-11.1,17.7c-6,8.5,0,23.2,0,23.2l-25.8,23.7l10.1,2.5l-4,8.1
				l11.1,6.1c8.7-9.4,19.3-15.8,34.3-15.7c0,0,10.1,2.5,12.1,4.6s13.6,13.1,22.7,21.7s24.7,8.6,24.7,8.6l16.7-0.5l-2-8.1l9.6-6.1
				l-5-7.6l6.8-4.3l-10.3-19.4c3.9-2.8,6.9-6.6,8.6-11.1c3-7.6-6.2-21-15.2-32.8c-9.9,6.7-17.7,16.2-22.3,27.3
				c-6.3-2.9-12.1-4.2-16.7-0.5C980.6,169.2,974.5,169.9,969.5,172.3z"/>
			<g id="Layer_7-3">
				<circle class="st3" cx="963.5" cy="218.3" r="9.1"/>
				<circle class="st4" cx="966" cy="215.8" r="4.8"/>
				<circle class="st4" cx="959.2" cy="222.6" r="2"/>
				<circle class="st3" cx="1020.9" cy="216.9" r="7.7"/>
				<path class="st4" d="M1023.1,210.7c2.2,0,4,1.8,4,4s-1.8,4-4,4s-4-1.8-4-4S1020.8,210.7,1023.1,210.7z"/>
				<circle class="st4" cx="1017.3" cy="220.6" r="1.7"/>
				<path d="M1018.8,236.7c0,1.9,7.4,6,8.6,5.6c3.1-1.1,6.6-5.6,6.6-5.6H1018.8z"/>
				<polygon class="st1" points="994.8,179.4 990.2,190.5 1000.3,200.6 1003.9,191 				"/>
				<polygon class="st5" points="977.5,189.6 970.1,181.3 964.2,191.6 972,197.9 				"/>
				<polygon class="st5" points="1023.1,190.2 1016.9,183.5 1012.1,191.9 1018.5,197 				"/>
				<path d="M1033.5,236.7c-4.3,1.2-23.7-9.3-28.8-25.8C1006.6,220.6,1017.4,238.3,1033.5,236.7z"/>
			</g>
		</g>
		<g id="Layer_12-3">
			<path class="st2" d="M792.3,300.6l-21.7,4v-7l-17.7,7.1l2-6.6l-14.7,6.6c0,0-10.6,12.6-22.2,18.7s-13.1,6.1-13.1,6.1
				s22.7,9.1,29.8,12.1s16.7,3,25.8,3s18.7-3.5,23.2-7.1s9.6-12.6,9.6-20.7C793.2,311.4,792.9,306,792.3,300.6z"/>
		</g>
		<g id="Layer_9-3">
			<path class="st1" d="M916.5,304.7c0,0,4,38.4,13.6,52.5s12.6,0,12.6,0l6.1-49.5"/>
			<path class="st1" d="M815.7,298.3c0,0,4,40.5,13.7,55.5s12.7,0,12.7,0c1.5-8.6,3.5-17.2,6.1-25.5c3.5-11.4,13.9-26.7,13.9-22.2"
				/>
		</g>
	</g>
</g>
<g id="Layer_1_copy">
	<g id="Layer_1-4">
		<g id="Layer_3-4">
			<g id="Layer_10-4">
				<path class="st0" d="M1207.4,292.9c0,0-13.6,28.3-10.2,45s11.6,4.9,11.6,4.9c4.6-7,9.6-13.7,15-20c7.4-8.6,22.6-17.9,20.9-13.9"
					/>
				<path class="st0" d="M1303.7,319.4c0,0,2.7,21.1,14.6,33.3s13,1.3,13,1.3l-2.1-55.5"/>
			</g>
			<g id="Layer_5-4">
				<path class="st1" d="M1274.1,217.8c-1,0.6,10.9,21.1,11.9,20.4c0,0-33.6,0.8-51.8-5.8s-40.4-2.8-49.2-2.5
					c-12.9,1.5-35.1,7.6-47.7,25.2c-12.6,17.7-61.1,66.7-73.7,71.2s36.4,24.8,57.1,16.2s21.4-16.9,23.2-29.3c0,0-0.3-3.5-0.4-8.6
					c-0.4-11.4-0.6-30.5,2.9-34.3c5-5.5,9.1,1,9.1,1l13.1,32.8l8.4,15.5l36.1-8.3c5.9-2.6,12.3-3.8,18.7-3.5
					c10.6,0.5,29.3,7.6,29.3,7.6s20.7,10.1,38.4,9.6s29.3-10.1,33.8-18.7s3.8-25.4,4.8-36.1c1-11.1,3.8-11.4,8.8-14.4
					c5-3,24.3-4,29.8-6.1c1.9-0.4,3.5-1.4,4.6-3l4-9.6c-35.4-35.4-96-39.9-96-39.9L1274.1,217.8z"/>
			</g>
			<path class="st2" d="M1320.5,172.3c-1.8-7.1-10.1-18.6-26.8-35.9l-11.1,17.7c-6,8.5,0,23.2,0,23.2l-25.8,23.7l10.1,2.5l-4,8.1
				l11.1,6.1c8.7-9.4,19.3-15.8,34.3-15.7c0,0,10.1,2.5,12.1,4.6s13.6,13.1,22.7,21.7s24.7,8.6,24.7,8.6l16.7-0.5l-2-8.1l9.6-6.1
				l-5-7.6l6.8-4.3l-10.3-19.4c3.9-2.8,6.9-6.6,8.6-11.1c3-7.6-6.2-21-15.2-32.8c-9.9,6.7-17.7,16.2-22.3,27.3
				c-6.3-2.9-12.1-4.2-16.7-0.5C1331.6,169.2,1325.5,169.9,1320.5,172.3z"/>
			<g id="Layer_7-4">
				<circle class="st3" cx="1314.5" cy="218.3" r="9.1"/>
				<circle class="st4" cx="1317" cy="215.8" r="4.8"/>
				<circle class="st4" cx="1310.2" cy="222.6" r="2"/>
				<circle class="st3" cx="1371.9" cy="216.9" r="7.7"/>
				<circle class="st4" cx="1374.1" cy="214.8" r="4"/>
				<circle class="st4" cx="1368.3" cy="220.6" r="1.7"/>
				<path d="M1369.8,236.7c0.1,1.9,7.4,6,8.6,5.6c3.1-1.1,6.6-5.6,6.6-5.6H1369.8z"/>
				<polygon class="st1" points="1345.8,179.4 1341.2,190.5 1351.3,200.6 1354.9,191 				"/>
				<polygon class="st5" points="1328.6,189.6 1321.1,181.3 1315.2,191.6 1323,197.9 				"/>
				<polygon class="st5" points="1374.1,190.2 1368,183.5 1363.1,191.9 1369.5,197 				"/>
				<path d="M1384.5,236.7c-4.3,1.2-23.7-9.3-28.8-25.8C1357.6,220.6,1368.4,238.3,1384.5,236.7z"/>
			</g>
		</g>
		<g id="Layer_12-4">
			<path class="st2" d="M1143.3,300.6l-21.7,4v-7l-17.7,7.1l2-6.6l-14.7,6.6c0,0-10.6,12.6-22.2,18.7s-13.1,6.1-13.1,6.1
				s22.7,9.1,29.8,12.1s16.7,3,25.8,3s18.7-3.5,23.2-7.1s9.6-12.6,9.6-20.7C1144.2,311.4,1143.9,306,1143.3,300.6z"/>
		</g>
		<g id="Layer_9-4">
			<path class="st1" d="M1279.6,301.9c0,0-12,36.7-9,53.5s11.5,5.2,11.5,5.2l25.8-42.7"/>
			<path class="st1" d="M1166.3,296.5c0,0,8.4,39.8,19.7,53.6s12.6-1.4,12.6-1.4c0.5-8.7,1.6-17.5,3.3-26.1
				c2.3-11.7,10.9-28.1,11.4-23.6"/>
		</g>
	</g>
</g>
<title>fox-ani-02</title>
<g id="Layer_1_copy_4_1_">
	<g id="Layer_1_2_">
		<g id="Layer_3_1_">
			<g id="Layer_10_1_">
				<path class="st0" d="M1195.8,737.8c0-4.3,10.4,10.2,13.9,21c2.5,7.9,4.6,16,6.1,24.2c0,0,3,14.1,12.6,0
					c9.6-14.1,8.1-45.5,8.1-45.5"/>
				<path class="st0" d="M1114.3,729l7.6,55c0,0,3.1,10.6,12.6-3.5c9.6-14.1,8.6-35.4,8.6-35.4"/>
			</g>
			<g id="Layer_5_1_">
				<path class="st1" d="M1160.8,628.5c0,0-60.6,4.5-96,39.9l4,9.6c1.1,1.6,2.7,2.6,4.6,3c5.5,2.1,24.8,3,29.8,6.1
					c5.1,3,7.8,3.3,8.8,14.4c1,10.8,0.3,27.5,4.8,36.1c4.6,8.6,16.2,18.2,33.8,18.7c17.7,0.5,38.4-9.6,38.4-9.6s18.7-7.1,29.3-7.6
					c6.4-0.3,12.8,0.9,18.7,3.5l42.2,8.4l2.3-15.5l13.1-32.8c0,0,4.1-6.5,9.1-1c3.5,3.8,3.3,23,2.9,34.3c-0.2,5-0.4,8.6-0.4,8.6
					c1.9,12.4,2.5,20.7,23.2,29.3c20.7,8.6,69.7-11.6,57.1-16.2s-61.1-53.5-73.7-71.2s-34.8-23.7-47.7-25.3
					c-8.8-0.3-31.1-4-49.2,2.5c-18.2,6.6-51.8,5.8-51.8,5.8c1,0.6,12.9-19.8,11.9-20.5L1160.8,628.5z"/>
			</g>
			<path class="st2" d="M1111.7,605.2c-4.5-3.7-10.4-2.4-16.7,0.5c-4.6-11.1-12.3-20.5-22.3-27.3c-9,11.8-18.2,25.2-15.2,32.8
				c1.7,4.5,4.7,8.3,8.6,11.1l-10.3,19.4l6.8,4.3l-5.1,7.6l9.6,6.1l-2,8.1l16.7,0.5c0,0,15.7,0,24.7-8.6
				c9.1-8.6,20.7-19.7,22.7-21.7c2-2,12.1-4.5,12.1-4.5c15-0.2,25.7,6.3,34.3,15.7l11.1-6.1l-4-8.1l10.1-2.5l-25.8-23.7
				c0,0,6-14.8,0-23.2l-11.1-17.7c-16.7,17.2-25,28.7-26.8,35.9C1124.4,601.3,1118.3,600.6,1111.7,605.2z"/>
			<g id="Layer_7_1_">
				<circle class="st3" cx="1135.5" cy="649.7" r="9.1"/>
				<circle class="st4" cx="1133" cy="647.2" r="4.8"/>
				<circle class="st4" cx="1139.8" cy="654" r="2"/>
				<circle class="st3" cx="1078.1" cy="648.3" r="7.7"/>
				<circle class="st4" cx="1075.9" cy="646.1" r="4"/>
				<circle class="st4" cx="1081.7" cy="652" r="1.7"/>
				<path d="M1065,668c0,0,3.4,4.4,6.6,5.5c1.2,0.5,8.5-3.6,8.6-5.5H1065z"/>
				<polygon class="st1" points="1095.1,622.4 1098.6,632 1108.7,621.9 1104.2,610.8 				"/>
				<polygon class="st5" points="1127,629.3 1134.8,623 1128.8,612.7 1121.4,620.9 				"/>
				<polygon class="st5" points="1080.4,628.4 1086.9,623.3 1082,614.8 1075.8,621.5 				"/>
				<path d="M1094.3,642.4c-5.2,16.5-24.6,26.9-28.8,25.8C1081.6,669.7,1092.3,652,1094.3,642.4z"/>
			</g>
		</g>
		<g id="Layer_12_1_">
			<path class="st2" d="M1305.7,748.1c0,8.1,5.1,17.2,9.6,20.7c4.5,3.5,14.1,7.1,23.2,7.1c9.1,0,18.7,0,25.8-3
				c7.1-3,29.8-12.1,29.8-12.1s-1.5,0-13.1-6.1s-22.2-18.7-22.2-18.7l-14.7-6.6l2,6.6l-17.7-7.1v7l-21.7-4
				C1306.1,737.4,1305.8,742.7,1305.7,748.1z"/>
		</g>
		<g id="Layer_9_1_">
			<path class="st1" d="M1150.1,739.1l6.1,49.5c0,0,3,14.2,12.6,0c9.6-14.1,13.6-52.5,13.6-52.5"/>
			<path class="st1" d="M1236.8,737.5c0-4.5,10.4,10.8,13.9,22.2c2.6,8.4,4.6,16.9,6.1,25.5c0,0,3,15,12.7,0
				c9.7-15,13.7-55.5,13.7-55.5"/>
		</g>
	</g>
</g>
<g id="Layer_1_copy_2_1_">
	<g id="Layer_1-2_1_">
		<g id="Layer_3-2_1_">
			<g id="Layer_10-2_1_">
				<path class="st0" d="M861,730c1.5-4,6.3,13.1,5.9,24.4c-0.3,8.3-1.2,16.6-2.5,24.8c0,0-2,14.3,11.9,4.3s23.1-40,23.1-40"/>
				<path class="st0" d="M765.1,735.1l24.9,49.7c0,0,6.3,9.1,10.8-7.4c4.5-16.5-3.3-36.2-3.3-36.2"/>
			</g>
			<g id="Layer_5-2_1_">
				<path class="st1" d="M810.8,628.5c0,0-60.6,4.5-96,39.9l4,9.6c1.1,1.6,2.7,2.6,4.5,3c5.5,2.1,24.8,3,29.8,6.1s7.8,3.3,8.8,14.4
					c1,10.8,0.2,27.5,4.8,36.1c4.6,8.6,16.2,18.2,33.8,18.7s38.4-9.6,38.4-9.6s18.7-7.1,29.3-7.6c6.4-0.3,12.8,0.9,18.7,3.5
					l42.2,8.4l2.3-15.5l13.1-32.8c0,0,4-6.5,9.1-1c3.5,3.8,3.3,23,2.9,34.3c-0.1,5-0.4,8.6-0.4,8.6c1.9,12.4,2.5,20.7,23.2,29.3
					c20.7,8.6,69.7-11.6,57.1-16.2s-61.1-53.5-73.7-71.2s-34.9-23.7-47.7-25.3c-8.8-0.3-31.1-4-49.2,2.5s-51.8,5.8-51.8,5.8
					c1,0.6,12.9-19.8,11.9-20.5L810.8,628.5z"/>
			</g>
			<path class="st2" d="M761.7,605.2c-4.5-3.7-10.4-2.4-16.7,0.5c-4.6-11.1-12.3-20.5-22.3-27.3c-9,11.8-18.2,25.2-15.2,32.8
				c1.7,4.5,4.7,8.3,8.6,11.1l-10.3,19.4l6.8,4.3l-5,7.6l9.6,6.1l-2,8.1l16.7,0.5c0,0,15.7,0,24.7-8.6c9.1-8.6,20.7-19.7,22.7-21.7
				s12.1-4.5,12.1-4.5c15-0.2,25.7,6.3,34.3,15.7l11.1-6.1l-4-8.1l10.1-2.5l-25.8-23.7c0,0,6-14.8,0-23.2l-11.1-17.7
				c-16.8,17.2-25,28.7-26.8,35.9C774.4,601.3,768.3,600.6,761.7,605.2z"/>
			<g id="Layer_7-2_1_">
				<circle class="st3" cx="785.5" cy="649.7" r="9.1"/>
				<circle class="st4" cx="783" cy="647.2" r="4.8"/>
				<circle class="st4" cx="789.8" cy="654" r="2"/>
				<circle class="st3" cx="728.1" cy="648.3" r="7.7"/>
				<circle class="st4" cx="725.9" cy="646.1" r="4"/>
				<circle class="st4" cx="731.7" cy="652" r="1.7"/>
				<path d="M715,668c0,0,3.4,4.4,6.6,5.5c1.2,0.5,8.6-3.6,8.6-5.5H715z"/>
				<polygon class="st1" points="745.1,622.4 748.6,632 758.7,621.9 754.2,610.8 				"/>
				<polygon class="st5" points="777,629.3 784.8,623 778.8,612.7 771.4,620.9 				"/>
				<polygon class="st5" points="730.4,628.4 736.9,623.3 732,614.8 725.8,621.5 				"/>
				<path d="M744.3,642.4c-5.2,16.5-24.6,26.9-28.8,25.8C731.6,669.7,742.3,652,744.3,642.4z"/>
			</g>
		</g>
		<g id="Layer_12-2_1_">
			<path class="st2" d="M955.7,748.1c0,8.1,5.1,17.2,9.6,20.7c4.5,3.5,14.1,7.1,23.2,7.1c9.1,0,18.7,0,25.8-3
				c7.1-3,29.8-12.1,29.8-12.1s-1.5,0-13.1-6.1s-22.2-18.7-22.2-18.7l-14.6-6.6l2,6.6l-17.7-7.1v7l-21.7-4
				C956.1,737.4,955.8,742.7,955.7,748.1z"/>
		</g>
		<g id="Layer_9-2_1_">
			<path class="st1" d="M805.1,739.4l-7.6,49.3c0,0-0.9,14.4,12.2,3.4s27.4-46.8,27.4-46.8"/>
			<path class="st1" d="M891.2,745.4c-1.6-4.2,13.6,6.3,21,15.7c5.4,6.9,10.4,14.1,14.9,21.6c0,0,8.2,12.9,11.8-4.6
				c3.6-17.4-7.2-56.7-7.2-56.7"/>
		</g>
	</g>
</g>
<g id="Layer_1_copy_3_1_">
	<g id="Layer_1-3_1_">
		<g id="Layer_3-3_1_">
			<g id="Layer_10-3_1_">
				<path class="st0" d="M496.8,737.8c0-4.3,10.4,10.2,13.9,21c2.5,7.9,4.6,16,6.1,24.2c0,0,3,14.1,12.6,0s8.1-45.5,8.1-45.5"/>
				<path class="st0" d="M415.3,729l7.6,55c0,0,3,10.6,12.6-3.5c9.6-14.1,8.6-35.4,8.6-35.4"/>
			</g>
			<g id="Layer_5-3_1_">
				<path class="st1" d="M461.8,628.5c0,0-60.6,4.5-96,39.9l4,9.6c1.1,1.6,2.7,2.6,4.6,3c5.6,2.1,24.8,3,29.8,6.1s7.8,3.3,8.8,14.4
					c1,10.8,0.2,27.5,4.8,36.1c4.6,8.6,16.2,18.2,33.8,18.7s38.4-9.6,38.4-9.6s18.7-7.1,29.3-7.6c6.4-0.3,12.8,0.9,18.7,3.5
					l42.2,8.4l2.3-15.5l13.1-32.8c0,0,4-6.5,9.1-1c3.5,3.8,3.3,23,2.9,34.3c-0.2,5-0.4,8.6-0.4,8.6c1.9,12.4,2.5,20.7,23.2,29.3
					c20.7,8.6,69.7-11.6,57.1-16.2s-61.1-53.5-73.7-71.2s-34.9-23.7-47.7-25.3c-8.8-0.3-31.1-4-49.2,2.5
					c-18.2,6.6-51.8,5.8-51.8,5.8c1,0.6,12.9-19.8,11.9-20.5L461.8,628.5z"/>
			</g>
			<path class="st2" d="M412.7,605.2c-4.5-3.7-10.4-2.4-16.7,0.5c-4.6-11.1-12.4-20.5-22.3-27.3c-9,11.8-18.2,25.2-15.2,32.8
				c1.7,4.5,4.7,8.3,8.6,11.1l-10.3,19.4l6.8,4.3l-5,7.6l9.6,6.1l-2,8.1l16.7,0.5c0,0,15.7,0,24.7-8.6c9.1-8.6,20.7-19.7,22.7-21.7
				s12.1-4.5,12.1-4.5c15-0.2,25.7,6.3,34.3,15.7l11.1-6.1l-4-8.1l10.1-2.5l-25.8-23.7c0,0,6-14.8,0-23.2l-11.1-17.7
				c-16.8,17.2-25,28.7-26.8,35.9C425.4,601.3,419.3,600.6,412.7,605.2z"/>
			<g id="Layer_7-3_1_">
				<circle class="st3" cx="436.5" cy="649.7" r="9.1"/>
				<circle class="st4" cx="434" cy="647.2" r="4.8"/>
				<circle class="st4" cx="440.8" cy="654" r="2"/>
				<circle class="st3" cx="379.1" cy="648.3" r="7.7"/>
				<circle class="st4" cx="376.9" cy="646.1" r="4"/>
				<circle class="st4" cx="382.7" cy="652" r="1.7"/>
				<path d="M366,668c0,0,3.4,4.4,6.6,5.5c1.2,0.5,8.6-3.6,8.6-5.5H366z"/>
				<polygon class="st1" points="396.1,622.4 399.6,632 409.7,621.9 405.2,610.8 				"/>
				<polygon class="st5" points="428,629.3 435.8,623 429.8,612.7 422.4,620.9 				"/>
				<polygon class="st5" points="381.4,628.4 387.9,623.3 383,614.8 376.9,621.5 				"/>
				<path d="M395.3,642.4c-5.2,16.5-24.5,26.9-28.8,25.8C382.6,669.7,393.3,652,395.3,642.4z"/>
			</g>
		</g>
		<g id="Layer_12-3_1_">
			<path class="st2" d="M606.7,748.1c0,8.1,5.1,17.2,9.6,20.7c4.5,3.5,14.1,7.1,23.2,7.1s18.7,0,25.8-3c7.1-3,29.8-12.1,29.8-12.1
				s-1.5,0-13.1-6.1S659.8,736,659.8,736l-14.7-6.6l2,6.6l-17.7-7.1v7l-21.7-4C607.1,737.4,606.8,742.7,606.7,748.1z"/>
		</g>
		<g id="Layer_9-3_1_">
			<path class="st1" d="M451.1,739.1l6.1,49.5c0,0,3,14.2,12.6,0c9.6-14.1,13.6-52.5,13.6-52.5"/>
			<path class="st1" d="M537.8,737.5c0-4.5,10.4,10.8,13.9,22.2c2.6,8.4,4.6,16.9,6.1,25.5c0,0,3,15,12.7,0s13.7-55.5,13.7-55.5"/>
		</g>
	</g>
</g>
<g id="Layer_1_copy_1_">
	<g id="Layer_1-4_1_">
		<g id="Layer_3-4_1_">
			<g id="Layer_10-4_1_">
				<path class="st0" d="M155.2,740.3c-1.7-4,13.5,5.3,20.9,13.9c5.4,6.3,10.4,13,15,20c0,0,8.3,11.8,11.6-4.9s-10.2-45-10.2-45"/>
				<path class="st0" d="M70.8,729.9l-2.1,55.5c0,0,1.1,11,13-1.3s14.6-33.3,14.6-33.3"/>
			</g>
			<g id="Layer_5-4_1_">
				<path class="st1" d="M110.8,628.5c0,0-60.6,4.5-96,39.9l4,9.6c1.1,1.6,2.7,2.6,4.6,3c5.6,2.1,24.8,3,29.8,6.1s7.8,3.3,8.8,14.4
					c1,10.8,0.3,27.5,4.8,36.1c4.5,8.6,16.2,18.2,33.8,18.7s38.4-9.6,38.4-9.6s18.7-7.1,29.3-7.6c6.4-0.3,12.8,0.9,18.7,3.5
					l36.1,8.3l8.4-15.5l13.1-32.8c0,0,4.1-6.5,9.1-1c3.5,3.8,3.3,23,2.9,34.3c-0.2,5-0.4,8.6-0.4,8.6c1.9,12.4,2.5,20.7,23.2,29.3
					c20.7,8.6,69.7-11.6,57.1-16.2s-61.1-53.5-73.7-71.2s-34.8-23.7-47.7-25.3c-8.8-0.3-31.1-4-49.2,2.5s-51.8,5.8-51.8,5.8
					c1,0.6,12.9-19.8,11.9-20.5L110.8,628.5z"/>
			</g>
			<path class="st2" d="M61.7,605.2c-4.5-3.7-10.4-2.4-16.7,0.5c-4.6-11.1-12.4-20.5-22.3-27.3c-9,11.8-18.2,25.2-15.2,32.8
				c1.7,4.5,4.7,8.3,8.6,11.1L5.8,641.9l6.8,4.3l-5,7.6l9.6,6.1l-2,8.1l16.7,0.5c0,0,15.7,0,24.7-8.6c9.1-8.6,20.7-19.7,22.7-21.7
				s12.1-4.5,12.1-4.5c15-0.2,25.7,6.3,34.3,15.7l11.1-6.1l-4-8.1l10.1-2.5l-25.8-23.7c0,0,6-14.8,0-23.2l-11.1-17.7
				c-16.7,17.2-25,28.7-26.8,35.9C74.4,601.3,68.3,600.6,61.7,605.2z"/>
			<g id="Layer_7-4_1_">
				<circle class="st3" cx="85.5" cy="649.7" r="9.1"/>
				<circle class="st4" cx="83" cy="647.2" r="4.8"/>
				<circle class="st4" cx="89.8" cy="654" r="2"/>
				<circle class="st3" cx="28.1" cy="648.3" r="7.7"/>
				<circle class="st4" cx="25.9" cy="646.1" r="4"/>
				<circle class="st4" cx="31.7" cy="652" r="1.7"/>
				<path d="M15,668c0,0,3.4,4.4,6.6,5.5c1.2,0.5,8.5-3.6,8.6-5.5H15z"/>
				<polygon class="st1" points="45.1,622.4 48.6,632 58.7,621.9 54.2,610.8 				"/>
				<polygon class="st5" points="77,629.3 84.8,623 78.8,612.7 71.4,620.9 				"/>
				<polygon class="st5" points="30.4,628.4 36.9,623.3 32,614.8 25.8,621.5 				"/>
				<path d="M44.3,642.4c-5.2,16.5-24.5,26.9-28.8,25.8C31.6,669.7,42.3,652,44.3,642.4z"/>
			</g>
		</g>
		<g id="Layer_12-4_1_">
			<path class="st2" d="M255.7,748.1c0,8.1,5.1,17.2,9.6,20.7c4.5,3.5,14.1,7.1,23.2,7.1s18.7,0,25.8-3c7.1-3,29.8-12.1,29.8-12.1
				s-1.5,0-13.1-6.1S308.8,736,308.8,736l-14.7-6.6l2,6.6l-17.7-7.1v7l-21.7-4C256.1,737.4,255.8,742.7,255.7,748.1z"/>
		</g>
		<g id="Layer_9-4_1_">
			<path class="st1" d="M92,749.3l25.8,42.7c0,0,8.5,11.7,11.5-5.2c3-16.8-9-53.5-9-53.5"/>
			<path class="st1" d="M186.7,730.5c0.5-4.5,9.2,11.8,11.4,23.6c1.6,8.6,2.7,17.3,3.3,26.1c0,0,1.4,15.2,12.6,1.4
				s19.7-53.6,19.7-53.6"/>
		</g>
	</g>
</g>
</svg>
