<svg id="Layer_1" data-name="Layer 1" xmlns="http://www.w3.org/2000/svg" width="1397.99" height="232.32" viewBox="0 0 1397.99 232.32"><defs><style>.cls-1{fill:#939393;stroke:#939393;}.cls-1,.cls-2,.cls-3,.cls-4,.cls-6{stroke-miterlimit:10;stroke-width:3px;}.cls-2,.cls-5{fill:#fff;}.cls-2,.cls-6{stroke:#fff;}.cls-3{fill:#c7eff9;stroke:#c7eff9;}.cls-4{stroke:#000;}.cls-6{fill:none;}</style></defs><title>fox-ani-02-02.2</title><g id="Layer_1_copy_4" data-name="Layer 1 copy 4"><g id="Layer_1-2" data-name="Layer 1"><g id="Layer_3" data-name="Layer 3"><g id="Layer_10" data-name="Layer 10"><path class="cls-1" d="M1198,320.21c0-4.25,10.4,10.19,13.89,21a192.58,192.58,0,0,1,6.06,24.24s3,14.14,12.62,0,8.08-45.45,8.08-45.45" transform="translate(-6.02 -147.88)"/><path class="cls-1" d="M1116.44,311.4l7.57,55.05s3,10.62,12.63-3.53,8.58-35.36,8.58-35.36" transform="translate(-6.02 -147.88)"/></g><g id="Layer_5" data-name="Layer 5"><path class="cls-2" d="M1163,210.89s-60.64,4.55-96,39.9l4,9.6a7.16,7.16,0,0,0,4.55,3c5.55,2.06,24.75,3,29.8,6.06s7.83,3.28,8.83,14.39c1,10.76.25,27.53,4.8,36.11s16.17,18.17,33.84,18.68,38.38-9.59,38.38-9.59,18.69-7.07,29.29-7.58a41,41,0,0,1,18.69,3.54l42.17,8.36,2.32-15.45,13.08-32.78s4.09-6.55,9.09-1c3.49,3.84,3.33,23,2.93,34.34-.15,5-.4,8.59-.4,8.59,1.87,12.37,2.53,20.7,23.23,29.29s69.68-11.61,57.06-16.16-61.11-53.53-73.73-71.21-34.85-23.74-47.72-25.25c-8.84-.25-31.06-4-49.24,2.52s-51.77,5.81-51.77,5.81c1,.61,12.87-19.85,11.87-20.45Z" transform="translate(-6.02 -147.88)"/></g><path class="cls-3" d="M1113.88,187.67c-4.54-3.68-10.4-2.42-16.66.51A61.57,61.57,0,0,0,1075,160.91c-9,11.82-18.15,25.25-15.15,32.82a24.52,24.52,0,0,0,8.59,11.11l-10.35,19.45,6.81,4.29-5,7.57,9.6,6.06-2,8.08,16.67.51s15.65,0,24.74-8.59,20.71-19.69,22.73-21.71,12.12-4.55,12.12-4.55c15-.15,25.65,6.27,34.34,15.66l11.11-6.06-4-8.08,10.1-2.53-25.76-23.71s6-14.75,0-23.23l-11.11-17.7c-16.71,17.22-25,28.74-26.76,35.86C1126.59,183.73,1120.48,183,1113.88,187.67Z" transform="translate(-6.02 -147.88)"/><g id="Layer_7" data-name="Layer 7"><circle class="cls-4" cx="1131.63" cy="84.23" r="9.09"/><circle class="cls-5" cx="1129.1" cy="81.71" r="4.8"/><circle class="cls-5" cx="1135.92" cy="88.52" r="2.02"/><circle class="cls-4" cx="1074.21" cy="82.87" r="7.73"/><circle class="cls-5" cx="1072.03" cy="80.7" r="4.04"/><circle class="cls-5" cx="1077.84" cy="86.51" r="1.72"/><path d="M1067.2,250.55s3.43,4.44,6.56,5.55c1.21.45,8.54-3.63,8.59-5.55Z" transform="translate(-6.02 -147.88)"/><polygon class="cls-2" points="1091.23 56.96 1094.76 66.56 1104.86 56.46 1100.32 45.35 1091.23 56.96"/><polygon class="cls-6" points="1123.14 63.83 1130.92 57.52 1124.96 47.27 1117.54 55.5 1123.14 63.83"/><polygon class="cls-6" points="1076.58 62.97 1082.99 57.82 1078.14 49.39 1071.98 56.1 1076.58 62.97"/><path d="M1096.49,224.79c-5.15,16.46-24.55,26.92-28.84,25.76C1083.71,252.11,1094.47,234.39,1096.49,224.79Z" transform="translate(-6.02 -147.88)"/></g></g><g id="Layer_12" data-name="Layer 12"><path class="cls-3" d="M1307.84,330.56c0,8.08,5.06,17.18,9.6,20.71s14.14,7.07,23.23,7.07,18.68,0,25.75-3,29.8-12.12,29.8-12.12-1.51,0-13.13-6.06-22.22-18.69-22.22-18.69l-14.65-6.56,2,6.56-17.65-7.07v7l-21.72-4A155.36,155.36,0,0,0,1307.84,330.56Z" transform="translate(-6.02 -147.88)"/></g><g id="Layer_9" data-name="Layer 9"><path class="cls-2" d="M1152.29,321.5l6.06,49.5s3,14.15,12.63,0,13.63-52.53,13.63-52.53" transform="translate(-6.02 -147.88)"/><path class="cls-2" d="M1239,319.89c0-4.55,10.4,10.75,13.93,22.17a209.12,209.12,0,0,1,6.11,25.55s3,14.95,12.68,0,13.69-55.45,13.69-55.45" transform="translate(-6.02 -147.88)"/></g></g></g><g id="Layer_1_copy_2" data-name="Layer 1 copy 2"><g id="Layer_1-2-2" data-name="Layer 1-2"><g id="Layer_3-2" data-name="Layer 3-2"><g id="Layer_10-2" data-name="Layer 10-2"><path class="cls-1" d="M863.2,312.41c1.46-4,6.33,13.09,5.93,24.44a190.07,190.07,0,0,1-2.55,24.85s-2,14.3,11.88,4.3,23-40,23-40" transform="translate(-6.02 -147.88)"/><path class="cls-1" d="M767.22,317.55l24.92,49.66s6.29,9.07,10.81-7.41-3.27-36.23-3.27-36.23" transform="translate(-6.02 -147.88)"/></g><g id="Layer_5-2" data-name="Layer 5-2"><path class="cls-2" d="M813,210.89s-60.64,4.55-96,39.9l4,9.6a7.16,7.16,0,0,0,4.55,3c5.55,2.06,24.75,3,29.8,6.06s7.83,3.28,8.83,14.39c1,10.76.25,27.53,4.8,36.11s16.17,18.17,33.84,18.68S841.18,329,841.18,329s18.69-7.07,29.29-7.58A41,41,0,0,1,889.16,325l42.17,8.36,2.32-15.45,13.08-32.78s4-6.55,9.09-1c3.49,3.84,3.33,23,2.93,34.34-.15,5-.4,8.59-.4,8.59,1.86,12.37,2.53,20.7,23.23,29.29s69.68-11.61,57.06-16.16S977.53,286.66,964.91,269s-34.85-23.74-47.72-25.25c-8.84-.25-31.06-4-49.24,2.52s-51.77,5.81-51.77,5.81c1,.61,12.87-19.85,11.87-20.45Z" transform="translate(-6.02 -147.88)"/></g><path class="cls-3" d="M763.88,187.67c-4.54-3.68-10.4-2.42-16.66.51A61.57,61.57,0,0,0,725,160.91c-9,11.82-18.15,25.25-15.15,32.82a24.52,24.52,0,0,0,8.59,11.11l-10.35,19.45,6.81,4.29-5.05,7.57,9.6,6.06-2,8.08,16.67.51s15.65,0,24.74-8.59,20.71-19.69,22.73-21.71S793.67,216,793.67,216c15-.15,25.65,6.27,34.34,15.66l11.11-6.06-4-8.08,10.1-2.53-25.76-23.71s6-14.75,0-23.23l-11.11-17.7c-16.76,17.22-25,28.74-26.76,35.86C776.59,183.73,770.48,183,763.88,187.67Z" transform="translate(-6.02 -147.88)"/><g id="Layer_7-2" data-name="Layer 7-2"><circle class="cls-4" cx="781.63" cy="84.23" r="9.09"/><circle class="cls-5" cx="779.1" cy="81.71" r="4.8"/><circle class="cls-5" cx="785.92" cy="88.52" r="2.02"/><circle class="cls-4" cx="724.21" cy="82.87" r="7.73"/><circle class="cls-5" cx="722.03" cy="80.7" r="4.04"/><circle class="cls-5" cx="727.84" cy="86.51" r="1.72"/><path d="M717.2,250.55s3.43,4.44,6.56,5.55c1.21.45,8.59-3.63,8.59-5.55Z" transform="translate(-6.02 -147.88)"/><polygon class="cls-2" points="741.23 56.96 744.76 66.56 754.86 56.46 750.32 45.35 741.23 56.96"/><polygon class="cls-6" points="773.14 63.83 780.92 57.52 774.96 47.27 767.54 55.5 773.14 63.83"/><polygon class="cls-6" points="726.58 62.97 732.99 57.82 728.15 49.39 721.98 56.1 726.58 62.97"/><path d="M746.49,224.79c-5.15,16.46-24.55,26.92-28.84,25.76C733.71,252.11,744.47,234.39,746.49,224.79Z" transform="translate(-6.02 -147.88)"/></g></g><g id="Layer_12-2" data-name="Layer 12-2"><path class="cls-3" d="M957.84,330.56c0,8.08,5.06,17.18,9.6,20.71s14.14,7.07,23.23,7.07,18.68,0,25.75-3,29.8-12.12,29.8-12.12-1.51,0-13.13-6.06-22.22-18.69-22.22-18.69l-14.65-6.56,2,6.56-17.65-7.07v7l-21.72-4A155.36,155.36,0,0,0,957.84,330.56Z" transform="translate(-6.02 -147.88)"/></g><g id="Layer_9-2" data-name="Layer 9-2"><path class="cls-2" d="M807.29,321.86l-7.63,49.27s-.93,14.44,12.15,3.44,27.41-46.83,27.41-46.83" transform="translate(-6.02 -147.88)"/><path class="cls-2" d="M893.33,327.8c-1.61-4.24,13.6,6.3,21,15.68a210.79,210.79,0,0,1,14.89,21.65s8.2,12.86,11.82-4.56-7.17-56.66-7.17-56.66" transform="translate(-6.02 -147.88)"/></g></g></g><g id="Layer_1_copy_3" data-name="Layer 1 copy 3"><g id="Layer_1-3" data-name="Layer 1-3"><g id="Layer_3-3" data-name="Layer 3-3"><g id="Layer_10-3" data-name="Layer 10-3"><path class="cls-1" d="M499,320.21c0-4.25,10.4,10.19,13.89,21A192.58,192.58,0,0,1,519,365.45s3,14.14,12.62,0S539.65,320,539.65,320" transform="translate(-6.02 -147.88)"/><path class="cls-1" d="M417.44,311.4,425,366.45s3.05,10.62,12.63-3.53,8.58-35.36,8.58-35.36" transform="translate(-6.02 -147.88)"/></g><g id="Layer_5-3" data-name="Layer 5-3"><path class="cls-2" d="M464,210.89s-60.64,4.55-96,39.9l4,9.6a7.16,7.16,0,0,0,4.55,3c5.55,2.06,24.75,3,29.8,6.06s7.83,3.28,8.83,14.39c1,10.76.25,27.53,4.8,36.11s16.17,18.17,33.84,18.68S492.18,329,492.18,329s18.69-7.07,29.29-7.58A41,41,0,0,1,540.16,325l42.17,8.36,2.32-15.45,13.08-32.78s4-6.55,9.09-1c3.49,3.84,3.33,23,2.93,34.34-.15,5-.4,8.59-.4,8.59,1.86,12.37,2.53,20.7,23.23,29.29s69.68-11.61,57.06-16.16S628.53,286.66,615.91,269s-34.85-23.74-47.72-25.25c-8.84-.25-31.06-4-49.24,2.52s-51.77,5.81-51.77,5.81c1,.61,12.87-19.85,11.87-20.45Z" transform="translate(-6.02 -147.88)"/></g><path class="cls-3" d="M414.88,187.67c-4.54-3.68-10.4-2.42-16.66.51a61.57,61.57,0,0,0-22.31-27.27c-9,11.82-18.15,25.25-15.15,32.82a24.52,24.52,0,0,0,8.59,11.11L359,224.29l6.81,4.29-5,7.57,9.6,6.06-2,8.08,16.67.51s15.65,0,24.74-8.59,20.71-19.69,22.73-21.71S444.67,216,444.67,216c15-.15,25.65,6.27,34.34,15.66l11.11-6.06-4-8.08,10.1-2.53-25.76-23.71s6-14.75,0-23.23l-11.11-17.7c-16.76,17.22-25,28.74-26.76,35.86C427.59,183.73,421.48,183,414.88,187.67Z" transform="translate(-6.02 -147.88)"/><g id="Layer_7-3" data-name="Layer 7-3"><circle class="cls-4" cx="432.63" cy="84.23" r="9.09"/><circle class="cls-5" cx="430.1" cy="81.71" r="4.8"/><circle class="cls-5" cx="436.92" cy="88.52" r="2.02"/><circle class="cls-4" cx="375.21" cy="82.87" r="7.73"/><circle class="cls-5" cx="373.03" cy="80.7" r="4.04"/><circle class="cls-5" cx="378.84" cy="86.51" r="1.72"/><path d="M368.2,250.55s3.43,4.44,6.56,5.55c1.21.45,8.59-3.63,8.59-5.55Z" transform="translate(-6.02 -147.88)"/><polygon class="cls-2" points="392.23 56.96 395.76 66.56 405.86 56.46 401.32 45.35 392.23 56.96"/><polygon class="cls-6" points="424.14 63.83 431.92 57.52 425.96 47.27 418.54 55.5 424.14 63.83"/><polygon class="cls-6" points="377.58 62.97 383.99 57.82 379.15 49.39 372.98 56.1 377.58 62.97"/><path d="M397.49,224.79c-5.15,16.46-24.55,26.92-28.84,25.76C384.71,252.11,395.47,234.39,397.49,224.79Z" transform="translate(-6.02 -147.88)"/></g></g><g id="Layer_12-3" data-name="Layer 12-3"><path class="cls-3" d="M608.84,330.56c0,8.08,5.06,17.18,9.6,20.71s14.14,7.07,23.23,7.07,18.68,0,25.75-3,29.8-12.12,29.8-12.12-1.51,0-13.13-6.06-22.22-18.69-22.22-18.69l-14.65-6.56,2,6.56-17.65-7.07v7l-21.72-4A155.36,155.36,0,0,0,608.84,330.56Z" transform="translate(-6.02 -147.88)"/></g><g id="Layer_9-3" data-name="Layer 9-3"><path class="cls-2" d="M453.29,321.5l6.06,49.5s3,14.15,12.63,0,13.63-52.53,13.63-52.53" transform="translate(-6.02 -147.88)"/><path class="cls-2" d="M540,319.89c0-4.55,10.4,10.75,13.93,22.17A209.12,209.12,0,0,1,560,367.61s3,14.95,12.68,0,13.69-55.45,13.69-55.45" transform="translate(-6.02 -147.88)"/></g></g></g><g id="Layer_1_copy" data-name="Layer 1 copy"><g id="Layer_1-4" data-name="Layer 1-4"><g id="Layer_3-4" data-name="Layer 3-4"><g id="Layer_10-4" data-name="Layer 10-4"><path class="cls-1" d="M157.37,322.71c-1.67-4,13.53,5.3,20.94,13.9a188.23,188.23,0,0,1,15,20s8.29,11.83,11.63-4.91-10.24-45-10.24-45" transform="translate(-6.02 -147.88)"/><path class="cls-1" d="M72.93,312.32l-2.14,55.52s1.08,11,13-1.27,14.62-33.32,14.62-33.32" transform="translate(-6.02 -147.88)"/></g><g id="Layer_5-4" data-name="Layer 5-4"><path class="cls-2" d="M113,210.92s-60.64,4.55-96,39.9l4,9.6a7.16,7.16,0,0,0,4.55,3c5.55,2.06,24.75,3,29.8,6.06s7.83,3.28,8.83,14.39c1,10.76.25,27.53,4.8,36.11s16.17,18.17,33.84,18.68,38.38-9.59,38.38-9.59,18.69-7.07,29.29-7.58A41,41,0,0,1,189.16,325l36.06,8.33,8.43-15.45,13.08-32.78s4.09-6.55,9.09-1c3.49,3.84,3.33,23,2.93,34.34-.15,5-.4,8.59-.4,8.59,1.86,12.37,2.53,20.7,23.23,29.29s69.68-11.61,57.06-16.16S277.53,286.66,264.91,269s-34.85-23.74-47.72-25.25c-8.84-.25-31.06-4-49.24,2.52s-51.77,5.81-51.77,5.81c1,.61,12.87-19.85,11.87-20.45Z" transform="translate(-6.02 -147.88)"/></g><path class="cls-3" d="M63.88,187.67c-4.54-3.68-10.4-2.42-16.66.51a61.57,61.57,0,0,0-22.31-27.27c-9,11.82-18.15,25.25-15.15,32.82a24.52,24.52,0,0,0,8.59,11.11L8,224.29l6.81,4.29-5,7.57,9.6,6.06-2,8.08,16.67.51s15.65,0,24.74-8.59,20.71-19.69,22.73-21.71S93.67,216,93.67,216c15-.15,25.65,6.27,34.34,15.66l11.11-6.06-4-8.08,10.1-2.53-25.76-23.71s6-14.75,0-23.23l-11.11-17.7c-16.71,17.22-25,28.74-26.76,35.86C76.59,183.73,70.48,183,63.88,187.67Z" transform="translate(-6.02 -147.88)"/><g id="Layer_7-4" data-name="Layer 7-4"><circle class="cls-4" cx="81.63" cy="84.23" r="9.09"/><circle class="cls-5" cx="79.1" cy="81.71" r="4.8"/><circle class="cls-5" cx="85.92" cy="88.52" r="2.02"/><circle class="cls-4" cx="24.21" cy="82.87" r="7.73"/><circle class="cls-5" cx="22.03" cy="80.7" r="4.04"/><circle class="cls-5" cx="27.84" cy="86.51" r="1.72"/><path d="M17.2,250.55s3.43,4.44,6.56,5.55c1.21.45,8.54-3.63,8.59-5.55Z" transform="translate(-6.02 -147.88)"/><polygon class="cls-2" points="41.23 56.96 44.76 66.56 54.86 56.46 50.32 45.35 41.23 56.96"/><polygon class="cls-6" points="73.14 63.83 80.92 57.52 74.96 47.27 67.54 55.5 73.14 63.83"/><polygon class="cls-6" points="26.58 62.97 32.99 57.82 28.14 49.39 21.98 56.1 26.58 62.97"/><path d="M46.49,224.79c-5.15,16.46-24.55,26.92-28.84,25.76C33.71,252.11,44.47,234.39,46.49,224.79Z" transform="translate(-6.02 -147.88)"/></g></g><g id="Layer_12-4" data-name="Layer 12-4"><path class="cls-3" d="M257.84,330.56c0,8.08,5.06,17.18,9.6,20.71s14.14,7.07,23.23,7.07,18.68,0,25.75-3,29.8-12.12,29.8-12.12-1.51,0-13.13-6.06-22.22-18.69-22.22-18.69l-14.65-6.56,2,6.56-17.65-7.07v7l-21.72-4A155.36,155.36,0,0,0,257.84,330.56Z" transform="translate(-6.02 -147.88)"/></g><g id="Layer_9-4" data-name="Layer 9-4"><path class="cls-2" d="M94.2,331.69,120,374.39s8.53,11.67,11.53-5.16-9-53.51-9-53.51" transform="translate(-6.02 -147.88)"/><path class="cls-2" d="M188.84,312.89c.5-4.52,9.16,11.83,11.43,23.56a211.51,211.51,0,0,1,3.27,26.07s1.37,15.2,12.6,1.39,19.68-53.62,19.68-53.62" transform="translate(-6.02 -147.88)"/></g></g></g></svg>
