<svg xmlns="http://www.w3.org/2000/svg" width="1400" height="500" viewBox="0 0 1400 500"><defs><style>.cls-1{fill:#d66363;}.cls-1,.cls-5{stroke:#000;}.cls-1,.cls-2,.cls-3,.cls-4,.cls-5,.cls-7{stroke-miterlimit:10;}.cls-2{fill:#939393;stroke:#939393;}.cls-2,.cls-3,.cls-4,.cls-5,.cls-7{stroke-width:3px;}.cls-3,.cls-6{fill:#fff;}.cls-3,.cls-7{stroke:#fff;}.cls-4{fill:#c7eff9;stroke:#c7eff9;}.cls-7{fill:none;}</style></defs><title>fox-anima</title><g id="Layer_1_copy_4" data-name="Layer 1 copy 4"><rect class="cls-1" width="350" height="500"/><g id="Layer_1" data-name="Layer 1"><g id="Layer_3" data-name="Layer 3"><g id="Layer_10" data-name="Layer 10"><path class="cls-2" d="M165.57,320s-1.52,31.31,8.08,45.45,12.62,0,12.62,0a193,193,0,0,1,6.06-24.24c3.49-10.81,13.89-25.25,13.89-21"/><path class="cls-2" d="M259,327.56s-1,21.21,8.58,35.36,12.63,3.53,12.63,3.53l7.57-55.05"/></g><g id="Layer_5" data-name="Layer 5"><path class="cls-3" d="M226.17,231.61c-1,.6,10.86,21.06,11.87,20.45,0,0-33.59.76-51.77-5.81s-40.4-2.77-49.24-2.52c-12.87,1.51-35.1,7.57-47.72,25.25S28.2,335.64,15.58,340.19s36.36,24.75,57.06,16.16S94,339.43,95.87,327.06c0,0-.25-3.54-.4-8.59-.4-11.36-.56-30.5,2.93-34.34,5-5.55,9.09,1,9.09,1l13.08,32.78,2.32,15.45L165.06,325a41,41,0,0,1,18.69-3.54c10.6.51,29.29,7.58,29.29,7.58s20.71,10.1,38.38,9.59,29.29-10.1,33.84-18.68,3.84-25.35,4.8-36.11c1-11.11,3.78-11.36,8.83-14.39s24.25-4,29.8-6.06a7.15,7.15,0,0,0,4.55-3l4-9.6c-35.36-35.35-96-39.9-96-39.9Z"/></g><path class="cls-4" d="M272.63,186.16c-1.76-7.12-10.05-18.64-26.76-35.86L234.76,168c-6,8.48,0,23.23,0,23.23L209,214.94l10.1,2.53-4,8.08,11.11,6.06c8.69-9.39,19.34-15.81,34.34-15.66,0,0,10.1,2.53,12.12,4.55s13.64,13.13,22.73,21.71,24.74,8.59,24.74,8.59l16.67-.51-2-8.08,9.6-6.06-5.05-7.57,6.81-4.29-10.35-19.45a24.52,24.52,0,0,0,8.59-11.11c3-7.57-6.17-21-15.15-32.82A61.56,61.56,0,0,0,307,188.18c-6.26-2.93-12.12-4.19-16.66-.51C283.74,183,277.63,183.73,272.63,186.16Z"/><g id="Layer_7" data-name="Layer 7"><circle class="cls-5" cx="266.57" cy="232.11" r="9.09"/><circle class="cls-6" cx="269.1" cy="229.59" r="4.8"/><circle class="cls-6" cx="262.28" cy="236.4" r="2.02"/><circle class="cls-5" cx="323.99" cy="230.75" r="7.73"/><circle class="cls-6" cx="326.17" cy="228.58" r="4.04"/><circle class="cls-6" cx="320.36" cy="234.39" r="1.72"/><path d="M321.87,250.55c.05,1.92,7.38,6,8.59,5.55,3.13-1.11,6.56-5.55,6.56-5.55Z"/><polygon class="cls-3" points="297.88 193.23 293.34 204.34 303.44 214.44 306.97 204.84 297.88 193.23"/><polygon class="cls-7" points="280.66 203.38 273.24 195.15 267.28 205.4 275.06 211.71 280.66 203.38"/><polygon class="cls-7" points="326.22 203.98 320.06 197.27 315.21 205.7 321.62 210.85 326.22 203.98"/><path d="M336.57,250.55c-4.29,1.16-23.69-9.3-28.84-25.76C309.75,234.39,320.51,252.11,336.57,250.55Z"/></g></g><g id="Layer_12" data-name="Layer 12"><path class="cls-4" d="M95.37,314.43l-21.72,4V311.4L56,318.47l2-6.56-14.65,6.56s-10.6,12.63-22.22,18.69S8,343.22,8,343.22s22.73,9.09,29.8,12.12,16.66,3,25.75,3,18.69-3.54,23.23-7.07,9.6-12.63,9.6-20.71A155.77,155.77,0,0,0,95.37,314.43Z"/></g><g id="Layer_9" data-name="Layer 9"><path class="cls-3" d="M219.61,318.47s4,38.38,13.63,52.53,12.63,0,12.63,0l6.06-49.5"/><path class="cls-3" d="M118.85,312.16s4,40.5,13.69,55.45,12.68,0,12.68,0a209.57,209.57,0,0,1,6.11-25.55c3.53-11.42,13.93-26.72,13.93-22.17"/></g></g></g><g id="Layer_1_copy_2" data-name="Layer 1 copy 2"><polyline class="cls-1" points="351 500 351 0 701 0 701 500"/><g id="Layer_1-2" data-name="Layer 1"><g id="Layer_3-2" data-name="Layer 3"><g id="Layer_10-2" data-name="Layer 10"><path class="cls-2" d="M503.71,326s9.22,30,23.05,40,11.88-4.3,11.88-4.3a189.9,189.9,0,0,1-2.55-24.85c-.4-11.35,4.47-28.47,5.93-24.44"/><path class="cls-2" d="M605.54,323.57s-7.79,19.75-3.27,36.23,10.81,7.41,10.81,7.41L638,317.55"/></g><g id="Layer_5-2" data-name="Layer 5"><path class="cls-3" d="M577.17,231.61c-1,.6,10.86,21.06,11.87,20.45,0,0-33.59.76-51.77-5.81s-40.4-2.77-49.24-2.52c-12.87,1.51-35.1,7.57-47.72,25.25s-61.11,66.66-73.73,71.21,36.36,24.75,57.06,16.16,21.37-16.92,23.23-29.29c0,0-.25-3.54-.4-8.59-.4-11.36-.56-30.5,2.93-34.34,5.05-5.55,9.09,1,9.09,1l13.08,32.78,2.32,15.45L516.06,325a41,41,0,0,1,18.69-3.54c10.6.51,29.29,7.58,29.29,7.58s20.71,10.1,38.38,9.59,29.29-10.1,33.84-18.68,3.84-25.35,4.8-36.11c1-11.11,3.78-11.36,8.83-14.39s24.25-4,29.8-6.06a7.15,7.15,0,0,0,4.55-3l4-9.6c-35.36-35.35-96-39.9-96-39.9Z"/></g><path class="cls-4" d="M623.63,186.16c-1.76-7.12-10-18.64-26.76-35.86L585.76,168c-6,8.48,0,23.23,0,23.23L560,214.94l10.1,2.53-4,8.08,11.11,6.06c8.69-9.39,19.34-15.81,34.34-15.66,0,0,10.1,2.53,12.12,4.55s13.64,13.13,22.73,21.71,24.74,8.59,24.74,8.59l16.67-.51-2-8.08,9.6-6.06-5.05-7.57,6.81-4.29-10.35-19.45a24.52,24.52,0,0,0,8.59-11.11c3-7.57-6.17-21-15.15-32.82A61.56,61.56,0,0,0,658,188.18c-6.26-2.93-12.12-4.19-16.66-.51C634.74,183,628.63,183.73,623.63,186.16Z"/><g id="Layer_7-2" data-name="Layer 7"><circle class="cls-5" cx="617.57" cy="232.11" r="9.09"/><circle class="cls-6" cx="620.1" cy="229.59" r="4.8"/><circle class="cls-6" cx="613.28" cy="236.4" r="2.02"/><circle class="cls-5" cx="674.99" cy="230.75" r="7.73"/><circle class="cls-6" cx="677.17" cy="228.58" r="4.04"/><circle class="cls-6" cx="671.36" cy="234.39" r="1.72"/><path d="M672.87,250.55c0,1.92,7.38,6,8.59,5.55,3.13-1.11,6.56-5.55,6.56-5.55Z"/><polygon class="cls-3" points="648.88 193.23 644.34 204.34 654.44 214.44 657.97 204.84 648.88 193.23"/><polygon class="cls-7" points="631.66 203.38 624.24 195.15 618.28 205.4 626.06 211.71 631.66 203.38"/><polygon class="cls-7" points="677.22 203.98 671.05 197.27 666.21 205.7 672.62 210.85 677.22 203.98"/><path d="M687.57,250.55c-4.29,1.16-23.69-9.3-28.84-25.76C660.75,234.39,671.51,252.11,687.57,250.55Z"/></g></g><g id="Layer_12-2" data-name="Layer 12"><path class="cls-4" d="M446.37,314.43l-21.72,4V311.4L407,318.47l2-6.56-14.65,6.56s-10.6,12.63-22.22,18.69S359,343.22,359,343.22s22.73,9.09,29.8,12.12,16.66,3,25.75,3,18.69-3.54,23.23-7.07,9.6-12.63,9.6-20.71A155.77,155.77,0,0,0,446.37,314.43Z"/></g><g id="Layer_9-2" data-name="Layer 9"><path class="cls-3" d="M566,327.74s14.33,35.83,27.41,46.83,12.15-3.44,12.15-3.44l-7.63-49.27"/><path class="cls-3" d="M471.35,303.91s-10.79,39.24-7.17,56.66S476,365.13,476,365.13a210.79,210.79,0,0,1,14.89-21.65c7.4-9.38,22.61-19.92,21-15.68"/></g></g></g><g id="Layer_1_copy_3" data-name="Layer 1 copy 3"><rect class="cls-1" x="700" y="0.6" width="350" height="500"/><g id="Layer_1-3" data-name="Layer 1"><g id="Layer_3-3" data-name="Layer 3"><g id="Layer_10-3" data-name="Layer 10"><path class="cls-2" d="M852.71,326.55s9.22,30,23,40,11.88-4.3,11.88-4.3a189.9,189.9,0,0,1-2.55-24.85c-.4-11.35,4.47-28.47,5.93-24.44"/><path class="cls-2" d="M954.54,324.17s-7.79,19.75-3.27,36.23,10.81,7.41,10.81,7.41L987,318.15"/></g><g id="Layer_5-3" data-name="Layer 5"><path class="cls-3" d="M926.17,232.21c-1,.6,10.86,21.06,11.87,20.45,0,0-33.59.76-51.77-5.81s-40.4-2.77-49.24-2.52c-12.87,1.51-35.1,7.57-47.72,25.25s-61.11,66.66-73.73,71.21,36.36,24.75,57.06,16.16S794,340,795.87,327.66c0,0-.25-3.54-.4-8.59-.4-11.36-.56-30.5,2.93-34.34,5.05-5.55,9.09,1,9.09,1l13.08,32.78L822.89,334l42.17-8.33a41,41,0,0,1,18.69-3.54c10.6.51,29.29,7.58,29.29,7.58s20.71,10.1,38.38,9.59,29.29-10.1,33.84-18.68,3.84-25.35,4.8-36.11c1-11.11,3.78-11.36,8.83-14.39s24.25-4,29.8-6.06a7.15,7.15,0,0,0,4.55-3l4-9.6c-35.36-35.35-96-39.9-96-39.9Z"/></g><path class="cls-4" d="M972.63,186.76c-1.76-7.12-10-18.64-26.76-35.86l-11.11,17.68c-6,8.48,0,23.23,0,23.23L909,215.54l10.1,2.53-4,8.08,11.11,6.06c8.69-9.39,19.34-15.81,34.34-15.66,0,0,10.1,2.53,12.12,4.55s13.64,13.13,22.73,21.71,24.74,8.59,24.74,8.59l16.67-.51-2-8.08,9.6-6.06-5-7.57,6.81-4.29-10.35-19.45a24.52,24.52,0,0,0,8.59-11.11c3-7.57-6.17-21-15.15-32.82A61.56,61.56,0,0,0,1007,188.78c-6.26-2.93-12.12-4.19-16.66-.51C983.74,183.63,977.63,184.33,972.63,186.76Z"/><g id="Layer_7-3" data-name="Layer 7"><circle class="cls-5" cx="966.57" cy="232.71" r="9.09"/><circle class="cls-6" cx="969.1" cy="230.19" r="4.8"/><circle class="cls-6" cx="962.28" cy="237" r="2.02"/><circle class="cls-5" cx="1023.99" cy="231.35" r="7.73"/><circle class="cls-6" cx="1026.17" cy="229.18" r="4.04"/><circle class="cls-6" cx="1020.36" cy="234.99" r="1.72"/><path d="M1021.87,251.15c0,1.92,7.38,6,8.59,5.55,3.13-1.11,6.56-5.55,6.56-5.55Z"/><polygon class="cls-3" points="997.88 193.83 993.34 204.94 1003.44 215.04 1006.97 205.44 997.88 193.83"/><polygon class="cls-7" points="980.66 203.98 973.24 195.75 967.28 206 975.06 212.31 980.66 203.98"/><polygon class="cls-7" points="1026.22 204.58 1020.05 197.87 1015.21 206.3 1021.62 211.45 1026.22 204.58"/><path d="M1036.57,251.15c-4.29,1.16-23.69-9.3-28.84-25.76C1009.75,235,1020.51,252.71,1036.57,251.15Z"/></g></g><g id="Layer_12-3" data-name="Layer 12"><path class="cls-4" d="M795.37,315l-21.72,4V312L756,319.07l2-6.56-14.65,6.56s-10.6,12.63-22.22,18.69S708,343.82,708,343.82s22.73,9.09,29.8,12.12,16.66,3,25.75,3,18.69-3.54,23.23-7.07,9.6-12.63,9.6-20.71A155.77,155.77,0,0,0,795.37,315Z"/></g><g id="Layer_9-3" data-name="Layer 9"><path class="cls-3" d="M915,328.34s14.33,35.83,27.41,46.83,12.15-3.44,12.15-3.44l-7.63-49.27"/><path class="cls-3" d="M820.35,304.51s-10.79,39.24-7.17,56.66S825,365.73,825,365.73a210.79,210.79,0,0,1,14.89-21.65c7.4-9.38,22.61-19.92,21-15.68"/></g></g><rect class="cls-1" x="700" y="0.6" width="350" height="500"/><g id="Layer_1-4" data-name="Layer 1"><g id="Layer_3-4" data-name="Layer 3"><g id="Layer_10-4" data-name="Layer 10"><path class="cls-2" d="M865.57,320.59s-1.52,31.31,8.08,45.45,12.62,0,12.62,0a193,193,0,0,1,6.06-24.24c3.49-10.81,13.89-25.25,13.89-21"/><path class="cls-2" d="M959,328.16s-1,21.21,8.58,35.36,12.63,3.53,12.63,3.53L987.78,312"/></g><g id="Layer_5-4" data-name="Layer 5"><path class="cls-3" d="M926.17,232.21c-1,.6,10.86,21.06,11.87,20.45,0,0-33.59.76-51.77-5.81s-40.4-2.77-49.24-2.52c-12.87,1.51-35.1,7.57-47.72,25.25s-61.11,66.66-73.73,71.21,36.36,24.75,57.06,16.16S794,340,795.87,327.66c0,0-.25-3.54-.4-8.59-.4-11.36-.56-30.5,2.93-34.34,5.05-5.55,9.09,1,9.09,1l13.08,32.78L822.89,334l42.17-8.33a41,41,0,0,1,18.69-3.54c10.6.51,29.29,7.58,29.29,7.58s20.71,10.1,38.38,9.59,29.29-10.1,33.84-18.68,3.84-25.35,4.8-36.11c1-11.11,3.78-11.36,8.83-14.39s24.25-4,29.8-6.06a7.15,7.15,0,0,0,4.55-3l4-9.6c-35.36-35.35-96-39.9-96-39.9Z"/></g><path class="cls-4" d="M972.63,186.76c-1.76-7.12-10-18.64-26.76-35.86l-11.11,17.68c-6,8.48,0,23.23,0,23.23L909,215.54l10.1,2.53-4,8.08,11.11,6.06c8.69-9.39,19.34-15.81,34.34-15.66,0,0,10.1,2.53,12.12,4.55s13.64,13.13,22.73,21.71,24.74,8.59,24.74,8.59l16.67-.51-2-8.08,9.6-6.06-5-7.57,6.81-4.29-10.35-19.45a24.52,24.52,0,0,0,8.59-11.11c3-7.57-6.17-21-15.15-32.82A61.56,61.56,0,0,0,1007,188.78c-6.26-2.93-12.12-4.19-16.66-.51C983.74,183.63,977.63,184.33,972.63,186.76Z"/><g id="Layer_7-4" data-name="Layer 7"><circle class="cls-5" cx="966.57" cy="232.71" r="9.09"/><circle class="cls-6" cx="969.1" cy="230.19" r="4.8"/><circle class="cls-6" cx="962.28" cy="237" r="2.02"/><circle class="cls-5" cx="1023.99" cy="231.35" r="7.73"/><circle class="cls-6" cx="1026.17" cy="229.18" r="4.04"/><circle class="cls-6" cx="1020.36" cy="234.99" r="1.72"/><path d="M1021.87,251.15c0,1.92,7.38,6,8.59,5.55,3.13-1.11,6.56-5.55,6.56-5.55Z"/><polygon class="cls-3" points="997.88 193.83 993.34 204.94 1003.44 215.04 1006.97 205.44 997.88 193.83"/><polygon class="cls-7" points="980.66 203.98 973.24 195.75 967.28 206 975.06 212.31 980.66 203.98"/><polygon class="cls-7" points="1026.22 204.58 1020.05 197.87 1015.21 206.3 1021.62 211.45 1026.22 204.58"/><path d="M1036.57,251.15c-4.29,1.16-23.69-9.3-28.84-25.76C1009.75,235,1020.51,252.71,1036.57,251.15Z"/></g></g><g id="Layer_12-4" data-name="Layer 12"><path class="cls-4" d="M795.37,315l-21.72,4V312L756,319.07l2-6.56-14.65,6.56s-10.6,12.63-22.22,18.69S708,343.82,708,343.82s22.73,9.09,29.8,12.12,16.66,3,25.75,3,18.69-3.54,23.23-7.07,9.6-12.63,9.6-20.71A155.77,155.77,0,0,0,795.37,315Z"/></g><g id="Layer_9-4" data-name="Layer 9"><path class="cls-3" d="M919.61,319.07s4,38.38,13.63,52.53,12.63,0,12.63,0l6.06-49.5"/><path class="cls-3" d="M818.85,312.76s4,40.5,13.69,55.45,12.68,0,12.68,0a209.57,209.57,0,0,1,6.11-25.55c3.53-11.42,13.93-26.72,13.93-22.17"/></g></g></g><g id="Layer_1_copy" data-name="Layer 1 copy"><rect class="cls-1" x="1050" width="350" height="500"/><g id="Layer_1-5" data-name="Layer 1"><g id="Layer_3-5" data-name="Layer 3"><g id="Layer_10-5" data-name="Layer 10"><path class="cls-2" d="M1202.71,326s9.22,30,23,40,11.88-4.3,11.88-4.3a189.9,189.9,0,0,1-2.55-24.85c-.4-11.35,4.47-28.47,5.93-24.44"/><path class="cls-2" d="M1304.54,323.57s-7.79,19.75-3.27,36.23,10.81,7.41,10.81,7.41L1337,317.55"/></g><g id="Layer_5-5" data-name="Layer 5"><path class="cls-3" d="M1276.17,231.61c-1,.6,10.86,21.06,11.87,20.45,0,0-33.59.76-51.77-5.81s-40.4-2.77-49.24-2.52c-12.87,1.51-35.1,7.57-47.72,25.25s-61.11,66.66-73.73,71.21,36.36,24.75,57.06,16.16,21.37-16.92,23.23-29.29c0,0-.25-3.54-.4-8.59-.4-11.36-.56-30.5,2.93-34.34,5-5.55,9.09,1,9.09,1l13.08,32.78,2.32,15.45,42.17-8.33a41,41,0,0,1,18.69-3.54c10.6.51,29.29,7.58,29.29,7.58s20.71,10.1,38.38,9.59,29.29-10.1,33.84-18.68,3.84-25.35,4.8-36.11c1-11.11,3.78-11.36,8.83-14.39s24.25-4,29.8-6.06a7.15,7.15,0,0,0,4.55-3l4-9.6c-35.36-35.35-96-39.9-96-39.9Z"/></g><path class="cls-4" d="M1322.63,186.16c-1.76-7.12-10.05-18.64-26.76-35.86L1284.76,168c-6,8.48,0,23.23,0,23.23L1259,214.94l10.1,2.53-4,8.08,11.11,6.06c8.69-9.39,19.34-15.81,34.34-15.66,0,0,10.1,2.53,12.12,4.55s13.64,13.13,22.73,21.71,24.74,8.59,24.74,8.59l16.67-.51-2-8.08,9.6-6.06-5-7.57,6.81-4.29-10.35-19.45a24.52,24.52,0,0,0,8.59-11.11c3-7.57-6.17-21-15.15-32.82A61.56,61.56,0,0,0,1357,188.18c-6.26-2.93-12.12-4.19-16.66-.51C1333.74,183,1327.63,183.73,1322.63,186.16Z"/><g id="Layer_7-5" data-name="Layer 7"><circle class="cls-5" cx="1316.57" cy="232.11" r="9.09"/><circle class="cls-6" cx="1319.1" cy="229.59" r="4.8"/><circle class="cls-6" cx="1312.28" cy="236.4" r="2.02"/><circle class="cls-5" cx="1373.99" cy="230.75" r="7.73"/><circle class="cls-6" cx="1376.17" cy="228.58" r="4.04"/><circle class="cls-6" cx="1370.36" cy="234.39" r="1.72"/><path d="M1371.87,250.55c.05,1.92,7.38,6,8.59,5.55,3.13-1.11,6.56-5.55,6.56-5.55Z"/><polygon class="cls-3" points="1347.88 193.23 1343.34 204.34 1353.44 214.44 1356.97 204.84 1347.88 193.23"/><polygon class="cls-7" points="1330.66 203.38 1323.24 195.15 1317.28 205.4 1325.06 211.71 1330.66 203.38"/><polygon class="cls-7" points="1376.22 203.98 1370.06 197.27 1365.21 205.7 1371.62 210.85 1376.22 203.98"/><path d="M1386.57,250.55c-4.29,1.16-23.69-9.3-28.84-25.76C1359.75,234.39,1370.51,252.11,1386.57,250.55Z"/></g></g><g id="Layer_12-5" data-name="Layer 12"><path class="cls-4" d="M1145.37,314.43l-21.72,4V311.4L1106,318.47l2-6.56-14.65,6.56s-10.6,12.63-22.22,18.69-13.13,6.06-13.13,6.06,22.73,9.09,29.8,12.12,16.66,3,25.75,3,18.69-3.54,23.23-7.07,9.6-12.63,9.6-20.71A155.77,155.77,0,0,0,1145.37,314.43Z"/></g><g id="Layer_9-5" data-name="Layer 9"><path class="cls-3" d="M1265,327.74s14.33,35.83,27.41,46.83,12.15-3.44,12.15-3.44l-7.63-49.27"/><path class="cls-3" d="M1170.35,303.91s-10.79,39.24-7.17,56.66,11.83,4.56,11.83,4.56a210.79,210.79,0,0,1,14.89-21.65c7.4-9.38,22.61-19.92,21-15.68"/></g></g><rect class="cls-1" x="1050" width="350" height="500"/><g id="Layer_1-6" data-name="Layer 1"><g id="Layer_3-6" data-name="Layer 3"><g id="Layer_10-6" data-name="Layer 10"><path class="cls-2" d="M1215.57,320s-1.52,31.31,8.08,45.45,12.62,0,12.62,0a193,193,0,0,1,6.06-24.24c3.49-10.81,13.89-25.25,13.89-21"/><path class="cls-2" d="M1309,327.56s-1,21.21,8.58,35.36,12.63,3.53,12.63,3.53l7.57-55.05"/></g><g id="Layer_5-6" data-name="Layer 5"><path class="cls-3" d="M1276.17,231.61c-1,.6,10.86,21.06,11.87,20.45,0,0-33.59.76-51.77-5.81s-40.4-2.77-49.24-2.52c-12.87,1.51-35.1,7.57-47.72,25.25s-61.11,66.66-73.73,71.21,36.36,24.75,57.06,16.16,21.37-16.92,23.23-29.29c0,0-.25-3.54-.4-8.59-.4-11.36-.56-30.5,2.93-34.34,5-5.55,9.09,1,9.09,1l13.08,32.78,2.32,15.45,42.17-8.33a41,41,0,0,1,18.69-3.54c10.6.51,29.29,7.58,29.29,7.58s20.71,10.1,38.38,9.59,29.29-10.1,33.84-18.68,3.84-25.35,4.8-36.11c1-11.11,3.78-11.36,8.83-14.39s24.25-4,29.8-6.06a7.15,7.15,0,0,0,4.55-3l4-9.6c-35.36-35.35-96-39.9-96-39.9Z"/></g><path class="cls-4" d="M1322.63,186.16c-1.76-7.12-10.05-18.64-26.76-35.86L1284.76,168c-6,8.48,0,23.23,0,23.23L1259,214.94l10.1,2.53-4,8.08,11.11,6.06c8.69-9.39,19.34-15.81,34.34-15.66,0,0,10.1,2.53,12.12,4.55s13.64,13.13,22.73,21.71,24.74,8.59,24.74,8.59l16.67-.51-2-8.08,9.6-6.06-5-7.57,6.81-4.29-10.35-19.45a24.52,24.52,0,0,0,8.59-11.11c3-7.57-6.17-21-15.15-32.82A61.56,61.56,0,0,0,1357,188.18c-6.26-2.93-12.12-4.19-16.66-.51C1333.74,183,1327.63,183.73,1322.63,186.16Z"/><g id="Layer_7-6" data-name="Layer 7"><circle class="cls-5" cx="1316.57" cy="232.11" r="9.09"/><circle class="cls-6" cx="1319.1" cy="229.59" r="4.8"/><circle class="cls-6" cx="1312.28" cy="236.4" r="2.02"/><circle class="cls-5" cx="1373.99" cy="230.75" r="7.73"/><circle class="cls-6" cx="1376.17" cy="228.58" r="4.04"/><circle class="cls-6" cx="1370.36" cy="234.39" r="1.72"/><path d="M1371.87,250.55c.05,1.92,7.38,6,8.59,5.55,3.13-1.11,6.56-5.55,6.56-5.55Z"/><polygon class="cls-3" points="1347.88 193.23 1343.34 204.34 1353.44 214.44 1356.97 204.84 1347.88 193.23"/><polygon class="cls-7" points="1330.66 203.38 1323.24 195.15 1317.28 205.4 1325.06 211.71 1330.66 203.38"/><polygon class="cls-7" points="1376.22 203.98 1370.06 197.27 1365.21 205.7 1371.62 210.85 1376.22 203.98"/><path d="M1386.57,250.55c-4.29,1.16-23.69-9.3-28.84-25.76C1359.75,234.39,1370.51,252.11,1386.57,250.55Z"/></g></g><g id="Layer_12-6" data-name="Layer 12"><path class="cls-4" d="M1145.37,314.43l-21.72,4V311.4L1106,318.47l2-6.56-14.65,6.56s-10.6,12.63-22.22,18.69-13.13,6.06-13.13,6.06,22.73,9.09,29.8,12.12,16.66,3,25.75,3,18.69-3.54,23.23-7.07,9.6-12.63,9.6-20.71A155.77,155.77,0,0,0,1145.37,314.43Z"/></g><g id="Layer_9-6" data-name="Layer 9"><path class="cls-3" d="M1269.61,318.47s4,38.38,13.63,52.53,12.63,0,12.63,0l6.06-49.5"/><path class="cls-3" d="M1168.85,312.16s4,40.5,13.69,55.45,12.68,0,12.68,0a209.57,209.57,0,0,1,6.11-25.55c3.53-11.42,13.93-26.72,13.93-22.17"/></g></g><rect class="cls-1" x="1050" width="350" height="500"/><g id="Layer_1-7" data-name="Layer 1"><g id="Layer_3-7" data-name="Layer 3"><g id="Layer_10-7" data-name="Layer 10"><path class="cls-2" d="M1209.52,306.7s-13.58,28.26-10.24,45,11.63,4.91,11.63,4.91a189.2,189.2,0,0,1,15-20c7.41-8.6,22.61-17.86,20.94-13.9"/><path class="cls-2" d="M1305.81,333.25s2.7,21.07,14.62,33.32,13,1.27,13,1.27l-2.14-55.52"/></g><g id="Layer_5-7" data-name="Layer 5"><path class="cls-3" d="M1276.17,231.61c-1,.6,10.86,21.06,11.87,20.45,0,0-33.59.76-51.77-5.81s-40.4-2.77-49.24-2.52c-12.87,1.51-35.1,7.57-47.72,25.25s-61.11,66.66-73.73,71.21,36.36,24.75,57.06,16.16,21.37-16.92,23.23-29.29c0,0-.25-3.54-.4-8.59-.4-11.36-.56-30.5,2.93-34.34,5-5.55,9.09,1,9.09,1l13.08,32.78,8.43,15.45,36.06-8.33a41,41,0,0,1,18.69-3.54c10.6.51,29.29,7.58,29.29,7.58s20.71,10.1,38.38,9.59,29.29-10.1,33.84-18.68,3.84-25.35,4.8-36.11c1-11.11,3.78-11.36,8.83-14.39s24.25-4,29.8-6.06a7.15,7.15,0,0,0,4.55-3l4-9.6c-35.36-35.35-96-39.9-96-39.9Z"/></g><path class="cls-4" d="M1322.63,186.16c-1.76-7.12-10.05-18.64-26.76-35.86L1284.76,168c-6,8.48,0,23.23,0,23.23L1259,214.94l10.1,2.53-4,8.08,11.11,6.06c8.69-9.39,19.34-15.81,34.34-15.66,0,0,10.1,2.53,12.12,4.55s13.64,13.13,22.73,21.71,24.74,8.59,24.74,8.59l16.67-.51-2-8.08,9.6-6.06-5-7.57,6.81-4.29-10.35-19.45a24.52,24.52,0,0,0,8.59-11.11c3-7.57-6.17-21-15.15-32.82A61.56,61.56,0,0,0,1357,188.18c-6.26-2.93-12.12-4.19-16.66-.51C1333.74,183,1327.63,183.73,1322.63,186.16Z"/><g id="Layer_7-7" data-name="Layer 7"><circle class="cls-5" cx="1316.57" cy="232.11" r="9.09"/><circle class="cls-6" cx="1319.1" cy="229.59" r="4.8"/><circle class="cls-6" cx="1312.28" cy="236.4" r="2.02"/><circle class="cls-5" cx="1373.99" cy="230.75" r="7.73"/><circle class="cls-6" cx="1376.17" cy="228.58" r="4.04"/><circle class="cls-6" cx="1370.36" cy="234.39" r="1.72"/><path d="M1371.87,250.55c.05,1.92,7.38,6,8.59,5.55,3.13-1.11,6.56-5.55,6.56-5.55Z"/><polygon class="cls-3" points="1347.88 193.23 1343.34 204.34 1353.44 214.44 1356.97 204.84 1347.88 193.23"/><polygon class="cls-7" points="1330.66 203.38 1323.24 195.15 1317.28 205.4 1325.06 211.71 1330.66 203.38"/><polygon class="cls-7" points="1376.22 203.98 1370.06 197.27 1365.21 205.7 1371.62 210.85 1376.22 203.98"/><path d="M1386.57,250.55c-4.29,1.16-23.69-9.3-28.84-25.76C1359.75,234.39,1370.51,252.11,1386.57,250.55Z"/></g></g><g id="Layer_12-7" data-name="Layer 12"><path class="cls-4" d="M1145.37,314.43l-21.72,4V311.4L1106,318.47l2-6.56-14.65,6.56s-10.6,12.63-22.22,18.69-13.13,6.06-13.13,6.06,22.73,9.09,29.8,12.12,16.66,3,25.75,3,18.69-3.54,23.23-7.07,9.6-12.63,9.6-20.71A155.77,155.77,0,0,0,1145.37,314.43Z"/></g><g id="Layer_9-7" data-name="Layer 9"><path class="cls-3" d="M1281.74,315.72s-12,36.68-9,53.51,11.53,5.16,11.53,5.16l25.75-42.7"/><path class="cls-3" d="M1168.4,310.29s8.45,39.81,19.68,53.62,12.6-1.39,12.6-1.39a211.51,211.51,0,0,1,3.27-26.07c2.27-11.73,10.93-28.08,11.43-23.56"/></g></g></g></svg>
