<svg xmlns="http://www.w3.org/2000/svg" width="679.27" height="453.36" viewBox="0 0 679.27 453.36"><defs><style>.cls-1{fill:#939393;stroke:#939393;}.cls-1,.cls-2,.cls-3,.cls-4,.cls-6{stroke-miterlimit:10;stroke-width:3px;}.cls-2,.cls-5{fill:#fff;}.cls-2,.cls-6{stroke:#fff;}.cls-3{fill:#c7eff9;stroke:#c7eff9;}.cls-4{stroke:#000;}.cls-6{fill:none;}</style></defs><title>foxy-01</title><g id="Layer_1" data-name="Layer 1"><g id="Layer_3" data-name="Layer 3"><g id="Layer_10" data-name="Layer 10"><path class="cls-1" d="M319.79,338.41s-3,62,16,90,25,0,25,0a370,370,0,0,1,12-48c6.93-21.4,27.45-50,27.45-41.55"/><path class="cls-1" d="M504.79,353.41s-2,42,17,70,25,7,25,7l15-109"/></g><g id="Layer_5" data-name="Layer 5"><path class="cls-2" d="M439.79,163.41c-2,1.16,21.5,41.66,23.5,40.5,0,0-66.5,1.5-102.5-11.5s-80-5.5-97.5-5c-25.5,3-69.5,15-94.5,50s-121,132-146,141,72,49,113,32,42.33-33.47,46-58c0,0-.47-7-.84-17-.82-22.54-1.09-60.38,5.84-68,10-11,18,2,18,2l25.86,64.86,4.64,30.64,83.5-16.5a82,82,0,0,1,37-7c21,1,58,15,58,15s41,20,76,19,58-20,67-37,7.57-50.24,9.5-71.5c2-22,7.5-22.5,17.5-28.5s48-8,59-12a13.94,13.94,0,0,0,9-6l8-19c-70-70-190-79-190-79Z"/></g><path class="cls-3" d="M531.79,73.41c-3.47-14.09-19.88-36.91-53-71l-22,35c-11.92,16.75,0,46,0,46l-51,47,20,5-8,16,22,12c17.21-18.65,38.35-31.3,68-31,0,0,20,5,24,9s27,26,45,43,49,17,49,17l33-1-4-16,19-12-10-15,13.5-8.5-20.5-38.5a49.2,49.2,0,0,0,17-22c6-15-12.19-41.53-30-65-19.38,13.49-34.41,31.13-44,54-12.44-5.82-24-8.31-33-1C553.82,67.18,541.73,68.57,531.79,73.41Z"/><g id="Layer_7" data-name="Layer 7"><circle class="cls-4" cx="519.79" cy="164.41" r="18"/><circle class="cls-5" cx="524.79" cy="159.41" r="9.5"/><circle class="cls-5" cx="511.29" cy="172.91" r="4" transform="translate(258.71 649.9) rotate(-80.78)"/><circle class="cls-4" cx="633.54" cy="161.66" r="15.25"/><circle class="cls-5" cx="637.77" cy="157.43" r="8.05"/><circle class="cls-5" cx="626.34" cy="168.87" r="3.39"/><path d="M629.29,200.91c.09,3.75,14.58,11.87,17,11,6.16-2.22,13-11,13-11Z"/><polygon class="cls-2" points="581.79 87.41 572.79 109.41 592.79 129.41 599.79 110.41 581.79 87.41"/><polygon class="cls-6" points="547.72 107.51 532.96 91.24 521.2 111.48 536.63 123.96 547.72 107.51"/><polygon class="cls-6" points="637.89 108.73 625.74 95.42 616.14 112.06 628.83 122.26 637.89 108.73"/><path d="M658.43,200.91c-8.54,2.33-46.93-18.37-57.14-51C605.29,168.91,626.59,204,658.43,200.91Z"/></g></g><g id="Layer_12" data-name="Layer 12"><path class="cls-3" d="M180.79,327.41l-43,8v-14l-35,14,4-13-29,13s-21,25-44,37-26,12-26,12,45,18,59,24,33,6,51,6,37-7,46-14,19-25,19-41A297.64,297.64,0,0,0,180.79,327.41Z"/></g><g id="Layer_9" data-name="Layer 9"><path class="cls-2" d="M426.79,335.41s8,76,27,104,25,0,25,0l12-98"/><path class="cls-2" d="M227.29,322.91s8,80.24,27.15,109.81,25.13,0,25.13,0a405.28,405.28,0,0,1,12.12-50.63c7-22.59,27.6-52.85,27.6-43.87"/></g></g></svg>
