<?xml version="1.0" encoding="utf-8"?>
<!-- Generator: Adobe Illustrator 22.1.0, SVG Export Plug-In . SVG Version: 6.00 Build 0)  -->
<svg version="1.1" xmlns="http://www.w3.org/2000/svg" xmlns:xlink="http://www.w3.org/1999/xlink" x="0px" y="0px"
	 viewBox="0 0 679.3 453.4" style="enable-background:new 0 0 679.3 453.4;" xml:space="preserve">
<style type="text/css">
	.st0{fill:#939393;stroke:#939393;stroke-width:3;stroke-miterlimit:10;}
	.st1{fill:#FFFFFF;stroke:#FFFFFF;stroke-width:3;stroke-miterlimit:10;}
	.st2{fill:#C7EFF9;stroke:#C7EFF9;stroke-width:3;stroke-miterlimit:10;}
	.st3{stroke:#000000;stroke-width:3;stroke-miterlimit:10;}
	.st4{fill:#FFFFFF;}
	.st5{fill:none;stroke:#FFFFFF;stroke-width:3;stroke-miterlimit:10;}
</style>
<g id="Layer_2">
</g>
<g id="Layer_1">
	<title>foxy</title>
	<g id="Layer_3">
		<g id="Layer_10">
			<path class="st0" d="M319.8,338.4c0,0-3,62,16,90s25,0,25,0c2.9-16.2,7-32.3,12-48c6.9-21.4,27.5-50,27.5-41.5"/>
			<path class="st0" d="M504.8,353.4c0,0-2,42,17,70c19,28,25,7,25,7l15-109"/>
		</g>
		<g id="Layer_5">
			<path class="st1" d="M439.8,163.4c-2,1.2,21.5,41.7,23.5,40.5c0,0-66.5,1.5-102.5-11.5s-80-5.5-97.5-5c-25.5,3-69.5,15-94.5,50
				s-121,132-146,141s72,49,113,32s42.3-33.5,46-58c0,0-0.5-7-0.8-17c-0.8-22.5-1.1-60.4,5.8-68c10-11,18,2,18,2l25.9,64.9l4.6,30.6
				l83.5-16.5c11.6-5.2,24.3-7.6,37-7c21,1,58,15,58,15s41,20,76,19s58-20,67-37s7.6-50.2,9.5-71.5c2-22,7.5-22.5,17.5-28.5
				s48-8,59-12c3.7-0.7,6.9-2.9,9-6l8-19c-70-70-190-79-190-79L439.8,163.4z"/>
		</g>
		<path class="st2" d="M531.8,73.4c-3.5-14.1-19.9-36.9-53-71l-22,35c-11.9,16.8,0,46,0,46l-51,47l20,5l-8,16l22,12
			c17.2-18.6,38.3-31.3,68-31c0,0,20,5,24,9s27,26,45,43s49,17,49,17l33-1l-4-16l19-12l-10-15l13.5-8.5l-20.5-38.5
			c7.7-5.5,13.6-13.2,17-22c6-15-12.2-41.5-30-65c-19.4,13.5-34.4,31.1-44,54c-12.4-5.8-24-8.3-33-1
			C553.8,67.2,541.7,68.6,531.8,73.4z"/>
		<g id="Layer_7">
			<circle class="st3" cx="519.8" cy="164.4" r="18"/>
			<circle class="st4" cx="524.8" cy="159.4" r="9.5"/>
			<ellipse transform="matrix(0.1602 -0.9871 0.9871 0.1602 258.7133 649.9009)" class="st4" cx="511.3" cy="172.9" rx="4" ry="4"/>
			<circle class="st3" cx="633.5" cy="161.7" r="15.3"/>
			<circle class="st4" cx="637.8" cy="157.4" r="8"/>
			<circle class="st4" cx="626.3" cy="168.9" r="3.4"/>
			<path d="M629.3,200.9c0.1,3.8,14.6,11.9,17,11c6.2-2.2,13-11,13-11H629.3z"/>
			<polygon class="st1" points="581.8,87.4 572.8,109.4 592.8,129.4 599.8,110.4 			"/>
			<polygon class="st5" points="547.7,107.5 533,91.2 521.2,111.5 536.6,124 			"/>
			<polygon class="st5" points="637.9,108.7 625.7,95.4 616.1,112.1 628.8,122.3 			"/>
			<path d="M658.4,200.9c-8.5,2.3-46.9-18.4-57.1-51C605.3,168.9,626.6,204,658.4,200.9z"/>
		</g>
	</g>
	<g id="Layer_12">
		<path class="st2" d="M180.8,327.4l-43,8v-14l-35,14l4-13l-29,13c0,0-21,25-44,37s-26,12-26,12s45,18,59,24s33,6,51,6s37-7,46-14
			s19-25,19-41C182.7,348.7,182,338,180.8,327.4z"/>
	</g>
	<g id="Layer_9">
		<path class="st1" d="M426.8,335.4c0,0,8,76,27,104s25,0,25,0l12-98"/>
		<path class="st1" d="M227.3,322.9c0,0,8,80.2,27.1,109.8s25.1,0,25.1,0c3-17.1,7-34,12.1-50.6c7-22.6,27.6-52.9,27.6-43.9"/>
	</g>
</g>
</svg>
