<svg id="Layer_1" data-name="Layer 1" xmlns="http://www.w3.org/2000/svg" width="700" height="500" viewBox="0 0 700 500"><defs><style>.cls-1{fill:#939393;stroke:#939393;}.cls-1,.cls-2,.cls-3,.cls-4,.cls-6,.cls-7{stroke-miterlimit:10;stroke-width:3px;}.cls-2,.cls-5,.cls-7{fill:#fff;}.cls-2,.cls-6{stroke:#fff;}.cls-3{fill:#c7eff9;stroke:#c7eff9;}.cls-4,.cls-7{stroke:#000;}.cls-6{fill:none;}</style></defs><title>foxy_side</title><g id="Layer_1-2" data-name="Layer 1"><g id="Layer_3" data-name="Layer 3"><g id="Layer_10" data-name="Layer 10"><path class="cls-1" d="M136.79,294.16s-1.14,26,9.69,43.32,14.25,4.33,14.25,4.33l8.55-67.45"/></g><g id="Layer_10-2" data-name="Layer 10"><path class="cls-1" d="M175.75,281.36l8.56,67.45s3.42,13,14.25-4.33,9.69-43.32,9.69-43.32"/></g><path class="cls-1" d="M68.36,290.31c-1.7-3.7,52.66-42.29,55.28-36l13.15,39.86Z"/><g id="Layer_5" data-name="Layer 5"><path class="cls-2" d="M115.14,298.22a24.33,24.33,0,0,0,7.64,15.67s25.46-16.58,45.41-17.2,33.18,18.77,38.31,8.25,15.26-19.62,15.26-19.62c5.83-22.87,6.08-44.71-1.52-65.09,0,0,.91-10.22,7.18-12.69,2.11-.43,13.17-8,13.17-8l5.48-9.22s-3-22.11-28.22-32.53c-32.5-13.43-77.38-18.77-81-6.54L119.73,176.6c-1.14.74,12.26,25.8,13.4,25.06,0,0,9,12.09.51,24.47-8.72,12-14.88,21.83-19,35.08,0,0-2.84,18.83-1.73,24"/></g><path class="cls-3" d="M172.18,120.91c-2-8.72-11.34-22.83-30.21-43.93L129.42,98.64c-6.78,10.39,0,28.46,0,28.46l-29.07,29.08,11.4,3.1-4.56,9.9,12.54,7.42c9.81-11.51,21.84-19.37,38.77-19.18,0,0,11.4,3.09,13.68,5.57s10,12.14,12.46,18.75c1,2.52.29,18,4.33,18,0,11.12,11.56,2.78,11.56,2.78l2.92-19.82s7.5-19.89,19.38-19.61c-5.4,0,20.81-.28,23.24,23,3.07-2.11,12-6,12-6l-10.64-14L263.14,165l-19.7-21.18a29.89,29.89,0,0,0,9.69-13.62c3.42-9.28-6.95-25.67-17.1-40.21A74.5,74.5,0,0,0,211,123.39c-7.07-3.59-13.69-5.14-18.82-.62C184.72,117.08,177.82,117.94,172.18,120.91Z"/><g id="Layer_7" data-name="Layer 7"><ellipse class="cls-4" cx="156.34" cy="177.22" rx="10.26" ry="11.14"/><ellipse class="cls-5" cx="159.19" cy="174.13" rx="5.42" ry="5.88"/><ellipse class="cls-5" cx="151.49" cy="182.48" rx="2.28" ry="2.48"/><ellipse class="cls-4" cx="228.16" cy="179.55" rx="8.72" ry="9.47"/><ellipse class="cls-5" cx="230.61" cy="176.89" rx="4.56" ry="4.95"/><ellipse class="cls-5" cx="224.05" cy="184" rx="1.94" ry="2.1"/><path d="M184.93,199.73c.06,2.35,8.33,7.36,9.7,6.81,3.53-1.36,7.41-6.81,7.41-6.81Z"/><polygon class="cls-2" points="200.69 129.57 195.55 143.19 206.96 155.56 210.95 143.81 200.69 129.57"/><polygon class="cls-6" points="181.25 142.01 172.87 131.93 166.14 144.49 174.92 152.22 181.25 142.01"/><polygon class="cls-6" points="232.67 142.75 225.71 134.53 220.24 144.86 227.48 151.17 232.67 142.75"/></g></g><g id="Layer_12" data-name="Layer 12"><path class="cls-3" d="M127.08,285.36l-24.51,4.95v-8.66l-20,8.66,2.28-8-16.53,8s-12,15.47-25.08,22.9-14.83,7.42-14.83,7.42,25.66,11.14,33.64,14.85,18.81,3.72,29.07,3.72,21.1-4.34,26.23-8.67,10.83-15.47,10.83-25.37C128.16,298.54,127.76,291.92,127.08,285.36Z"/></g><g id="Layer_9" data-name="Layer 9"><path class="cls-2" d="M112.32,283s4.56,47,15.39,64.35,14.26,0,14.26,0l6.84-60.64"/></g><g id="Layer_9-2" data-name="Layer 9"><path class="cls-2" d="M185.32,284.74l6.84,60.64s3.42,17.32,14.25,0S221.81,281,221.81,281"/></g></g><g id="Layer_1-3" data-name="Layer 1"><g id="Layer_3-2" data-name="Layer 3"><g id="Layer_10-3" data-name="Layer 10"><path class="cls-1" d="M486.79,294.16s-1.14,26,9.69,43.32,14.25,4.33,14.25,4.33l8.55-67.45"/></g><g id="Layer_10-4" data-name="Layer 10"><path class="cls-1" d="M525.75,281.36l8.56,67.45s3.42,13,14.25-4.33,9.69-43.32,9.69-43.32"/></g><path class="cls-1" d="M418.36,290.31c-1.7-3.7,52.66-42.29,55.28-36l13.15,39.86Z"/><g id="Layer_5-2" data-name="Layer 5"><path class="cls-2" d="M465.14,298.22a24.33,24.33,0,0,0,7.64,15.67s25.46-16.58,45.41-17.2,33.18,18.77,38.31,8.25,15.26-19.62,15.26-19.62c5.83-22.87,6.08-44.71-1.52-65.09,0,0,.91-10.22,7.18-12.69,2.11-.43,13.17-8,13.17-8l5.48-9.22s-3-22.11-28.22-32.53c-32.5-13.43-77.38-18.77-81-6.54L469.73,176.6c-1.14.74,12.26,25.8,13.4,25.06,0,0,9,12.09.51,24.47-8.72,12-14.88,21.83-19,35.08,0,0-2.84,18.83-1.73,24"/></g><path class="cls-3" d="M522.18,120.91c-2-8.72-11.34-22.83-30.21-43.93L479.42,98.64c-6.78,10.39,0,28.46,0,28.46l-29.07,29.08,11.4,3.1-4.56,9.9,12.54,7.42c9.81-11.51,21.84-19.37,38.77-19.18,0,0,11.4,3.09,13.68,5.57s10,12.14,12.46,18.75c1,2.52.29,18,4.33,18,0,11.12,11.56,2.78,11.56,2.78l2.92-19.82s7.5-19.89,19.38-19.61c-5.4,0,20.81-.28,23.24,23,3.07-2.11,12-6,12-6l-10.64-14L613.14,165l-19.7-21.18a29.89,29.89,0,0,0,9.69-13.62c3.42-9.28-7-25.67-17.1-40.21A74.5,74.5,0,0,0,561,123.39c-7.07-3.59-13.69-5.14-18.82-.62C534.72,117.08,527.82,117.94,522.18,120.91Z"/><g id="Layer_7-2" data-name="Layer 7"><path d="M534.93,199.73c.06,2.35,8.33,7.36,9.7,6.81,3.53-1.36,7.41-6.81,7.41-6.81Z"/><polygon class="cls-2" points="550.68 129.57 545.55 143.19 556.96 155.56 560.95 143.81 550.68 129.57"/><polygon class="cls-6" points="531.25 142.01 522.87 131.93 516.14 144.49 524.92 152.22 531.25 142.01"/><polygon class="cls-6" points="582.67 142.75 575.71 134.53 570.24 144.86 577.48 151.17 582.67 142.75"/></g></g><g id="Layer_12-2" data-name="Layer 12"><path class="cls-3" d="M477.08,285.36l-24.51,4.95v-8.66l-20,8.66,2.28-8-16.53,8s-12,15.47-25.08,22.9-14.83,7.42-14.83,7.42,25.66,11.14,33.64,14.85,18.81,3.72,29.07,3.72,21.1-4.34,26.23-8.67,10.83-15.47,10.83-25.37C478.16,298.54,477.76,291.92,477.08,285.36Z"/></g><g id="Layer_9-3" data-name="Layer 9"><path class="cls-2" d="M462.32,283s4.56,47,15.39,64.35,14.26,0,14.26,0l6.84-60.64"/></g><g id="Layer_9-4" data-name="Layer 9"><path class="cls-2" d="M535.32,284.74l6.84,60.64s3.42,17.32,14.25,0S571.81,281,571.81,281"/></g></g><path class="cls-7" d="M516.14,177.22c.16-11.71-23.07-12-23.24-.33"/><path class="cls-7" d="M586.14,179.22c.16-11.71-23.07-12-23.24-.33"/></svg>
