<?xml version="1.0" encoding="utf-8"?>
<!-- Generator: Adobe Illustrator 22.1.0, SVG Export Plug-In . SVG Version: 6.00 Build 0)  -->
<svg version="1.1" xmlns="http://www.w3.org/2000/svg" xmlns:xlink="http://www.w3.org/1999/xlink" x="0px" y="0px"
	 viewBox="0 0 1400 500" style="enable-background:new 0 0 1400 500;" xml:space="preserve">
<style type="text/css">
	.st0{fill:#D66363;stroke:#000000;stroke-miterlimit:10;}
	.st1{fill:#939393;stroke:#939393;stroke-width:3;stroke-miterlimit:10;}
	.st2{fill:#FFFFFF;stroke:#FFFFFF;stroke-width:3;stroke-miterlimit:10;}
	.st3{fill:#C7EFF9;stroke:#C7EFF9;stroke-width:3;stroke-miterlimit:10;}
	.st4{stroke:#000000;stroke-width:3;stroke-miterlimit:10;}
	.st5{fill:#FFFFFF;}
	.st6{fill:none;stroke:#FFFFFF;stroke-width:3;stroke-miterlimit:10;}
</style>
<g id="Layer_1_copy_4">
	<rect y="-578" class="st0" width="350" height="500"/>
	<g id="Layer_2_1_">
	</g>
	<g id="Layer_1_1_">
		<title>foxy</title>
		<g id="Layer_3_4_">
			<g id="Layer_10_4_">
				<path class="st1" d="M165.6-258c0,0-1.5,31.3,8.1,45.5c9.6,14.1,12.6,0,12.6,0c1.5-8.2,3.5-16.3,6.1-24.2
					c3.5-10.8,13.9-25.3,13.9-21"/>
				<path class="st1" d="M259-250.4c0,0-1,21.2,8.6,35.4c9.6,14.1,12.6,3.5,12.6,3.5l7.6-55"/>
			</g>
			<g id="Layer_5_4_">
				<path class="st2" d="M226.2-346.4c-1,0.6,10.9,21.1,11.9,20.5c0,0-33.6,0.8-51.8-5.8s-40.4-2.8-49.2-2.5
					c-12.9,1.5-35.1,7.6-47.7,25.3c-12.6,17.7-61.1,66.7-73.7,71.2c-12.6,4.5,36.4,24.7,57.1,16.2c20.7-8.6,21.4-16.9,23.2-29.3
					c0,0-0.3-3.5-0.4-8.6c-0.4-11.4-0.6-30.5,2.9-34.3c5.1-5.6,9.1,1,9.1,1l13.1,32.8l2.3,15.5l42.2-8.3c5.9-2.6,12.3-3.8,18.7-3.5
					c10.6,0.5,29.3,7.6,29.3,7.6s20.7,10.1,38.4,9.6s29.3-10.1,33.8-18.7c4.5-8.6,3.8-25.4,4.8-36.1c1-11.1,3.8-11.4,8.8-14.4
					c5.1-3,24.2-4,29.8-6.1c1.9-0.4,3.5-1.5,4.5-3l4-9.6c-35.4-35.4-96-39.9-96-39.9L226.2-346.4z"/>
			</g>
			<path class="st3" d="M272.6-391.8c-1.8-7.1-10-18.6-26.8-35.9L234.8-410c-6,8.5,0,23.2,0,23.2L209-363.1l10.1,2.5l-4,8.1
				l11.1,6.1c8.7-9.4,19.3-15.8,34.3-15.7c0,0,10.1,2.5,12.1,4.5c2,2,13.6,13.1,22.7,21.7c9.1,8.6,24.7,8.6,24.7,8.6l16.7-0.5
				l-2-8.1l9.6-6.1l-5.1-7.6l6.8-4.3l-10.4-19.4c3.9-2.8,6.9-6.7,8.6-11.1c3-7.6-6.2-21-15.2-32.8c-9.8,6.8-17.4,15.7-22.2,27.3
				c-6.3-2.9-12.1-4.2-16.7-0.5C283.7-395,277.6-394.3,272.6-391.8z"/>
			<g id="Layer_7_4_">
				<circle class="st4" cx="266.6" cy="-345.9" r="9.1"/>
				<circle class="st5" cx="269.1" cy="-348.4" r="4.8"/>
				<ellipse class="st5" cx="262.3" cy="-341.6" rx="2" ry="2"/>
				<circle class="st4" cx="324" cy="-347.2" r="7.7"/>
				<circle class="st5" cx="326.2" cy="-349.4" r="4"/>
				<circle class="st5" cx="320.4" cy="-343.6" r="1.7"/>
				<path d="M321.9-327.5c0.1,1.9,7.4,6,8.6,5.6c3.1-1.1,6.6-5.6,6.6-5.6H321.9z"/>
				<polygon class="st2" points="297.9,-384.8 293.3,-373.7 303.4,-363.6 307,-373.2 				"/>
				<polygon class="st6" points="280.7,-374.6 273.2,-382.9 267.3,-372.6 275.1,-366.3 				"/>
				<polygon class="st6" points="326.2,-374 320.1,-380.7 315.2,-372.3 321.6,-367.1 				"/>
				<path d="M336.6-327.5c-4.3,1.2-23.7-9.3-28.8-25.8C309.8-343.6,320.5-325.9,336.6-327.5z"/>
			</g>
		</g>
		<g id="Layer_12_4_">
			<path class="st3" d="M95.4-263.6l-21.7,4v-7.1L56-259.5l2-6.6l-14.6,6.6c0,0-10.6,12.6-22.2,18.7S8-234.8,8-234.8
				s22.7,9.1,29.8,12.1c7.1,3,16.7,3,25.8,3s18.7-3.5,23.2-7.1c4.5-3.5,9.6-12.6,9.6-20.7C96.3-252.8,96-258.2,95.4-263.6z"/>
		</g>
		<g id="Layer_9_4_">
			<path class="st2" d="M219.6-259.5c0,0,4,38.4,13.6,52.5c9.6,14.1,12.6,0,12.6,0l6.1-49.5"/>
			<path class="st2" d="M118.9-265.8c0,0,4,40.5,13.7,55.5s12.7,0,12.7,0c1.5-8.6,3.5-17.2,6.1-25.6c3.5-11.4,13.9-26.7,13.9-22.2"
				/>
		</g>
	</g>
	<g id="Layer_1_4_">
		<title>foxy</title>
		<g id="Layer_3_5_">
			<g id="Layer_10_5_">
				<path class="st1" d="M165.6,320c0,0-1.5,31.3,8.1,45.5c9.6,14.1,12.6,0,12.6,0c1.5-8.2,3.5-16.3,6.1-24.2
					c3.5-10.8,13.9-25.3,13.9-21"/>
				<path class="st1" d="M259,327.6c0,0-1,21.2,8.6,35.4s12.6,3.5,12.6,3.5l7.6-55"/>
			</g>
			<g id="Layer_5_5_">
				<path class="st2" d="M226.2,231.6c-1,0.6,10.9,21.1,11.9,20.5c0,0-33.6,0.8-51.8-5.8c-18.2-6.6-40.4-2.8-49.2-2.5
					c-12.9,1.5-35.1,7.6-47.7,25.3s-61.1,66.7-73.7,71.2c-12.6,4.5,36.4,24.7,57.1,16.2c20.7-8.6,21.4-16.9,23.2-29.3
					c0,0-0.3-3.5-0.4-8.6c-0.4-11.4-0.6-30.5,2.9-34.3c5.1-5.6,9.1,1,9.1,1l13.1,32.8l2.3,15.5l42.2-8.3c5.9-2.6,12.3-3.8,18.7-3.5
					c10.6,0.5,29.3,7.6,29.3,7.6s20.7,10.1,38.4,9.6c17.7-0.5,29.3-10.1,33.8-18.7c4.5-8.6,3.8-25.4,4.8-36.1
					c1-11.1,3.8-11.4,8.8-14.4c5.1-3,24.2-4,29.8-6.1c1.9-0.4,3.5-1.5,4.5-3l4-9.6c-35.4-35.4-96-39.9-96-39.9L226.2,231.6z"/>
			</g>
			<path class="st3" d="M272.6,186.2c-1.8-7.1-10-18.6-26.8-35.9L234.8,168c-6,8.5,0,23.2,0,23.2L209,214.9l10.1,2.5l-4,8.1
				l11.1,6.1c8.7-9.4,19.3-15.8,34.3-15.7c0,0,10.1,2.5,12.1,4.5c2,2,13.6,13.1,22.7,21.7c9.1,8.6,24.7,8.6,24.7,8.6l16.7-0.5
				l-2-8.1l9.6-6.1l-5.1-7.6l6.8-4.3l-10.4-19.4c3.9-2.8,6.9-6.7,8.6-11.1c3-7.6-6.2-21-15.2-32.8c-9.8,6.8-17.4,15.7-22.2,27.3
				c-6.3-2.9-12.1-4.2-16.7-0.5C283.7,183,277.6,183.7,272.6,186.2z"/>
			<g id="Layer_7_5_">
				<circle class="st4" cx="266.6" cy="232.1" r="9.1"/>
				<circle class="st5" cx="269.1" cy="229.6" r="4.8"/>
				<ellipse class="st5" cx="262.3" cy="236.4" rx="2" ry="2"/>
				<circle class="st4" cx="324" cy="230.8" r="7.7"/>
				<circle class="st5" cx="326.2" cy="228.6" r="4"/>
				<circle class="st5" cx="320.4" cy="234.4" r="1.7"/>
				<path d="M321.9,250.5c0.1,1.9,7.4,6,8.6,5.6c3.1-1.1,6.6-5.6,6.6-5.6H321.9z"/>
				<polygon class="st2" points="297.9,193.2 293.3,204.3 303.4,214.4 307,204.8 				"/>
				<polygon class="st6" points="280.7,203.4 273.2,195.1 267.3,205.4 275.1,211.7 				"/>
				<polygon class="st6" points="326.2,204 320.1,197.3 315.2,205.7 321.6,210.9 				"/>
				<path d="M336.6,250.5c-4.3,1.2-23.7-9.3-28.8-25.8C309.8,234.4,320.5,252.1,336.6,250.5z"/>
			</g>
		</g>
		<g id="Layer_12_5_">
			<path class="st3" d="M95.4,314.4l-21.7,4v-7.1L56,318.5l2-6.6l-14.6,6.6c0,0-10.6,12.6-22.2,18.7C9.5,343.2,8,343.2,8,343.2
				s22.7,9.1,29.8,12.1c7.1,3,16.7,3,25.8,3s18.7-3.5,23.2-7.1c4.5-3.5,9.6-12.6,9.6-20.7C96.3,325.2,96,319.8,95.4,314.4z"/>
		</g>
		<g id="Layer_9_5_">
			<path class="st2" d="M219.6,318.5c0,0,4,38.4,13.6,52.5c9.6,14.1,12.6,0,12.6,0l6.1-49.5"/>
			<path class="st2" d="M118.9,312.2c0,0,4,40.5,13.7,55.5c9.6,14.9,12.7,0,12.7,0c1.5-8.6,3.5-17.2,6.1-25.6
				c3.5-11.4,13.9-26.7,13.9-22.2"/>
		</g>
	</g>
</g>
<g id="Layer_1_copy_2">
	<rect y="-578" class="st0" width="350" height="500"/>
	<g id="Layer_2_3_">
	</g>
	<g id="Layer_1_2_">
		<title>foxy</title>
		<g id="Layer_3_2_">
			<g id="Layer_10_2_">
				<path class="st1" d="M152.7-252c0,0,9.2,30,23.1,40c13.8,10,11.9-4.3,11.9-4.3c-1.4-8.2-2.2-16.5-2.5-24.9
					c-0.4-11.3,4.5-28.5,5.9-24.4"/>
				<path class="st1" d="M254.5-254.4c0,0-7.8,19.8-3.3,36.2c4.5,16.5,10.8,7.4,10.8,7.4l24.9-49.7"/>
			</g>
			<g id="Layer_5_2_">
				<path class="st2" d="M226.2-346.4c-1,0.6,10.9,21.1,11.9,20.5c0,0-33.6,0.8-51.8-5.8s-40.4-2.8-49.2-2.5
					c-12.9,1.5-35.1,7.6-47.7,25.3c-12.6,17.7-61.1,66.7-73.7,71.2c-12.6,4.5,36.4,24.7,57.1,16.2c20.7-8.6,21.4-16.9,23.2-29.3
					c0,0-0.3-3.5-0.4-8.6c-0.4-11.4-0.6-30.5,2.9-34.3c5.1-5.6,9.1,1,9.1,1l13.1,32.8l2.3,15.5l42.2-8.3c5.9-2.6,12.3-3.8,18.7-3.5
					c10.6,0.5,29.3,7.6,29.3,7.6s20.7,10.1,38.4,9.6s29.3-10.1,33.8-18.7c4.5-8.6,3.8-25.4,4.8-36.1c1-11.1,3.8-11.4,8.8-14.4
					c5.1-3,24.2-4,29.8-6.1c1.9-0.4,3.5-1.5,4.5-3l4-9.6c-35.4-35.4-96-39.9-96-39.9L226.2-346.4z"/>
			</g>
			<path class="st3" d="M272.6-391.8c-1.8-7.1-10-18.6-26.8-35.9L234.8-410c-6,8.5,0,23.2,0,23.2L209-363.1l10.1,2.5l-4,8.1
				l11.1,6.1c8.7-9.4,19.3-15.8,34.3-15.7c0,0,10.1,2.5,12.1,4.5c2,2,13.6,13.1,22.7,21.7c9.1,8.6,24.7,8.6,24.7,8.6l16.7-0.5
				l-2-8.1l9.6-6.1l-5.1-7.6l6.8-4.3l-10.4-19.4c3.9-2.8,6.9-6.7,8.6-11.1c3-7.6-6.2-21-15.2-32.8c-9.8,6.8-17.4,15.7-22.2,27.3
				c-6.3-2.9-12.1-4.2-16.7-0.5C283.7-395,277.6-394.3,272.6-391.8z"/>
			<g id="Layer_7_2_">
				<circle class="st4" cx="266.6" cy="-345.9" r="9.1"/>
				<circle class="st5" cx="269.1" cy="-348.4" r="4.8"/>
				<ellipse class="st5" cx="262.3" cy="-341.6" rx="2" ry="2"/>
				<circle class="st4" cx="324" cy="-347.2" r="7.7"/>
				<circle class="st5" cx="326.2" cy="-349.4" r="4"/>
				<circle class="st5" cx="320.4" cy="-343.6" r="1.7"/>
				<path d="M321.9-327.5c0.1,1.9,7.4,6,8.6,5.6c3.1-1.1,6.6-5.6,6.6-5.6H321.9z"/>
				<polygon class="st2" points="297.9,-384.8 293.3,-373.7 303.4,-363.6 307,-373.2 				"/>
				<polygon class="st6" points="280.7,-374.6 273.2,-382.9 267.3,-372.6 275.1,-366.3 				"/>
				<polygon class="st6" points="326.2,-374 320.1,-380.7 315.2,-372.3 321.6,-367.1 				"/>
				<path d="M336.6-327.5c-4.3,1.2-23.7-9.3-28.8-25.8C309.8-343.6,320.5-325.9,336.6-327.5z"/>
			</g>
		</g>
		<g id="Layer_12_2_">
			<path class="st3" d="M95.4-263.6l-21.7,4v-7.1L56-259.5l2-6.6l-14.6,6.6c0,0-10.6,12.6-22.2,18.7S8-234.8,8-234.8
				s22.7,9.1,29.8,12.1c7.1,3,16.7,3,25.8,3s18.7-3.5,23.2-7.1c4.5-3.5,9.6-12.6,9.6-20.7C96.3-252.8,96-258.2,95.4-263.6z"/>
		</g>
		<g id="Layer_9_2_">
			<path class="st2" d="M215-250.3c0,0,14.3,35.8,27.4,46.8c13.1,11,12.1-3.4,12.1-3.4l-7.6-49.3"/>
			<path class="st2" d="M120.3-274.1c0,0-10.8,39.2-7.2,56.7c3.6,17.4,11.8,4.6,11.8,4.6c4.5-7.5,9.5-14.8,14.9-21.6
				c7.4-9.4,22.6-19.9,21-15.7"/>
		</g>
	</g>
	<g id="Layer_1_6_">
		<title>foxy</title>
		<g id="Layer_3_6_">
			<g id="Layer_10_6_">
				<path class="st1" d="M502.7,326c0,0,9.2,30,23.1,40s11.9-4.3,11.9-4.3c-1.4-8.2-2.2-16.5-2.5-24.9c-0.4-11.3,4.5-28.5,5.9-24.4"
					/>
				<path class="st1" d="M604.5,323.6c0,0-7.8,19.8-3.3,36.2c4.5,16.5,10.8,7.4,10.8,7.4l24.9-49.7"/>
			</g>
			<g id="Layer_5_6_">
				<path class="st2" d="M576.2,231.6c-1,0.6,10.9,21.1,11.9,20.5c0,0-33.6,0.8-51.8-5.8c-18.2-6.6-40.4-2.8-49.2-2.5
					c-12.9,1.5-35.1,7.6-47.7,25.3s-61.1,66.7-73.7,71.2c-12.6,4.5,36.4,24.7,57.1,16.2c20.7-8.6,21.4-16.9,23.2-29.3
					c0,0-0.3-3.5-0.4-8.6c-0.4-11.4-0.6-30.5,2.9-34.3c5.1-5.6,9.1,1,9.1,1l13.1,32.8l2.3,15.5l42.2-8.3c5.9-2.6,12.3-3.8,18.7-3.5
					c10.6,0.5,29.3,7.6,29.3,7.6s20.7,10.1,38.4,9.6c17.7-0.5,29.3-10.1,33.8-18.7s3.8-25.4,4.8-36.1c1-11.1,3.8-11.4,8.8-14.4
					c5.1-3,24.2-4,29.8-6.1c1.9-0.4,3.5-1.5,4.5-3l4-9.6c-35.4-35.4-96-39.9-96-39.9L576.2,231.6z"/>
			</g>
			<path class="st3" d="M622.6,186.2c-1.8-7.1-10-18.6-26.8-35.9L584.8,168c-6,8.5,0,23.2,0,23.2L559,214.9l10.1,2.5l-4,8.1
				l11.1,6.1c8.7-9.4,19.3-15.8,34.3-15.7c0,0,10.1,2.5,12.1,4.5c2,2,13.6,13.1,22.7,21.7c9.1,8.6,24.7,8.6,24.7,8.6l16.7-0.5
				l-2-8.1l9.6-6.1l-5.1-7.6l6.8-4.3l-10.4-19.4c3.9-2.8,6.9-6.7,8.6-11.1c3-7.6-6.2-21-15.2-32.8c-9.8,6.8-17.4,15.7-22.2,27.3
				c-6.3-2.9-12.1-4.2-16.7-0.5C633.7,183,627.6,183.7,622.6,186.2z"/>
			<g id="Layer_7_6_">
				<circle class="st4" cx="616.6" cy="232.1" r="9.1"/>
				<circle class="st5" cx="619.1" cy="229.6" r="4.8"/>
				<ellipse class="st5" cx="612.3" cy="236.4" rx="2" ry="2"/>
				<circle class="st4" cx="674" cy="230.8" r="7.7"/>
				<circle class="st5" cx="676.2" cy="228.6" r="4"/>
				<circle class="st5" cx="670.4" cy="234.4" r="1.7"/>
				<path d="M671.9,250.5c0.1,1.9,7.4,6,8.6,5.6c3.1-1.1,6.6-5.6,6.6-5.6H671.9z"/>
				<polygon class="st2" points="647.9,193.2 643.3,204.3 653.4,214.4 657,204.8 				"/>
				<polygon class="st6" points="630.7,203.4 623.2,195.1 617.3,205.4 625.1,211.7 				"/>
				<polygon class="st6" points="676.2,204 670.1,197.3 665.2,205.7 671.6,210.9 				"/>
				<path d="M686.6,250.5c-4.3,1.2-23.7-9.3-28.8-25.8C659.8,234.4,670.5,252.1,686.6,250.5z"/>
			</g>
		</g>
		<g id="Layer_12_6_">
			<path class="st3" d="M445.4,314.4l-21.7,4v-7.1l-17.7,7.1l2-6.6l-14.6,6.6c0,0-10.6,12.6-22.2,18.7c-11.6,6.1-13.1,6.1-13.1,6.1
				s22.7,9.1,29.8,12.1c7.1,3,16.7,3,25.8,3c9.1,0,18.7-3.5,23.2-7.1c4.5-3.5,9.6-12.6,9.6-20.7C446.3,325.2,446,319.8,445.4,314.4z
				"/>
		</g>
		<g id="Layer_9_6_">
			<path class="st2" d="M565,327.7c0,0,14.3,35.8,27.4,46.8c13.1,11,12.1-3.4,12.1-3.4l-7.6-49.3"/>
			<path class="st2" d="M470.3,303.9c0,0-10.8,39.2-7.2,56.7c3.6,17.4,11.8,4.6,11.8,4.6c4.5-7.5,9.5-14.8,14.9-21.6
				c7.4-9.4,22.6-19.9,21-15.7"/>
		</g>
	</g>
</g>
<g id="Layer_1_copy_3">
	<rect y="-578" class="st0" width="350" height="500"/>
	<g id="Layer_2_4_">
	</g>
	<g id="Layer_1_5_">
		<title>foxy</title>
		<g id="Layer_3_3_">
			<g id="Layer_10_3_">
				<path class="st1" d="M165.6-258c0,0-1.5,31.3,8.1,45.5c9.6,14.1,12.6,0,12.6,0c1.5-8.2,3.5-16.3,6.1-24.2
					c3.5-10.8,13.9-25.3,13.9-21"/>
				<path class="st1" d="M259-250.4c0,0-1,21.2,8.6,35.4c9.6,14.1,12.6,3.5,12.6,3.5l7.6-55"/>
			</g>
			<g id="Layer_5_3_">
				<path class="st2" d="M226.2-346.4c-1,0.6,10.9,21.1,11.9,20.5c0,0-33.6,0.8-51.8-5.8s-40.4-2.8-49.2-2.5
					c-12.9,1.5-35.1,7.6-47.7,25.3c-12.6,17.7-61.1,66.7-73.7,71.2c-12.6,4.5,36.4,24.7,57.1,16.2c20.7-8.6,21.4-16.9,23.2-29.3
					c0,0-0.3-3.5-0.4-8.6c-0.4-11.4-0.6-30.5,2.9-34.3c5.1-5.6,9.1,1,9.1,1l13.1,32.8l2.3,15.5l42.2-8.3c5.9-2.6,12.3-3.8,18.7-3.5
					c10.6,0.5,29.3,7.6,29.3,7.6s20.7,10.1,38.4,9.6s29.3-10.1,33.8-18.7c4.5-8.6,3.8-25.4,4.8-36.1c1-11.1,3.8-11.4,8.8-14.4
					c5.1-3,24.2-4,29.8-6.1c1.9-0.4,3.5-1.5,4.5-3l4-9.6c-35.4-35.4-96-39.9-96-39.9L226.2-346.4z"/>
			</g>
			<path class="st3" d="M272.6-391.8c-1.8-7.1-10-18.6-26.8-35.9L234.8-410c-6,8.5,0,23.2,0,23.2L209-363.1l10.1,2.5l-4,8.1
				l11.1,6.1c8.7-9.4,19.3-15.8,34.3-15.7c0,0,10.1,2.5,12.1,4.5c2,2,13.6,13.1,22.7,21.7c9.1,8.6,24.7,8.6,24.7,8.6l16.7-0.5
				l-2-8.1l9.6-6.1l-5.1-7.6l6.8-4.3l-10.4-19.4c3.9-2.8,6.9-6.7,8.6-11.1c3-7.6-6.2-21-15.2-32.8c-9.8,6.8-17.4,15.7-22.2,27.3
				c-6.3-2.9-12.1-4.2-16.7-0.5C283.7-395,277.6-394.3,272.6-391.8z"/>
			<g id="Layer_7_3_">
				<circle class="st4" cx="266.6" cy="-345.9" r="9.1"/>
				<circle class="st5" cx="269.1" cy="-348.4" r="4.8"/>
				<ellipse class="st5" cx="262.3" cy="-341.6" rx="2" ry="2"/>
				<circle class="st4" cx="324" cy="-347.2" r="7.7"/>
				<circle class="st5" cx="326.2" cy="-349.4" r="4"/>
				<circle class="st5" cx="320.4" cy="-343.6" r="1.7"/>
				<path d="M321.9-327.5c0.1,1.9,7.4,6,8.6,5.6c3.1-1.1,6.6-5.6,6.6-5.6H321.9z"/>
				<polygon class="st2" points="297.9,-384.8 293.3,-373.7 303.4,-363.6 307,-373.2 				"/>
				<polygon class="st6" points="280.7,-374.6 273.2,-382.9 267.3,-372.6 275.1,-366.3 				"/>
				<polygon class="st6" points="326.2,-374 320.1,-380.7 315.2,-372.3 321.6,-367.1 				"/>
				<path d="M336.6-327.5c-4.3,1.2-23.7-9.3-28.8-25.8C309.8-343.6,320.5-325.9,336.6-327.5z"/>
			</g>
		</g>
		<g id="Layer_12_3_">
			<path class="st3" d="M95.4-263.6l-21.7,4v-7.1L56-259.5l2-6.6l-14.6,6.6c0,0-10.6,12.6-22.2,18.7S8-234.8,8-234.8
				s22.7,9.1,29.8,12.1c7.1,3,16.7,3,25.8,3s18.7-3.5,23.2-7.1c4.5-3.5,9.6-12.6,9.6-20.7C96.3-252.8,96-258.2,95.4-263.6z"/>
		</g>
		<g id="Layer_9_3_">
			<path class="st2" d="M219.6-259.5c0,0,4,38.4,13.6,52.5c9.6,14.1,12.6,0,12.6,0l6.1-49.5"/>
			<path class="st2" d="M118.9-265.8c0,0,4,40.5,13.7,55.5s12.7,0,12.7,0c1.5-8.6,3.5-17.2,6.1-25.6c3.5-11.4,13.9-26.7,13.9-22.2"
				/>
		</g>
	</g>
	<g id="Layer_1_7_">
		<title>foxy</title>
		<g id="Layer_3_7_">
			<g id="Layer_10_7_">
				<path class="st1" d="M864.6,320c0,0-1.5,31.3,8.1,45.5s12.6,0,12.6,0c1.5-8.2,3.5-16.3,6.1-24.2c3.5-10.8,13.9-25.3,13.9-21"/>
				<path class="st1" d="M958,327.6c0,0-1,21.2,8.6,35.4s12.6,3.5,12.6,3.5l7.6-55"/>
			</g>
			<g id="Layer_5_7_">
				<path class="st2" d="M925.2,231.6c-1,0.6,10.9,21.1,11.9,20.5c0,0-33.6,0.8-51.8-5.8c-18.2-6.6-40.4-2.8-49.2-2.5
					c-12.9,1.5-35.1,7.6-47.7,25.3s-61.1,66.7-73.7,71.2c-12.6,4.5,36.4,24.7,57.1,16.2c20.7-8.6,21.4-16.9,23.2-29.3
					c0,0-0.3-3.5-0.4-8.6c-0.4-11.4-0.6-30.5,2.9-34.3c5.1-5.6,9.1,1,9.1,1l13.1,32.8l2.3,15.5l42.2-8.3c5.9-2.6,12.3-3.8,18.7-3.5
					c10.6,0.5,29.3,7.6,29.3,7.6s20.7,10.1,38.4,9.6c17.7-0.5,29.3-10.1,33.8-18.7s3.8-25.4,4.8-36.1c1-11.1,3.8-11.4,8.8-14.4
					c5.1-3,24.2-4,29.8-6.1c1.9-0.4,3.5-1.5,4.5-3l4-9.6c-35.4-35.4-96-39.9-96-39.9L925.2,231.6z"/>
			</g>
			<path class="st3" d="M971.6,186.2c-1.8-7.1-10-18.6-26.8-35.9L933.8,168c-6,8.5,0,23.2,0,23.2L908,214.9l10.1,2.5l-4,8.1
				l11.1,6.1c8.7-9.4,19.3-15.8,34.3-15.7c0,0,10.1,2.5,12.1,4.5c2,2,13.6,13.1,22.7,21.7c9.1,8.6,24.7,8.6,24.7,8.6l16.7-0.5
				l-2-8.1l9.6-6.1l-5.1-7.6l6.8-4.3l-10.4-19.4c3.9-2.8,6.9-6.7,8.6-11.1c3-7.6-6.2-21-15.2-32.8c-9.8,6.8-17.4,15.7-22.2,27.3
				c-6.3-2.9-12.1-4.2-16.7-0.5C982.7,183,976.6,183.7,971.6,186.2z"/>
			<g id="Layer_7_7_">
				<circle class="st4" cx="965.6" cy="232.1" r="9.1"/>
				<circle class="st5" cx="968.1" cy="229.6" r="4.8"/>
				<ellipse class="st5" cx="961.3" cy="236.4" rx="2" ry="2"/>
				<circle class="st4" cx="1023" cy="230.8" r="7.7"/>
				<circle class="st5" cx="1025.2" cy="228.6" r="4"/>
				<circle class="st5" cx="1019.4" cy="234.4" r="1.7"/>
				<path d="M1020.9,250.5c0.1,1.9,7.4,6,8.6,5.6c3.1-1.1,6.6-5.6,6.6-5.6H1020.9z"/>
				<polygon class="st2" points="996.9,193.2 992.3,204.3 1002.4,214.4 1006,204.8 				"/>
				<polygon class="st6" points="979.7,203.4 972.2,195.1 966.3,205.4 974.1,211.7 				"/>
				<polygon class="st6" points="1025.2,204 1019.1,197.3 1014.2,205.7 1020.6,210.9 				"/>
				<path d="M1035.6,250.5c-4.3,1.2-23.7-9.3-28.8-25.8C1008.8,234.4,1019.5,252.1,1035.6,250.5z"/>
			</g>
		</g>
		<g id="Layer_12_7_">
			<path class="st3" d="M794.4,314.4l-21.7,4v-7.1l-17.7,7.1l2-6.6l-14.6,6.6c0,0-10.6,12.6-22.2,18.7c-11.6,6.1-13.1,6.1-13.1,6.1
				s22.7,9.1,29.8,12.1c7.1,3,16.7,3,25.8,3s18.7-3.5,23.2-7.1c4.5-3.5,9.6-12.6,9.6-20.7C795.3,325.2,795,319.8,794.4,314.4z"/>
		</g>
		<g id="Layer_9_7_">
			<path class="st2" d="M918.6,318.5c0,0,4,38.4,13.6,52.5s12.6,0,12.6,0l6.1-49.5"/>
			<path class="st2" d="M817.9,312.2c0,0,4,40.5,13.7,55.5c9.6,14.9,12.7,0,12.7,0c1.5-8.6,3.5-17.2,6.1-25.6
				c3.5-11.4,13.9-26.7,13.9-22.2"/>
		</g>
	</g>
</g>
<g id="Layer_1_copy">
	<rect y="-578" class="st0" width="350" height="500"/>
	<g id="Layer_2_2_">
	</g>
	<g id="Layer_1_3_">
		<title>foxy</title>
		<g id="Layer_3_1_">
			<g id="Layer_10_1_">
				<path class="st1" d="M159.5-271.3c0,0-13.6,28.3-10.2,45s11.6,4.9,11.6,4.9c4.5-7,9.6-13.7,15-20c7.4-8.6,22.6-17.9,20.9-13.9"
					/>
				<path class="st1" d="M255.8-244.7c0,0,2.7,21.1,14.6,33.3c11.9,12.2,13,1.3,13,1.3l-2.1-55.5"/>
			</g>
			<g id="Layer_5_1_">
				<path class="st2" d="M226.2-346.4c-1,0.6,10.9,21.1,11.9,20.5c0,0-33.6,0.8-51.8-5.8s-40.4-2.8-49.2-2.5
					c-12.9,1.5-35.1,7.6-47.7,25.3c-12.6,17.7-61.1,66.7-73.7,71.2c-12.6,4.5,36.4,24.7,57.1,16.2c20.7-8.6,21.4-16.9,23.2-29.3
					c0,0-0.3-3.5-0.4-8.6c-0.4-11.4-0.6-30.5,2.9-34.3c5.1-5.6,9.1,1,9.1,1l13.1,32.8l8.4,15.5l36.1-8.3c5.9-2.6,12.3-3.8,18.7-3.5
					c10.6,0.5,29.3,7.6,29.3,7.6s20.7,10.1,38.4,9.6s29.3-10.1,33.8-18.7c4.5-8.6,3.8-25.4,4.8-36.1c1-11.1,3.8-11.4,8.8-14.4
					c5.1-3,24.2-4,29.8-6.1c1.9-0.4,3.5-1.5,4.5-3l4-9.6c-35.4-35.4-96-39.9-96-39.9L226.2-346.4z"/>
			</g>
			<path class="st3" d="M272.6-391.8c-1.8-7.1-10-18.6-26.8-35.9L234.8-410c-6,8.5,0,23.2,0,23.2L209-363.1l10.1,2.5l-4,8.1
				l11.1,6.1c8.7-9.4,19.3-15.8,34.3-15.7c0,0,10.1,2.5,12.1,4.5c2,2,13.6,13.1,22.7,21.7c9.1,8.6,24.7,8.6,24.7,8.6l16.7-0.5
				l-2-8.1l9.6-6.1l-5.1-7.6l6.8-4.3l-10.4-19.4c3.9-2.8,6.9-6.7,8.6-11.1c3-7.6-6.2-21-15.2-32.8c-9.8,6.8-17.4,15.7-22.2,27.3
				c-6.3-2.9-12.1-4.2-16.7-0.5C283.7-395,277.6-394.3,272.6-391.8z"/>
			<g id="Layer_7_1_">
				<circle class="st4" cx="266.6" cy="-345.9" r="9.1"/>
				<circle class="st5" cx="269.1" cy="-348.4" r="4.8"/>
				<ellipse class="st5" cx="262.3" cy="-341.6" rx="2" ry="2"/>
				<circle class="st4" cx="324" cy="-347.2" r="7.7"/>
				<circle class="st5" cx="326.2" cy="-349.4" r="4"/>
				<circle class="st5" cx="320.4" cy="-343.6" r="1.7"/>
				<path d="M321.9-327.5c0.1,1.9,7.4,6,8.6,5.6c3.1-1.1,6.6-5.6,6.6-5.6H321.9z"/>
				<polygon class="st2" points="297.9,-384.8 293.3,-373.7 303.4,-363.6 307,-373.2 				"/>
				<polygon class="st6" points="280.7,-374.6 273.2,-382.9 267.3,-372.6 275.1,-366.3 				"/>
				<polygon class="st6" points="326.2,-374 320.1,-380.7 315.2,-372.3 321.6,-367.1 				"/>
				<path d="M336.6-327.5c-4.3,1.2-23.7-9.3-28.8-25.8C309.8-343.6,320.5-325.9,336.6-327.5z"/>
			</g>
		</g>
		<g id="Layer_12_1_">
			<path class="st3" d="M95.4-263.6l-21.7,4v-7.1L56-259.5l2-6.6l-14.6,6.6c0,0-10.6,12.6-22.2,18.7S8-234.8,8-234.8
				s22.7,9.1,29.8,12.1c7.1,3,16.7,3,25.8,3s18.7-3.5,23.2-7.1c4.5-3.5,9.6-12.6,9.6-20.7C96.3-252.8,96-258.2,95.4-263.6z"/>
		</g>
		<g id="Layer_9_1_">
			<path class="st2" d="M231.7-262.3c0,0-12,36.7-9,53.5c3,16.8,11.5,5.2,11.5,5.2l25.8-42.7"/>
			<path class="st2" d="M118.4-267.7c0,0,8.4,39.8,19.7,53.6s12.6-1.4,12.6-1.4c0.6-8.7,1.6-17.5,3.3-26.1
				c2.3-11.7,10.9-28.1,11.4-23.6"/>
		</g>
	</g>
	<g id="Layer_1_8_">
		<title>foxy</title>
		<g id="Layer_3_8_">
			<g id="Layer_10_8_">
				<path class="st1" d="M1209.5,306.7c0,0-13.6,28.3-10.2,45c3.3,16.8,11.6,4.9,11.6,4.9c4.5-7,9.6-13.7,15-20
					c7.4-8.6,22.6-17.9,20.9-13.9"/>
				<path class="st1" d="M1305.8,333.3c0,0,2.7,21.1,14.6,33.3c11.9,12.2,13,1.3,13,1.3l-2.1-55.5"/>
			</g>
			<g id="Layer_5_8_">
				<path class="st2" d="M1276.2,231.6c-1,0.6,10.9,21.1,11.9,20.5c0,0-33.6,0.8-51.8-5.8c-18.2-6.6-40.4-2.8-49.2-2.5
					c-12.9,1.5-35.1,7.6-47.7,25.3c-12.6,17.7-61.1,66.7-73.7,71.2c-12.6,4.5,36.4,24.7,57.1,16.2c20.7-8.6,21.4-16.9,23.2-29.3
					c0,0-0.3-3.5-0.4-8.6c-0.4-11.4-0.6-30.5,2.9-34.3c5.1-5.6,9.1,1,9.1,1l13.1,32.8l8.4,15.5l36.1-8.3c5.9-2.6,12.3-3.8,18.7-3.5
					c10.6,0.5,29.3,7.6,29.3,7.6s20.7,10.1,38.4,9.6c17.7-0.5,29.3-10.1,33.8-18.7c4.5-8.6,3.8-25.4,4.8-36.1
					c1-11.1,3.8-11.4,8.8-14.4c5.1-3,24.2-4,29.8-6.1c1.9-0.4,3.5-1.5,4.5-3l4-9.6c-35.4-35.4-96-39.9-96-39.9L1276.2,231.6z"/>
			</g>
			<path class="st3" d="M1322.6,186.2c-1.8-7.1-10-18.6-26.8-35.9l-11.1,17.7c-6,8.5,0,23.2,0,23.2l-25.8,23.7l10.1,2.5l-4,8.1
				l11.1,6.1c8.7-9.4,19.3-15.8,34.3-15.7c0,0,10.1,2.5,12.1,4.5c2,2,13.6,13.1,22.7,21.7s24.7,8.6,24.7,8.6l16.7-0.5l-2-8.1
				l9.6-6.1l-5.1-7.6l6.8-4.3l-10.4-19.4c3.9-2.8,6.9-6.7,8.6-11.1c3-7.6-6.2-21-15.2-32.8c-9.8,6.8-17.4,15.7-22.2,27.3
				c-6.3-2.9-12.1-4.2-16.7-0.5C1333.7,183,1327.6,183.7,1322.6,186.2z"/>
			<g id="Layer_7_8_">
				<circle class="st4" cx="1316.6" cy="232.1" r="9.1"/>
				<circle class="st5" cx="1319.1" cy="229.6" r="4.8"/>
				<ellipse class="st5" cx="1312.3" cy="236.4" rx="2" ry="2"/>
				<circle class="st4" cx="1374" cy="230.8" r="7.7"/>
				<circle class="st5" cx="1376.2" cy="228.6" r="4"/>
				<circle class="st5" cx="1370.4" cy="234.4" r="1.7"/>
				<path d="M1371.9,250.5c0.1,1.9,7.4,6,8.6,5.6c3.1-1.1,6.6-5.6,6.6-5.6H1371.9z"/>
				<polygon class="st2" points="1347.9,193.2 1343.3,204.3 1353.4,214.4 1357,204.8 				"/>
				<polygon class="st6" points="1330.7,203.4 1323.2,195.1 1317.3,205.4 1325.1,211.7 				"/>
				<polygon class="st6" points="1376.2,204 1370.1,197.3 1365.2,205.7 1371.6,210.9 				"/>
				<path d="M1386.6,250.5c-4.3,1.2-23.7-9.3-28.8-25.8C1359.8,234.4,1370.5,252.1,1386.6,250.5z"/>
			</g>
		</g>
		<g id="Layer_12_8_">
			<path class="st3" d="M1145.4,314.4l-21.7,4v-7.1l-17.7,7.1l2-6.6l-14.6,6.6c0,0-10.6,12.6-22.2,18.7c-11.6,6.1-13.1,6.1-13.1,6.1
				s22.7,9.1,29.8,12.1c7.1,3,16.7,3,25.8,3c9.1,0,18.7-3.5,23.2-7.1c4.5-3.5,9.6-12.6,9.6-20.7
				C1146.3,325.2,1146,319.8,1145.4,314.4z"/>
		</g>
		<g id="Layer_9_8_">
			<path class="st2" d="M1281.7,315.7c0,0-12,36.7-9,53.5c3,16.8,11.5,5.2,11.5,5.2l25.8-42.7"/>
			<path class="st2" d="M1168.4,310.3c0,0,8.4,39.8,19.7,53.6c11.2,13.8,12.6-1.4,12.6-1.4c0.6-8.7,1.6-17.5,3.3-26.1
				c2.3-11.7,10.9-28.1,11.4-23.6"/>
		</g>
	</g>
</g>
</svg>
