<?xml version="1.0" encoding="utf-8"?>
<!-- Generator: Adobe Illustrator 22.1.0, SVG Export Plug-In . SVG Version: 6.00 Build 0)  -->
<svg version="1.1" xmlns="http://www.w3.org/2000/svg" xmlns:xlink="http://www.w3.org/1999/xlink" x="0px" y="0px"
	 viewBox="0 0 2450 500" style="enable-background:new 0 0 2450 500;" xml:space="preserve">
<style type="text/css">
	.st0{fill:#A54C4C;stroke:#000000;stroke-miterlimit:10;}
	.st1{fill:#939393;stroke:#939393;stroke-width:3;stroke-miterlimit:10;}
	.st2{fill:#FFFFFF;stroke:#FFFFFF;stroke-width:3;stroke-miterlimit:10;}
	.st3{fill:#C7EFF9;stroke:#C7EFF9;stroke-width:3;stroke-miterlimit:10;}
	.st4{stroke:#000000;stroke-width:3;stroke-miterlimit:10;}
	.st5{fill:#FFFFFF;}
	.st6{fill:none;stroke:#FFFFFF;stroke-width:3;stroke-miterlimit:10;}
	.st7{fill:#56A8A4;stroke:#56A8A4;stroke-width:3;stroke-miterlimit:10;}
	.st8{fill:#DD76E5;stroke:#DD76E5;stroke-width:3;stroke-miterlimit:10;}
	.st9{fill:#E5E576;stroke:#E5E576;stroke-width:3;stroke-miterlimit:10;}
	.st10{fill:#44FC51;}
	.st11{fill:#9278A8;stroke:#56A8A4;stroke-width:3;stroke-miterlimit:10;}
	.st12{fill:#A54C4C;stroke:#A54C4C;stroke-miterlimit:10;}
	.st13{fill:#84BF87;stroke:#A54C4C;stroke-miterlimit:10;}
</style>
<g id="_x31_">
	<g id="Layer_4">
	</g>
</g>
<g id="_x32_">
	<g id="Layer_5">
		<rect x="1052.1" y="-2.5" class="st7" width="350" height="500"/>
	</g>
	<g id="Layer_1_10_">
		<g id="Layer_3_10_">
			<g id="Layer_10_10_">
				<path class="st1" d="M1204.2,300.9c0,0,1.4,30.1,11.9,42.8c10.5,12.7,12.1-1.2,12.1-1.2c0.6-8,1.9-15.9,3.6-23.8
					c2.3-10.7,11-25.5,11.4-21.4"/>
				<path class="st1" d="M1296.7,306.6c0,0-6.7,19.3-1.6,35s10.7,6.7,10.7,6.7l21.9-48.8"/>
			</g>
			<g id="Layer_5_10_">
				<path class="st2" d="M1269.1,215.5c-1,0.6,10.4,20.3,11.4,19.7c0,0-32.3,0.7-49.8-5.6c-17.5-6.3-38.9-2.7-47.4-2.4
					c-12.4,1.5-33.8,7.3-45.9,24.3c-12.1,17-58.8,64.1-70.9,68.5c-12.1,4.4,35,23.8,54.9,15.5s20.6-16.3,22.4-28.2
					c0,0-0.2-3.4-0.4-8.3c-0.4-10.9-0.5-29.3,2.8-33c4.9-5.3,8.7,1,8.7,1l12.6,31.5l2.2,14.9l40.6-8c5.6-2.5,11.8-3.7,18-3.4
					c10.2,0.5,28.2,7.3,28.2,7.3s19.9,9.7,36.9,9.2c17-0.5,28.2-9.7,32.6-18c4.4-8.3,3.7-24.4,4.6-34.7c1-10.7,3.6-10.9,8.5-13.8
					s23.3-3.9,28.7-5.8c1.8-0.3,3.4-1.4,4.4-2.9l3.9-9.2c-34-34-92.3-38.4-92.3-38.4L1269.1,215.5z"/>
			</g>
			<path class="st3" d="M1313.8,171.8c-1.7-6.9-9.7-17.9-25.8-34.5l-10.7,17c-5.8,8.2,0,22.4,0,22.4l-24.8,22.8l9.7,2.4l-3.9,7.8
				l10.7,5.8c8.4-9,18.6-15.2,33-15.1c0,0,9.7,2.4,11.7,4.4c1.9,1.9,13.1,12.6,21.9,20.9c8.7,8.3,23.8,8.3,23.8,8.3l16-0.5l-1.9-7.8
				l9.2-5.8l-4.9-7.3l6.6-4.1l-10-18.7c3.7-2.7,6.6-6.4,8.3-10.7c2.9-7.3-5.9-20.2-14.6-31.6c-9.4,6.6-16.7,15.1-21.4,26.2
				c-6-2.8-11.7-4-16-0.5C1324.5,168.8,1318.6,169.4,1313.8,171.8z"/>
			<g id="Layer_7_10_">
				<circle class="st4" cx="1308" cy="216" r="8.7"/>
				<circle class="st5" cx="1310.4" cy="213.6" r="4.6"/>
				<ellipse class="st5" cx="1303.8" cy="220.1" rx="1.9" ry="1.9"/>
				<circle class="st4" cx="1363.2" cy="214.7" r="7.4"/>
				<circle class="st5" cx="1365.3" cy="212.6" r="3.9"/>
				<circle class="st5" cx="1359.7" cy="218.2" r="1.7"/>
				<path d="M1361.2,233.7c0,1.8,7.1,5.8,8.3,5.3c3-1.1,6.3-5.3,6.3-5.3H1361.2z"/>
				<polygon class="st2" points="1338.1,178.6 1333.7,189.3 1343.4,199 1346.8,189.7 				"/>
				<polygon class="st6" points="1321.5,188.3 1314.4,180.4 1308.6,190.3 1316.1,196.4 				"/>
				<polygon class="st6" points="1365.4,188.9 1359.4,182.5 1354.8,190.6 1360.9,195.5 				"/>
				<path d="M1375.3,233.7c-4.1,1.1-22.8-8.9-27.7-24.8C1349.5,218.2,1359.9,235.2,1375.3,233.7z"/>
			</g>
		</g>
		<g id="Layer_12_10_">
			<path class="st3" d="M1143.3,295.2l-20.9,3.9v-6.8l-17,6.8l1.9-6.3l-14.1,6.3c0,0-10.2,12.1-21.4,18c-11.2,5.8-12.6,5.8-12.6,5.8
				s21.9,8.7,28.7,11.7s16,2.9,24.8,2.9c8.7,0,18-3.4,22.4-6.8c4.4-3.4,9.2-12.1,9.2-19.9C1144.2,305.5,1143.8,300.3,1143.3,295.2z"
				/>
		</g>
		<g id="Layer_9_10_">
			<path class="st2" d="M1260.3,304.1c0,0,10,35.8,21.4,47.6s12-2,12-2l-2.2-47.9"/>
			<path class="st2" d="M1166.3,288.3c0,0-3.3,39,3.2,54.9c6.5,15.8,12,2.2,12,2.2c2.9-7.9,6.4-15.6,10.3-23.1
				c5.3-10.2,17.9-22.8,17.1-18.5"/>
		</g>
	</g>
</g>
<g id="_x33_">
	<g id="Layer_5_copy">
		<rect x="1052.1" y="-2.5" class="st8" width="350" height="500"/>
	</g>
	<g id="Layer_1_9_">
		<g id="Layer_3_9_">
			<g id="Layer_10_9_">
				<path class="st1" d="M1202.6,305.3c0,0,7,29.3,19.6,39.9c12.6,10.5,11.7-3.4,11.7-3.4c-0.8-8-1.1-16-0.9-24
					c0.3-10.9,6.1-27,7.2-23.1"/>
				<path class="st1" d="M1291.3,304.7c0,0-11.3,17-10.4,33.4s8.7,9.2,8.7,9.2l33.5-41.7"/>
			</g>
			<g id="Layer_5_9_">
				<path class="st2" d="M1269.1,215.5c-1,0.6,10.4,20.3,11.4,19.7c0,0-32.3,0.7-49.8-5.6c-17.5-6.3-38.9-2.7-47.4-2.4
					c-12.4,1.5-33.8,7.3-45.9,24.3c-12.1,17-58.8,64.1-70.9,68.5c-12.1,4.4,35,23.8,54.9,15.5s20.6-16.3,22.4-28.2
					c0,0-0.2-3.4-0.4-8.3c-0.4-10.9-0.5-29.3,2.8-33c4.9-5.3,8.7,1,8.7,1l12.6,31.5l2.2,14.9l40.6-8c5.6-2.5,11.8-3.7,18-3.4
					c10.2,0.5,28.2,7.3,28.2,7.3s19.9,9.7,36.9,9.2c17-0.5,28.2-9.7,32.6-18c4.4-8.3,3.7-24.4,4.6-34.7c1-10.7,3.6-10.9,8.5-13.8
					s23.3-3.9,28.7-5.8c1.8-0.3,3.4-1.4,4.4-2.9l3.9-9.2c-34-34-92.3-38.4-92.3-38.4L1269.1,215.5z"/>
			</g>
			<path class="st3" d="M1313.8,171.8c-1.7-6.9-9.7-17.9-25.8-34.5l-10.7,17c-5.8,8.2,0,22.4,0,22.4l-24.8,22.8l9.7,2.4l-3.9,7.8
				l10.7,5.8c8.4-9,18.6-15.2,33-15.1c0,0,9.7,2.4,11.7,4.4c1.9,1.9,13.1,12.6,21.9,20.9c8.7,8.3,23.8,8.3,23.8,8.3l16-0.5l-1.9-7.8
				l9.2-5.8l-4.9-7.3l6.6-4.1l-10-18.7c3.7-2.7,6.6-6.4,8.3-10.7c2.9-7.3-5.9-20.2-14.6-31.6c-9.4,6.6-16.7,15.1-21.4,26.2
				c-6-2.8-11.7-4-16-0.5C1324.5,168.8,1318.6,169.4,1313.8,171.8z"/>
			<g id="Layer_7_9_">
				<circle class="st4" cx="1308" cy="216" r="8.7"/>
				<circle class="st5" cx="1310.4" cy="213.6" r="4.6"/>
				<ellipse class="st5" cx="1303.8" cy="220.1" rx="1.9" ry="1.9"/>
				<circle class="st4" cx="1363.2" cy="214.7" r="7.4"/>
				<circle class="st5" cx="1365.3" cy="212.6" r="3.9"/>
				<circle class="st5" cx="1359.7" cy="218.2" r="1.7"/>
				<path d="M1361.2,233.7c0,1.8,7.1,5.8,8.3,5.3c3-1.1,6.3-5.3,6.3-5.3H1361.2z"/>
				<polygon class="st2" points="1338.1,178.6 1333.7,189.3 1343.4,199 1346.8,189.7 				"/>
				<polygon class="st6" points="1321.5,188.3 1314.4,180.4 1308.6,190.3 1316.1,196.4 				"/>
				<polygon class="st6" points="1365.4,188.9 1359.4,182.5 1354.8,190.6 1360.9,195.5 				"/>
				<path d="M1375.3,233.7c-4.1,1.1-22.8-8.9-27.7-24.8C1349.5,218.2,1359.9,235.2,1375.3,233.7z"/>
			</g>
		</g>
		<g id="Layer_12_9_">
			<path class="st3" d="M1143.3,295.2l-20.9,3.9v-6.8l-17,6.8l1.9-6.3l-14.1,6.3c0,0-10.2,12.1-21.4,18c-11.2,5.8-12.6,5.8-12.6,5.8
				s21.9,8.7,28.7,11.7s16,2.9,24.8,2.9c8.7,0,18-3.4,22.4-6.8c4.4-3.4,9.2-12.1,9.2-19.9C1144.2,305.5,1143.8,300.3,1143.3,295.2z"
				/>
		</g>
		<g id="Layer_9_9_">
			<path class="st2" d="M1266.7,303.8c0,0,10,35.8,21.4,47.6c11.4,11.9,12-2,12-2l-2.2-47.9"/>
			<path class="st2" d="M1173.6,282.9c0,0-10.7,37.7-7.4,54.4s11.3,4.5,11.3,4.5c4.4-7.2,9.2-14.1,14.5-20.7
				c7.2-9,21.9-19,20.3-14.9"/>
		</g>
	</g>
</g>
<g id="_x34_">
	<g id="Layer_5_copy_2">
		<rect x="1052.1" y="-2.5" class="st9" width="350" height="500"/>
	</g>
	<g id="Layer_1_6_">
		<g id="Layer_3_1_">
			<g id="Layer_10_6_">
				<path class="st1" d="M1200.4,309.5c0,0,11.1,28,25.2,36.6s11.1-5,11.1-5c-2-7.7-3.4-15.7-4.3-23.6c-1.2-10.9,2.1-27.6,3.8-23.9"
					/>
				<path class="st1" d="M1287.7,308c0,0-11.3,17-10.4,33.4s8.7,9.2,8.7,9.2l33.5-41.7"/>
			</g>
			<g id="Layer_5_6_">
				<path class="st2" d="M1268.2,218.8c-1,0.6,10.4,20.3,11.4,19.7c0,0-32.3,0.7-49.8-5.6c-17.5-6.3-38.9-2.7-47.4-2.4
					c-12.4,1.5-33.8,7.3-45.9,24.3c-12.1,17-58.8,64.1-70.9,68.5c-12.1,4.4,35,23.8,54.9,15.5c19.9-8.3,20.6-16.3,22.4-28.2
					c0,0-0.2-3.4-0.4-8.3c-0.4-10.9-0.5-29.3,2.8-33c4.9-5.3,8.7,1,8.7,1l12.6,31.5l2.2,14.9l40.6-8c5.6-2.5,11.8-3.7,18-3.4
					c10.2,0.5,28.2,7.3,28.2,7.3s19.9,9.7,36.9,9.2c17-0.5,28.2-9.7,32.6-18c4.4-8.3,3.7-24.4,4.6-34.7c1-10.7,3.6-10.9,8.5-13.8
					c4.9-2.9,23.3-3.9,28.7-5.8c1.8-0.3,3.4-1.4,4.4-2.9l3.9-9.2c-34-34-92.3-38.4-92.3-38.4L1268.2,218.8z"/>
			</g>
			<path class="st3" d="M1313,175c-1.7-6.9-9.7-17.9-25.8-34.5l-10.7,17c-5.8,8.2,0,22.4,0,22.4l-24.8,22.8l9.7,2.4l-3.9,7.8
				l10.7,5.8c8.4-9,18.6-15.2,33-15.1c0,0,9.7,2.4,11.7,4.4c1.9,1.9,13.1,12.6,21.9,20.9c8.7,8.3,23.8,8.3,23.8,8.3l16-0.5l-1.9-7.8
				l9.2-5.8l-4.9-7.3l6.6-4.1l-10-18.7c3.7-2.7,6.6-6.4,8.3-10.7c2.9-7.3-5.9-20.2-14.6-31.6c-9.4,6.6-16.7,15.1-21.4,26.2
				c-6-2.8-11.7-4-16-0.5C1323.6,172,1317.8,172.7,1313,175z"/>
			<g id="Layer_7_6_">
				<circle class="st4" cx="1307.1" cy="219.3" r="8.7"/>
				<circle class="st5" cx="1309.5" cy="216.8" r="4.6"/>
				<ellipse class="st5" cx="1303" cy="223.4" rx="1.9" ry="1.9"/>
				<circle class="st4" cx="1362.4" cy="217.9" r="7.4"/>
				<circle class="st5" cx="1364.5" cy="215.9" r="3.9"/>
				<circle class="st5" cx="1358.9" cy="221.4" r="1.7"/>
				<path d="M1360.3,237c0,1.8,7.1,5.8,8.3,5.3c3-1.1,6.3-5.3,6.3-5.3H1360.3z"/>
				<polygon class="st2" points="1337.2,181.8 1332.9,192.5 1342.6,202.2 1346,193 				"/>
				<polygon class="st6" points="1320.7,191.6 1313.5,183.7 1307.8,193.6 1315.3,199.6 				"/>
				<polygon class="st6" points="1364.5,192.2 1358.6,185.7 1353.9,193.8 1360.1,198.8 				"/>
				<path d="M1374.5,237c-4.1,1.1-22.8-8.9-27.7-24.8C1348.7,221.4,1359,238.5,1374.5,237z"/>
			</g>
		</g>
		<g id="Layer_12_6_">
			<path class="st3" d="M1143.3,295.2l-20.9,3.9v-6.8l-17,6.8l1.9-6.3l-14.1,6.3c0,0-10.2,12.1-21.4,18c-11.2,5.8-12.6,5.8-12.6,5.8
				s21.9,8.7,28.7,11.7s16,2.9,24.8,2.9c8.7,0,18-3.4,22.4-6.8c4.4-3.4,9.2-12.1,9.2-19.9C1144.2,305.5,1143.8,300.3,1143.3,295.2z"
				/>
		</g>
		<g id="Layer_9_6_">
			<path class="st2" d="M1264.3,305.9c0,0,13.5,34.6,26,45.3s11.7-3.2,11.7-3.2l-7-47.5"/>
			<path class="st2" d="M1171.3,282.7c0,0-12.8,37-10.4,54c2.4,16.9,11.1,5.1,11.1,5.1c4.8-6.9,10-13.6,15.6-19.9
				c7.7-8.5,22.9-17.7,21.1-13.8"/>
		</g>
	</g>
</g>
<g id="_x33__1_">
	<g id="Layer_5_copy_3">
		<rect x="702.1" y="-1.5" class="st8" width="350" height="500"/>
		<rect x="1402.1" y="-1.5" class="st10" width="350" height="500"/>
		<g id="Layer_1_4_">
			<g id="Layer_3_5_">
				<g id="Layer_10_4_">
					<path class="st1" d="M1552.6,305.3c0,0,7,29.3,19.6,39.9c12.6,10.5,11.7-3.4,11.7-3.4c-0.8-8-1.1-16-0.9-24
						c0.3-10.9,6.1-27,7.2-23.1"/>
					<path class="st1" d="M1641.3,304.7c0,0-11.3,17-10.4,33.4s8.7,9.2,8.7,9.2l33.5-41.7"/>
				</g>
				<g id="Layer_5_4_">
					<path class="st2" d="M1619.1,215.5c-1,0.6,10.4,20.3,11.4,19.7c0,0-32.3,0.7-49.8-5.6c-17.5-6.3-38.9-2.7-47.4-2.4
						c-12.4,1.5-33.8,7.3-45.9,24.3c-12.1,17-58.8,64.1-70.9,68.5c-12.1,4.4,35,23.8,54.9,15.5s20.6-16.3,22.4-28.2
						c0,0-0.2-3.4-0.4-8.3c-0.4-10.9-0.5-29.3,2.8-33c4.9-5.3,8.7,1,8.7,1l12.6,31.5l2.2,14.9l40.6-8c5.6-2.5,11.8-3.7,18-3.4
						c10.2,0.5,28.2,7.3,28.2,7.3s19.9,9.7,36.9,9.2c17-0.5,28.2-9.7,32.6-18c4.4-8.3,3.7-24.4,4.6-34.7c1-10.7,3.6-10.9,8.5-13.8
						s23.3-3.9,28.7-5.8c1.8-0.3,3.4-1.4,4.4-2.9l3.9-9.2c-34-34-92.3-38.4-92.3-38.4L1619.1,215.5z"/>
				</g>
				<path class="st3" d="M1663.8,171.8c-1.7-6.9-9.7-17.9-25.8-34.5l-10.7,17c-5.8,8.2,0,22.4,0,22.4l-24.8,22.8l9.7,2.4l-3.9,7.8
					l10.7,5.8c8.4-9,18.6-15.2,33-15.1c0,0,9.7,2.4,11.7,4.4c1.9,1.9,13.1,12.6,21.9,20.9c8.7,8.3,23.8,8.3,23.8,8.3l16-0.5
					l-1.9-7.8l9.2-5.8l-4.9-7.3l6.6-4.1l-10-18.7c3.7-2.7,6.6-6.4,8.3-10.7c2.9-7.3-5.9-20.2-14.6-31.6
					c-9.4,6.6-16.7,15.1-21.4,26.2c-6-2.8-11.7-4-16-0.5C1674.5,168.8,1668.6,169.4,1663.8,171.8z"/>
				<g id="Layer_7_4_">
					<circle class="st4" cx="1658" cy="216" r="8.7"/>
					<circle class="st5" cx="1660.4" cy="213.6" r="4.6"/>
					<ellipse class="st5" cx="1653.8" cy="220.1" rx="1.9" ry="1.9"/>
					<circle class="st4" cx="1713.2" cy="214.7" r="7.4"/>
					<circle class="st5" cx="1715.3" cy="212.6" r="3.9"/>
					<circle class="st5" cx="1709.7" cy="218.2" r="1.7"/>
					<path d="M1711.2,233.7c0,1.8,7.1,5.8,8.3,5.3c3-1.1,6.3-5.3,6.3-5.3H1711.2z"/>
					<polygon class="st2" points="1688.1,178.6 1683.7,189.3 1693.4,199 1696.8,189.7 					"/>
					<polygon class="st6" points="1671.5,188.3 1664.4,180.4 1658.6,190.3 1666.1,196.4 					"/>
					<polygon class="st6" points="1715.4,188.9 1709.4,182.5 1704.8,190.6 1710.9,195.5 					"/>
					<path d="M1725.3,233.7c-4.1,1.1-22.8-8.9-27.7-24.8C1699.5,218.2,1709.9,235.2,1725.3,233.7z"/>
				</g>
			</g>
			<g id="Layer_12_4_">
				<path class="st3" d="M1493.3,295.2l-20.9,3.9v-6.8l-17,6.8l1.9-6.3l-14.1,6.3c0,0-10.2,12.1-21.4,18
					c-11.2,5.8-12.6,5.8-12.6,5.8s21.9,8.7,28.7,11.7s16,2.9,24.8,2.9c8.7,0,18-3.4,22.4-6.8c4.4-3.4,9.2-12.1,9.2-19.9
					C1494.2,305.5,1493.8,300.3,1493.3,295.2z"/>
			</g>
			<g id="Layer_9_4_">
				<path class="st2" d="M1616.7,303.8c0,0,10,35.8,21.4,47.6c11.4,11.9,12-2,12-2l-2.2-47.9"/>
				<path class="st2" d="M1523.6,282.9c0,0-10.7,37.7-7.4,54.4s11.3,4.5,11.3,4.5c4.4-7.2,9.2-14.1,14.5-20.7
					c7.2-9,21.9-19,20.3-14.9"/>
			</g>
		</g>
	</g>
	<g id="Layer_1_2_">
		<g id="Layer_3_4_">
			<g id="Layer_10_3_">
				<path class="st1" d="M852.6,305.3c0,0,7,29.3,19.6,39.9c12.6,10.5,11.7-3.4,11.7-3.4c-0.8-8-1.1-16-0.9-24
					c0.3-10.9,6.1-27,7.2-23.1"/>
				<path class="st1" d="M941.3,304.7c0,0-11.3,17-10.4,33.4c0.9,16.4,8.7,9.2,8.7,9.2l33.5-41.7"/>
			</g>
			<g id="Layer_5_3_">
				<path class="st2" d="M919.1,215.5c-1,0.6,10.4,20.3,11.4,19.7c0,0-32.3,0.7-49.8-5.6s-38.9-2.7-47.4-2.4
					c-12.4,1.5-33.8,7.3-45.9,24.3c-12.1,17-58.8,64.1-70.9,68.5c-12.1,4.4,35,23.8,54.9,15.5c19.9-8.3,20.6-16.3,22.4-28.2
					c0,0-0.2-3.4-0.4-8.3c-0.4-10.9-0.5-29.3,2.8-33c4.9-5.3,8.7,1,8.7,1l12.6,31.5l2.2,14.9l40.6-8c5.6-2.5,11.8-3.7,18-3.4
					c10.2,0.5,28.2,7.3,28.2,7.3s19.9,9.7,36.9,9.2c17-0.5,28.2-9.7,32.6-18c4.4-8.3,3.7-24.4,4.6-34.7c1-10.7,3.6-10.9,8.5-13.8
					c4.9-2.9,23.3-3.9,28.7-5.8c1.8-0.3,3.4-1.4,4.4-2.9l3.9-9.2c-34-34-92.3-38.4-92.3-38.4L919.1,215.5z"/>
			</g>
			<path class="st3" d="M963.8,171.8c-1.7-6.9-9.7-17.9-25.8-34.5l-10.7,17c-5.8,8.2,0,22.4,0,22.4l-24.8,22.8l9.7,2.4l-3.9,7.8
				l10.7,5.8c8.4-9,18.6-15.2,33-15.1c0,0,9.7,2.4,11.7,4.4s13.1,12.6,21.9,20.9c8.7,8.3,23.8,8.3,23.8,8.3l16-0.5l-1.9-7.8l9.2-5.8
				l-4.9-7.3l6.6-4.1l-10-18.7c3.7-2.7,6.6-6.4,8.3-10.7c2.9-7.3-5.9-20.2-14.6-31.6c-9.4,6.6-16.7,15.1-21.4,26.2
				c-6-2.8-11.7-4-16-0.5C974.5,168.8,968.6,169.4,963.8,171.8z"/>
			<g id="Layer_7_3_">
				<circle class="st4" cx="958" cy="216" r="8.7"/>
				<circle class="st5" cx="960.4" cy="213.6" r="4.6"/>
				<ellipse class="st5" cx="953.8" cy="220.1" rx="1.9" ry="1.9"/>
				<circle class="st4" cx="1013.2" cy="214.7" r="7.4"/>
				<circle class="st5" cx="1015.3" cy="212.6" r="3.9"/>
				<circle class="st5" cx="1009.7" cy="218.2" r="1.7"/>
				<path d="M1011.2,233.7c0,1.8,7.1,5.8,8.3,5.3c3-1.1,6.3-5.3,6.3-5.3H1011.2z"/>
				<polygon class="st2" points="988.1,178.6 983.7,189.3 993.4,199 996.8,189.7 				"/>
				<polygon class="st6" points="971.5,188.3 964.4,180.4 958.6,190.3 966.1,196.4 				"/>
				<polygon class="st6" points="1015.4,188.9 1009.4,182.5 1004.8,190.6 1010.9,195.5 				"/>
				<path d="M1025.3,233.7c-4.1,1.1-22.8-8.9-27.7-24.8C999.5,218.2,1009.9,235.2,1025.3,233.7z"/>
			</g>
		</g>
		<g id="Layer_12_3_">
			<path class="st3" d="M793.3,295.2l-20.9,3.9v-6.8l-17,6.8l1.9-6.3l-14.1,6.3c0,0-10.2,12.1-21.4,18c-11.2,5.8-12.6,5.8-12.6,5.8
				s21.9,8.7,28.7,11.7c6.8,2.9,16,2.9,24.8,2.9c8.7,0,18-3.4,22.4-6.8c4.4-3.4,9.2-12.1,9.2-19.9
				C794.2,305.5,793.8,300.3,793.3,295.2z"/>
		</g>
		<g id="Layer_9_3_">
			<path class="st2" d="M916.7,303.8c0,0,10,35.8,21.4,47.6c11.4,11.9,12-2,12-2l-2.2-47.9"/>
			<path class="st2" d="M823.6,282.9c0,0-10.7,37.7-7.4,54.4s11.3,4.5,11.3,4.5c4.4-7.2,9.2-14.1,14.5-20.7c7.2-9,21.9-19,20.3-14.9
				"/>
		</g>
	</g>
</g>
<g id="_x32__1_">
	<g id="Layer_5_copy_4">
		<rect x="350" y="-0.5" class="st7" width="350" height="500"/>
	</g>
	<g id="Layer_1_8_">
		<g id="Layer_3_8_">
			<g id="Layer_10_8_">
				<path class="st1" d="M502.1,306c0,0,1.4,30.1,11.9,42.8c10.5,12.7,12.1-1.2,12.1-1.2c0.6-8,1.9-15.9,3.6-23.8
					c2.3-10.7,11-25.5,11.4-21.4"/>
				<path class="st1" d="M594.6,311.7c0,0-6.7,19.3-1.6,35c5,15.6,10.7,6.7,10.7,6.7l21.9-48.8"/>
			</g>
			<g id="Layer_5_8_">
				<path class="st2" d="M567,220.6c-1,0.6,10.4,20.3,11.4,19.7c0,0-32.3,0.7-49.8-5.6c-17.5-6.3-38.9-2.7-47.4-2.4
					c-12.4,1.5-33.8,7.3-45.9,24.3c-12.1,17-58.8,64.1-70.9,68.5c-12.1,4.4,35,23.8,54.9,15.5c19.9-8.3,20.6-16.3,22.4-28.2
					c0,0-0.2-3.4-0.4-8.3c-0.4-10.9-0.5-29.3,2.8-33c4.9-5.3,8.7,1,8.7,1l12.6,31.5l2.2,14.9l40.6-8c5.6-2.5,11.8-3.7,18-3.4
					c10.2,0.5,28.2,7.3,28.2,7.3s19.9,9.7,36.9,9.2c17-0.5,28.2-9.7,32.6-18c4.4-8.3,3.7-24.4,4.6-34.7c1-10.7,3.6-10.9,8.5-13.8
					c4.9-2.9,23.3-3.9,28.7-5.8c1.8-0.3,3.4-1.4,4.4-2.9l3.9-9.2c-34-34-92.3-38.4-92.3-38.4L567,220.6z"/>
			</g>
			<path class="st3" d="M611.7,176.9c-1.7-6.9-9.7-17.9-25.8-34.5l-10.7,17c-5.8,8.2,0,22.4,0,22.4l-24.8,22.8l9.7,2.4l-3.9,7.8
				l10.7,5.8c8.4-9,18.6-15.2,33-15.1c0,0,9.7,2.4,11.7,4.4c1.9,1.9,13.1,12.6,21.9,20.9c8.7,8.3,23.8,8.3,23.8,8.3l16-0.5l-1.9-7.8
				l9.2-5.8l-4.9-7.3l6.6-4.1l-10-18.7c3.7-2.7,6.6-6.4,8.3-10.7c2.9-7.3-5.9-20.2-14.6-31.6c-9.4,6.6-16.7,15.1-21.4,26.2
				c-6-2.8-11.7-4-16-0.5C622.4,173.8,616.5,174.5,611.7,176.9z"/>
			<g id="Layer_7_8_">
				<circle class="st4" cx="605.9" cy="221.1" r="8.7"/>
				<circle class="st5" cx="608.3" cy="218.6" r="4.6"/>
				<ellipse class="st5" cx="601.7" cy="225.2" rx="1.9" ry="1.9"/>
				<circle class="st4" cx="661.1" cy="219.8" r="7.4"/>
				<circle class="st5" cx="663.2" cy="217.7" r="3.9"/>
				<circle class="st5" cx="657.6" cy="223.3" r="1.7"/>
				<path d="M659.1,238.8c0,1.8,7.1,5.8,8.3,5.3c3-1.1,6.3-5.3,6.3-5.3H659.1z"/>
				<polygon class="st2" points="636,183.7 631.6,194.3 641.3,204.1 644.7,194.8 				"/>
				<polygon class="st6" points="619.4,193.4 612.3,185.5 606.5,195.4 614,201.4 				"/>
				<polygon class="st6" points="663.2,194 657.3,187.5 652.6,195.7 658.8,200.6 				"/>
				<path d="M673.2,238.8c-4.1,1.1-22.8-8.9-27.7-24.8C647.4,223.3,657.7,240.3,673.2,238.8z"/>
			</g>
		</g>
		<g id="Layer_12_8_">
			<path class="st3" d="M441.1,300.3l-20.9,3.9v-6.8l-17,6.8l1.9-6.3l-14.1,6.3c0,0-10.2,12.1-21.4,18c-11.2,5.8-12.6,5.8-12.6,5.8
				s21.9,8.7,28.7,11.7c6.8,2.9,16,2.9,24.8,2.9c8.7,0,18-3.4,22.4-6.8c4.4-3.4,9.2-12.1,9.2-19.9
				C442.1,310.6,441.7,305.4,441.1,300.3z"/>
		</g>
		<g id="Layer_9_8_">
			<path class="st2" d="M558.1,309.2c0,0,10,35.8,21.4,47.6c11.4,11.9,12-2,12-2l-2.2-47.9"/>
			<path class="st2" d="M464.2,293.4c0,0-3.3,39,3.2,54.9c6.5,15.8,12,2.2,12,2.2c2.9-7.9,6.4-15.6,10.3-23.1
				c5.3-10.2,17.9-22.8,17.1-18.5"/>
		</g>
	</g>
	<rect x="1755" y="0" class="st11" width="350" height="500"/>
	<g id="Layer_1_5_">
		<g id="Layer_3_6_">
			<g id="Layer_10_5_">
				<path class="st1" d="M1907.1,306.5c0,0,1.4,30.1,11.9,42.8c10.5,12.7,12.1-1.2,12.1-1.2c0.6-8,1.9-15.9,3.6-23.8
					c2.3-10.7,11-25.5,11.4-21.4"/>
				<path class="st1" d="M1999.6,312.2c0,0-6.7,19.3-1.6,35s10.7,6.7,10.7,6.7l21.9-48.8"/>
			</g>
			<g id="Layer_5_5_">
				<path class="st2" d="M1972,221c-1,0.6,10.4,20.3,11.4,19.7c0,0-32.3,0.7-49.8-5.6c-17.5-6.3-38.9-2.7-47.4-2.4
					c-12.4,1.5-33.8,7.3-45.9,24.3c-12.1,17-58.8,64.1-70.9,68.5c-12.1,4.4,35,23.8,54.9,15.5s20.6-16.3,22.4-28.2
					c0,0-0.2-3.4-0.4-8.3c-0.4-10.9-0.5-29.3,2.8-33c4.9-5.3,8.7,1,8.7,1l12.6,31.5l2.2,14.9l40.6-8c5.6-2.5,11.8-3.7,18-3.4
					c10.2,0.5,28.2,7.3,28.2,7.3s19.9,9.7,36.9,9.2c17-0.5,28.2-9.7,32.6-18s3.7-24.4,4.6-34.7c1-10.7,3.6-10.9,8.5-13.8
					c4.9-2.9,23.3-3.9,28.7-5.8c1.8-0.3,3.4-1.4,4.4-2.9l3.9-9.2c-34-34-92.3-38.4-92.3-38.4L1972,221z"/>
			</g>
			<path class="st3" d="M2016.7,177.3c-1.7-6.9-9.7-17.9-25.8-34.5l-10.7,17c-5.8,8.2,0,22.4,0,22.4l-24.8,22.8l9.7,2.4l-3.9,7.8
				l10.7,5.8c8.4-9,18.6-15.2,33-15.1c0,0,9.7,2.4,11.7,4.4c1.9,1.9,13.1,12.6,21.9,20.9c8.7,8.3,23.8,8.3,23.8,8.3l16-0.5l-1.9-7.8
				l9.2-5.8l-4.9-7.3l6.6-4.1l-10-18.7c3.7-2.7,6.6-6.4,8.3-10.7c2.9-7.3-5.9-20.2-14.6-31.6c-9.4,6.6-16.7,15.1-21.4,26.2
				c-6-2.8-11.7-4-16-0.5C2027.4,174.3,2021.5,175,2016.7,177.3z"/>
			<g id="Layer_7_5_">
				<circle class="st4" cx="2010.9" cy="221.5" r="8.7"/>
				<circle class="st5" cx="2013.3" cy="219.1" r="4.6"/>
				<ellipse class="st5" cx="2006.8" cy="225.7" rx="1.9" ry="1.9"/>
				<circle class="st4" cx="2066.1" cy="220.2" r="7.4"/>
				<circle class="st5" cx="2068.2" cy="218.1" r="3.9"/>
				<circle class="st5" cx="2062.6" cy="223.7" r="1.7"/>
				<path d="M2064.1,239.3c0,1.8,7.1,5.8,8.3,5.3c3-1.1,6.3-5.3,6.3-5.3H2064.1z"/>
				<polygon class="st2" points="2041,184.1 2036.6,194.8 2046.4,204.5 2049.8,195.3 				"/>
				<polygon class="st6" points="2024.5,193.9 2017.3,186 2011.6,195.8 2019.1,201.9 				"/>
				<polygon class="st6" points="2068.3,194.5 2062.3,188 2057.7,196.1 2063.9,201.1 				"/>
				<path d="M2078.2,239.3c-4.1,1.1-22.8-8.9-27.7-24.8C2052.4,223.7,2062.8,240.8,2078.2,239.3z"/>
			</g>
		</g>
		<g id="Layer_12_5_">
			<path class="st3" d="M1846.2,300.7l-20.9,3.9v-6.8l-17,6.8l1.9-6.3l-14.1,6.3c0,0-10.2,12.1-21.4,18c-11.2,5.8-12.6,5.8-12.6,5.8
				s21.9,8.7,28.7,11.7s16,2.9,24.8,2.9c8.7,0,18-3.4,22.4-6.8c4.4-3.4,9.2-12.1,9.2-19.9C1847.1,311.1,1846.8,305.9,1846.2,300.7z"
				/>
		</g>
		<g id="Layer_9_5_">
			<path class="st2" d="M1963.2,309.6c0,0,10,35.8,21.4,47.6c11.4,11.9,12-2,12-2l-2.2-47.9"/>
			<path class="st2" d="M1869.3,293.9c0,0-3.3,39,3.2,54.9c6.5,15.8,12,2.2,12,2.2c2.9-7.9,6.4-15.6,10.3-23.1
				c5.3-10.2,17.9-22.8,17.1-18.5"/>
		</g>
	</g>
</g>
<g id="_x31__1_">
	<g id="Layer_4_copy">
		<rect y="-0.5" class="st12" width="350" height="500"/>
		<rect x="2101.1" y="0" class="st13" width="350" height="500"/>
		<g id="Layer_1_7_">
			<g id="Layer_3_7_">
				<g id="Layer_10_7_">
					<path class="st1" d="M2259.8,306.2c0,0-1.5,30.1,7.8,43.7c9.2,13.6,12.1,0,12.1,0c1.4-7.9,3.4-15.7,5.8-23.3
						c3.4-10.4,13.4-24.3,13.4-20.2"/>
					<path class="st1" d="M2349.7,313.4c0,0-1,20.4,8.3,34c9.2,13.6,12.1,3.4,12.1,3.4l7.3-53"/>
				</g>
				<g id="Layer_5_7_">
					<path class="st2" d="M2318.1,221.1c-1,0.6,10.4,20.3,11.4,19.7c0,0-32.3,0.7-49.8-5.6c-17.5-6.3-38.9-2.7-47.4-2.4
						c-12.4,1.5-33.8,7.3-45.9,24.3c-12.1,17-58.8,64.1-70.9,68.5c-12.1,4.4,35,23.8,54.9,15.5c19.9-8.3,20.6-16.3,22.4-28.2
						c0,0-0.2-3.4-0.4-8.3c-0.4-10.9-0.5-29.3,2.8-33c4.9-5.3,8.7,1,8.7,1l12.6,31.5l2.2,14.9l40.6-8c5.6-2.5,11.8-3.7,18-3.4
						c10.2,0.5,28.2,7.3,28.2,7.3s19.9,9.7,36.9,9.2c17-0.5,28.2-9.7,32.6-18s3.7-24.4,4.6-34.7c1-10.7,3.6-10.9,8.5-13.8
						s23.3-3.9,28.7-5.8c1.8-0.3,3.4-1.4,4.4-2.9l3.9-9.2c-34-34-92.3-38.4-92.3-38.4L2318.1,221.1z"/>
				</g>
				<path class="st3" d="M2362.8,177.4c-1.7-6.9-9.7-17.9-25.8-34.5l-10.7,17c-5.8,8.2,0,22.4,0,22.4l-24.8,22.8l9.7,2.4l-3.9,7.8
					l10.7,5.8c8.4-9,18.6-15.2,33-15.1c0,0,9.7,2.4,11.7,4.4c1.9,1.9,13.1,12.6,21.9,20.9c8.7,8.3,23.8,8.3,23.8,8.3l16-0.5
					l-1.9-7.8l9.2-5.8l-4.9-7.3l6.6-4.1l-10-18.7c3.7-2.7,6.6-6.4,8.3-10.7c2.9-7.3-5.9-20.2-14.6-31.6
					c-9.4,6.6-16.7,15.1-21.4,26.2c-6-2.8-11.7-4-16-0.5C2373.5,174.4,2367.6,175.1,2362.8,177.4z"/>
				<g id="Layer_7_7_">
					<circle class="st4" cx="2357" cy="221.6" r="8.7"/>
					<circle class="st5" cx="2359.4" cy="219.2" r="4.6"/>
					<ellipse class="st5" cx="2352.8" cy="225.7" rx="1.9" ry="1.9"/>
					<circle class="st4" cx="2412.2" cy="220.3" r="7.4"/>
					<circle class="st5" cx="2414.3" cy="218.2" r="3.9"/>
					<circle class="st5" cx="2408.7" cy="223.8" r="1.7"/>
					<path d="M2410.2,239.4c0,1.8,7.1,5.8,8.3,5.3c3-1.1,6.3-5.3,6.3-5.3H2410.2z"/>
					<polygon class="st2" points="2387.1,184.2 2382.7,194.9 2392.4,204.6 2395.8,195.4 					"/>
					<polygon class="st6" points="2370.5,194 2363.4,186.1 2357.6,195.9 2365.1,202 					"/>
					<polygon class="st6" points="2414.3,194.6 2408.4,188.1 2403.7,196.2 2409.9,201.2 					"/>
					<path d="M2424.3,239.4c-4.1,1.1-22.8-8.9-27.7-24.8C2398.5,223.8,2408.9,240.9,2424.3,239.4z"/>
				</g>
			</g>
			<g id="Layer_12_7_">
				<path class="st3" d="M2192.2,300.8l-20.9,3.9v-6.8l-17,6.8l1.9-6.3l-14.1,6.3c0,0-10.2,12.1-21.4,18
					c-11.2,5.8-12.6,5.8-12.6,5.8s21.9,8.7,28.7,11.7c6.8,2.9,16,2.9,24.8,2.9s18-3.4,22.4-6.8c4.4-3.4,9.2-12.1,9.2-19.9
					C2193.2,311.2,2192.8,306,2192.2,300.8z"/>
			</g>
			<g id="Layer_9_7_">
				<path class="st2" d="M2311.8,304.7c0,0,3.9,36.9,13.1,50.5c9.2,13.6,12.1,0,12.1,0l5.8-47.6"/>
				<path class="st2" d="M2214.8,298.6c0,0,3.9,39,13.2,53.4c9.3,14.4,12.2,0,12.2,0c1.5-8.3,3.4-16.5,5.9-24.6
					c3.4-11,13.4-25.7,13.4-21.3"/>
			</g>
		</g>
	</g>
	<g id="Layer_1_1_">
		<g id="Layer_3_2_">
			<g id="Layer_10_1_">
				<path class="st1" d="M158.7,305.6c0,0-1.5,30.1,7.8,43.7c9.2,13.6,12.1,0,12.1,0c1.4-7.9,3.4-15.7,5.8-23.3
					c3.4-10.4,13.4-24.3,13.4-20.2"/>
				<path class="st1" d="M248.6,312.9c0,0-1,20.4,8.3,34c9.2,13.6,12.1,3.4,12.1,3.4l7.3-53"/>
			</g>
			<g id="Layer_5_1_">
				<path class="st2" d="M217,220.6c-1,0.6,10.4,20.3,11.4,19.7c0,0-32.3,0.7-49.8-5.6c-17.5-6.3-38.9-2.7-47.4-2.4
					c-12.4,1.5-33.8,7.3-45.9,24.3c-12.1,17-58.8,64.1-70.9,68.5c-12.1,4.4,35,23.8,54.9,15.5c19.9-8.3,20.6-16.3,22.4-28.2
					c0,0-0.2-3.4-0.4-8.3c-0.4-10.9-0.5-29.3,2.8-33c4.9-5.3,8.7,1,8.7,1l12.6,31.5l2.2,14.9l40.6-8c5.6-2.5,11.8-3.7,18-3.4
					c10.2,0.5,28.2,7.3,28.2,7.3s19.9,9.7,36.9,9.2c17-0.5,28.2-9.7,32.6-18c4.4-8.3,3.7-24.4,4.6-34.7c1-10.7,3.6-10.9,8.5-13.8
					c4.9-2.9,23.3-3.9,28.7-5.8c1.8-0.3,3.4-1.4,4.4-2.9l3.9-9.2c-34-34-92.3-38.4-92.3-38.4L217,220.6z"/>
			</g>
			<path class="st3" d="M261.7,176.9c-1.7-6.9-9.7-17.9-25.8-34.5l-10.7,17c-5.8,8.2,0,22.4,0,22.4l-24.8,22.8l9.7,2.4l-3.9,7.8
				l10.7,5.8c8.4-9,18.6-15.2,33-15.1c0,0,9.7,2.4,11.7,4.4c1.9,1.9,13.1,12.6,21.9,20.9c8.7,8.3,23.8,8.3,23.8,8.3l16-0.5l-1.9-7.8
				l9.2-5.8l-4.9-7.3l6.6-4.1l-10-18.7c3.7-2.7,6.6-6.4,8.3-10.7c2.9-7.3-5.9-20.2-14.6-31.6c-9.4,6.6-16.7,15.1-21.4,26.2
				c-6-2.8-11.7-4-16-0.5C272.4,173.8,266.5,174.5,261.7,176.9z"/>
			<g id="Layer_7_1_">
				<circle class="st4" cx="255.9" cy="221.1" r="8.7"/>
				<circle class="st5" cx="258.3" cy="218.6" r="4.6"/>
				<ellipse class="st5" cx="251.7" cy="225.2" rx="1.9" ry="1.9"/>
				<circle class="st4" cx="311.1" cy="219.8" r="7.4"/>
				<circle class="st5" cx="313.2" cy="217.7" r="3.9"/>
				<circle class="st5" cx="307.6" cy="223.3" r="1.7"/>
				<path d="M309.1,238.8c0,1.8,7.1,5.8,8.3,5.3c3-1.1,6.3-5.3,6.3-5.3H309.1z"/>
				<polygon class="st2" points="286,183.7 281.6,194.3 291.3,204.1 294.7,194.8 				"/>
				<polygon class="st6" points="269.4,193.4 262.3,185.5 256.5,195.4 264,201.4 				"/>
				<polygon class="st6" points="313.2,194 307.3,187.5 302.6,195.7 308.8,200.6 				"/>
				<path d="M323.2,238.8c-4.1,1.1-22.8-8.9-27.7-24.8C297.4,223.3,307.7,240.3,323.2,238.8z"/>
			</g>
		</g>
		<g id="Layer_12_1_">
			<path class="st3" d="M91.1,300.3l-20.9,3.9v-6.8l-17,6.8l1.9-6.3l-14.1,6.3c0,0-10.2,12.1-21.4,18C8.5,328,7.1,328,7.1,328
				s21.9,8.7,28.7,11.7c6.8,2.9,16,2.9,24.8,2.9s18-3.4,22.4-6.8c4.4-3.4,9.2-12.1,9.2-19.9C92.1,310.6,91.7,305.4,91.1,300.3z"/>
		</g>
		<g id="Layer_9_1_">
			<path class="st2" d="M210.7,304.2c0,0,3.9,36.9,13.1,50.5c9.2,13.6,12.1,0,12.1,0l5.8-47.6"/>
			<path class="st2" d="M113.7,298.1c0,0,3.9,39,13.2,53.4c9.3,14.4,12.2,0,12.2,0c1.5-8.3,3.4-16.5,5.9-24.6
				c3.4-11,13.4-25.7,13.4-21.3"/>
		</g>
	</g>
</g>
</svg>
