<svg id="Layer_1" data-name="Layer 1" xmlns="http://www.w3.org/2000/svg" width="1403.55" height="1029" viewBox="0 0 1403.55 1029"><defs><style>.cls-1{fill:#939393;stroke:#939393;}.cls-1,.cls-2,.cls-3,.cls-4,.cls-6{stroke-miterlimit:10;stroke-width:3px;}.cls-2,.cls-5{fill:#fff;}.cls-2,.cls-6{stroke:#fff;}.cls-3{fill:#c7eff9;stroke:#c7eff9;}.cls-4{stroke:#000;}.cls-6{fill:none;}</style></defs><title>igenigen</title><g id="_2" data-name="2"><g id="Layer_1-2" data-name="Layer 1"><g id="Layer_3" data-name="Layer 3"><g id="Layer_10" data-name="Layer 10"><path class="cls-1" d="M1204.2,300.9s1.4,30.1,11.9,42.8,12.1-1.2,12.1-1.2a175.37,175.37,0,0,1,3.6-23.8c2.3-10.7,11-25.5,11.4-21.4"/><path class="cls-1" d="M1296.7,306.6s-6.7,19.3-1.6,35,10.7,6.7,10.7,6.7l21.9-48.8"/></g><g id="Layer_5" data-name="Layer 5"><path class="cls-2" d="M1269.1,215.5c-1,.6,10.4,20.3,11.4,19.7,0,0-32.3.7-49.8-5.6s-38.9-2.7-47.4-2.4c-12.4,1.5-33.8,7.3-45.9,24.3s-58.8,64.1-70.9,68.5,35,23.8,54.9,15.5,20.6-16.3,22.4-28.2c0,0-.2-3.4-.4-8.3-.4-10.9-.5-29.3,2.8-33,4.9-5.3,8.7,1,8.7,1l12.6,31.5,2.2,14.9,40.6-8a39.61,39.61,0,0,1,18-3.4c10.2.5,28.2,7.3,28.2,7.3s19.9,9.7,36.9,9.2,28.2-9.7,32.6-18,3.7-24.4,4.6-34.7c1-10.7,3.6-10.9,8.5-13.8s23.3-3.9,28.7-5.8a6.69,6.69,0,0,0,4.4-2.9l3.9-9.2c-34-34-92.3-38.4-92.3-38.4Z"/></g><path class="cls-3" d="M1313.8,171.8c-1.7-6.9-9.7-17.9-25.8-34.5l-10.7,17c-5.8,8.2,0,22.4,0,22.4l-24.8,22.8,9.7,2.4-3.9,7.8,10.7,5.8c8.4-9,18.6-15.2,33-15.1,0,0,9.7,2.4,11.7,4.4s13.1,12.6,21.9,20.9,23.8,8.3,23.8,8.3l16-.5-1.9-7.8,9.2-5.8-4.9-7.3,6.6-4.1-10-18.7a24.35,24.35,0,0,0,8.3-10.7c2.9-7.3-5.9-20.2-14.6-31.6a60,60,0,0,0-21.4,26.2c-6-2.8-11.7-4-16-.5C1324.5,168.8,1318.6,169.4,1313.8,171.8Z"/><g id="Layer_7" data-name="Layer 7"><circle class="cls-4" cx="1308" cy="216" r="8.7"/><circle class="cls-5" cx="1310.4" cy="213.6" r="4.6"/><circle class="cls-5" cx="1303.8" cy="220.1" r="1.9"/><circle class="cls-4" cx="1363.2" cy="214.7" r="7.4"/><circle class="cls-5" cx="1365.3" cy="212.6" r="3.9"/><circle class="cls-5" cx="1359.7" cy="218.2" r="1.7"/><path d="M1361.2,233.7c0,1.8,7.1,5.8,8.3,5.3,3-1.1,6.3-5.3,6.3-5.3Z"/><polygon class="cls-2" points="1338.1 178.6 1333.7 189.3 1343.4 199 1346.8 189.7 1338.1 178.6"/><polygon class="cls-6" points="1321.5 188.3 1314.4 180.4 1308.6 190.3 1316.1 196.4 1321.5 188.3"/><polygon class="cls-6" points="1365.4 188.9 1359.4 182.5 1354.8 190.6 1360.9 195.5 1365.4 188.9"/><path d="M1375.3,233.7c-4.1,1.1-22.8-8.9-27.7-24.8C1349.5,218.2,1359.9,235.2,1375.3,233.7Z"/></g></g><g id="Layer_12" data-name="Layer 12"><path class="cls-3" d="M1143.3,295.2l-20.9,3.9v-6.8l-17,6.8,1.9-6.3-14.1,6.3s-10.2,12.1-21.4,18-12.6,5.8-12.6,5.8,21.9,8.7,28.7,11.7,16,2.9,24.8,2.9,18-3.4,22.4-6.8,9.2-12.1,9.2-19.9C1144.2,305.5,1143.8,300.3,1143.3,295.2Z"/></g><g id="Layer_9" data-name="Layer 9"><path class="cls-2" d="M1260.3,304.1s10,35.8,21.4,47.6,12-2,12-2l-2.2-47.9"/><path class="cls-2" d="M1166.3,288.3s-3.3,39,3.2,54.9,12,2.2,12,2.2a198.33,198.33,0,0,1,10.3-23.1c5.3-10.2,17.9-22.8,17.1-18.5"/></g></g></g><g id="_3" data-name="3"><g id="Layer_1-3" data-name="Layer 1"><g id="Layer_3-2" data-name="Layer 3"><g id="Layer_10-2" data-name="Layer 10"><path class="cls-1" d="M1202.6,305.3s7,29.3,19.6,39.9,11.7-3.4,11.7-3.4a192.59,192.59,0,0,1-.9-24c.3-10.9,6.1-27,7.2-23.1"/><path class="cls-1" d="M1291.3,304.7s-11.3,17-10.4,33.4,8.7,9.2,8.7,9.2l33.5-41.7"/></g><g id="Layer_5-2" data-name="Layer 5"><path class="cls-2" d="M1269.1,215.5c-1,.6,10.4,20.3,11.4,19.7,0,0-32.3.7-49.8-5.6s-38.9-2.7-47.4-2.4c-12.4,1.5-33.8,7.3-45.9,24.3s-58.8,64.1-70.9,68.5,35,23.8,54.9,15.5,20.6-16.3,22.4-28.2c0,0-.2-3.4-.4-8.3-.4-10.9-.5-29.3,2.8-33,4.9-5.3,8.7,1,8.7,1l12.6,31.5,2.2,14.9,40.6-8a39.61,39.61,0,0,1,18-3.4c10.2.5,28.2,7.3,28.2,7.3s19.9,9.7,36.9,9.2,28.2-9.7,32.6-18,3.7-24.4,4.6-34.7c1-10.7,3.6-10.9,8.5-13.8s23.3-3.9,28.7-5.8a6.69,6.69,0,0,0,4.4-2.9l3.9-9.2c-34-34-92.3-38.4-92.3-38.4Z"/></g><path class="cls-3" d="M1313.8,171.8c-1.7-6.9-9.7-17.9-25.8-34.5l-10.7,17c-5.8,8.2,0,22.4,0,22.4l-24.8,22.8,9.7,2.4-3.9,7.8,10.7,5.8c8.4-9,18.6-15.2,33-15.1,0,0,9.7,2.4,11.7,4.4s13.1,12.6,21.9,20.9,23.8,8.3,23.8,8.3l16-.5-1.9-7.8,9.2-5.8-4.9-7.3,6.6-4.1-10-18.7a24.35,24.35,0,0,0,8.3-10.7c2.9-7.3-5.9-20.2-14.6-31.6a60,60,0,0,0-21.4,26.2c-6-2.8-11.7-4-16-.5C1324.5,168.8,1318.6,169.4,1313.8,171.8Z"/><g id="Layer_7-2" data-name="Layer 7"><circle class="cls-4" cx="1308" cy="216" r="8.7"/><circle class="cls-5" cx="1310.4" cy="213.6" r="4.6"/><circle class="cls-5" cx="1303.8" cy="220.1" r="1.9"/><circle class="cls-4" cx="1363.2" cy="214.7" r="7.4"/><circle class="cls-5" cx="1365.3" cy="212.6" r="3.9"/><circle class="cls-5" cx="1359.7" cy="218.2" r="1.7"/><path d="M1361.2,233.7c0,1.8,7.1,5.8,8.3,5.3,3-1.1,6.3-5.3,6.3-5.3Z"/><polygon class="cls-2" points="1338.1 178.6 1333.7 189.3 1343.4 199 1346.8 189.7 1338.1 178.6"/><polygon class="cls-6" points="1321.5 188.3 1314.4 180.4 1308.6 190.3 1316.1 196.4 1321.5 188.3"/><polygon class="cls-6" points="1365.4 188.9 1359.4 182.5 1354.8 190.6 1360.9 195.5 1365.4 188.9"/><path d="M1375.3,233.7c-4.1,1.1-22.8-8.9-27.7-24.8C1349.5,218.2,1359.9,235.2,1375.3,233.7Z"/></g></g><g id="Layer_12-2" data-name="Layer 12"><path class="cls-3" d="M1143.3,295.2l-20.9,3.9v-6.8l-17,6.8,1.9-6.3-14.1,6.3s-10.2,12.1-21.4,18-12.6,5.8-12.6,5.8,21.9,8.7,28.7,11.7,16,2.9,24.8,2.9,18-3.4,22.4-6.8,9.2-12.1,9.2-19.9C1144.2,305.5,1143.8,300.3,1143.3,295.2Z"/></g><g id="Layer_9-2" data-name="Layer 9"><path class="cls-2" d="M1266.7,303.8s10,35.8,21.4,47.6,12-2,12-2l-2.2-47.9"/><path class="cls-2" d="M1173.6,282.9s-10.7,37.7-7.4,54.4,11.3,4.5,11.3,4.5a197.09,197.09,0,0,1,14.5-20.7c7.2-9,21.9-19,20.3-14.9"/></g></g></g><g id="_4" data-name="4"><g id="Layer_1-4" data-name="Layer 1"><g id="Layer_3-3" data-name="Layer 3"><g id="Layer_10-3" data-name="Layer 10"><path class="cls-1" d="M1200.4,309.5s11.1,28,25.2,36.6,11.1-5,11.1-5a171.78,171.78,0,0,1-4.3-23.6c-1.2-10.9,2.1-27.6,3.8-23.9"/><path class="cls-1" d="M1287.7,308s-11.3,17-10.4,33.4,8.7,9.2,8.7,9.2l33.5-41.7"/></g><g id="Layer_5-3" data-name="Layer 5"><path class="cls-2" d="M1268.2,218.8c-1,.6,10.4,20.3,11.4,19.7,0,0-32.3.7-49.8-5.6s-38.9-2.7-47.4-2.4c-12.4,1.5-33.8,7.3-45.9,24.3s-58.8,64.1-70.9,68.5,35,23.8,54.9,15.5,20.6-16.3,22.4-28.2c0,0-.2-3.4-.4-8.3-.4-10.9-.5-29.3,2.8-33,4.9-5.3,8.7,1,8.7,1l12.6,31.5,2.2,14.9,40.6-8a39.61,39.61,0,0,1,18-3.4c10.2.5,28.2,7.3,28.2,7.3s19.9,9.7,36.9,9.2,28.2-9.7,32.6-18,3.7-24.4,4.6-34.7c1-10.7,3.6-10.9,8.5-13.8s23.3-3.9,28.7-5.8a6.69,6.69,0,0,0,4.4-2.9l3.9-9.2c-34-34-92.3-38.4-92.3-38.4Z"/></g><path class="cls-3" d="M1313,175c-1.7-6.9-9.7-17.9-25.8-34.5l-10.7,17c-5.8,8.2,0,22.4,0,22.4l-24.8,22.8,9.7,2.4-3.9,7.8,10.7,5.8c8.4-9,18.6-15.2,33-15.1,0,0,9.7,2.4,11.7,4.4s13.1,12.6,21.9,20.9,23.8,8.3,23.8,8.3l16-.5-1.9-7.8,9.2-5.8-4.9-7.3,6.6-4.1-10-18.7a24.35,24.35,0,0,0,8.3-10.7c2.9-7.3-5.9-20.2-14.6-31.6a60,60,0,0,0-21.4,26.2c-6-2.8-11.7-4-16-.5A15.75,15.75,0,0,0,1313,175Z"/><g id="Layer_7-3" data-name="Layer 7"><circle class="cls-4" cx="1307.1" cy="219.3" r="8.7"/><circle class="cls-5" cx="1309.5" cy="216.8" r="4.6"/><circle class="cls-5" cx="1303" cy="223.4" r="1.9"/><circle class="cls-4" cx="1362.4" cy="217.9" r="7.4"/><circle class="cls-5" cx="1364.5" cy="215.9" r="3.9"/><circle class="cls-5" cx="1358.9" cy="221.4" r="1.7"/><path d="M1360.3,237c0,1.8,7.1,5.8,8.3,5.3,3-1.1,6.3-5.3,6.3-5.3Z"/><polygon class="cls-2" points="1337.2 181.8 1332.9 192.5 1342.6 202.2 1346 193 1337.2 181.8"/><polygon class="cls-6" points="1320.7 191.6 1313.5 183.7 1307.8 193.6 1315.3 199.6 1320.7 191.6"/><polygon class="cls-6" points="1364.5 192.2 1358.6 185.7 1353.9 193.8 1360.1 198.8 1364.5 192.2"/><path d="M1374.5,237c-4.1,1.1-22.8-8.9-27.7-24.8C1348.7,221.4,1359,238.5,1374.5,237Z"/></g></g><g id="Layer_12-3" data-name="Layer 12"><path class="cls-3" d="M1143.3,295.2l-20.9,3.9v-6.8l-17,6.8,1.9-6.3-14.1,6.3s-10.2,12.1-21.4,18-12.6,5.8-12.6,5.8,21.9,8.7,28.7,11.7,16,2.9,24.8,2.9,18-3.4,22.4-6.8,9.2-12.1,9.2-19.9C1144.2,305.5,1143.8,300.3,1143.3,295.2Z"/></g><g id="Layer_9-3" data-name="Layer 9"><path class="cls-2" d="M1264.3,305.9s13.5,34.6,26,45.3S1302,348,1302,348l-7-47.5"/><path class="cls-2" d="M1171.3,282.7s-12.8,37-10.4,54,11.1,5.1,11.1,5.1a213.36,213.36,0,0,1,15.6-19.9c7.7-8.5,22.9-17.7,21.1-13.8"/></g></g></g><g id="_3-2" data-name="3"><g id="Layer_5_copy_3" data-name="Layer 5 copy 3"><g id="Layer_1-5" data-name="Layer 1"><g id="Layer_12-4" data-name="Layer 12"><path class="cls-3" d="M1493.3,295.2l-20.9,3.9v-6.8l-17,6.8,1.9-6.3-14.1,6.3s-10.2,12.1-21.4,18-12.6,5.8-12.6,5.8,21.9,8.7,28.7,11.7,16,2.9,24.8,2.9,18-3.4,22.4-6.8,9.2-12.1,9.2-19.9C1494.2,305.5,1493.8,300.3,1493.3,295.2Z"/></g></g></g><g id="Layer_1-6" data-name="Layer 1"><g id="Layer_3-4" data-name="Layer 3"><g id="Layer_10-4" data-name="Layer 10"><path class="cls-1" d="M852.6,305.3s7,29.3,19.6,39.9,11.7-3.4,11.7-3.4a192.59,192.59,0,0,1-.9-24c.3-10.9,6.1-27,7.2-23.1"/><path class="cls-1" d="M941.3,304.7s-11.3,17-10.4,33.4,8.7,9.2,8.7,9.2l33.5-41.7"/></g><g id="Layer_5-4" data-name="Layer 5"><path class="cls-2" d="M919.1,215.5c-1,.6,10.4,20.3,11.4,19.7,0,0-32.3.7-49.8-5.6s-38.9-2.7-47.4-2.4c-12.4,1.5-33.8,7.3-45.9,24.3s-58.8,64.1-70.9,68.5,35,23.8,54.9,15.5,20.6-16.3,22.4-28.2c0,0-.2-3.4-.4-8.3-.4-10.9-.5-29.3,2.8-33,4.9-5.3,8.7,1,8.7,1l12.6,31.5,2.2,14.9,40.6-8a39.61,39.61,0,0,1,18-3.4c10.2.5,28.2,7.3,28.2,7.3s19.9,9.7,36.9,9.2,28.2-9.7,32.6-18,3.7-24.4,4.6-34.7c1-10.7,3.6-10.9,8.5-13.8s23.3-3.9,28.7-5.8a6.69,6.69,0,0,0,4.4-2.9l3.9-9.2c-34-34-92.3-38.4-92.3-38.4Z"/></g><path class="cls-3" d="M963.8,171.8c-1.7-6.9-9.7-17.9-25.8-34.5l-10.7,17c-5.8,8.2,0,22.4,0,22.4l-24.8,22.8,9.7,2.4-3.9,7.8,10.7,5.8c8.4-9,18.6-15.2,33-15.1,0,0,9.7,2.4,11.7,4.4s13.1,12.6,21.9,20.9,23.8,8.3,23.8,8.3l16-.5-1.9-7.8,9.2-5.8-4.9-7.3,6.6-4.1-10-18.7a24.35,24.35,0,0,0,8.3-10.7c2.9-7.3-5.9-20.2-14.6-31.6a60,60,0,0,0-21.4,26.2c-6-2.8-11.7-4-16-.5C974.5,168.8,968.6,169.4,963.8,171.8Z"/><g id="Layer_7-4" data-name="Layer 7"><circle class="cls-4" cx="958" cy="216" r="8.7"/><circle class="cls-5" cx="960.4" cy="213.6" r="4.6"/><circle class="cls-5" cx="953.8" cy="220.1" r="1.9"/><circle class="cls-4" cx="1013.2" cy="214.7" r="7.4"/><circle class="cls-5" cx="1015.3" cy="212.6" r="3.9"/><circle class="cls-5" cx="1009.7" cy="218.2" r="1.7"/><path d="M1011.2,233.7c0,1.8,7.1,5.8,8.3,5.3,3-1.1,6.3-5.3,6.3-5.3Z"/><polygon class="cls-2" points="988.1 178.6 983.7 189.3 993.4 199 996.8 189.7 988.1 178.6"/><polygon class="cls-6" points="971.5 188.3 964.4 180.4 958.6 190.3 966.1 196.4 971.5 188.3"/><polygon class="cls-6" points="1015.4 188.9 1009.4 182.5 1004.8 190.6 1010.9 195.5 1015.4 188.9"/><path d="M1025.3,233.7c-4.1,1.1-22.8-8.9-27.7-24.8C999.5,218.2,1009.9,235.2,1025.3,233.7Z"/></g></g><g id="Layer_12-5" data-name="Layer 12"><path class="cls-3" d="M793.3,295.2l-20.9,3.9v-6.8l-17,6.8,1.9-6.3-14.1,6.3s-10.2,12.1-21.4,18-12.6,5.8-12.6,5.8,21.9,8.7,28.7,11.7,16,2.9,24.8,2.9,18-3.4,22.4-6.8,9.2-12.1,9.2-19.9C794.2,305.5,793.8,300.3,793.3,295.2Z"/></g><g id="Layer_9-4" data-name="Layer 9"><path class="cls-2" d="M916.7,303.8s10,35.8,21.4,47.6,12-2,12-2l-2.2-47.9"/><path class="cls-2" d="M823.6,282.9s-10.7,37.7-7.4,54.4,11.3,4.5,11.3,4.5A197.09,197.09,0,0,1,842,321.1c7.2-9,21.9-19,20.3-14.9"/></g></g></g><g id="_2-2" data-name="2"><g id="Layer_1-7" data-name="Layer 1"><g id="Layer_3-5" data-name="Layer 3"><g id="Layer_10-5" data-name="Layer 10"><path class="cls-1" d="M502.1,306s1.4,30.1,11.9,42.8,12.1-1.2,12.1-1.2a175.37,175.37,0,0,1,3.6-23.8c2.3-10.7,11-25.5,11.4-21.4"/><path class="cls-1" d="M594.6,311.7s-6.7,19.3-1.6,35,10.7,6.7,10.7,6.7l21.9-48.8"/></g><g id="Layer_5-5" data-name="Layer 5"><path class="cls-2" d="M567,220.6c-1,.6,10.4,20.3,11.4,19.7,0,0-32.3.7-49.8-5.6s-38.9-2.7-47.4-2.4c-12.4,1.5-33.8,7.3-45.9,24.3s-58.8,64.1-70.9,68.5,35,23.8,54.9,15.5,20.6-16.3,22.4-28.2c0,0-.2-3.4-.4-8.3-.4-10.9-.5-29.3,2.8-33,4.9-5.3,8.7,1,8.7,1l12.6,31.5,2.2,14.9,40.6-8a39.61,39.61,0,0,1,18-3.4c10.2.5,28.2,7.3,28.2,7.3s19.9,9.7,36.9,9.2,28.2-9.7,32.6-18,3.7-24.4,4.6-34.7c1-10.7,3.6-10.9,8.5-13.8s23.3-3.9,28.7-5.8a6.69,6.69,0,0,0,4.4-2.9l3.9-9.2c-34-34-92.3-38.4-92.3-38.4Z"/></g><path class="cls-3" d="M611.7,176.9C610,170,602,159,585.9,142.4l-10.7,17c-5.8,8.2,0,22.4,0,22.4l-24.8,22.8,9.7,2.4-3.9,7.8,10.7,5.8c8.4-9,18.6-15.2,33-15.1,0,0,9.7,2.4,11.7,4.4s13.1,12.6,21.9,20.9,23.8,8.3,23.8,8.3l16-.5-1.9-7.8,9.2-5.8-4.9-7.3,6.6-4.1-10-18.7a24.35,24.35,0,0,0,8.3-10.7c2.9-7.3-5.9-20.2-14.6-31.6a60,60,0,0,0-21.4,26.2c-6-2.8-11.7-4-16-.5A15.36,15.36,0,0,0,611.7,176.9Z"/><g id="Layer_7-5" data-name="Layer 7"><circle class="cls-4" cx="605.9" cy="221.1" r="8.7"/><circle class="cls-5" cx="608.3" cy="218.6" r="4.6"/><circle class="cls-5" cx="601.7" cy="225.2" r="1.9"/><circle class="cls-4" cx="661.1" cy="219.8" r="7.4"/><circle class="cls-5" cx="663.2" cy="217.7" r="3.9"/><circle class="cls-5" cx="657.6" cy="223.3" r="1.7"/><path d="M659.1,238.8c0,1.8,7.1,5.8,8.3,5.3,3-1.1,6.3-5.3,6.3-5.3Z"/><polygon class="cls-2" points="636 183.7 631.6 194.3 641.3 204.1 644.7 194.8 636 183.7"/><polygon class="cls-6" points="619.4 193.4 612.3 185.5 606.5 195.4 614 201.4 619.4 193.4"/><polygon class="cls-6" points="663.2 194 657.3 187.5 652.6 195.7 658.8 200.6 663.2 194"/><path d="M673.2,238.8c-4.1,1.1-22.8-8.9-27.7-24.8C647.4,223.3,657.7,240.3,673.2,238.8Z"/></g></g><g id="Layer_12-6" data-name="Layer 12"><path class="cls-3" d="M441.1,300.3l-20.9,3.9v-6.8l-17,6.8,1.9-6.3L391,304.2s-10.2,12.1-21.4,18S357,328,357,328s21.9,8.7,28.7,11.7,16,2.9,24.8,2.9,18-3.4,22.4-6.8,9.2-12.1,9.2-19.9A133.29,133.29,0,0,0,441.1,300.3Z"/></g><g id="Layer_9-5" data-name="Layer 9"><path class="cls-2" d="M558.1,309.2s10,35.8,21.4,47.6,12-2,12-2l-2.2-47.9"/><path class="cls-2" d="M464.2,293.4s-3.3,39,3.2,54.9,12,2.2,12,2.2a198.33,198.33,0,0,1,10.3-23.1c5.3-10.2,17.9-22.8,17.1-18.5"/></g></g></g><g id="_1" data-name="1"><g id="Layer_1-8" data-name="Layer 1"><g id="Layer_3-6" data-name="Layer 3"><g id="Layer_10-6" data-name="Layer 10"><path class="cls-1" d="M158.7,316.6s-1.5,30.1,7.8,43.7,12.1,0,12.1,0a184.47,184.47,0,0,1,5.8-23.3c3.4-10.4,13.4-24.3,13.4-20.2"/><path class="cls-1" d="M248.6,323.9s-1,20.4,8.3,34,12.1,3.4,12.1,3.4l7.3-53"/></g><g id="Layer_5-6" data-name="Layer 5"><path class="cls-2" d="M217,231.6c-1,.6,10.4,20.3,11.4,19.7,0,0-32.3.7-49.8-5.6s-38.9-2.7-47.4-2.4c-12.4,1.5-33.8,7.3-45.9,24.3s-58.8,64.1-70.9,68.5,35,23.8,54.9,15.5,20.6-16.3,22.4-28.2c0,0-.2-3.4-.4-8.3-.4-10.9-.5-29.3,2.8-33,4.9-5.3,8.7,1,8.7,1l12.6,31.5,2.2,14.9,40.6-8a39.61,39.61,0,0,1,18-3.4c10.2.5,28.2,7.3,28.2,7.3s19.9,9.7,36.9,9.2,28.2-9.7,32.6-18,3.7-24.4,4.6-34.7c1-10.7,3.6-10.9,8.5-13.8s23.3-3.9,28.7-5.8a6.69,6.69,0,0,0,4.4-2.9l3.9-9.2c-34-34-92.3-38.4-92.3-38.4Z"/></g><path class="cls-3" d="M261.7,187.9C260,181,252,170,235.9,153.4l-10.7,17c-5.8,8.2,0,22.4,0,22.4l-24.8,22.8,9.7,2.4-3.9,7.8,10.7,5.8c8.4-9,18.6-15.2,33-15.1,0,0,9.7,2.4,11.7,4.4s13.1,12.6,21.9,20.9,23.8,8.3,23.8,8.3l16-.5-1.9-7.8,9.2-5.8-4.9-7.3,6.6-4.1-10-18.7a24.35,24.35,0,0,0,8.3-10.7c2.9-7.3-5.9-20.2-14.6-31.6a60,60,0,0,0-21.4,26.2c-6-2.8-11.7-4-16-.5A15.36,15.36,0,0,0,261.7,187.9Z"/><g id="Layer_7-6" data-name="Layer 7"><circle class="cls-4" cx="255.9" cy="232.1" r="8.7" transform="translate(-14.19 447.52) rotate(-80.78)"/><circle class="cls-5" cx="258.3" cy="229.6" r="4.6"/><circle class="cls-5" cx="251.7" cy="236.2" r="1.9"/><circle class="cls-4" cx="311.1" cy="230.8" r="7.4"/><circle class="cls-5" cx="313.2" cy="228.7" r="3.9"/><circle class="cls-5" cx="307.6" cy="234.3" r="1.7"/><path d="M309.1,249.8c0,1.8,7.1,5.8,8.3,5.3,3-1.1,6.3-5.3,6.3-5.3Z"/><polygon class="cls-2" points="286 194.7 281.6 205.3 291.3 215.1 294.7 205.8 286 194.7"/><polygon class="cls-6" points="269.4 204.4 262.3 196.5 256.5 206.4 264 212.4 269.4 204.4"/><polygon class="cls-6" points="313.2 205 307.3 198.5 302.6 206.7 308.8 211.6 313.2 205"/><path d="M323.2,249.8c-4.1,1.1-22.8-8.9-27.7-24.8C297.4,234.3,307.7,251.3,323.2,249.8Z"/></g></g><g id="Layer_12-7" data-name="Layer 12"><path class="cls-3" d="M91.1,311.3l-20.9,3.9v-6.8l-17,6.8,1.9-6.3L41,315.2s-10.2,12.1-21.4,18S7.1,339,7.1,339s21.9,8.7,28.7,11.7,16,2.9,24.8,2.9,18-3.4,22.4-6.8,9.2-12.1,9.2-19.9C92.1,321.6,91.7,316.4,91.1,311.3Z"/></g><g id="Layer_9-6" data-name="Layer 9"><path class="cls-2" d="M210.7,315.2s3.9,36.9,13.1,50.5,12.1,0,12.1,0l5.8-47.6"/><path class="cls-2" d="M113.7,309.1s3.9,39,13.2,53.4,12.2,0,12.2,0a209.52,209.52,0,0,1,5.9-24.6c3.4-11,13.4-25.7,13.4-21.3"/></g></g></g><g id="_2-3" data-name="2"><g id="Layer_1-9" data-name="Layer 1"><g id="Layer_3-7" data-name="Layer 3"><g id="Layer_10-7" data-name="Layer 10"><path class="cls-1" d="M1203.77,783.94c.4-4.1,9.1,10.7,11.4,21.4a175.37,175.37,0,0,1,3.6,23.8s1.6,13.9,12.1,1.2,11.9-42.8,11.9-42.8"/><path class="cls-1" d="M1119.27,786.14l21.9,48.8s5.6,9,10.7-6.7-1.6-35-1.6-35"/></g><g id="Layer_5-7" data-name="Layer 5"><path class="cls-2" d="M1163.17,682.34s-58.3,4.4-92.3,38.4l3.9,9.2a6.69,6.69,0,0,0,4.4,2.9c5.4,1.9,23.8,2.9,28.7,5.8s7.5,3.1,8.5,13.8c.9,10.3.2,26.4,4.6,34.7s15.6,17.5,32.6,18,36.9-9.2,36.9-9.2,18-6.8,28.2-7.3a39.61,39.61,0,0,1,18,3.4l40.6,8,2.2-14.9,12.6-31.5s3.8-6.3,8.7-1c3.3,3.7,3.2,22.1,2.8,33-.2,4.9-.4,8.3-.4,8.3,1.8,11.9,2.5,19.9,22.4,28.2s67-11.1,54.9-15.5-58.8-51.5-70.9-68.5-33.5-22.8-45.9-24.3c-8.5-.3-29.9-3.9-47.4,2.4s-49.8,5.6-49.8,5.6c1,.6,12.4-19.1,11.4-19.7Z"/></g><path class="cls-3" d="M1116.27,659.84c-4.3-3.5-10-2.3-16,.5a60,60,0,0,0-21.4-26.2c-8.7,11.4-17.5,24.3-14.6,31.6a24.35,24.35,0,0,0,8.3,10.7l-10,18.7,6.6,4.1-4.9,7.3,9.2,5.8-1.9,7.8,16,.5s15.1,0,23.8-8.3,20-19,21.9-20.9S1145,687,1145,687c14.4-.1,24.6,6.1,33,15.1l10.7-5.8-3.9-7.8,9.7-2.4-24.8-22.8s5.8-14.2,0-22.4l-10.7-17c-16.1,16.6-24.1,27.6-25.8,34.5C1128.37,656,1122.47,655.44,1116.27,659.84Z"/><g id="Layer_7-7" data-name="Layer 7"><circle class="cls-4" cx="1138.97" cy="702.64" r="8.7"/><circle class="cls-5" cx="1136.57" cy="700.24" r="4.6"/><circle class="cls-5" cx="1143.17" cy="706.74" r="1.9"/><circle class="cls-4" cx="1083.77" cy="701.34" r="7.4"/><circle class="cls-5" cx="1081.67" cy="699.24" r="3.9"/><circle class="cls-5" cx="1087.27" cy="704.84" r="1.7"/><path d="M1071.17,720.34s3.3,4.2,6.3,5.3c1.2.5,8.3-3.5,8.3-5.3Z"/><polygon class="cls-2" points="1100.17 676.34 1103.57 685.64 1113.27 675.94 1108.87 665.24 1100.17 676.34"/><polygon class="cls-6" points="1130.87 683.04 1138.37 676.94 1132.57 667.04 1125.47 674.94 1130.87 683.04"/><polygon class="cls-6" points="1086.07 682.14 1092.17 677.24 1087.57 669.14 1081.57 675.54 1086.07 682.14"/><path d="M1099.37,695.54c-4.9,15.9-23.6,25.9-27.7,24.8C1087.07,721.84,1097.47,704.84,1099.37,695.54Z"/></g></g><g id="Layer_12-8" data-name="Layer 12"><path class="cls-3" d="M1302.67,797.44c0,7.8,4.8,16.5,9.2,19.9s13.7,6.8,22.4,6.8,18,.1,24.8-2.9,28.7-11.7,28.7-11.7-1.4,0-12.6-5.8-21.4-18-21.4-18l-14.1-6.3,1.9,6.3-17-6.8v6.8l-20.9-3.9C1303.17,786.94,1302.77,792.14,1302.67,797.44Z"/></g><g id="Layer_9-7" data-name="Layer 9"><path class="cls-2" d="M1155.47,788.44l-2.2,47.9s.6,13.8,12,2,21.4-47.6,21.4-47.6"/><path class="cls-2" d="M1238.07,790.44c-.8-4.3,11.8,8.3,17.1,18.5a198.33,198.33,0,0,1,10.3,23.1s5.5,13.6,12-2.2,3.2-54.9,3.2-54.9"/></g></g></g><g id="_3-3" data-name="3"><g id="Layer_1-10" data-name="Layer 1"><g id="Layer_3-8" data-name="Layer 3"><g id="Layer_10-8" data-name="Layer 10"><path class="cls-1" d="M1206.77,781.34c1.1-3.9,6.9,12.2,7.2,23.1a192.59,192.59,0,0,1-.9,24s-.9,13.9,11.7,3.4,19.6-39.9,19.6-39.9"/><path class="cls-1" d="M1123.87,792.24l33.5,41.7s7.8,7.2,8.7-9.2-10.4-33.4-10.4-33.4"/></g><g id="Layer_5-8" data-name="Layer 5"><path class="cls-2" d="M1163.17,682.34s-58.3,4.4-92.3,38.4l3.9,9.2a6.69,6.69,0,0,0,4.4,2.9c5.4,1.9,23.8,2.9,28.7,5.8s7.5,3.1,8.5,13.8c.9,10.3.2,26.4,4.6,34.7s15.6,17.5,32.6,18,36.9-9.2,36.9-9.2,18-6.8,28.2-7.3a39.61,39.61,0,0,1,18,3.4l40.6,8,2.2-14.9,12.6-31.5s3.8-6.3,8.7-1c3.3,3.7,3.2,22.1,2.8,33-.2,4.9-.4,8.3-.4,8.3,1.8,11.9,2.5,19.9,22.4,28.2s67-11.1,54.9-15.5-58.8-51.5-70.9-68.5-33.5-22.8-45.9-24.3c-8.5-.3-29.9-3.9-47.4,2.4s-49.8,5.6-49.8,5.6c1,.6,12.4-19.1,11.4-19.7Z"/></g><path class="cls-3" d="M1116.27,659.84c-4.3-3.5-10-2.3-16,.5a60,60,0,0,0-21.4-26.2c-8.7,11.4-17.5,24.3-14.6,31.6a24.35,24.35,0,0,0,8.3,10.7l-10,18.7,6.6,4.1-4.9,7.3,9.2,5.8-1.9,7.8,16,.5s15.1,0,23.8-8.3,20-19,21.9-20.9S1145,687,1145,687c14.4-.1,24.6,6.1,33,15.1l10.7-5.8-3.9-7.8,9.7-2.4-24.8-22.8s5.8-14.2,0-22.4l-10.7-17c-16.1,16.6-24.1,27.6-25.8,34.5C1128.37,656,1122.47,655.44,1116.27,659.84Z"/><g id="Layer_7-8" data-name="Layer 7"><circle class="cls-4" cx="1138.97" cy="702.64" r="8.7"/><circle class="cls-5" cx="1136.57" cy="700.24" r="4.6"/><circle class="cls-5" cx="1143.17" cy="706.74" r="1.9"/><circle class="cls-4" cx="1083.77" cy="701.34" r="7.4"/><circle class="cls-5" cx="1081.67" cy="699.24" r="3.9"/><circle class="cls-5" cx="1087.27" cy="704.84" r="1.7"/><path d="M1071.17,720.34s3.3,4.2,6.3,5.3c1.2.5,8.3-3.5,8.3-5.3Z"/><polygon class="cls-2" points="1100.17 676.34 1103.57 685.64 1113.27 675.94 1108.87 665.24 1100.17 676.34"/><polygon class="cls-6" points="1130.87 683.04 1138.37 676.94 1132.57 667.04 1125.47 674.94 1130.87 683.04"/><polygon class="cls-6" points="1086.07 682.14 1092.17 677.24 1087.57 669.14 1081.57 675.54 1086.07 682.14"/><path d="M1099.37,695.54c-4.9,15.9-23.6,25.9-27.7,24.8C1087.07,721.84,1097.47,704.84,1099.37,695.54Z"/></g></g><g id="Layer_12-9" data-name="Layer 12"><path class="cls-3" d="M1302.67,797.44c0,7.8,4.8,16.5,9.2,19.9s13.7,6.8,22.4,6.8,18,.1,24.8-2.9,28.7-11.7,28.7-11.7-1.4,0-12.6-5.8-21.4-18-21.4-18l-14.1-6.3,1.9,6.3-17-6.8v6.8l-20.9-3.9C1303.17,786.94,1302.77,792.14,1302.67,797.44Z"/></g><g id="Layer_9-8" data-name="Layer 9"><path class="cls-2" d="M1149.07,788.14l-2.2,47.9s.6,13.9,12,2,21.4-47.6,21.4-47.6"/><path class="cls-2" d="M1234.67,792.84c-1.6-4.1,13.1,5.9,20.3,14.9a197.09,197.09,0,0,1,14.5,20.7s8,12.2,11.3-4.5-7.4-54.4-7.4-54.4"/></g></g></g><g id="_4-2" data-name="4"><g id="Layer_1-11" data-name="Layer 1"><g id="Layer_3-9" data-name="Layer 3"><g id="Layer_10-9" data-name="Layer 10"><path class="cls-1" d="M1210.77,780.24c1.7-3.7,5,13,3.8,23.9a171.78,171.78,0,0,1-4.3,23.6s-3,13.6,11.1,5,25.2-36.6,25.2-36.6"/><path class="cls-1" d="M1127.47,795.54l33.5,41.7s7.8,7.2,8.7-9.2-10.4-33.4-10.4-33.4"/></g><g id="Layer_5-9" data-name="Layer 5"><path class="cls-2" d="M1164.07,685.64s-58.3,4.4-92.3,38.4l3.9,9.2a6.69,6.69,0,0,0,4.4,2.9c5.4,1.9,23.8,2.9,28.7,5.8s7.5,3.1,8.5,13.8c.9,10.3.2,26.4,4.6,34.7s15.6,17.5,32.6,18,36.9-9.2,36.9-9.2,18-6.8,28.2-7.3a39.61,39.61,0,0,1,18,3.4l40.6,8,2.2-14.9,12.6-31.5s3.8-6.3,8.7-1c3.3,3.7,3.2,22.1,2.8,33-.2,4.9-.4,8.3-.4,8.3,1.8,11.9,2.5,19.9,22.4,28.2s67-11.1,54.9-15.5-58.8-51.5-70.9-68.5-33.5-22.8-45.9-24.3c-8.5-.3-29.9-3.9-47.4,2.4s-49.8,5.6-49.8,5.6c1,.6,12.4-19.1,11.4-19.7Z"/></g><path class="cls-3" d="M1117.07,663c-4.3-3.5-10-2.3-16,.5a60,60,0,0,0-21.4-26.2c-8.7,11.4-17.5,24.3-14.6,31.6a24.35,24.35,0,0,0,8.3,10.7l-10,18.7,6.6,4.1-4.9,7.3,9.2,5.8-1.9,7.8,16,.5s15.1,0,23.8-8.3,20-19,21.9-20.9,11.7-4.4,11.7-4.4c14.4-.1,24.6,6.1,33,15.1l10.7-5.8-3.9-7.8,9.7-2.4-24.8-22.8s5.8-14.2,0-22.4l-10.7-17c-16.1,16.6-24.1,27.6-25.8,34.5A15.75,15.75,0,0,0,1117.07,663Z"/><g id="Layer_7-9" data-name="Layer 7"><circle class="cls-4" cx="1139.87" cy="705.94" r="8.7"/><circle class="cls-5" cx="1137.47" cy="703.44" r="4.6"/><circle class="cls-5" cx="1143.97" cy="710.04" r="1.9"/><circle class="cls-4" cx="1084.57" cy="704.54" r="7.4"/><circle class="cls-5" cx="1082.47" cy="702.54" r="3.9"/><circle class="cls-5" cx="1088.07" cy="708.04" r="1.7"/><path d="M1072.07,723.64s3.3,4.2,6.3,5.3c1.2.5,8.3-3.5,8.3-5.3Z"/><polygon class="cls-2" points="1100.97 679.64 1104.37 688.84 1114.07 679.14 1109.77 668.44 1100.97 679.64"/><polygon class="cls-6" points="1131.67 686.24 1139.17 680.24 1133.47 670.34 1126.27 678.24 1131.67 686.24"/><polygon class="cls-6" points="1086.87 685.44 1093.07 680.44 1088.37 672.34 1082.47 678.84 1086.87 685.44"/><path d="M1100.17,698.84c-4.9,15.9-23.6,25.9-27.7,24.8C1088,725.14,1098.27,708,1100.17,698.84Z"/></g></g><g id="Layer_12-10" data-name="Layer 12"><path class="cls-3" d="M1302.67,797.44c0,7.8,4.8,16.5,9.2,19.9s13.7,6.8,22.4,6.8,18,.1,24.8-2.9,28.7-11.7,28.7-11.7-1.4,0-12.6-5.8-21.4-18-21.4-18l-14.1-6.3,1.9,6.3-17-6.8v6.8l-20.9-3.9C1303.17,786.94,1302.77,792.14,1302.67,797.44Z"/></g><g id="Layer_9-9" data-name="Layer 9"><path class="cls-2" d="M1152,787.14l-7,47.5s-.8,13.9,11.7,3.2,26-45.3,26-45.3"/><path class="cls-2" d="M1238.27,794.74c-1.8-3.9,13.4,5.3,21.1,13.8a213.36,213.36,0,0,1,15.6,19.9s8.7,11.8,11.1-5.1-10.4-54-10.4-54"/></g></g></g><g id="_3-4" data-name="3"><g id="Layer_5_copy_3-2" data-name="Layer 5 copy 3"><g id="Layer_1-12" data-name="Layer 1"><g id="Layer_3-10" data-name="Layer 3"><g id="Layer_10-10" data-name="Layer 10"><path class="cls-1" d="M856.77,781.34c1.1-3.9,6.9,12.2,7.2,23.1a192.59,192.59,0,0,1-.9,24s-.9,13.9,11.7,3.4,19.6-39.9,19.6-39.9"/><path class="cls-1" d="M773.87,792.24l33.5,41.7s7.8,7.2,8.7-9.2-10.4-33.4-10.4-33.4"/></g><g id="Layer_5-10" data-name="Layer 5"><path class="cls-2" d="M813.17,682.34s-58.3,4.4-92.3,38.4l3.9,9.2a6.69,6.69,0,0,0,4.4,2.9c5.4,1.9,23.8,2.9,28.7,5.8s7.5,3.1,8.5,13.8c.9,10.3.2,26.4,4.6,34.7s15.6,17.5,32.6,18,36.9-9.2,36.9-9.2,18-6.8,28.2-7.3a39.61,39.61,0,0,1,18,3.4l40.6,8,2.2-14.9,12.6-31.5s3.8-6.3,8.7-1c3.3,3.7,3.2,22.1,2.8,33-.2,4.9-.4,8.3-.4,8.3,1.8,11.9,2.5,19.9,22.4,28.2s67-11.1,54.9-15.5-58.8-51.5-70.9-68.5-33.5-22.8-45.9-24.3c-8.5-.3-29.9-3.9-47.4,2.4s-49.8,5.6-49.8,5.6c1,.6,12.4-19.1,11.4-19.7Z"/></g><path class="cls-3" d="M766.27,659.84c-4.3-3.5-10-2.3-16,.5a60,60,0,0,0-21.4-26.2c-8.7,11.4-17.5,24.3-14.6,31.6a24.35,24.35,0,0,0,8.3,10.7l-10,18.7,6.6,4.1-4.9,7.3,9.2,5.8-1.9,7.8,16,.5s15.1,0,23.8-8.3,20-19,21.9-20.9S795,687,795,687c14.4-.1,24.6,6.1,33,15.1l10.7-5.8-3.9-7.8,9.7-2.4-24.8-22.8s5.8-14.2,0-22.4l-10.7-17c-16.1,16.6-24.1,27.6-25.8,34.5C778.37,656,772.47,655.44,766.27,659.84Z"/><g id="Layer_7-10" data-name="Layer 7"><circle class="cls-4" cx="788.97" cy="702.64" r="8.7"/><circle class="cls-5" cx="786.57" cy="700.24" r="4.6"/><circle class="cls-5" cx="793.17" cy="706.74" r="1.9"/><circle class="cls-4" cx="733.77" cy="701.34" r="7.4"/><circle class="cls-5" cx="731.67" cy="699.24" r="3.9"/><circle class="cls-5" cx="737.27" cy="704.84" r="1.7"/><path d="M721.17,720.34s3.3,4.2,6.3,5.3c1.2.5,8.3-3.5,8.3-5.3Z"/><polygon class="cls-2" points="750.17 676.34 753.57 685.64 763.27 675.94 758.87 665.24 750.17 676.34"/><polygon class="cls-6" points="780.87 683.04 788.37 676.94 782.57 667.04 775.47 674.94 780.87 683.04"/><polygon class="cls-6" points="736.07 682.14 742.17 677.24 737.57 669.14 731.57 675.54 736.07 682.14"/><path d="M749.37,695.54c-4.9,15.9-23.6,25.9-27.7,24.8C737.07,721.84,747.47,704.84,749.37,695.54Z"/></g></g><g id="Layer_12-11" data-name="Layer 12"><path class="cls-3" d="M952.67,797.44c0,7.8,4.8,16.5,9.2,19.9s13.7,6.8,22.4,6.8,18,.1,24.8-2.9,28.7-11.7,28.7-11.7-1.4,0-12.6-5.8-21.4-18-21.4-18l-14.1-6.3,1.9,6.3-17-6.8v6.8l-20.9-3.9C953.17,786.94,952.77,792.14,952.67,797.44Z"/></g><g id="Layer_9-10" data-name="Layer 9"><path class="cls-2" d="M799.07,788.14l-2.2,47.9s.6,13.9,12,2,21.4-47.6,21.4-47.6"/><path class="cls-2" d="M884.67,792.84c-1.6-4.1,13.1,5.9,20.3,14.9a197.09,197.09,0,0,1,14.5,20.7s8,12.2,11.3-4.5-7.4-54.4-7.4-54.4"/></g></g></g></g><g id="_2-4" data-name="2"><g id="Layer_1-13" data-name="Layer 1"><g id="Layer_3-11" data-name="Layer 3"><g id="Layer_10-11" data-name="Layer 10"><path class="cls-1" d="M500.87,789.54c.4-4.1,9.1,10.7,11.4,21.4a175.37,175.37,0,0,1,3.6,23.8s1.6,13.9,12.1,1.2,11.9-42.8,11.9-42.8"/><path class="cls-1" d="M416.37,791.74l21.9,48.8s5.6,9,10.7-6.7-1.6-35-1.6-35"/></g><g id="Layer_5-11" data-name="Layer 5"><path class="cls-2" d="M460.27,687.84s-58.3,4.4-92.3,38.4l3.9,9.2a6.69,6.69,0,0,0,4.4,2.9c5.4,1.9,23.8,2.9,28.7,5.8s7.5,3.1,8.5,13.8c.9,10.3.2,26.4,4.6,34.7s15.6,17.5,32.6,18,36.9-9.2,36.9-9.2,18-6.8,28.2-7.3a39.61,39.61,0,0,1,18,3.4l40.6,8,2.2-14.9,12.6-31.5s3.8-6.3,8.7-1c3.3,3.7,3.2,22.1,2.8,33-.2,4.9-.4,8.3-.4,8.3,1.8,11.9,2.5,19.9,22.4,28.2s67-11.1,54.9-15.5-58.8-51.5-70.9-68.5-33.5-22.8-45.9-24.3c-8.5-.3-29.9-3.9-47.4,2.4s-49.8,5.6-49.8,5.6c1,.6,12.4-19.1,11.4-19.7Z"/></g><path class="cls-3" d="M413.37,665.34c-4.3-3.5-10-2.3-16,.5a60,60,0,0,0-21.4-26.2c-8.7,11.4-17.5,24.3-14.6,31.6a24.35,24.35,0,0,0,8.3,10.7l-10,18.7,6.6,4.1-4.9,7.3,9.2,5.8-1.9,7.8,16,.5s15.1,0,23.8-8.3,20-19,21.9-20.9,11.7-4.4,11.7-4.4c14.4-.1,24.6,6.1,33,15.1l10.7-5.8-3.9-7.8,9.7-2.4-24.8-22.8s5.8-14.2,0-22.4l-10.7-17C440,646,432,657,430.27,663.94A15.75,15.75,0,0,0,413.37,665.34Z"/><g id="Layer_7-11" data-name="Layer 7"><circle class="cls-4" cx="436.07" cy="708.14" r="8.7"/><circle class="cls-5" cx="433.67" cy="705.74" r="4.6"/><circle class="cls-5" cx="440.17" cy="712.34" r="1.9"/><circle class="cls-4" cx="380.87" cy="706.84" r="7.4"/><circle class="cls-5" cx="378.77" cy="704.74" r="3.9"/><circle class="cls-5" cx="384.37" cy="710.34" r="1.7"/><path d="M368.27,725.94s3.3,4.2,6.3,5.3c1.2.5,8.3-3.5,8.3-5.3Z"/><polygon class="cls-2" points="397.17 681.94 400.57 691.14 410.37 681.44 405.97 670.74 397.17 681.94"/><polygon class="cls-6" points="427.87 688.54 435.37 682.44 429.67 672.64 422.47 680.54 427.87 688.54"/><polygon class="cls-6" points="383.07 687.74 389.27 682.74 384.67 674.64 378.67 681.14 383.07 687.74"/><path d="M396.47,701.14c-4.9,15.9-23.6,25.9-27.7,24.8C384.17,727.44,394.57,710.34,396.47,701.14Z"/></g></g><g id="Layer_12-12" data-name="Layer 12"><path class="cls-3" d="M599.77,802.94c0,7.8,4.8,16.5,9.2,19.9s13.7,6.8,22.4,6.8,18,.1,24.8-2.9,28.7-11.7,28.7-11.7-1.4,0-12.6-5.8-21.4-18-21.4-18l-14.1-6.3,1.9,6.3-17-6.8v6.8l-20.9-3.9C600.17,792.54,599.87,797.74,599.77,802.94Z"/></g><g id="Layer_9-11" data-name="Layer 9"><path class="cls-2" d="M452.57,793.94l-2.2,47.9s.6,13.9,12,2,21.4-47.6,21.4-47.6"/><path class="cls-2" d="M535.07,796c-.8-4.3,11.8,8.3,17.1,18.5a198.33,198.33,0,0,1,10.3,23.1s5.5,13.6,12-2.2,3.2-54.9,3.2-54.9"/></g></g></g><g id="_1-2" data-name="1"><g id="Layer_4_copy-2" data-name="Layer 4 copy"><g id="Layer_1-14" data-name="Layer 1"><g id="Layer_3-12" data-name="Layer 3"><g id="Layer_10-12" data-name="Layer 10"><path class="cls-1" d="M148.07,804c0-4.1,10,9.8,13.4,20.2a184.47,184.47,0,0,1,5.8,23.3s2.9,13.6,12.1,0,7.8-43.7,7.8-43.7"/><path class="cls-1" d="M69.57,795.44l7.3,53s2.9,10.2,12.1-3.4,8.3-34,8.3-34"/></g><g id="Layer_5-12" data-name="Layer 5"><path class="cls-2" d="M114.17,698.94s-58.3,4.4-92.3,38.4l3.9,9.2a6.69,6.69,0,0,0,4.4,2.9c5.4,1.9,23.8,2.9,28.7,5.8s7.5,3.1,8.5,13.8c.9,10.3.2,26.4,4.6,34.7s15.6,17.5,32.6,18,36.9-9.2,36.9-9.2,18-6.8,28.2-7.3a39.61,39.61,0,0,1,18,3.4l40.6,8,2.2-14.9,12.6-31.5s3.8-6.3,8.7-1c3.3,3.7,3.2,22.1,2.8,33-.2,4.9-.4,8.3-.4,8.3,1.8,11.9,2.5,19.9,22.4,28.2s67-11.1,54.9-15.5-58.8-51.5-70.9-68.5-33.5-22.8-45.9-24.3c-8.5-.3-29.9-3.9-47.4,2.4s-49.8,5.6-49.8,5.6c1,.6,12.4-19.1,11.4-19.7Z"/></g><path class="cls-3" d="M67.27,676.44c-4.3-3.5-10-2.3-16,.5a60,60,0,0,0-21.4-26.2c-8.7,11.4-17.5,24.3-14.6,31.6a24.35,24.35,0,0,0,8.3,10.7l-10,18.7,6.6,4.1-4.9,7.3,9.2,5.8-1.9,7.8,16,.5s15.1,0,23.8-8.3,20-19,21.9-20.9,11.7-4.4,11.7-4.4c14.4-.1,24.6,6.1,33,15.1l10.7-5.8-3.9-7.8,9.7-2.4-24.8-22.8s5.8-14.2,0-22.4l-10.7-17c-16.1,16.6-24.1,27.6-25.8,34.5A15.75,15.75,0,0,0,67.27,676.44Z"/><g id="Layer_7-12" data-name="Layer 7"><circle class="cls-4" cx="89.97" cy="719.24" r="8.7"/><circle class="cls-5" cx="87.57" cy="716.84" r="4.6"/><circle class="cls-5" cx="94.17" cy="723.34" r="1.9"/><circle class="cls-4" cx="34.77" cy="717.94" r="7.4"/><circle class="cls-5" cx="32.67" cy="715.84" r="3.9"/><circle class="cls-5" cx="38.27" cy="721.44" r="1.7"/><path d="M22.17,737s3.3,4.2,6.3,5.3c1.2.5,8.3-3.5,8.3-5.3Z"/><polygon class="cls-2" points="51.17 693.04 54.57 702.24 64.27 692.54 59.87 681.84 51.17 693.04"/><polygon class="cls-6" points="81.87 699.64 89.37 693.54 83.57 683.74 76.47 691.64 81.87 699.64"/><polygon class="cls-6" points="37.07 698.84 43.27 693.84 38.57 685.74 32.67 692.24 37.07 698.84"/><path d="M50.37,712.24c-4.9,15.9-23.6,25.9-27.7,24.8C38.07,738.54,48.47,721.44,50.37,712.24Z"/></g></g><g id="Layer_12-13" data-name="Layer 12"><path class="cls-3" d="M253.77,814c0,7.8,4.8,16.5,9.2,19.9s13.6,6.8,22.4,6.8,18,0,24.8-2.9,28.7-11.7,28.7-11.7-1.4,0-12.6-5.8-21.4-18-21.4-18l-14.1-6.3,1.9,6.3-17-6.8v6.8l-20.9-3.9A136.15,136.15,0,0,0,253.77,814Z"/></g><g id="Layer_9-12" data-name="Layer 9"><path class="cls-2" d="M104.17,805.24l5.8,47.6s2.9,13.6,12.1,0,13.1-50.5,13.1-50.5"/><path class="cls-2" d="M187.47,803.74c0-4.4,10,10.3,13.4,21.3a209.52,209.52,0,0,1,5.9,24.6s2.9,14.4,12.2,0,13.2-53.4,13.2-53.4"/></g></g></g></g></svg>
