<svg xmlns="http://www.w3.org/2000/svg" xmlns:xlink="http://www.w3.org/1999/xlink" width="1600" height="900" viewBox="0 0 1600 900"><defs><style>.cls-1{fill:#21d976;}.cls-2{fill:#0b973c;}.cls-3{fill:#2b5c3c;}.cls-4{fill:#19452b;}.cls-5{fill:#206037;}.cls-6{fill:#184f2f;}.cls-7{fill:#2f6b60;}.cls-8{fill:#0c3d21;}.cls-9{fill:#123a2b;}.cls-10{fill:#435950;}.cls-11{fill:#354941;}</style><symbol id="Grass_1" data-name="Grass 1" viewBox="0 0 28.9 44.07"><path class="cls-1" d="M13.49,40.74S18.23,25.17,11.39,0C23.73,22.34,15.9,36,13.49,40.74Z"/><path class="cls-2" d="M11.13,37.63S12.47,26,0,17.15c10.77,11.43,9,21,10.32,26.92Z"/><path class="cls-3" d="M19.72,39.82s-2.42-11.58,5.65-17A81.72,81.72,0,0,0,19.72,39.82Z"/><path class="cls-4" d="M22.13,40.11s-.16-7.89,4.92-9.73C28.07,29.56,25.57,35,22.13,40.11Z"/><path class="cls-3" d="M10.72,29s3.83-7.92-7.07-21.66C6.38,13.39,9.63,21.24,10.72,29Z"/><path class="cls-2" d="M19.62,25.76S20.15,6.4,28.9,3.48C23.87,11.7,22.54,16.21,19.62,25.76Z"/></symbol></defs><title>mellemgrund-01</title><g id="mellemgrund2"><rect class="cls-5" x="6" y="425" width="1599" height="146"/></g><g id="mellemgrund1"><polygon class="cls-6" points="-3.5 561.5 1600.5 562 1599.5 901.5 -0.5 901.5 -3.5 561.5"/><g id="Layer_6" data-name="Layer 6"><path class="cls-7" d="M1421,394c30-17,27,14,40,15s12-10,22-37,26-33,40-51c-4-3.86,83-60.86,87-57,0,0,10,53-2,57s-5,75-6,107c-21,1,11,8,11,8l1-8H9l33-55s51.5-71.5,61-64,48.5,61.5,64.5,70.5S203,399,203,399s-5,3,12-4,25-17,48-41c30-29,41-70,48-62s31,63,46,70,33,20,52,15,29.25,1.75,37.25-3.25c3.47,6,34.25-61.25,51.75-43.75,4,11,28,43,40,52.5s62,28.5,73.5,17S666,352,666,352s27-29,39-28c22,5,20,32,20,32s21,23,37,23,30,15,38,16,33,8,33,8a247.51,247.51,0,0,1,25-18c13-8,41-11,41-11s13-15,40-1,25,29,32.5,34.5S996,418,1016,412s14-19,30-27,52-15,59-22c15.5-15.5,18-61,52-57,15,0,55,67,55,67s17,26,39,29,7,8,29,6c17-5,11-11,24-23s38-55,66-42"/></g></g><g id="b4-mellem"><rect class="cls-8" x="49" y="681" width="1551" height="220"/></g><g id="træer"><path class="cls-9" d="M408,415c9,1,7-107-2-117s-10-3-25.75-13.25c-1.7,1.89-46.45-38.36-44.75-40.25,0,0,30,15,43,21S399,273,404,268c11-3-17-68-11-68,6,15.5,34.49,66.41,37,60,3.8-9.7,8.18-23.57,13-32,8-14,24-26,24-26s-22.5,58.5-13,68,26,2,34-4,25-9,25-9-22.5,19.5-39,29-28,8-36,16-7,114-7,114S399,414,408,415Z"/><path class="cls-9" d="M1132,456c9,1,7-107-2-117s-10-3-25.75-13.25c-1.7,1.89-46.45-38.36-44.75-40.25,0,0,30,15,43,21S1123,314,1128,309c11-3-17-68-11-68,6,15.5,34.49,66.41,37,60,3.8-9.7,8.18-23.57,13-32,8-14,24-26,24-26s-22.5,58.5-13,68,26,2,34-4,25-9,25-9-22.5,19.5-39,29-28,8-36,16-7,114-7,114S1123,455,1132,456Z"/><path class="cls-9" d="M574,429l4.5-159.5S565,232,540.5,221c-13.63-9.38-43.67-23.47-43.5-22,0,0,34,3,48,10l24,12s9,7,11,3,2-23,2-23a399.67,399.67,0,0,0-8-48c-6-26-13-32-13-32s18,16,26,34,9,63,15,63,7.5-24.5,16.5-38.5A71.11,71.11,0,0,1,641,158l18-7s-32.5,34.5-24.5,25.5-18,41-13.5,45.5,10-5,34-16,38-3,38-3-35,8-55,29-26,29-30,40-3,3-7,25-10,135-10,135"/><path class="cls-9" d="M1457.46,446.45l-4-200.89s11.86-33,33.4-42.64c12-8.25,38.4-20.64,38.25-19.34,0,0-29.89,2.63-42.2,8.79l-21.1,10.55s-7.91,6.15-9.67,2.64-1.76-20.23-1.76-20.23a352.19,352.19,0,0,1,7-42.2c5.28-22.85,11.43-28.13,11.43-28.13s-15.82,14.07-22.86,29.89-7.91,55.39-13.18,55.39-6.6-21.54-14.51-33.85a62.45,62.45,0,0,0-19.78-18.9l-15.83-6.15s28.58,30.33,21.54,22.41,15.83,36.05,11.87,40-8.79-4.4-29.89-14.07-33.41-2.64-33.41-2.64,30.77,7,48.35,25.5,22.86,25.49,26.38,35.17,2.64,2.63,6.15,22,8.8,187.26,8.8,187.26"/><path class="cls-9" d="M877,440s-1-87,2-96c.92-2.75-3-7.47-8.94-12.69C856.62,319.46,833,305,833,305a69.1,69.1,0,0,1,20.27,3c8.9,2.76,18.49,9.23,23.73,9,4.63-.2,3.8-11.08,7-24,1.13-4.54,4.57-11.81,5.47-16.47a188.29,188.29,0,0,1,7-26.28S894.28,273,894.19,290c-.08,14.24,1.34,30.09,6.81,31,12,2,44-26,44-26a259.81,259.81,0,0,1-27,30.88c-7.88,7.54-18,12.12-24,18.12s-2,96-2,96Z"/><path class="cls-9" d="M1542,415s1-98.52-2-108.71c-.92-3.12,3-8.46,8.94-14.37,13.44-13.42,37.06-29.8,37.06-29.8a61.8,61.8,0,0,0-20.27,3.4c-8.9,3.12-18.49,10.45-23.73,10.19-4.63-.22-3.8-12.54-7-27.17-1.13-5.15-4.57-13.37-5.47-18.66a236.18,236.18,0,0,0-7-29.76s2.22,25.78,2.31,45c.08,16.13-1.34,34.07-6.81,35.1-12,2.27-44-29.44-44-29.44a287,287,0,0,0,27,35c7.88,8.54,18,13.72,24,20.52S1527,415,1527,415Z"/><path class="cls-9" d="M166,459s-1-87,2-96c.92-2.75-3-7.47-8.94-12.69C145.62,338.46,122,324,122,324a69.1,69.1,0,0,1,20.27,3c8.9,2.76,18.49,9.23,23.73,9,4.63-.2,3.8-11.08,7-24,1.13-4.54,4.57-11.81,5.47-16.47a188.29,188.29,0,0,1,7-26.28S183.28,292,183.19,309c-.08,14.24,1.34,30.09,6.81,31,12,2,44-26,44-26a259.81,259.81,0,0,1-27,30.88c-7.88,7.54-18,12.12-24,18.12s-2,96-2,96Z"/></g><g id="buske"><path class="cls-9" d="M22.26,415.54s70.87-21.65,97.45-24.6,29.52,20.66,54.13,17.71S203.37,387,203.37,387s-1-10.83,26.57-10.83,24.61,36.42,41.34,26.58,43.31,11.81,43.31,11.81,33.46-22.64,47.24-10.83,26.58-8.86,44.3-7.87,29.52,14.76,42.32,22.63,27.56,0,27.56,0,16.73-8.85,33.46-5.9l33.47,5.9s42.32,3.94,64,0,3-8.85,21.66-22.63,36.42,0,36.42,0-6.89,3.93,9.84,10.82,5.9-9.84,27.56-8.85,10.82,18.7,26.57,17.71,4.92-11.81,15.75-22.64,35.43-9.84,35.43-9.84l43.31,14.77s-5.9-1,14.76,17.71,59.06-1,59.06-1,3-8.86,15.75-20.67S941.56,386,941.56,386s-1-9.84,26.58-9.84,39.37,30.51,39.37,30.51l24.6,8.86s26.58-20.67,42.33-22.64,42.32,9.85,42.32,9.85,16.73,12.79,28.54,15.74,31.5-2.95,31.5-2.95,16.73-9.84,31.5-13.78,32.48,10.83,32.48,10.83l54.13,3s1-17.71,12.8-17.71,29.52-7.88,39.37,0,17.71,14.76,17.71,14.76l47.25,5.9,75.79-5.9s8.85-14.76,19.68-25.59,9.84,3.94,38.39-10.83,56.1,0,56.1,0v90.55H7.5l20.67-45.27Z"/></g><g id="sten-mellem"><path class="cls-10" d="M516,467l4.5-19.5S533,437,558,437c25-1,35,3,45,9s31,20,20,29-37,7-37,7-56,2-64-2S516,467,516,467Z"/><path class="cls-11" d="M581,477.6l13-16.66s14.65-9,36-9c21.35-.86,16.73,2.56,25.27,7.68s26.47,17.08,17.08,24.77-31.6,6-31.6,6-47.83,1.71-54.66-1.71S581,477.6,581,477.6Z"/></g><g id="blomster"><use width="28.9" height="44.07" transform="translate(530 443)" xlink:href="#Grass_1"/><use width="28.9" height="44.07" transform="translate(1231 428)" xlink:href="#Grass_1"/><use width="28.9" height="44.07" transform="translate(1305 429)" xlink:href="#Grass_1"/><use width="28.9" height="44.07" transform="translate(1479 419.9) scale(1.21 1.21)" xlink:href="#Grass_1"/><use width="28.9" height="44.07" transform="translate(1451 437.1) scale(0.8 0.79)" xlink:href="#Grass_1"/><use width="28.9" height="44.07" transform="translate(583.59 461) scale(0.78 0.77)" xlink:href="#Grass_1"/></g></svg>
