<svg id="Layer_1" data-name="Layer 1" xmlns="http://www.w3.org/2000/svg" width="1403.8" height="979.36" viewBox="0 0 1403.8 979.36"><defs><style>.cls-1{fill:#939393;stroke:#939393;}.cls-1,.cls-2,.cls-3,.cls-4,.cls-6,.cls-7{stroke-miterlimit:10;stroke-width:3px;}.cls-2,.cls-5{fill:#fff;}.cls-2,.cls-6{stroke:#fff;}.cls-3{fill:#c7eff9;stroke:#c7eff9;}.cls-4,.cls-7{stroke:#000;}.cls-6,.cls-7{fill:none;}</style></defs><title>pls2</title><g id="Layer_1_copy_4" data-name="Layer 1 copy 4"><g id="Layer_1-2" data-name="Layer 1-2"><g id="Layer_3" data-name="Layer 3"><g id="Layer_10" data-name="Layer 10"><path class="cls-1" d="M165.36,183.62s-1.52,31.31,8.08,45.45,12.62,0,12.62,0a192.58,192.58,0,0,1,6.06-24.24c3.49-10.81,13.89-25.25,13.89-21" transform="translate(0.02 -11.51)"/><path class="cls-1" d="M258.79,191.18s-1,21.21,8.58,35.36S280,230.07,280,230.07l7.57-55" transform="translate(0.02 -11.51)"/></g><g id="Layer_5" data-name="Layer 5"><path class="cls-2" d="M226,95.23c-1,.6,10.86,21.06,11.87,20.45,0,0-33.59.76-51.77-5.81s-40.4-2.77-49.24-2.52c-12.87,1.51-35.1,7.57-47.72,25.25S28,199.26,15.37,203.81,51.73,228.56,72.43,220s21.36-16.92,23.23-29.29c0,0-.25-3.54-.4-8.59-.4-11.36-.56-30.5,2.93-34.34,5-5.55,9.09,1,9.09,1l13.08,32.78L122.68,197l42.22-8.36a40.89,40.89,0,0,1,18.69-3.54c10.6.51,29.29,7.58,29.29,7.58s20.71,10.1,38.38,9.59,29.29-10.1,33.84-18.68,3.8-25.35,4.8-36.14c1-11.11,3.78-11.36,8.83-14.39s24.25-4,29.8-6.06a7.16,7.16,0,0,0,4.55-3l4-9.6c-35.36-35.35-96-39.9-96-39.9Z" transform="translate(0.02 -11.51)"/></g><path class="cls-3" d="M272.42,49.78c-1.76-7.12-10-18.64-26.76-35.86l-11.11,17.7c-6,8.48,0,23.23,0,23.23L208.79,78.56l10.1,2.53-4,8.08L226,95.23c8.69-9.39,19.34-15.81,34.34-15.66,0,0,10.1,2.53,12.12,4.55s13.64,13.13,22.73,21.71,24.71,8.6,24.71,8.6l16.67-.51-2-8.08,9.6-6.06-5.05-7.57,6.81-4.29L335.61,68.43a24.52,24.52,0,0,0,8.59-11.11c3-7.57-6.17-21-15.15-32.82a61.39,61.39,0,0,0-22.26,27.27c-6.26-2.93-12.12-4.19-16.66-.51C283.53,46.62,277.42,47.35,272.42,49.78Z" transform="translate(0.02 -11.51)"/><g id="Layer_7" data-name="Layer 7"><circle class="cls-4" cx="266.38" cy="84.22" r="9.09"/><circle class="cls-5" cx="268.91" cy="81.7" r="4.8"/><circle class="cls-5" cx="262.09" cy="88.51" r="2.02"/><circle class="cls-4" cx="323.8" cy="82.86" r="7.73"/><circle class="cls-5" cx="325.98" cy="80.69" r="4.04"/><circle class="cls-5" cx="320.17" cy="86.5" r="1.72"/><path d="M321.66,114.17c0,1.92,7.38,6,8.59,5.55,3.13-1.11,6.56-5.55,6.56-5.55Z" transform="translate(0.02 -11.51)"/><polygon class="cls-2" points="297.69 45.34 293.15 56.45 303.25 66.55 306.78 56.95 297.69 45.34"/><polygon class="cls-6" points="280.47 55.49 273.05 47.26 267.09 57.51 274.87 63.82 280.47 55.49"/><polygon class="cls-6" points="326.03 56.09 319.87 49.38 315.02 57.81 321.43 62.96 326.03 56.09"/><path d="M336.36,114.17c-4.29,1.16-23.69-9.3-28.84-25.76C309.54,98,320.3,115.73,336.36,114.17Z" transform="translate(0.02 -11.51)"/></g></g><g id="Layer_12" data-name="Layer 12"><path class="cls-3" d="M95.16,178.05l-21.72,4v-7l-17.65,7.07,2-6.56-14.65,6.56s-10.6,12.6-22.24,18.66-13.13,6.06-13.13,6.06S30.5,215.93,37.57,219s16.66,3,25.75,3,18.69-3.54,23.23-7.07,9.6-12.63,9.6-20.71A155.34,155.34,0,0,0,95.16,178.05Z" transform="translate(0.02 -11.51)"/></g><g id="Layer_9" data-name="Layer 9"><path class="cls-2" d="M219.4,182.09s4,38.38,13.63,52.53,12.63,0,12.63,0l6.06-49.5" transform="translate(0.02 -11.51)"/><path class="cls-2" d="M118.64,175.78s4,40.5,13.69,55.45,12.68,0,12.68,0a209.12,209.12,0,0,1,6.11-25.55c3.53-11.42,13.93-26.72,13.93-22.17" transform="translate(0.02 -11.51)"/></g></g></g><g id="Layer_1_copy_2" data-name="Layer 1 copy 2"><g id="Layer_1-2-2" data-name="Layer 1-2-2"><g id="Layer_3-2" data-name="Layer 3-2"><g id="Layer_10-2" data-name="Layer 10-2"><path class="cls-1" d="M502.5,189.62s9.22,30,23,40,11.88-4.3,11.88-4.3a190.57,190.57,0,0,1-2.48-24.89c-.4-11.35,4.47-28.47,5.93-24.44" transform="translate(0.02 -11.51)"/><path class="cls-1" d="M604.33,187.19s-7.79,19.75-3.27,36.23,10.84,7.41,10.84,7.41l24.92-49.66" transform="translate(0.02 -11.51)"/></g><g id="Layer_5-2" data-name="Layer 5-2"><path class="cls-2" d="M576,95.23c-1,.6,10.86,21.06,11.87,20.45,0,0-33.59.76-51.77-5.81s-40.4-2.77-49.24-2.52c-12.87,1.51-35.1,7.57-47.72,25.25S378,199.26,365.37,203.81s36.36,24.75,57.06,16.16,21.37-16.92,23.23-29.29c0,0-.25-3.54-.4-8.59-.4-11.36-.56-30.5,2.93-34.34,5-5.55,9.09,1,9.09,1l13.08,32.78L472.68,197l42.22-8.36a40.89,40.89,0,0,1,18.69-3.54c10.6.51,29.29,7.58,29.29,7.58s20.71,10.1,38.38,9.59,29.29-10.1,33.84-18.68,3.8-25.35,4.8-36.14c1-11.11,3.78-11.36,8.83-14.39s24.25-4,29.8-6.06a7.16,7.16,0,0,0,4.55-3l4-9.6c-35.36-35.35-96-39.9-96-39.9Z" transform="translate(0.02 -11.51)"/></g><path class="cls-3" d="M622.42,49.78c-1.76-7.12-10-18.64-26.76-35.86l-11.11,17.7c-6,8.48,0,23.23,0,23.23L558.79,78.56l10.1,2.53-4,8.08L576,95.23c8.69-9.39,19.34-15.81,34.34-15.66,0,0,10.1,2.53,12.12,4.55s13.64,13.13,22.73,21.71,24.71,8.6,24.71,8.6l16.67-.51-2-8.08,9.6-6.06-5-7.57L696,87.92,685.61,68.43a24.52,24.52,0,0,0,8.59-11.11c3-7.57-6.17-21-15.15-32.82a61.39,61.39,0,0,0-22.26,27.27c-6.26-2.93-12.12-4.19-16.66-.51C633.53,46.62,627.42,47.35,622.42,49.78Z" transform="translate(0.02 -11.51)"/><g id="Layer_7-2" data-name="Layer 7-2"><circle class="cls-4" cx="616.38" cy="84.22" r="9.09"/><circle class="cls-5" cx="618.91" cy="81.7" r="4.8"/><circle class="cls-5" cx="612.09" cy="88.51" r="2.02"/><circle class="cls-4" cx="673.8" cy="82.86" r="7.73"/><circle class="cls-5" cx="675.98" cy="80.69" r="4.04"/><circle class="cls-5" cx="670.17" cy="86.5" r="1.72"/><path d="M671.66,114.17c0,1.92,7.38,6,8.59,5.55,3.13-1.11,6.56-5.55,6.56-5.55Z" transform="translate(0.02 -11.51)"/><polygon class="cls-2" points="647.69 45.34 643.15 56.45 653.25 66.55 656.78 56.95 647.69 45.34"/><polygon class="cls-6" points="630.47 55.49 623.05 47.26 617.09 57.51 624.87 63.82 630.47 55.49"/><polygon class="cls-6" points="676.03 56.09 669.86 49.38 665.02 57.81 671.43 62.96 676.03 56.09"/><path d="M686.36,114.17c-4.29,1.16-23.69-9.3-28.84-25.76C659.54,98,670.3,115.73,686.36,114.17Z" transform="translate(0.02 -11.51)"/></g></g><g id="Layer_12-2" data-name="Layer 12-2"><path class="cls-3" d="M445.16,178.05l-21.72,4v-7l-17.65,7.07,2-6.56-14.65,6.56s-10.6,12.63-22.22,18.69-13.13,6.06-13.13,6.06S380.52,216,387.59,219s16.66,3,25.75,3,18.69-3.54,23.23-7.07,9.6-12.63,9.6-20.71A153,153,0,0,0,445.16,178.05Z" transform="translate(0.02 -11.51)"/></g><g id="Layer_9-2" data-name="Layer 9-2"><path class="cls-2" d="M564.79,191.36s14.33,35.83,27.41,46.83,12.15-3.44,12.15-3.44l-7.63-49.27" transform="translate(0.02 -11.51)"/><path class="cls-2" d="M470.14,167.53s-10.79,39.24-7.17,56.66,11.82,4.56,11.82,4.56a210.79,210.79,0,0,1,14.89-21.65c7.4-9.38,22.61-19.92,21-15.68" transform="translate(0.02 -11.51)"/></g></g></g><g id="Layer_1_copy_3" data-name="Layer 1 copy 3"><g id="Layer_1-3" data-name="Layer 1-3"><g id="Layer_3-3" data-name="Layer 3-3"><g id="Layer_10-3" data-name="Layer 10-3"><path class="cls-1" d="M864.36,183.62s-1.52,31.31,8.08,45.45,12.62,0,12.62,0a192.58,192.58,0,0,1,6.06-24.24c3.49-10.81,13.89-25.25,13.89-21" transform="translate(0.02 -11.51)"/><path class="cls-1" d="M957.79,191.18s-1,21.21,8.58,35.36S979,230.07,979,230.07l7.57-55" transform="translate(0.02 -11.51)"/></g><g id="Layer_5-3" data-name="Layer 5-3"><path class="cls-2" d="M925,95.23c-1,.6,10.86,21.06,11.87,20.45,0,0-33.59.76-51.77-5.81s-40.4-2.77-49.24-2.52c-12.87,1.51-35.1,7.57-47.72,25.25S727,199.26,714.37,203.81s36.36,24.75,57.06,16.16,21.37-16.92,23.23-29.29c0,0-.25-3.54-.4-8.59-.4-11.36-.56-30.5,2.93-34.34,5-5.55,9.09,1,9.09,1l13.08,32.78L821.68,197l42.22-8.36a40.89,40.89,0,0,1,18.69-3.54c10.6.51,29.29,7.58,29.29,7.58s20.71,10.1,38.38,9.59,29.29-10.1,33.84-18.68,3.8-25.35,4.8-36.14c1-11.11,3.78-11.36,8.83-14.39s24.25-4,29.8-6.06a7.16,7.16,0,0,0,4.55-3l4-9.6c-35.36-35.35-96-39.9-96-39.9Z" transform="translate(0.02 -11.51)"/></g><path class="cls-3" d="M971.42,49.78c-1.76-7.12-10-18.64-26.76-35.86l-11.11,17.7c-6,8.48,0,23.23,0,23.23L907.79,78.56l10.1,2.53-4,8.08L925,95.23c8.69-9.39,19.34-15.81,34.34-15.66,0,0,10.1,2.53,12.12,4.55s13.64,13.13,22.73,21.71,24.71,8.6,24.71,8.6l16.67-.51-2-8.08,9.6-6.06-5-7.57,6.81-4.29-10.32-19.49a24.52,24.52,0,0,0,8.59-11.11c3-7.57-6.17-21-15.15-32.82a61.57,61.57,0,0,0-22.31,27.27c-6.26-2.93-12.12-4.19-16.66-.51C982.53,46.62,976.42,47.35,971.42,49.78Z" transform="translate(0.02 -11.51)"/><g id="Layer_7-3" data-name="Layer 7-3"><circle class="cls-4" cx="965.38" cy="84.22" r="9.09"/><circle class="cls-5" cx="967.91" cy="81.7" r="4.8"/><circle class="cls-5" cx="961.09" cy="88.51" r="2.02"/><circle class="cls-4" cx="1022.8" cy="82.86" r="7.73"/><path class="cls-5" d="M1025,88.16a4,4,0,1,1-4,4A4,4,0,0,1,1025,88.16Z" transform="translate(0.02 -11.51)"/><circle class="cls-5" cx="1019.17" cy="86.5" r="1.72"/><path d="M1020.66,114.17c0,1.92,7.38,6,8.59,5.55,3.13-1.11,6.56-5.55,6.56-5.55Z" transform="translate(0.02 -11.51)"/><polygon class="cls-2" points="996.69 45.34 992.15 56.45 1002.25 66.55 1005.78 56.95 996.69 45.34"/><polygon class="cls-6" points="979.47 55.49 972.05 47.26 966.09 57.51 973.87 63.82 979.47 55.49"/><polygon class="cls-6" points="1025.03 56.09 1018.86 49.38 1014.02 57.81 1020.43 62.96 1025.03 56.09"/><path d="M1035.36,114.17c-4.29,1.16-23.69-9.3-28.84-25.76C1008.54,98,1019.3,115.73,1035.36,114.17Z" transform="translate(0.02 -11.51)"/></g></g><g id="Layer_12-3" data-name="Layer 12-3"><path class="cls-3" d="M794.16,178.05l-21.72,4v-7l-17.65,7.07,2-6.56-14.65,6.56s-10.6,12.63-22.22,18.69-13.13,6.06-13.13,6.06S729.52,216,736.59,219s16.66,3,25.75,3,18.69-3.54,23.23-7.07,9.6-12.63,9.6-20.71A153,153,0,0,0,794.16,178.05Z" transform="translate(0.02 -11.51)"/></g><g id="Layer_9-3" data-name="Layer 9-3"><path class="cls-2" d="M918.4,182.09s4,38.38,13.63,52.53,12.63,0,12.63,0l6.06-49.5" transform="translate(0.02 -11.51)"/><path class="cls-2" d="M817.64,175.78s4,40.5,13.69,55.45,12.68,0,12.68,0a209.12,209.12,0,0,1,6.11-25.55c3.53-11.42,13.93-26.72,13.93-22.17" transform="translate(0.02 -11.51)"/></g></g></g><g id="Layer_1_copy" data-name="Layer 1 copy"><g id="Layer_1-4" data-name="Layer 1-4"><g id="Layer_3-4" data-name="Layer 3-4"><g id="Layer_10-4" data-name="Layer 10-4"><path class="cls-1" d="M1209.31,170.32s-13.58,28.26-10.24,45,11.63,4.91,11.63,4.91a187.22,187.22,0,0,1,15-20c7.41-8.6,22.61-17.86,20.94-13.9" transform="translate(0.02 -11.51)"/><path class="cls-1" d="M1305.6,196.87s2.7,21.07,14.62,33.32,13,1.27,13,1.27l-2.14-55.52" transform="translate(0.02 -11.51)"/></g><g id="Layer_5-4" data-name="Layer 5-4"><path class="cls-2" d="M1276,95.23c-1,.6,10.86,21.06,11.87,20.45,0,0-33.59.76-51.77-5.81s-40.4-2.77-49.24-2.52c-12.87,1.51-35.1,7.57-47.72,25.25s-61.11,66.66-73.73,71.21,36.36,24.75,57.06,16.16,21.37-16.92,23.23-29.29c0,0-.25-3.54-.4-8.59-.4-11.36-.56-30.5,2.93-34.34,5-5.55,9.09,1,9.09,1l13.08,32.78,8.43,15.45,36.06-8.33a40.89,40.89,0,0,1,18.69-3.54c10.6.51,29.29,7.58,29.29,7.58s20.71,10.1,38.38,9.59,29.29-10.1,33.84-18.68,3.84-25.35,4.8-36.11c1-11.11,3.78-11.36,8.83-14.39s24.25-4,29.8-6.06a7.16,7.16,0,0,0,4.55-3l4-9.6c-35.36-35.35-96-39.9-96-39.9Z" transform="translate(0.02 -11.51)"/></g><path class="cls-3" d="M1322.42,49.78c-1.76-7.12-10-18.64-26.76-35.86l-11.11,17.7c-6,8.48,0,23.23,0,23.23l-25.76,23.71,10.1,2.53-4,8.08L1276,95.23c8.69-9.39,19.34-15.81,34.34-15.66,0,0,10.1,2.53,12.12,4.55s13.64,13.13,22.73,21.71,24.71,8.6,24.71,8.6l16.67-.51-2-8.08,9.6-6.06-5-7.57,6.81-4.29-10.32-19.49a24.52,24.52,0,0,0,8.59-11.11c3-7.57-6.17-21-15.15-32.82a61.57,61.57,0,0,0-22.31,27.27c-6.26-2.93-12.12-4.19-16.66-.51C1333.53,46.62,1327.42,47.35,1322.42,49.78Z" transform="translate(0.02 -11.51)"/><g id="Layer_7-4" data-name="Layer 7-4"><circle class="cls-4" cx="1316.38" cy="84.22" r="9.09"/><circle class="cls-5" cx="1318.91" cy="81.7" r="4.8"/><circle class="cls-5" cx="1312.09" cy="88.51" r="2.02"/><circle class="cls-4" cx="1373.8" cy="82.86" r="7.73"/><circle class="cls-5" cx="1375.98" cy="80.69" r="4.04"/><circle class="cls-5" cx="1370.17" cy="86.5" r="1.72"/><path d="M1371.66,114.17c0,1.92,7.38,6,8.59,5.55,3.13-1.11,6.56-5.55,6.56-5.55Z" transform="translate(0.02 -11.51)"/><polygon class="cls-2" points="1347.69 45.34 1343.15 56.45 1353.25 66.55 1356.78 56.95 1347.69 45.34"/><polygon class="cls-6" points="1330.47 55.49 1323.05 47.26 1317.09 57.51 1324.87 63.82 1330.47 55.49"/><polygon class="cls-6" points="1376.03 56.09 1369.87 49.38 1365.02 57.81 1371.43 62.96 1376.03 56.09"/><path d="M1386.36,114.17c-4.29,1.16-23.69-9.3-28.84-25.76C1359.54,98,1370.3,115.73,1386.36,114.17Z" transform="translate(0.02 -11.51)"/></g></g><g id="Layer_12-4" data-name="Layer 12-4"><path class="cls-3" d="M1145.16,178.05l-21.72,4v-7l-17.65,7.07,2-6.56-14.65,6.56s-10.6,12.63-22.22,18.69-13.13,6.06-13.13,6.06,22.73,9.09,29.8,12.12,16.66,3,25.75,3,18.69-3.54,23.23-7.07,9.6-12.63,9.6-20.71A153,153,0,0,0,1145.16,178.05Z" transform="translate(0.02 -11.51)"/></g><g id="Layer_9-4" data-name="Layer 9-4"><path class="cls-2" d="M1281.53,179.34s-12,36.68-9,53.51,11.53,5.16,11.53,5.16l25.75-42.7" transform="translate(0.02 -11.51)"/><path class="cls-2" d="M1168.19,173.91s8.45,39.81,19.68,53.62,12.6-1.39,12.6-1.39a211.51,211.51,0,0,1,3.27-26.07c2.27-11.73,10.93-28.08,11.43-23.56" transform="translate(0.02 -11.51)"/></g></g></g><g id="Layer_1_copy_4-2" data-name="Layer 1 copy 4-2"><g id="Layer_1-3-2" data-name="Layer 1-3-2"><g id="Layer_3-2-2" data-name="Layer 3-2-2"><g id="Layer_10-2-2" data-name="Layer 10-2-2"><path class="cls-1" d="M1197.75,615.21c0-4.25,10.4,10.19,13.89,21a191.86,191.86,0,0,1,6.06,24.22s3,14.14,12.62,0S1238.4,615,1238.4,615" transform="translate(0.02 -11.51)"/><path class="cls-1" d="M1116.19,606.43l7.57,55s3,10.62,12.63-3.53,8.58-35.36,8.58-35.36" transform="translate(0.02 -11.51)"/></g><g id="Layer_5-2-2" data-name="Layer 5-2-2"><path class="cls-2" d="M1162.73,505.89s-60.64,4.55-96,39.9l4,9.6a7.16,7.16,0,0,0,4.55,3c5.55,2.06,24.75,3,29.8,6.06s7.83,3.28,8.83,14.39c1,10.76.25,27.53,4.8,36.11s16.17,18.17,33.84,18.68,38.38-9.59,38.38-9.59,18.69-7.07,29.29-7.58a41,41,0,0,1,18.69,3.54l42.17,8.36,2.32-15.45,13.08-32.78s4.09-6.55,9.09-1c3.49,3.84,3.33,23,2.93,34.34-.15,5-.4,8.59-.4,8.59,1.87,12.37,2.53,20.7,23.23,29.29s69.68-11.61,57.06-16.16-61.11-53.53-73.73-71.21-34.85-23.74-47.72-25.25c-8.84-.25-31.06-4-49.24,2.52s-51.77,5.81-51.77,5.81c1,.61,12.87-19.85,11.87-20.45Z" transform="translate(0.02 -11.51)"/></g><path class="cls-3" d="M1113.63,482.67c-4.54-3.68-10.4-2.42-16.66.51a61.57,61.57,0,0,0-22.26-27.27c-9,11.82-18.15,25.25-15.15,32.82a24.52,24.52,0,0,0,8.59,11.11l-10.35,19.45,6.81,4.29-5,7.57,9.6,6.06-2,8.08,16.67.51s15.65,0,24.74-8.59,20.71-19.69,22.73-21.71,12.12-4.55,12.12-4.55c15-.15,25.65,6.27,34.34,15.66l11.11-6.06-4-8.08,10.1-2.53-25.76-23.71s6-14.75,0-23.23l-11.11-17.7c-16.71,17.22-25,28.74-26.76,35.86C1126.34,478.73,1120.23,478,1113.63,482.67Z" transform="translate(0.02 -11.51)"/><g id="Layer_7-2-2" data-name="Layer 7-2-2"><circle class="cls-4" cx="1137.42" cy="515.6" r="9.09"/><circle class="cls-5" cx="1134.89" cy="513.08" r="4.8"/><circle class="cls-5" cx="1141.71" cy="519.89" r="2.02"/><circle class="cls-4" cx="1080" cy="514.24" r="7.73"/><circle class="cls-5" cx="1077.82" cy="512.07" r="4.04"/><circle class="cls-5" cx="1083.63" cy="517.88" r="1.72"/><path d="M1067,545.43s3.43,4.44,6.56,5.55c1.21.45,8.54-3.63,8.59-5.55Z" transform="translate(0.02 -11.51)"/><polygon class="cls-2" points="1097.02 488.33 1100.55 497.93 1110.65 487.83 1106.11 476.72 1097.02 488.33"/><polygon class="cls-6" points="1128.93 495.2 1136.71 488.89 1130.75 478.64 1123.33 486.87 1128.93 495.2"/><polygon class="cls-6" points="1082.37 494.34 1088.78 489.19 1083.93 480.76 1077.77 487.47 1082.37 494.34"/><path d="M1096.24,519.79c-5.15,16.46-24.55,26.92-28.84,25.76C1083.46,547.11,1094.22,529.43,1096.24,519.79Z" transform="translate(0.02 -11.51)"/></g></g><g id="Layer_12-2-2" data-name="Layer 12-2-2"><path class="cls-3" d="M1307.63,625.56c0,8.08,5.06,17.18,9.6,20.71s14.14,7.07,23.23,7.07,18.68,0,25.75-3,29.8-12.12,29.8-12.12-1.51,0-13.13-6.06-22.22-18.73-22.22-18.73L1346,606.87l2,6.56-17.65-7v7l-21.72-4A155.19,155.19,0,0,0,1307.63,625.56Z" transform="translate(0.02 -11.51)"/></g><g id="Layer_9-2-2" data-name="Layer 9-2-2"><path class="cls-2" d="M1152,616.5l6.06,49.5s3,14.15,12.63,0,13.63-52.57,13.63-52.57" transform="translate(0.02 -11.51)"/><path class="cls-2" d="M1238.71,614.89c0-4.55,10.4,10.75,13.93,22.17a209.12,209.12,0,0,1,6.11,25.55s3,15,12.68,0,13.69-55.45,13.69-55.45" transform="translate(0.02 -11.51)"/></g></g></g><g id="Layer_1_copy_2-2" data-name="Layer 1 copy 2-2"><g id="Layer_1-2-3" data-name="Layer 1-2-3"><g id="Layer_3-2-3" data-name="Layer 3-2-3"><g id="Layer_10-2-3" data-name="Layer 10-2-3"><path class="cls-1" d="M863,607.43c1.46-4,6.33,13.09,5.93,24.44a190.07,190.07,0,0,1-2.55,24.85s-2,14.3,11.88,4.3,23-40,23-40" transform="translate(0.02 -11.51)"/><path class="cls-1" d="M767,612.55l24.93,49.66s6.29,9.07,10.81-7.41-3.27-36.23-3.27-36.23" transform="translate(0.02 -11.51)"/></g><g id="Layer_5-2-3" data-name="Layer 5-2-3"><path class="cls-2" d="M812.73,505.89s-60.64,4.55-96,39.9l4,9.6a7.16,7.16,0,0,0,4.55,3c5.55,2.06,24.75,3,29.8,6.06s7.82,3.28,8.82,14.39c1,10.76.25,27.53,4.8,36.11s16.2,18.17,33.85,18.68S840.9,624,840.9,624s18.69-7.07,29.29-7.58A41,41,0,0,1,888.9,620l42.17,8.36,2.32-15.45,13.08-32.78s4-6.55,9.09-1c3.49,3.84,3.33,23,2.93,34.34-.15,5-.4,8.59-.4,8.59,1.86,12.37,2.53,20.7,23.23,29.29s69.68-11.61,57.06-16.16S977.27,581.66,964.65,564s-34.84-23.74-47.75-25.25c-8.84-.25-31.06-4-49.24,2.52s-51.76,5.81-51.76,5.81c1,.61,12.87-19.85,11.87-20.45Z" transform="translate(0.02 -11.51)"/></g><path class="cls-3" d="M763.63,482.67c-4.54-3.68-10.4-2.42-16.66.51a61.57,61.57,0,0,0-22.26-27.27c-9,11.82-18.15,25.25-15.15,32.82a24.52,24.52,0,0,0,8.59,11.11L707.8,519.29l6.81,4.29-5.05,7.57,9.6,6.06-2,8.08,16.67.51s15.65,0,24.74-8.59,20.71-19.69,22.73-21.71S793.42,511,793.42,511c15-.15,25.65,6.27,34.34,15.66l11.14-6.06-4-8.12L845,509.9l-25.79-23.67s6-14.75,0-23.23L808.1,445.3c-16.76,17.22-25,28.74-26.76,35.86C776.34,478.73,770.23,478,763.63,482.67Z" transform="translate(0.02 -11.51)"/><g id="Layer_7-2-3" data-name="Layer 7-2-3"><circle class="cls-4" cx="787.42" cy="515.6" r="9.09"/><circle class="cls-5" cx="784.89" cy="513.08" r="4.8"/><circle class="cls-5" cx="791.71" cy="519.89" r="2.02"/><circle class="cls-4" cx="730" cy="514.24" r="7.73"/><circle class="cls-5" cx="727.82" cy="512.07" r="4.04"/><circle class="cls-5" cx="733.63" cy="517.88" r="1.72"/><path d="M717,545.43s3.43,4.44,6.56,5.55c1.21.45,8.59-3.63,8.59-5.55Z" transform="translate(0.02 -11.51)"/><polygon class="cls-2" points="747.02 488.33 750.55 497.93 760.65 487.83 756.11 476.72 747.02 488.33"/><polygon class="cls-6" points="778.93 495.2 786.71 488.89 780.75 478.64 773.33 486.87 778.93 495.2"/><polygon class="cls-6" points="732.37 494.34 738.78 489.19 733.94 480.76 727.77 487.47 732.37 494.34"/><path d="M746.24,519.79c-5.15,16.46-24.55,26.92-28.84,25.76C733.46,547.11,744.22,529.43,746.24,519.79Z" transform="translate(0.02 -11.51)"/></g></g><g id="Layer_12-2-3" data-name="Layer 12-2-3"><path class="cls-3" d="M957.63,625.56c0,8.08,5.06,17.18,9.6,20.71s14.14,7.07,23.23,7.07,18.68,0,25.75-3,29.8-12.12,29.8-12.12-1.51,0-13.13-6.06-22.22-18.73-22.22-18.73L996,606.87l2,6.56-17.65-7v7l-21.72-4A155.19,155.19,0,0,0,957.63,625.56Z" transform="translate(0.02 -11.51)"/></g><g id="Layer_9-2-3" data-name="Layer 9-2-3"><path class="cls-2" d="M807,616.86l-7.63,49.27s-.93,14.44,12.15,3.44S839,622.74,839,622.74" transform="translate(0.02 -11.51)"/><path class="cls-2" d="M893.08,622.8c-1.61-4.24,13.6,6.3,21,15.68A210.79,210.79,0,0,1,929,660.13s8.2,12.86,11.82-4.56-7.17-56.66-7.17-56.66" transform="translate(0.02 -11.51)"/></g></g></g><g id="Layer_1_copy_3-2" data-name="Layer 1 copy 3-2"><g id="Layer_1-3-3" data-name="Layer 1-3-3"><g id="Layer_3-3-2" data-name="Layer 3-3-2"><g id="Layer_10-3-2" data-name="Layer 10-3-2"><path class="cls-1" d="M498.75,615.21c0-4.25,10.4,10.19,13.89,21a191.86,191.86,0,0,1,6.06,24.22s3,14.14,12.62,0S539.4,615,539.4,615" transform="translate(0.02 -11.51)"/><path class="cls-1" d="M417.19,606.43l7.57,55s3.05,10.62,12.63-3.53S446,622.54,446,622.54" transform="translate(0.02 -11.51)"/></g><g id="Layer_5-3-2" data-name="Layer 5-3-2"><path class="cls-2" d="M463.73,505.89s-60.64,4.55-96,39.9l4,9.6a7.16,7.16,0,0,0,4.55,3c5.55,2.06,24.75,3,29.8,6.06s7.82,3.28,8.82,14.39c1,10.76.25,27.53,4.8,36.11s16.2,18.17,33.85,18.68S491.9,624,491.9,624s18.69-7.07,29.29-7.58A41,41,0,0,1,539.9,620l42.17,8.36,2.32-15.45,13.08-32.78s4-6.55,9.09-1c3.49,3.84,3.33,23,2.93,34.34-.15,5-.4,8.59-.4,8.59,1.86,12.37,2.53,20.7,23.23,29.29s69.68-11.61,57.06-16.16S628.27,581.66,615.65,564s-34.84-23.74-47.75-25.25c-8.84-.25-31.06-4-49.24,2.52s-51.76,5.81-51.76,5.81c1,.61,12.87-19.85,11.87-20.45Z" transform="translate(0.02 -11.51)"/></g><path class="cls-3" d="M414.63,482.67c-4.54-3.68-10.4-2.42-16.66.51a61.57,61.57,0,0,0-22.31-27.27c-9,11.82-18.15,25.25-15.15,32.82a24.52,24.52,0,0,0,8.59,11.11l-10.35,19.45,6.81,4.29-5,7.57,9.6,6.06-2,8.08,16.67.51s15.65,0,24.74-8.59,20.71-19.69,22.73-21.71S444.42,511,444.42,511c15-.15,25.65,6.27,34.34,15.66l11.14-6.06-4-8.12L496,509.9l-25.79-23.67s6-14.75,0-23.23L459.1,445.3c-16.76,17.22-25,28.74-26.76,35.86C427.34,478.73,421.23,478,414.63,482.67Z" transform="translate(0.02 -11.51)"/><g id="Layer_7-3-2" data-name="Layer 7-3-2"><circle class="cls-4" cx="438.42" cy="515.6" r="9.09"/><circle class="cls-5" cx="435.89" cy="513.08" r="4.8"/><circle class="cls-5" cx="442.71" cy="519.89" r="2.02"/><circle class="cls-4" cx="381" cy="514.24" r="7.73"/><circle class="cls-5" cx="378.82" cy="512.07" r="4.04"/><circle class="cls-5" cx="384.63" cy="517.88" r="1.72"/><path d="M368,545.43s3.43,4.44,6.56,5.55c1.21.45,8.59-3.63,8.59-5.55Z" transform="translate(0.02 -11.51)"/><polygon class="cls-2" points="398.02 488.33 401.55 497.93 411.65 487.83 407.11 476.72 398.02 488.33"/><polygon class="cls-6" points="429.93 495.2 437.71 488.89 431.75 478.64 424.33 486.87 429.93 495.2"/><polygon class="cls-6" points="383.37 494.34 389.78 489.19 384.94 480.76 378.77 487.47 383.37 494.34"/><path d="M397.24,519.79c-5.15,16.46-24.55,26.92-28.84,25.76C384.46,547.11,395.22,529.43,397.24,519.79Z" transform="translate(0.02 -11.51)"/></g></g><g id="Layer_12-3-2" data-name="Layer 12-3-2"><path class="cls-3" d="M608.63,625.56c0,8.08,5.06,17.18,9.6,20.71s14.14,7.07,23.23,7.07,18.68,0,25.75-3S697,638.22,697,638.22s-1.51,0-13.13-6.06-22.22-18.73-22.22-18.73L647,606.87l2,6.56-17.65-7v7l-21.72-4A155.19,155.19,0,0,0,608.63,625.56Z" transform="translate(0.02 -11.51)"/></g><g id="Layer_9-3-2" data-name="Layer 9-3-2"><path class="cls-2" d="M453,616.5,459.1,666s3,14.15,12.63,0,13.63-52.57,13.63-52.57" transform="translate(0.02 -11.51)"/><path class="cls-2" d="M539.71,614.89c0-4.55,10.4,10.75,13.93,22.17a209.12,209.12,0,0,1,6.11,25.55s3,15,12.68,0,13.69-55.45,13.69-55.45" transform="translate(0.02 -11.51)"/></g></g></g><g id="Layer_1_copy-2" data-name="Layer 1 copy-2"><g id="Layer_1-4-2" data-name="Layer 1-4-2"><g id="Layer_3-4-2" data-name="Layer 3-4-2"><g id="Layer_10-4-2" data-name="Layer 10-4-2"><path class="cls-1" d="M157.12,617.71c-1.67-4,13.53,5.3,20.94,13.9a188.23,188.23,0,0,1,15,20s8.29,11.83,11.63-4.91-10.24-45-10.24-45" transform="translate(0.02 -11.51)"/><path class="cls-1" d="M72.68,607.32l-2.14,55.52s1.08,11,13-1.27,14.62-33.32,14.62-33.32" transform="translate(0.02 -11.51)"/></g><g id="Layer_5-4-2" data-name="Layer 5-4-2"><path class="cls-2" d="M112.73,505.92s-60.64,4.55-96,39.9l4,9.6a7.16,7.16,0,0,0,4.55,3c5.55,2.06,24.75,3,29.8,6.06s7.82,3.28,8.82,14.39c1,10.76.25,27.53,4.8,36.11s16.2,18.17,33.85,18.68,38.35-9.59,38.35-9.59,18.69-7.07,29.29-7.58A41,41,0,0,1,188.9,620L225,628.36l8.43-15.45,13.08-32.78s4.09-6.55,9.09-1c3.49,3.84,3.33,23,2.93,34.34-.15,5-.4,8.59-.4,8.59,1.86,12.37,2.53,20.7,23.23,29.29s69.68-11.61,57.06-16.16S277.27,581.66,264.65,564s-34.84-23.74-47.75-25.25c-8.84-.25-31.06-4-49.24,2.52s-51.76,5.81-51.76,5.81c1,.61,12.87-19.85,11.87-20.45Z" transform="translate(0.02 -11.51)"/></g><path class="cls-3" d="M63.63,482.67c-4.54-3.68-10.4-2.42-16.66.51a61.57,61.57,0,0,0-22.31-27.27c-9,11.82-18.15,25.25-15.15,32.82a24.52,24.52,0,0,0,8.59,11.11L7.75,519.29l6.81,4.29-5,7.57,9.6,6.06-2,8.08,16.67.51s15.65,0,24.74-8.59S79.28,517.52,81.3,515.5,93.42,511,93.42,511c15-.15,25.65,6.27,34.34,15.66l11.14-6.06-4-8.12L145,509.9l-25.79-23.67s6-14.75,0-23.23L108.1,445.3c-16.71,17.22-25,28.74-26.76,35.86C76.34,478.73,70.23,478,63.63,482.67Z" transform="translate(0.02 -11.51)"/><g id="Layer_7-4-2" data-name="Layer 7-4-2"><circle class="cls-4" cx="87.42" cy="515.6" r="9.09"/><circle class="cls-5" cx="84.89" cy="513.08" r="4.8"/><circle class="cls-5" cx="91.71" cy="519.89" r="2.02"/><circle class="cls-4" cx="30" cy="514.24" r="7.73"/><circle class="cls-5" cx="27.82" cy="512.07" r="4.04"/><circle class="cls-5" cx="33.61" cy="529.39" r="1.72" transform="translate(-496.01 547.29) rotate(-89.55)"/><path d="M17,545.43s3.43,4.44,6.56,5.55c1.21.45,8.54-3.63,8.59-5.55Z" transform="translate(0.02 -11.51)"/><polygon class="cls-2" points="47.02 488.33 50.55 497.93 60.65 487.83 56.11 476.72 47.02 488.33"/><polygon class="cls-6" points="78.93 495.2 86.71 488.89 80.75 478.64 73.33 486.87 78.93 495.2"/><polygon class="cls-6" points="32.37 494.34 38.78 489.19 33.93 480.76 27.77 487.47 32.37 494.34"/><path d="M46.24,519.79c-5.15,16.46-24.55,26.92-28.84,25.76C33.46,547.11,44.22,529.43,46.24,519.79Z" transform="translate(0.02 -11.51)"/></g></g><g id="Layer_12-4-2" data-name="Layer 12-4-2"><path class="cls-3" d="M257.63,625.56c0,8.08,5.06,17.18,9.6,20.71s14.14,7.07,23.23,7.07,18.68,0,25.75-3S346,638.22,346,638.22s-1.51,0-13.13-6.06-22.22-18.73-22.22-18.73L296,606.87l2,6.56-17.65-7v7l-21.72-4A155.19,155.19,0,0,0,257.63,625.56Z" transform="translate(0.02 -11.51)"/></g><g id="Layer_9-4-2" data-name="Layer 9-4-2"><path class="cls-2" d="M94,626.69l25.75,42.74s8.53,11.67,11.53-5.16-9-53.51-9-53.51" transform="translate(0.02 -11.51)"/><path class="cls-2" d="M188.59,607.89c.5-4.52,9.16,11.83,11.43,23.56a211.51,211.51,0,0,1,3.27,26.07s1.37,15.2,12.6,1.39,19.68-53.62,19.68-53.62" transform="translate(0.02 -11.51)"/></g></g></g><g id="Layer_1_copy-2-2" data-name="Layer 1 copy-2"><g id="Layer_1-4-2-2" data-name="Layer 1-4-2"><g id="Layer_3-4-2-2" data-name="Layer 3-4-2"><g id="Layer_10-4-2-2" data-name="Layer 10-4-2"><path class="cls-1" d="M155.44,933.71c-1.67-4,13.53,5.3,20.94,13.9a188.23,188.23,0,0,1,15,20s8.29,11.83,11.63-4.91-10.24-45-10.24-45" transform="translate(0.02 -11.51)"/><path class="cls-1" d="M71,923.32l-2.14,55.52s1.08,11,13-1.27,14.62-33.32,14.62-33.32" transform="translate(0.02 -11.51)"/></g><g id="Layer_5-4-2-2" data-name="Layer 5-4-2"><path class="cls-2" d="M111.05,821.92s-60.64,4.55-96,39.9l4,9.6a7.16,7.16,0,0,0,4.55,3c5.55,2.06,24.75,3,29.8,6.06s7.82,3.28,8.82,14.39c1,10.76.25,27.53,4.8,36.11s16.2,18.17,33.85,18.68,38.35-9.59,38.35-9.59,18.69-7.07,29.29-7.58A41,41,0,0,1,187.22,936l36.06,8.33,8.43-15.45,13.08-32.78s4.09-6.55,9.09-1c3.49,3.84,3.33,23,2.93,34.34-.15,5-.4,8.59-.4,8.59,1.86,12.37,2.53,20.7,23.23,29.29s69.68-11.61,57.06-16.16S275.59,897.66,263,880s-34.84-23.74-47.75-25.25c-8.84-.25-31.06-4-49.24,2.52s-51.76,5.81-51.76,5.81c1,.61,12.87-19.85,11.87-20.45Z" transform="translate(0.02 -11.51)"/></g><path class="cls-3" d="M62,798.67c-4.54-3.68-10.4-2.42-16.66.51A61.5,61.5,0,0,0,23,771.91c-9,11.82-18.15,25.25-15.15,32.82a24.59,24.59,0,0,0,8.59,11.11L6.07,835.29l6.81,4.29-5,7.57,9.6,6.06-2,8.08,16.67.51s15.65,0,24.74-8.59S77.6,833.52,79.62,831.5,91.74,827,91.74,827c15-.15,25.65,6.27,34.34,15.66l11.14-6.06-4-8.12,10.1-2.53-25.79-23.67s6-14.75,0-23.23l-11.11-17.7c-16.71,17.22-25,28.74-26.76,35.86C74.66,794.73,68.55,794,62,798.67Z" transform="translate(0.02 -11.51)"/><g id="Layer_7-4-2-2" data-name="Layer 7-4-2"><path class="cls-4" d="M85.72,852.2" transform="translate(0.02 -11.51)"/><path d="M15.27,861.43s3.43,4.44,6.56,5.55c1.21.45,8.54-3.63,8.59-5.55Z" transform="translate(0.02 -11.51)"/><polygon class="cls-2" points="45.34 804.33 48.87 813.93 58.97 803.83 54.43 792.72 45.34 804.33"/><polygon class="cls-6" points="77.25 811.2 85.03 804.89 79.07 794.64 71.65 802.87 77.25 811.2"/><polygon class="cls-6" points="30.69 810.34 37.1 805.19 32.25 796.76 26.09 803.47 30.69 810.34"/><path d="M44.56,835.79C39.41,852.25,20,862.71,15.72,861.55,31.78,863.11,42.54,845.43,44.56,835.79Z" transform="translate(0.02 -11.51)"/></g></g><g id="Layer_12-4-2-2" data-name="Layer 12-4-2"><path class="cls-3" d="M256,941.56c0,8.08,5.06,17.18,9.6,20.71s14.14,7.07,23.23,7.07,18.68,0,25.75-3,29.8-12.12,29.8-12.12-1.51,0-13.13-6.06S309,929.43,309,929.43l-14.65-6.56,2,6.56-17.65-7v7l-21.72-4A155.19,155.19,0,0,0,256,941.56Z" transform="translate(0.02 -11.51)"/></g><g id="Layer_9-4-2-2" data-name="Layer 9-4-2"><path class="cls-2" d="M92.27,942.69,118,985.43s8.53,11.67,11.53-5.16-9-53.51-9-53.51" transform="translate(0.02 -11.51)"/><path class="cls-2" d="M186.91,923.89c.5-4.52,9.16,11.83,11.43,23.56a211.51,211.51,0,0,1,3.27,26.07s1.37,15.2,12.6,1.39,19.68-53.62,19.68-53.62" transform="translate(0.02 -11.51)"/></g><line class="cls-7" x1="56.47" y1="821.32" x2="65.55" y2="833.24"/><line class="cls-7" x1="65.55" y1="821.32" x2="56.47" y2="833.24"/><line class="cls-7" x1="22.87" y1="819.82" x2="31.95" y2="828.74"/><line class="cls-7" x1="31.95" y1="819.82" x2="22.87" y2="828.74"/></g></g></svg>
