<svg id="Layer_1" data-name="Layer 1" xmlns="http://www.w3.org/2000/svg" width="2448.45" height="725.5" viewBox="0 0 2448.45 725.5"><defs><style>.cls-1{fill:#939393;stroke:#939393;}.cls-1,.cls-2,.cls-3,.cls-4,.cls-6{stroke-miterlimit:10;stroke-width:3px;}.cls-2,.cls-5{fill:#fff;}.cls-2,.cls-6{stroke:#fff;}.cls-3{fill:#c7eff9;stroke:#c7eff9;}.cls-4{stroke:#000;}.cls-6{fill:none;}</style></defs><title>rip</title><g id="_2" data-name="2"><g id="Layer_1-2" data-name="Layer 1"><g id="Layer_3" data-name="Layer 3"><g id="Layer_10" data-name="Layer 10"><path class="cls-1" d="M1204.2,300.9s1.4,30.1,11.9,42.8,12.1-1.2,12.1-1.2a175.37,175.37,0,0,1,3.6-23.8c2.3-10.7,11-25.5,11.4-21.4" transform="translate(0.74 -134.89)"/><path class="cls-1" d="M1296.7,306.6s-6.7,19.3-1.6,35,10.7,6.7,10.7,6.7l21.9-48.8" transform="translate(0.74 -134.89)"/></g><g id="Layer_5" data-name="Layer 5"><path class="cls-2" d="M1269.1,215.5c-1,.6,10.4,20.3,11.4,19.7,0,0-32.3.7-49.8-5.6s-38.9-2.7-47.4-2.4c-12.4,1.5-33.8,7.3-45.9,24.3s-58.8,64.1-70.9,68.5,35,23.8,54.9,15.5,20.6-16.3,22.4-28.2c0,0-.2-3.4-.4-8.3-.4-10.9-.5-29.3,2.8-33,4.9-5.3,8.7,1,8.7,1l12.6,31.5,2.2,14.9,40.6-8a39.61,39.61,0,0,1,18-3.4c10.2.5,28.2,7.3,28.2,7.3s19.9,9.7,36.9,9.2,28.2-9.7,32.6-18,3.7-24.4,4.6-34.7c1-10.7,3.6-10.9,8.5-13.8s23.3-3.9,28.7-5.8a6.69,6.69,0,0,0,4.4-2.9l3.9-9.2c-34-34-92.3-38.4-92.3-38.4Z" transform="translate(0.74 -134.89)"/></g><path class="cls-3" d="M1313.8,171.8c-1.7-6.9-9.7-17.9-25.8-34.5l-10.7,17c-5.8,8.2,0,22.4,0,22.4l-24.8,22.8,9.7,2.4-3.9,7.8,10.7,5.8c8.4-9,18.6-15.2,33-15.1,0,0,9.7,2.4,11.7,4.4s13.1,12.6,21.9,20.9,23.8,8.3,23.8,8.3l16-.5-1.9-7.8,9.2-5.8-4.9-7.3,6.6-4.1-10-18.7a24.35,24.35,0,0,0,8.3-10.7c2.9-7.3-5.9-20.2-14.6-31.6a60,60,0,0,0-21.4,26.2c-6-2.8-11.7-4-16-.5C1324.5,168.8,1318.6,169.4,1313.8,171.8Z" transform="translate(0.74 -134.89)"/><g id="Layer_7" data-name="Layer 7"><circle class="cls-4" cx="1308.74" cy="81.11" r="8.7"/><circle class="cls-5" cx="1311.14" cy="78.71" r="4.6"/><circle class="cls-5" cx="1304.54" cy="85.21" r="1.9"/><circle class="cls-4" cx="1363.94" cy="79.81" r="7.4"/><circle class="cls-5" cx="1366.04" cy="77.71" r="3.9"/><circle class="cls-5" cx="1360.44" cy="83.31" r="1.7"/><path d="M1361.2,233.7c0,1.8,7.1,5.8,8.3,5.3,3-1.1,6.3-5.3,6.3-5.3Z" transform="translate(0.74 -134.89)"/><polygon class="cls-2" points="1338.84 43.72 1334.44 54.41 1344.14 64.11 1347.54 54.81 1338.84 43.72"/><polygon class="cls-6" points="1322.24 53.41 1315.14 45.52 1309.34 55.41 1316.84 61.52 1322.24 53.41"/><polygon class="cls-6" points="1366.14 54.02 1360.14 47.62 1355.54 55.72 1361.64 60.62 1366.14 54.02"/><path d="M1375.3,233.7c-4.1,1.1-22.8-8.9-27.7-24.8C1349.5,218.2,1359.9,235.2,1375.3,233.7Z" transform="translate(0.74 -134.89)"/></g></g><g id="Layer_12" data-name="Layer 12"><path class="cls-3" d="M1143.3,295.2l-20.9,3.9v-6.8l-17,6.8,1.9-6.3-14.1,6.3s-10.2,12.1-21.4,18-12.6,5.8-12.6,5.8,21.9,8.7,28.7,11.7,16,2.9,24.8,2.9,18-3.4,22.4-6.8,9.2-12.1,9.2-19.9C1144.2,305.5,1143.8,300.3,1143.3,295.2Z" transform="translate(0.74 -134.89)"/></g><g id="Layer_9" data-name="Layer 9"><path class="cls-2" d="M1260.3,304.1s10,35.8,21.4,47.6,12-2,12-2l-2.2-47.9" transform="translate(0.74 -134.89)"/><path class="cls-2" d="M1166.3,288.3s-3.3,39,3.2,54.9,12,2.2,12,2.2a198.33,198.33,0,0,1,10.3-23.1c5.3-10.2,17.9-22.8,17.1-18.5" transform="translate(0.74 -134.89)"/></g></g></g><g id="_3" data-name="3"><g id="Layer_1-3" data-name="Layer 1"><g id="Layer_3-2" data-name="Layer 3"><g id="Layer_10-2" data-name="Layer 10"><path class="cls-1" d="M1202.6,305.3s7,29.3,19.6,39.9,11.7-3.4,11.7-3.4a192.59,192.59,0,0,1-.9-24c.3-10.9,6.1-27,7.2-23.1" transform="translate(0.74 -134.89)"/><path class="cls-1" d="M1291.3,304.7s-11.3,17-10.4,33.4,8.7,9.2,8.7,9.2l33.5-41.7" transform="translate(0.74 -134.89)"/></g><g id="Layer_5-2" data-name="Layer 5"><path class="cls-2" d="M1269.1,215.5c-1,.6,10.4,20.3,11.4,19.7,0,0-32.3.7-49.8-5.6s-38.9-2.7-47.4-2.4c-12.4,1.5-33.8,7.3-45.9,24.3s-58.8,64.1-70.9,68.5,35,23.8,54.9,15.5,20.6-16.3,22.4-28.2c0,0-.2-3.4-.4-8.3-.4-10.9-.5-29.3,2.8-33,4.9-5.3,8.7,1,8.7,1l12.6,31.5,2.2,14.9,40.6-8a39.61,39.61,0,0,1,18-3.4c10.2.5,28.2,7.3,28.2,7.3s19.9,9.7,36.9,9.2,28.2-9.7,32.6-18,3.7-24.4,4.6-34.7c1-10.7,3.6-10.9,8.5-13.8s23.3-3.9,28.7-5.8a6.69,6.69,0,0,0,4.4-2.9l3.9-9.2c-34-34-92.3-38.4-92.3-38.4Z" transform="translate(0.74 -134.89)"/></g><path class="cls-3" d="M1313.8,171.8c-1.7-6.9-9.7-17.9-25.8-34.5l-10.7,17c-5.8,8.2,0,22.4,0,22.4l-24.8,22.8,9.7,2.4-3.9,7.8,10.7,5.8c8.4-9,18.6-15.2,33-15.1,0,0,9.7,2.4,11.7,4.4s13.1,12.6,21.9,20.9,23.8,8.3,23.8,8.3l16-.5-1.9-7.8,9.2-5.8-4.9-7.3,6.6-4.1-10-18.7a24.35,24.35,0,0,0,8.3-10.7c2.9-7.3-5.9-20.2-14.6-31.6a60,60,0,0,0-21.4,26.2c-6-2.8-11.7-4-16-.5C1324.5,168.8,1318.6,169.4,1313.8,171.8Z" transform="translate(0.74 -134.89)"/><g id="Layer_7-2" data-name="Layer 7"><circle class="cls-4" cx="1308.74" cy="81.11" r="8.7"/><circle class="cls-5" cx="1311.14" cy="78.71" r="4.6"/><circle class="cls-5" cx="1304.54" cy="85.21" r="1.9"/><circle class="cls-4" cx="1363.94" cy="79.81" r="7.4"/><circle class="cls-5" cx="1366.04" cy="77.71" r="3.9"/><circle class="cls-5" cx="1360.44" cy="83.31" r="1.7"/><path d="M1361.2,233.7c0,1.8,7.1,5.8,8.3,5.3,3-1.1,6.3-5.3,6.3-5.3Z" transform="translate(0.74 -134.89)"/><polygon class="cls-2" points="1338.84 43.72 1334.44 54.41 1344.14 64.11 1347.54 54.81 1338.84 43.72"/><polygon class="cls-6" points="1322.24 53.41 1315.14 45.52 1309.34 55.41 1316.84 61.52 1322.24 53.41"/><polygon class="cls-6" points="1366.14 54.02 1360.14 47.62 1355.54 55.72 1361.64 60.62 1366.14 54.02"/><path d="M1375.3,233.7c-4.1,1.1-22.8-8.9-27.7-24.8C1349.5,218.2,1359.9,235.2,1375.3,233.7Z" transform="translate(0.74 -134.89)"/></g></g><g id="Layer_12-2" data-name="Layer 12"><path class="cls-3" d="M1143.3,295.2l-20.9,3.9v-6.8l-17,6.8,1.9-6.3-14.1,6.3s-10.2,12.1-21.4,18-12.6,5.8-12.6,5.8,21.9,8.7,28.7,11.7,16,2.9,24.8,2.9,18-3.4,22.4-6.8,9.2-12.1,9.2-19.9C1144.2,305.5,1143.8,300.3,1143.3,295.2Z" transform="translate(0.74 -134.89)"/></g><g id="Layer_9-2" data-name="Layer 9"><path class="cls-2" d="M1266.7,303.8s10,35.8,21.4,47.6,12-2,12-2l-2.2-47.9" transform="translate(0.74 -134.89)"/><path class="cls-2" d="M1173.6,282.9s-10.7,37.7-7.4,54.4,11.3,4.5,11.3,4.5a197.09,197.09,0,0,1,14.5-20.7c7.2-9,21.9-19,20.3-14.9" transform="translate(0.74 -134.89)"/></g></g></g><g id="_4" data-name="4"><g id="Layer_1-4" data-name="Layer 1"><g id="Layer_3-3" data-name="Layer 3"><g id="Layer_10-3" data-name="Layer 10"><path class="cls-1" d="M1200.4,309.5s11.1,28,25.2,36.6,11.1-5,11.1-5a171.78,171.78,0,0,1-4.3-23.6c-1.2-10.9,2.1-27.6,3.8-23.9" transform="translate(0.74 -134.89)"/><path class="cls-1" d="M1287.7,308s-11.3,17-10.4,33.4,8.7,9.2,8.7,9.2l33.5-41.7" transform="translate(0.74 -134.89)"/></g><g id="Layer_5-3" data-name="Layer 5"><path class="cls-2" d="M1268.2,218.8c-1,.6,10.4,20.3,11.4,19.7,0,0-32.3.7-49.8-5.6s-38.9-2.7-47.4-2.4c-12.4,1.5-33.8,7.3-45.9,24.3s-58.8,64.1-70.9,68.5,35,23.8,54.9,15.5,20.6-16.3,22.4-28.2c0,0-.2-3.4-.4-8.3-.4-10.9-.5-29.3,2.8-33,4.9-5.3,8.7,1,8.7,1l12.6,31.5,2.2,14.9,40.6-8a39.61,39.61,0,0,1,18-3.4c10.2.5,28.2,7.3,28.2,7.3s19.9,9.7,36.9,9.2,28.2-9.7,32.6-18,3.7-24.4,4.6-34.7c1-10.7,3.6-10.9,8.5-13.8s23.3-3.9,28.7-5.8a6.69,6.69,0,0,0,4.4-2.9l3.9-9.2c-34-34-92.3-38.4-92.3-38.4Z" transform="translate(0.74 -134.89)"/></g><path class="cls-3" d="M1313,175c-1.7-6.9-9.7-17.9-25.8-34.5l-10.7,17c-5.8,8.2,0,22.4,0,22.4l-24.8,22.8,9.7,2.4-3.9,7.8,10.7,5.8c8.4-9,18.6-15.2,33-15.1,0,0,9.7,2.4,11.7,4.4s13.1,12.6,21.9,20.9,23.8,8.3,23.8,8.3l16-.5-1.9-7.8,9.2-5.8-4.9-7.3,6.6-4.1-10-18.7a24.35,24.35,0,0,0,8.3-10.7c2.9-7.3-5.9-20.2-14.6-31.6a60,60,0,0,0-21.4,26.2c-6-2.8-11.7-4-16-.5A15.75,15.75,0,0,0,1313,175Z" transform="translate(0.74 -134.89)"/><g id="Layer_7-3" data-name="Layer 7"><circle class="cls-4" cx="1307.84" cy="84.41" r="8.7"/><circle class="cls-5" cx="1310.24" cy="81.91" r="4.6"/><circle class="cls-5" cx="1303.74" cy="88.51" r="1.9"/><circle class="cls-4" cx="1363.14" cy="83.01" r="7.4"/><circle class="cls-5" cx="1365.24" cy="81.01" r="3.9"/><circle class="cls-5" cx="1359.64" cy="86.51" r="1.7"/><path d="M1360.3,237c0,1.8,7.1,5.8,8.3,5.3,3-1.1,6.3-5.3,6.3-5.3Z" transform="translate(0.74 -134.89)"/><polygon class="cls-2" points="1337.94 46.91 1333.64 57.62 1343.34 67.31 1346.74 58.12 1337.94 46.91"/><polygon class="cls-6" points="1321.44 56.72 1314.24 48.81 1308.54 58.72 1316.04 64.72 1321.44 56.72"/><polygon class="cls-6" points="1365.24 57.31 1359.34 50.81 1354.64 58.91 1360.84 63.91 1365.24 57.31"/><path d="M1374.5,237c-4.1,1.1-22.8-8.9-27.7-24.8C1348.7,221.4,1359,238.5,1374.5,237Z" transform="translate(0.74 -134.89)"/></g></g><g id="Layer_12-3" data-name="Layer 12"><path class="cls-3" d="M1143.3,295.2l-20.9,3.9v-6.8l-17,6.8,1.9-6.3-14.1,6.3s-10.2,12.1-21.4,18-12.6,5.8-12.6,5.8,21.9,8.7,28.7,11.7,16,2.9,24.8,2.9,18-3.4,22.4-6.8,9.2-12.1,9.2-19.9C1144.2,305.5,1143.8,300.3,1143.3,295.2Z" transform="translate(0.74 -134.89)"/></g><g id="Layer_9-3" data-name="Layer 9"><path class="cls-2" d="M1264.3,305.9s13.5,34.6,26,45.3S1302,348,1302,348l-7-47.5" transform="translate(0.74 -134.89)"/><path class="cls-2" d="M1171.3,282.7s-12.8,37-10.4,54,11.1,5.1,11.1,5.1a213.36,213.36,0,0,1,15.6-19.9c7.7-8.5,22.9-17.7,21.1-13.8" transform="translate(0.74 -134.89)"/></g></g></g><g id="_3-2" data-name="3"><g id="Layer_5_copy_3" data-name="Layer 5 copy 3"><g id="Layer_1-5" data-name="Layer 1"><g id="Layer_3-4" data-name="Layer 3"><g id="Layer_10-4" data-name="Layer 10"><path class="cls-1" d="M1552.6,305.3s7,29.3,19.6,39.9,11.7-3.4,11.7-3.4a192.59,192.59,0,0,1-.9-24c.3-10.9,6.1-27,7.2-23.1" transform="translate(0.74 -134.89)"/><path class="cls-1" d="M1641.3,304.7s-11.3,17-10.4,33.4,8.7,9.2,8.7,9.2l33.5-41.7" transform="translate(0.74 -134.89)"/></g><g id="Layer_5-4" data-name="Layer 5"><path class="cls-2" d="M1619.1,215.5c-1,.6,10.4,20.3,11.4,19.7,0,0-32.3.7-49.8-5.6s-38.9-2.7-47.4-2.4c-12.4,1.5-33.8,7.3-45.9,24.3s-58.8,64.1-70.9,68.5,35,23.8,54.9,15.5,20.6-16.3,22.4-28.2c0,0-.2-3.4-.4-8.3-.4-10.9-.5-29.3,2.8-33,4.9-5.3,8.7,1,8.7,1l12.6,31.5,2.2,14.9,40.6-8a39.61,39.61,0,0,1,18-3.4c10.2.5,28.2,7.3,28.2,7.3s19.9,9.7,36.9,9.2,28.2-9.7,32.6-18,3.7-24.4,4.6-34.7c1-10.7,3.6-10.9,8.5-13.8s23.3-3.9,28.7-5.8a6.69,6.69,0,0,0,4.4-2.9l3.9-9.2c-34-34-92.3-38.4-92.3-38.4Z" transform="translate(0.74 -134.89)"/></g><path class="cls-3" d="M1663.8,171.8c-1.7-6.9-9.7-17.9-25.8-34.5l-10.7,17c-5.8,8.2,0,22.4,0,22.4l-24.8,22.8,9.7,2.4-3.9,7.8,10.7,5.8c8.4-9,18.6-15.2,33-15.1,0,0,9.7,2.4,11.7,4.4s13.1,12.6,21.9,20.9,23.8,8.3,23.8,8.3l16-.5-1.9-7.8,9.2-5.8-4.9-7.3,6.6-4.1-10-18.7a24.35,24.35,0,0,0,8.3-10.7c2.9-7.3-5.9-20.2-14.6-31.6a60,60,0,0,0-21.4,26.2c-6-2.8-11.7-4-16-.5C1674.5,168.8,1668.6,169.4,1663.8,171.8Z" transform="translate(0.74 -134.89)"/><g id="Layer_7-4" data-name="Layer 7"><circle class="cls-4" cx="1658.74" cy="81.11" r="8.7"/><circle class="cls-5" cx="1661.14" cy="78.71" r="4.6"/><circle class="cls-5" cx="1654.54" cy="85.21" r="1.9"/><circle class="cls-4" cx="1713.94" cy="79.81" r="7.4"/><circle class="cls-5" cx="1716.04" cy="77.71" r="3.9"/><circle class="cls-5" cx="1710.44" cy="83.31" r="1.7"/><path d="M1711.2,233.7c0,1.8,7.1,5.8,8.3,5.3,3-1.1,6.3-5.3,6.3-5.3Z" transform="translate(0.74 -134.89)"/><polygon class="cls-2" points="1688.84 43.72 1684.44 54.41 1694.14 64.11 1697.54 54.81 1688.84 43.72"/><polygon class="cls-6" points="1672.24 53.41 1665.14 45.52 1659.34 55.41 1666.84 61.52 1672.24 53.41"/><polygon class="cls-6" points="1716.14 54.02 1710.14 47.62 1705.54 55.72 1711.64 60.62 1716.14 54.02"/><path d="M1725.3,233.7c-4.1,1.1-22.8-8.9-27.7-24.8C1699.5,218.2,1709.9,235.2,1725.3,233.7Z" transform="translate(0.74 -134.89)"/></g></g><g id="Layer_12-4" data-name="Layer 12"><path class="cls-3" d="M1493.3,295.2l-20.9,3.9v-6.8l-17,6.8,1.9-6.3-14.1,6.3s-10.2,12.1-21.4,18-12.6,5.8-12.6,5.8,21.9,8.7,28.7,11.7,16,2.9,24.8,2.9,18-3.4,22.4-6.8,9.2-12.1,9.2-19.9C1494.2,305.5,1493.8,300.3,1493.3,295.2Z" transform="translate(0.74 -134.89)"/></g><g id="Layer_9-4" data-name="Layer 9"><path class="cls-2" d="M1616.7,303.8s10,35.8,21.4,47.6,12-2,12-2l-2.2-47.9" transform="translate(0.74 -134.89)"/><path class="cls-2" d="M1523.6,282.9s-10.7,37.7-7.4,54.4,11.3,4.5,11.3,4.5a197.09,197.09,0,0,1,14.5-20.7c7.2-9,21.9-19,20.3-14.9" transform="translate(0.74 -134.89)"/></g></g></g><g id="Layer_1-6" data-name="Layer 1"><g id="Layer_3-5" data-name="Layer 3"><g id="Layer_10-5" data-name="Layer 10"><path class="cls-1" d="M852.6,305.3s7,29.3,19.6,39.9,11.7-3.4,11.7-3.4a192.59,192.59,0,0,1-.9-24c.3-10.9,6.1-27,7.2-23.1" transform="translate(0.74 -134.89)"/><path class="cls-1" d="M941.3,304.7s-11.3,17-10.4,33.4,8.7,9.2,8.7,9.2l33.5-41.7" transform="translate(0.74 -134.89)"/></g><g id="Layer_5-5" data-name="Layer 5"><path class="cls-2" d="M919.1,215.5c-1,.6,10.4,20.3,11.4,19.7,0,0-32.3.7-49.8-5.6s-38.9-2.7-47.4-2.4c-12.4,1.5-33.8,7.3-45.9,24.3s-58.8,64.1-70.9,68.5,35,23.8,54.9,15.5,20.6-16.3,22.4-28.2c0,0-.2-3.4-.4-8.3-.4-10.9-.5-29.3,2.8-33,4.9-5.3,8.7,1,8.7,1l12.6,31.5,2.2,14.9,40.6-8a39.61,39.61,0,0,1,18-3.4c10.2.5,28.2,7.3,28.2,7.3s19.9,9.7,36.9,9.2,28.2-9.7,32.6-18,3.7-24.4,4.6-34.7c1-10.7,3.6-10.9,8.5-13.8s23.3-3.9,28.7-5.8a6.69,6.69,0,0,0,4.4-2.9l3.9-9.2c-34-34-92.3-38.4-92.3-38.4Z" transform="translate(0.74 -134.89)"/></g><path class="cls-3" d="M963.8,171.8c-1.7-6.9-9.7-17.9-25.8-34.5l-10.7,17c-5.8,8.2,0,22.4,0,22.4l-24.8,22.8,9.7,2.4-3.9,7.8,10.7,5.8c8.4-9,18.6-15.2,33-15.1,0,0,9.7,2.4,11.7,4.4s13.1,12.6,21.9,20.9,23.8,8.3,23.8,8.3l16-.5-1.9-7.8,9.2-5.8-4.9-7.3,6.6-4.1-10-18.7a24.35,24.35,0,0,0,8.3-10.7c2.9-7.3-5.9-20.2-14.6-31.6a60,60,0,0,0-21.4,26.2c-6-2.8-11.7-4-16-.5C974.5,168.8,968.6,169.4,963.8,171.8Z" transform="translate(0.74 -134.89)"/><g id="Layer_7-5" data-name="Layer 7"><circle class="cls-4" cx="958.74" cy="81.11" r="8.7"/><circle class="cls-5" cx="961.14" cy="78.71" r="4.6"/><circle class="cls-5" cx="954.54" cy="85.21" r="1.9"/><circle class="cls-4" cx="1013.94" cy="79.81" r="7.4"/><circle class="cls-5" cx="1016.04" cy="77.71" r="3.9"/><circle class="cls-5" cx="1010.44" cy="83.31" r="1.7"/><path d="M1011.2,233.7c0,1.8,7.1,5.8,8.3,5.3,3-1.1,6.3-5.3,6.3-5.3Z" transform="translate(0.74 -134.89)"/><polygon class="cls-2" points="988.84 43.72 984.44 54.41 994.14 64.11 997.54 54.81 988.84 43.72"/><polygon class="cls-6" points="972.24 53.41 965.14 45.52 959.34 55.41 966.84 61.52 972.24 53.41"/><polygon class="cls-6" points="1016.14 54.02 1010.14 47.62 1005.54 55.72 1011.64 60.62 1016.14 54.02"/><path d="M1025.3,233.7c-4.1,1.1-22.8-8.9-27.7-24.8C999.5,218.2,1009.9,235.2,1025.3,233.7Z" transform="translate(0.74 -134.89)"/></g></g><g id="Layer_12-5" data-name="Layer 12"><path class="cls-3" d="M793.3,295.2l-20.9,3.9v-6.8l-17,6.8,1.9-6.3-14.1,6.3s-10.2,12.1-21.4,18-12.6,5.8-12.6,5.8,21.9,8.7,28.7,11.7,16,2.9,24.8,2.9,18-3.4,22.4-6.8,9.2-12.1,9.2-19.9C794.2,305.5,793.8,300.3,793.3,295.2Z" transform="translate(0.74 -134.89)"/></g><g id="Layer_9-5" data-name="Layer 9"><path class="cls-2" d="M916.7,303.8s10,35.8,21.4,47.6,12-2,12-2l-2.2-47.9" transform="translate(0.74 -134.89)"/><path class="cls-2" d="M823.6,282.9s-10.7,37.7-7.4,54.4,11.3,4.5,11.3,4.5A197.09,197.09,0,0,1,842,321.1c7.2-9,21.9-19,20.3-14.9" transform="translate(0.74 -134.89)"/></g></g></g><g id="_2-2" data-name="2"><g id="Layer_1-7" data-name="Layer 1"><g id="Layer_3-6" data-name="Layer 3"><g id="Layer_10-6" data-name="Layer 10"><path class="cls-1" d="M502.1,306s1.4,30.1,11.9,42.8,12.1-1.2,12.1-1.2a175.37,175.37,0,0,1,3.6-23.8c2.3-10.7,11-25.5,11.4-21.4" transform="translate(0.74 -134.89)"/><path class="cls-1" d="M594.6,311.7s-6.7,19.3-1.6,35,10.7,6.7,10.7,6.7l21.9-48.8" transform="translate(0.74 -134.89)"/></g><g id="Layer_5-6" data-name="Layer 5"><path class="cls-2" d="M567,220.6c-1,.6,10.4,20.3,11.4,19.7,0,0-32.3.7-49.8-5.6s-38.9-2.7-47.4-2.4c-12.4,1.5-33.8,7.3-45.9,24.3s-58.8,64.1-70.9,68.5,35,23.8,54.9,15.5,20.6-16.3,22.4-28.2c0,0-.2-3.4-.4-8.3-.4-10.9-.5-29.3,2.8-33,4.9-5.3,8.7,1,8.7,1l12.6,31.5,2.2,14.9,40.6-8a39.61,39.61,0,0,1,18-3.4c10.2.5,28.2,7.3,28.2,7.3s19.9,9.7,36.9,9.2,28.2-9.7,32.6-18,3.7-24.4,4.6-34.7c1-10.7,3.6-10.9,8.5-13.8s23.3-3.9,28.7-5.8a6.69,6.69,0,0,0,4.4-2.9l3.9-9.2c-34-34-92.3-38.4-92.3-38.4Z" transform="translate(0.74 -134.89)"/></g><path class="cls-3" d="M611.7,176.9C610,170,602,159,585.9,142.4l-10.7,17c-5.8,8.2,0,22.4,0,22.4l-24.8,22.8,9.7,2.4-3.9,7.8,10.7,5.8c8.4-9,18.6-15.2,33-15.1,0,0,9.7,2.4,11.7,4.4s13.1,12.6,21.9,20.9,23.8,8.3,23.8,8.3l16-.5-1.9-7.8,9.2-5.8-4.9-7.3,6.6-4.1-10-18.7a24.35,24.35,0,0,0,8.3-10.7c2.9-7.3-5.9-20.2-14.6-31.6a60,60,0,0,0-21.4,26.2c-6-2.8-11.7-4-16-.5A15.36,15.36,0,0,0,611.7,176.9Z" transform="translate(0.74 -134.89)"/><g id="Layer_7-6" data-name="Layer 7"><circle class="cls-4" cx="606.64" cy="86.21" r="8.7"/><circle class="cls-5" cx="609.04" cy="83.71" r="4.6"/><circle class="cls-5" cx="602.44" cy="90.31" r="1.9"/><circle class="cls-4" cx="661.84" cy="84.91" r="7.4"/><circle class="cls-5" cx="663.94" cy="82.81" r="3.9"/><circle class="cls-5" cx="658.34" cy="88.41" r="1.7"/><path d="M659.1,238.8c0,1.8,7.1,5.8,8.3,5.3,3-1.1,6.3-5.3,6.3-5.3Z" transform="translate(0.74 -134.89)"/><polygon class="cls-2" points="636.74 48.81 632.34 59.41 642.04 69.22 645.44 59.91 636.74 48.81"/><polygon class="cls-6" points="620.14 58.52 613.04 50.62 607.24 60.52 614.74 66.52 620.14 58.52"/><polygon class="cls-6" points="663.94 59.12 658.04 52.62 653.34 60.81 659.54 65.72 663.94 59.12"/><path d="M673.2,238.8c-4.1,1.1-22.8-8.9-27.7-24.8C647.4,223.3,657.7,240.3,673.2,238.8Z" transform="translate(0.74 -134.89)"/></g></g><g id="Layer_12-6" data-name="Layer 12"><path class="cls-3" d="M441.1,300.3l-20.9,3.9v-6.8l-17,6.8,1.9-6.3L391,304.2s-10.2,12.1-21.4,18S357,328,357,328s21.9,8.7,28.7,11.7,16,2.9,24.8,2.9,18-3.4,22.4-6.8,9.2-12.1,9.2-19.9A133.29,133.29,0,0,0,441.1,300.3Z" transform="translate(0.74 -134.89)"/></g><g id="Layer_9-6" data-name="Layer 9"><path class="cls-2" d="M558.1,309.2s10,35.8,21.4,47.6,12-2,12-2l-2.2-47.9" transform="translate(0.74 -134.89)"/><path class="cls-2" d="M464.2,293.4s-3.3,39,3.2,54.9,12,2.2,12,2.2a198.33,198.33,0,0,1,10.3-23.1c5.3-10.2,17.9-22.8,17.1-18.5" transform="translate(0.74 -134.89)"/></g></g><g id="Layer_1-8" data-name="Layer 1"><g id="Layer_3-7" data-name="Layer 3"><g id="Layer_10-7" data-name="Layer 10"><path class="cls-1" d="M1907.1,306.5s1.4,30.1,11.9,42.8,12.1-1.2,12.1-1.2a175.37,175.37,0,0,1,3.6-23.8c2.3-10.7,11-25.5,11.4-21.4" transform="translate(0.74 -134.89)"/><path class="cls-1" d="M1999.6,312.2s-6.7,19.3-1.6,35,10.7,6.7,10.7,6.7l21.9-48.8" transform="translate(0.74 -134.89)"/></g><g id="Layer_5-7" data-name="Layer 5"><path class="cls-2" d="M1972,221c-1,.6,10.4,20.3,11.4,19.7,0,0-32.3.7-49.8-5.6s-38.9-2.7-47.4-2.4c-12.4,1.5-33.8,7.3-45.9,24.3s-58.8,64.1-70.9,68.5,35,23.8,54.9,15.5,20.6-16.3,22.4-28.2c0,0-.2-3.4-.4-8.3-.4-10.9-.5-29.3,2.8-33,4.9-5.3,8.7,1,8.7,1l12.6,31.5,2.2,14.9,40.6-8a39.61,39.61,0,0,1,18-3.4c10.2.5,28.2,7.3,28.2,7.3s19.9,9.7,36.9,9.2,28.2-9.7,32.6-18,3.7-24.4,4.6-34.7c1-10.7,3.6-10.9,8.5-13.8s23.3-3.9,28.7-5.8a6.69,6.69,0,0,0,4.4-2.9l3.9-9.2c-34-34-92.3-38.4-92.3-38.4Z" transform="translate(0.74 -134.89)"/></g><path class="cls-3" d="M2016.7,177.3c-1.7-6.9-9.7-17.9-25.8-34.5l-10.7,17c-5.8,8.2,0,22.4,0,22.4L1955.4,205l9.7,2.4-3.9,7.8,10.7,5.8c8.4-9,18.6-15.2,33-15.1,0,0,9.7,2.4,11.7,4.4s13.1,12.6,21.9,20.9,23.8,8.3,23.8,8.3l16-.5-1.9-7.8,9.2-5.8-4.9-7.3,6.6-4.1-10-18.7a24.35,24.35,0,0,0,8.3-10.7c2.9-7.3-5.9-20.2-14.6-31.6a60,60,0,0,0-21.4,26.2c-6-2.8-11.7-4-16-.5A15.75,15.75,0,0,0,2016.7,177.3Z" transform="translate(0.74 -134.89)"/><g id="Layer_7-7" data-name="Layer 7"><circle class="cls-4" cx="2011.64" cy="86.61" r="8.7"/><circle class="cls-5" cx="2014.04" cy="84.21" r="4.6"/><circle class="cls-5" cx="2007.54" cy="90.81" r="1.9"/><circle class="cls-4" cx="2066.84" cy="85.31" r="7.4"/><circle class="cls-5" cx="2068.94" cy="83.21" r="3.9"/><circle class="cls-5" cx="2063.34" cy="88.81" r="1.7"/><path d="M2064.1,239.3c0,1.8,7.1,5.8,8.3,5.3,3-1.1,6.3-5.3,6.3-5.3Z" transform="translate(0.74 -134.89)"/><polygon class="cls-2" points="2041.74 49.22 2037.34 59.91 2047.14 69.61 2050.54 60.41 2041.74 49.22"/><polygon class="cls-6" points="2025.24 59.02 2018.04 51.12 2012.34 60.91 2019.84 67.02 2025.24 59.02"/><polygon class="cls-6" points="2069.04 59.62 2063.04 53.12 2058.44 61.22 2064.64 66.22 2069.04 59.62"/><path d="M2078.2,239.3c-4.1,1.1-22.8-8.9-27.7-24.8C2052.4,223.7,2062.8,240.8,2078.2,239.3Z" transform="translate(0.74 -134.89)"/></g></g><g id="Layer_12-7" data-name="Layer 12"><path class="cls-3" d="M1846.2,300.7l-20.9,3.9v-6.8l-17,6.8,1.9-6.3-14.1,6.3s-10.2,12.1-21.4,18-12.6,5.8-12.6,5.8,21.9,8.7,28.7,11.7,16,2.9,24.8,2.9,18-3.4,22.4-6.8,9.2-12.1,9.2-19.9C1847.1,311.1,1846.8,305.9,1846.2,300.7Z" transform="translate(0.74 -134.89)"/></g><g id="Layer_9-7" data-name="Layer 9"><path class="cls-2" d="M1963.2,309.6s10,35.8,21.4,47.6,12-2,12-2l-2.2-47.9" transform="translate(0.74 -134.89)"/><path class="cls-2" d="M1869.3,293.9s-3.3,39,3.2,54.9,12,2.2,12,2.2a198.33,198.33,0,0,1,10.3-23.1c5.3-10.2,17.9-22.8,17.1-18.5" transform="translate(0.74 -134.89)"/></g></g></g><g id="_1-2" data-name="1"><g id="Layer_4_copy" data-name="Layer 4 copy"><g id="Layer_1-9" data-name="Layer 1"><g id="Layer_3-8" data-name="Layer 3"><g id="Layer_10-8" data-name="Layer 10"><path class="cls-1" d="M2259.8,317.2s-1.5,30.1,7.8,43.7,12.1,0,12.1,0a184.47,184.47,0,0,1,5.8-23.3c3.4-10.4,13.4-24.3,13.4-20.2" transform="translate(0.74 -134.89)"/><path class="cls-1" d="M2349.7,324.4s-1,20.4,8.3,34,12.1,3.4,12.1,3.4l7.3-53" transform="translate(0.74 -134.89)"/></g><g id="Layer_5-8" data-name="Layer 5"><path class="cls-2" d="M2318.1,232.1c-1,.6,10.4,20.3,11.4,19.7,0,0-32.3.7-49.8-5.6s-38.9-2.7-47.4-2.4c-12.4,1.5-33.8,7.3-45.9,24.3s-58.8,64.1-70.9,68.5,35,23.8,54.9,15.5,20.6-16.3,22.4-28.2c0,0-.2-3.4-.4-8.3-.4-10.9-.5-29.3,2.8-33,4.9-5.3,8.7,1,8.7,1l12.6,31.5,2.2,14.9,40.6-8a39.61,39.61,0,0,1,18-3.4c10.2.5,28.2,7.3,28.2,7.3s19.9,9.7,36.9,9.2,28.2-9.7,32.6-18,3.7-24.4,4.6-34.7c1-10.7,3.6-10.9,8.5-13.8s23.3-3.9,28.7-5.8a6.69,6.69,0,0,0,4.4-2.9l3.9-9.2c-34-34-92.3-38.4-92.3-38.4Z" transform="translate(0.74 -134.89)"/></g><path class="cls-3" d="M2362.8,188.4c-1.7-6.9-9.7-17.9-25.8-34.5l-10.7,17c-5.8,8.2,0,22.4,0,22.4l-24.8,22.8,9.7,2.4-3.9,7.8,10.7,5.8c8.4-9,18.6-15.2,33-15.1,0,0,9.7,2.4,11.7,4.4s13.1,12.6,21.9,20.9,23.8,8.3,23.8,8.3l16-.5-1.9-7.8,9.2-5.8-4.9-7.3,6.6-4.1-10-18.7a24.35,24.35,0,0,0,8.3-10.7c2.9-7.3-5.9-20.2-14.6-31.6a60,60,0,0,0-21.4,26.2c-6-2.8-11.7-4-16-.5A15.75,15.75,0,0,0,2362.8,188.4Z" transform="translate(0.74 -134.89)"/><g id="Layer_7-8" data-name="Layer 7"><circle class="cls-4" cx="2357.74" cy="97.71" r="8.7"/><circle class="cls-5" cx="2360.14" cy="95.31" r="4.6"/><circle class="cls-5" cx="2353.54" cy="101.81" r="1.9"/><circle class="cls-4" cx="2412.94" cy="96.41" r="7.4"/><circle class="cls-5" cx="2415.04" cy="94.31" r="3.9"/><circle class="cls-5" cx="2409.44" cy="99.91" r="1.7"/><path d="M2410.2,250.4c0,1.8,7.1,5.8,8.3,5.3,3-1.1,6.3-5.3,6.3-5.3Z" transform="translate(0.74 -134.89)"/><polygon class="cls-2" points="2387.84 60.31 2383.44 71.02 2393.14 80.72 2396.54 71.52 2387.84 60.31"/><polygon class="cls-6" points="2371.24 70.11 2364.14 62.22 2358.34 72.02 2365.84 78.11 2371.24 70.11"/><polygon class="cls-6" points="2415.04 70.72 2409.14 64.22 2404.44 72.31 2410.64 77.31 2415.04 70.72"/><path d="M2424.3,250.4c-4.1,1.1-22.8-8.9-27.7-24.8C2398.5,234.8,2408.9,251.9,2424.3,250.4Z" transform="translate(0.74 -134.89)"/></g></g><g id="Layer_12-8" data-name="Layer 12"><path class="cls-3" d="M2192.2,311.8l-20.9,3.9v-6.8l-17,6.8,1.9-6.3-14.1,6.3s-10.2,12.1-21.4,18-12.6,5.8-12.6,5.8,21.9,8.7,28.7,11.7,16,2.9,24.8,2.9,18-3.4,22.4-6.8,9.2-12.1,9.2-19.9A136.15,136.15,0,0,0,2192.2,311.8Z" transform="translate(0.74 -134.89)"/></g><g id="Layer_9-8" data-name="Layer 9"><path class="cls-2" d="M2311.8,315.7s3.9,36.9,13.1,50.5,12.1,0,12.1,0l5.8-47.6" transform="translate(0.74 -134.89)"/><path class="cls-2" d="M2214.8,309.6s3.9,39,13.2,53.4,12.2,0,12.2,0a209.52,209.52,0,0,1,5.9-24.6c3.4-11,13.4-25.7,13.4-21.3" transform="translate(0.74 -134.89)"/></g></g></g><g id="Layer_1-10" data-name="Layer 1"><g id="Layer_3-9" data-name="Layer 3"><g id="Layer_10-9" data-name="Layer 10"><path class="cls-1" d="M158.7,316.6s-1.5,30.1,7.8,43.7,12.1,0,12.1,0a184.47,184.47,0,0,1,5.8-23.3c3.4-10.4,13.4-24.3,13.4-20.2" transform="translate(0.74 -134.89)"/><path class="cls-1" d="M248.6,323.9s-1,20.4,8.3,34,12.1,3.4,12.1,3.4l7.3-53" transform="translate(0.74 -134.89)"/></g><g id="Layer_5-9" data-name="Layer 5"><path class="cls-2" d="M217,231.6c-1,.6,10.4,20.3,11.4,19.7,0,0-32.3.7-49.8-5.6s-38.9-2.7-47.4-2.4c-12.4,1.5-33.8,7.3-45.9,24.3s-58.8,64.1-70.9,68.5,35,23.8,54.9,15.5,20.6-16.3,22.4-28.2c0,0-.2-3.4-.4-8.3-.4-10.9-.5-29.3,2.8-33,4.9-5.3,8.7,1,8.7,1l12.6,31.5,2.2,14.9,40.6-8a39.61,39.61,0,0,1,18-3.4c10.2.5,28.2,7.3,28.2,7.3s19.9,9.7,36.9,9.2,28.2-9.7,32.6-18,3.7-24.4,4.6-34.7c1-10.7,3.6-10.9,8.5-13.8s23.3-3.9,28.7-5.8a6.69,6.69,0,0,0,4.4-2.9l3.9-9.2c-34-34-92.3-38.4-92.3-38.4Z" transform="translate(0.74 -134.89)"/></g><path class="cls-3" d="M261.7,187.9C260,181,252,170,235.9,153.4l-10.7,17c-5.8,8.2,0,22.4,0,22.4l-24.8,22.8,9.7,2.4-3.9,7.8,10.7,5.8c8.4-9,18.6-15.2,33-15.1,0,0,9.7,2.4,11.7,4.4s13.1,12.6,21.9,20.9,23.8,8.3,23.8,8.3l16-.5-1.9-7.8,9.2-5.8-4.9-7.3,6.6-4.1-10-18.7a24.35,24.35,0,0,0,8.3-10.7c2.9-7.3-5.9-20.2-14.6-31.6a60,60,0,0,0-21.4,26.2c-6-2.8-11.7-4-16-.5A15.36,15.36,0,0,0,261.7,187.9Z" transform="translate(0.74 -134.89)"/><g id="Layer_7-9" data-name="Layer 7"><circle class="cls-4" cx="255.9" cy="232.1" r="8.7" transform="translate(-13.45 312.63) rotate(-80.78)"/><circle class="cls-5" cx="259.04" cy="94.71" r="4.6"/><circle class="cls-5" cx="252.44" cy="101.31" r="1.9"/><circle class="cls-4" cx="311.84" cy="95.91" r="7.4"/><circle class="cls-5" cx="313.94" cy="93.81" r="3.9"/><circle class="cls-5" cx="308.34" cy="99.41" r="1.7"/><path d="M309.1,249.8c0,1.8,7.1,5.8,8.3,5.3,3-1.1,6.3-5.3,6.3-5.3Z" transform="translate(0.74 -134.89)"/><polygon class="cls-2" points="286.74 59.81 282.34 70.42 292.04 80.22 295.44 70.92 286.74 59.81"/><polygon class="cls-6" points="270.14 69.52 263.04 61.62 257.24 71.52 264.74 77.52 270.14 69.52"/><polygon class="cls-6" points="313.94 70.11 308.04 63.62 303.34 71.81 309.54 76.72 313.94 70.11"/><path d="M323.2,249.8c-4.1,1.1-22.8-8.9-27.7-24.8C297.4,234.3,307.7,251.3,323.2,249.8Z" transform="translate(0.74 -134.89)"/></g></g><g id="Layer_12-9" data-name="Layer 12"><path class="cls-3" d="M91.1,311.3l-20.9,3.9v-6.8l-17,6.8,1.9-6.3L41,315.2s-10.2,12.1-21.4,18S7.1,339,7.1,339s21.9,8.7,28.7,11.7,16,2.9,24.8,2.9,18-3.4,22.4-6.8,9.2-12.1,9.2-19.9C92.1,321.6,91.7,316.4,91.1,311.3Z" transform="translate(0.74 -134.89)"/></g><g id="Layer_9-9" data-name="Layer 9"><path class="cls-2" d="M210.7,315.2s3.9,36.9,13.1,50.5,12.1,0,12.1,0l5.8-47.6" transform="translate(0.74 -134.89)"/><path class="cls-2" d="M113.7,309.1s3.9,39,13.2,53.4,12.2,0,12.2,0a209.52,209.52,0,0,1,5.9-24.6c3.4-11,13.4-25.7,13.4-21.3" transform="translate(0.74 -134.89)"/></g></g></g><g id="_2-3" data-name="2"><g id="Layer_1-11" data-name="Layer 1"><g id="Layer_3-10" data-name="Layer 3"><g id="Layer_10-10" data-name="Layer 10"><path class="cls-1" d="M1203.77,783.94c.4-4.1,9.1,10.7,11.4,21.4a175.37,175.37,0,0,1,3.6,23.8s1.6,13.9,12.1,1.2,11.9-42.8,11.9-42.8" transform="translate(0.74 -134.89)"/><path class="cls-1" d="M1119.27,786.14l21.9,48.8s5.6,9,10.7-6.7-1.6-35-1.6-35" transform="translate(0.74 -134.89)"/></g><g id="Layer_5-10" data-name="Layer 5"><path class="cls-2" d="M1163.17,682.34s-58.3,4.4-92.3,38.4l3.9,9.2a6.69,6.69,0,0,0,4.4,2.9c5.4,1.9,23.8,2.9,28.7,5.8s7.5,3.1,8.5,13.8c.9,10.3.2,26.4,4.6,34.7s15.6,17.5,32.6,18,36.9-9.2,36.9-9.2,18-6.8,28.2-7.3a39.61,39.61,0,0,1,18,3.4l40.6,8,2.2-14.9,12.6-31.5s3.8-6.3,8.7-1c3.3,3.7,3.2,22.1,2.8,33-.2,4.9-.4,8.3-.4,8.3,1.8,11.9,2.5,19.9,22.4,28.2s67-11.1,54.9-15.5-58.8-51.5-70.9-68.5-33.5-22.8-45.9-24.3c-8.5-.3-29.9-3.9-47.4,2.4s-49.8,5.6-49.8,5.6c1,.6,12.4-19.1,11.4-19.7Z" transform="translate(0.74 -134.89)"/></g><path class="cls-3" d="M1116.27,659.84c-4.3-3.5-10-2.3-16,.5a60,60,0,0,0-21.4-26.2c-8.7,11.4-17.5,24.3-14.6,31.6a24.35,24.35,0,0,0,8.3,10.7l-10,18.7,6.6,4.1-4.9,7.3,9.2,5.8-1.9,7.8,16,.5s15.1,0,23.8-8.3,20-19,21.9-20.9S1145,687,1145,687c14.4-.1,24.6,6.1,33,15.1l10.7-5.8-3.9-7.8,9.7-2.4-24.8-22.8s5.8-14.2,0-22.4l-10.7-17c-16.1,16.6-24.1,27.6-25.8,34.5C1128.37,656,1122.47,655.44,1116.27,659.84Z" transform="translate(0.74 -134.89)"/><g id="Layer_7-10" data-name="Layer 7"><circle class="cls-4" cx="1139.71" cy="567.76" r="8.7"/><circle class="cls-5" cx="1137.31" cy="565.36" r="4.6"/><circle class="cls-5" cx="1143.91" cy="571.86" r="1.9"/><circle class="cls-4" cx="1084.51" cy="566.46" r="7.4"/><circle class="cls-5" cx="1082.41" cy="564.36" r="3.9"/><circle class="cls-5" cx="1088.01" cy="569.96" r="1.7"/><path d="M1071.17,720.34s3.3,4.2,6.3,5.3c1.2.5,8.3-3.5,8.3-5.3Z" transform="translate(0.74 -134.89)"/><polygon class="cls-2" points="1100.91 541.46 1104.31 550.76 1114.01 541.06 1109.61 530.36 1100.91 541.46"/><polygon class="cls-6" points="1131.61 548.16 1139.11 542.06 1133.31 532.16 1126.21 540.06 1131.61 548.16"/><polygon class="cls-6" points="1086.81 547.26 1092.91 542.36 1088.31 534.26 1082.31 540.66 1086.81 547.26"/><path d="M1099.37,695.54c-4.9,15.9-23.6,25.9-27.7,24.8C1087.07,721.84,1097.47,704.84,1099.37,695.54Z" transform="translate(0.74 -134.89)"/></g></g><g id="Layer_12-10" data-name="Layer 12"><path class="cls-3" d="M1302.67,797.44c0,7.8,4.8,16.5,9.2,19.9s13.7,6.8,22.4,6.8,18,.1,24.8-2.9,28.7-11.7,28.7-11.7-1.4,0-12.6-5.8-21.4-18-21.4-18l-14.1-6.3,1.9,6.3-17-6.8v6.8l-20.9-3.9C1303.17,786.94,1302.77,792.14,1302.67,797.44Z" transform="translate(0.74 -134.89)"/></g><g id="Layer_9-10" data-name="Layer 9"><path class="cls-2" d="M1155.47,788.44l-2.2,47.9s.6,13.8,12,2,21.4-47.6,21.4-47.6" transform="translate(0.74 -134.89)"/><path class="cls-2" d="M1238.07,790.44c-.8-4.3,11.8,8.3,17.1,18.5a198.33,198.33,0,0,1,10.3,23.1s5.5,13.6,12-2.2,3.2-54.9,3.2-54.9" transform="translate(0.74 -134.89)"/></g></g></g><g id="_3-3" data-name="3"><g id="Layer_1-12" data-name="Layer 1"><g id="Layer_3-11" data-name="Layer 3"><g id="Layer_10-11" data-name="Layer 10"><path class="cls-1" d="M1206.77,781.34c1.1-3.9,6.9,12.2,7.2,23.1a192.59,192.59,0,0,1-.9,24s-.9,13.9,11.7,3.4,19.6-39.9,19.6-39.9" transform="translate(0.74 -134.89)"/><path class="cls-1" d="M1123.87,792.24l33.5,41.7s7.8,7.2,8.7-9.2-10.4-33.4-10.4-33.4" transform="translate(0.74 -134.89)"/></g><g id="Layer_5-11" data-name="Layer 5"><path class="cls-2" d="M1163.17,682.34s-58.3,4.4-92.3,38.4l3.9,9.2a6.69,6.69,0,0,0,4.4,2.9c5.4,1.9,23.8,2.9,28.7,5.8s7.5,3.1,8.5,13.8c.9,10.3.2,26.4,4.6,34.7s15.6,17.5,32.6,18,36.9-9.2,36.9-9.2,18-6.8,28.2-7.3a39.61,39.61,0,0,1,18,3.4l40.6,8,2.2-14.9,12.6-31.5s3.8-6.3,8.7-1c3.3,3.7,3.2,22.1,2.8,33-.2,4.9-.4,8.3-.4,8.3,1.8,11.9,2.5,19.9,22.4,28.2s67-11.1,54.9-15.5-58.8-51.5-70.9-68.5-33.5-22.8-45.9-24.3c-8.5-.3-29.9-3.9-47.4,2.4s-49.8,5.6-49.8,5.6c1,.6,12.4-19.1,11.4-19.7Z" transform="translate(0.74 -134.89)"/></g><path class="cls-3" d="M1116.27,659.84c-4.3-3.5-10-2.3-16,.5a60,60,0,0,0-21.4-26.2c-8.7,11.4-17.5,24.3-14.6,31.6a24.35,24.35,0,0,0,8.3,10.7l-10,18.7,6.6,4.1-4.9,7.3,9.2,5.8-1.9,7.8,16,.5s15.1,0,23.8-8.3,20-19,21.9-20.9S1145,687,1145,687c14.4-.1,24.6,6.1,33,15.1l10.7-5.8-3.9-7.8,9.7-2.4-24.8-22.8s5.8-14.2,0-22.4l-10.7-17c-16.1,16.6-24.1,27.6-25.8,34.5C1128.37,656,1122.47,655.44,1116.27,659.84Z" transform="translate(0.74 -134.89)"/><g id="Layer_7-11" data-name="Layer 7"><circle class="cls-4" cx="1139.71" cy="567.76" r="8.7"/><circle class="cls-5" cx="1137.31" cy="565.36" r="4.6"/><circle class="cls-5" cx="1143.91" cy="571.86" r="1.9"/><circle class="cls-4" cx="1084.51" cy="566.46" r="7.4"/><circle class="cls-5" cx="1082.41" cy="564.36" r="3.9"/><circle class="cls-5" cx="1088.01" cy="569.96" r="1.7"/><path d="M1071.17,720.34s3.3,4.2,6.3,5.3c1.2.5,8.3-3.5,8.3-5.3Z" transform="translate(0.74 -134.89)"/><polygon class="cls-2" points="1100.91 541.46 1104.31 550.76 1114.01 541.06 1109.61 530.36 1100.91 541.46"/><polygon class="cls-6" points="1131.61 548.16 1139.11 542.06 1133.31 532.16 1126.21 540.06 1131.61 548.16"/><polygon class="cls-6" points="1086.81 547.26 1092.91 542.36 1088.31 534.26 1082.31 540.66 1086.81 547.26"/><path d="M1099.37,695.54c-4.9,15.9-23.6,25.9-27.7,24.8C1087.07,721.84,1097.47,704.84,1099.37,695.54Z" transform="translate(0.74 -134.89)"/></g></g><g id="Layer_12-11" data-name="Layer 12"><path class="cls-3" d="M1302.67,797.44c0,7.8,4.8,16.5,9.2,19.9s13.7,6.8,22.4,6.8,18,.1,24.8-2.9,28.7-11.7,28.7-11.7-1.4,0-12.6-5.8-21.4-18-21.4-18l-14.1-6.3,1.9,6.3-17-6.8v6.8l-20.9-3.9C1303.17,786.94,1302.77,792.14,1302.67,797.44Z" transform="translate(0.74 -134.89)"/></g><g id="Layer_9-11" data-name="Layer 9"><path class="cls-2" d="M1149.07,788.14l-2.2,47.9s.6,13.9,12,2,21.4-47.6,21.4-47.6" transform="translate(0.74 -134.89)"/><path class="cls-2" d="M1234.67,792.84c-1.6-4.1,13.1,5.9,20.3,14.9a197.09,197.09,0,0,1,14.5,20.7s8,12.2,11.3-4.5-7.4-54.4-7.4-54.4" transform="translate(0.74 -134.89)"/></g></g></g><g id="_4-2" data-name="4"><g id="Layer_1-13" data-name="Layer 1"><g id="Layer_3-12" data-name="Layer 3"><g id="Layer_10-12" data-name="Layer 10"><path class="cls-1" d="M1210.77,780.24c1.7-3.7,5,13,3.8,23.9a171.78,171.78,0,0,1-4.3,23.6s-3,13.6,11.1,5,25.2-36.6,25.2-36.6" transform="translate(0.74 -134.89)"/><path class="cls-1" d="M1127.47,795.54l33.5,41.7s7.8,7.2,8.7-9.2-10.4-33.4-10.4-33.4" transform="translate(0.74 -134.89)"/></g><g id="Layer_5-12" data-name="Layer 5"><path class="cls-2" d="M1164.07,685.64s-58.3,4.4-92.3,38.4l3.9,9.2a6.69,6.69,0,0,0,4.4,2.9c5.4,1.9,23.8,2.9,28.7,5.8s7.5,3.1,8.5,13.8c.9,10.3.2,26.4,4.6,34.7s15.6,17.5,32.6,18,36.9-9.2,36.9-9.2,18-6.8,28.2-7.3a39.61,39.61,0,0,1,18,3.4l40.6,8,2.2-14.9,12.6-31.5s3.8-6.3,8.7-1c3.3,3.7,3.2,22.1,2.8,33-.2,4.9-.4,8.3-.4,8.3,1.8,11.9,2.5,19.9,22.4,28.2s67-11.1,54.9-15.5-58.8-51.5-70.9-68.5-33.5-22.8-45.9-24.3c-8.5-.3-29.9-3.9-47.4,2.4s-49.8,5.6-49.8,5.6c1,.6,12.4-19.1,11.4-19.7Z" transform="translate(0.74 -134.89)"/></g><path class="cls-3" d="M1117.07,663c-4.3-3.5-10-2.3-16,.5a60,60,0,0,0-21.4-26.2c-8.7,11.4-17.5,24.3-14.6,31.6a24.35,24.35,0,0,0,8.3,10.7l-10,18.7,6.6,4.1-4.9,7.3,9.2,5.8-1.9,7.8,16,.5s15.1,0,23.8-8.3,20-19,21.9-20.9,11.7-4.4,11.7-4.4c14.4-.1,24.6,6.1,33,15.1l10.7-5.8-3.9-7.8,9.7-2.4-24.8-22.8s5.8-14.2,0-22.4l-10.7-17c-16.1,16.6-24.1,27.6-25.8,34.5A15.75,15.75,0,0,0,1117.07,663Z" transform="translate(0.74 -134.89)"/><g id="Layer_7-12" data-name="Layer 7"><circle class="cls-4" cx="1140.61" cy="571.06" r="8.7"/><circle class="cls-5" cx="1138.21" cy="568.56" r="4.6"/><circle class="cls-5" cx="1144.71" cy="575.16" r="1.9"/><circle class="cls-4" cx="1085.31" cy="569.66" r="7.4"/><circle class="cls-5" cx="1083.21" cy="567.66" r="3.9"/><circle class="cls-5" cx="1088.81" cy="573.16" r="1.7"/><path d="M1072.07,723.64s3.3,4.2,6.3,5.3c1.2.5,8.3-3.5,8.3-5.3Z" transform="translate(0.74 -134.89)"/><polygon class="cls-2" points="1101.71 544.76 1105.11 553.96 1114.81 544.26 1110.51 533.56 1101.71 544.76"/><polygon class="cls-6" points="1132.41 551.36 1139.91 545.36 1134.21 535.46 1127.01 543.36 1132.41 551.36"/><polygon class="cls-6" points="1087.61 550.56 1093.81 545.56 1089.11 537.46 1083.21 543.96 1087.61 550.56"/><path d="M1100.17,698.84c-4.9,15.9-23.6,25.9-27.7,24.8C1088,725.14,1098.27,708,1100.17,698.84Z" transform="translate(0.74 -134.89)"/></g></g><g id="Layer_12-12" data-name="Layer 12"><path class="cls-3" d="M1302.67,797.44c0,7.8,4.8,16.5,9.2,19.9s13.7,6.8,22.4,6.8,18,.1,24.8-2.9,28.7-11.7,28.7-11.7-1.4,0-12.6-5.8-21.4-18-21.4-18l-14.1-6.3,1.9,6.3-17-6.8v6.8l-20.9-3.9C1303.17,786.94,1302.77,792.14,1302.67,797.44Z" transform="translate(0.74 -134.89)"/></g><g id="Layer_9-12" data-name="Layer 9"><path class="cls-2" d="M1152,787.14l-7,47.5s-.8,13.9,11.7,3.2,26-45.3,26-45.3" transform="translate(0.74 -134.89)"/><path class="cls-2" d="M1238.27,794.74c-1.8-3.9,13.4,5.3,21.1,13.8a213.36,213.36,0,0,1,15.6,19.9s8.7,11.8,11.1-5.1-10.4-54-10.4-54" transform="translate(0.74 -134.89)"/></g></g></g><g id="_3-4" data-name="3"><g id="Layer_5_copy_3-2" data-name="Layer 5 copy 3"><g id="Layer_1-14" data-name="Layer 1"><g id="Layer_3-13" data-name="Layer 3"><g id="Layer_10-13" data-name="Layer 10"><path class="cls-1" d="M856.77,781.34c1.1-3.9,6.9,12.2,7.2,23.1a192.59,192.59,0,0,1-.9,24s-.9,13.9,11.7,3.4,19.6-39.9,19.6-39.9" transform="translate(0.74 -134.89)"/><path class="cls-1" d="M773.87,792.24l33.5,41.7s7.8,7.2,8.7-9.2-10.4-33.4-10.4-33.4" transform="translate(0.74 -134.89)"/></g><g id="Layer_5-13" data-name="Layer 5"><path class="cls-2" d="M813.17,682.34s-58.3,4.4-92.3,38.4l3.9,9.2a6.69,6.69,0,0,0,4.4,2.9c5.4,1.9,23.8,2.9,28.7,5.8s7.5,3.1,8.5,13.8c.9,10.3.2,26.4,4.6,34.7s15.6,17.5,32.6,18,36.9-9.2,36.9-9.2,18-6.8,28.2-7.3a39.61,39.61,0,0,1,18,3.4l40.6,8,2.2-14.9,12.6-31.5s3.8-6.3,8.7-1c3.3,3.7,3.2,22.1,2.8,33-.2,4.9-.4,8.3-.4,8.3,1.8,11.9,2.5,19.9,22.4,28.2s67-11.1,54.9-15.5-58.8-51.5-70.9-68.5-33.5-22.8-45.9-24.3c-8.5-.3-29.9-3.9-47.4,2.4s-49.8,5.6-49.8,5.6c1,.6,12.4-19.1,11.4-19.7Z" transform="translate(0.74 -134.89)"/></g><path class="cls-3" d="M766.27,659.84c-4.3-3.5-10-2.3-16,.5a60,60,0,0,0-21.4-26.2c-8.7,11.4-17.5,24.3-14.6,31.6a24.35,24.35,0,0,0,8.3,10.7l-10,18.7,6.6,4.1-4.9,7.3,9.2,5.8-1.9,7.8,16,.5s15.1,0,23.8-8.3,20-19,21.9-20.9S795,687,795,687c14.4-.1,24.6,6.1,33,15.1l10.7-5.8-3.9-7.8,9.7-2.4-24.8-22.8s5.8-14.2,0-22.4l-10.7-17c-16.1,16.6-24.1,27.6-25.8,34.5C778.37,656,772.47,655.44,766.27,659.84Z" transform="translate(0.74 -134.89)"/><g id="Layer_7-13" data-name="Layer 7"><circle class="cls-4" cx="789.71" cy="567.76" r="8.7"/><circle class="cls-5" cx="787.31" cy="565.36" r="4.6"/><circle class="cls-5" cx="793.91" cy="571.86" r="1.9"/><circle class="cls-4" cx="734.51" cy="566.46" r="7.4"/><circle class="cls-5" cx="732.41" cy="564.36" r="3.9"/><circle class="cls-5" cx="738.01" cy="569.96" r="1.7"/><path d="M721.17,720.34s3.3,4.2,6.3,5.3c1.2.5,8.3-3.5,8.3-5.3Z" transform="translate(0.74 -134.89)"/><polygon class="cls-2" points="750.91 541.46 754.31 550.76 764.01 541.06 759.61 530.36 750.91 541.46"/><polygon class="cls-6" points="781.61 548.16 789.11 542.06 783.31 532.16 776.21 540.06 781.61 548.16"/><polygon class="cls-6" points="736.81 547.26 742.91 542.36 738.31 534.26 732.31 540.66 736.81 547.26"/><path d="M749.37,695.54c-4.9,15.9-23.6,25.9-27.7,24.8C737.07,721.84,747.47,704.84,749.37,695.54Z" transform="translate(0.74 -134.89)"/></g></g><g id="Layer_12-13" data-name="Layer 12"><path class="cls-3" d="M952.67,797.44c0,7.8,4.8,16.5,9.2,19.9s13.7,6.8,22.4,6.8,18,.1,24.8-2.9,28.7-11.7,28.7-11.7-1.4,0-12.6-5.8-21.4-18-21.4-18l-14.1-6.3,1.9,6.3-17-6.8v6.8l-20.9-3.9C953.17,786.94,952.77,792.14,952.67,797.44Z" transform="translate(0.74 -134.89)"/></g><g id="Layer_9-13" data-name="Layer 9"><path class="cls-2" d="M799.07,788.14l-2.2,47.9s.6,13.9,12,2,21.4-47.6,21.4-47.6" transform="translate(0.74 -134.89)"/><path class="cls-2" d="M884.67,792.84c-1.6-4.1,13.1,5.9,20.3,14.9a197.09,197.09,0,0,1,14.5,20.7s8,12.2,11.3-4.5-7.4-54.4-7.4-54.4" transform="translate(0.74 -134.89)"/></g></g></g><g id="Layer_1-15" data-name="Layer 1"><g id="Layer_3-14" data-name="Layer 3"><g id="Layer_10-14" data-name="Layer 10"><path class="cls-1" d="M1556.77,781.34c1.1-3.9,6.9,12.2,7.2,23.1a192.59,192.59,0,0,1-.9,24s-.9,13.9,11.7,3.4,19.6-39.9,19.6-39.9" transform="translate(0.74 -134.89)"/><path class="cls-1" d="M1473.87,792.24l33.5,41.7s7.8,7.2,8.7-9.2-10.4-33.4-10.4-33.4" transform="translate(0.74 -134.89)"/></g><g id="Layer_5-14" data-name="Layer 5"><path class="cls-2" d="M1513.17,682.34s-58.3,4.4-92.3,38.4l3.9,9.2a6.69,6.69,0,0,0,4.4,2.9c5.4,1.9,23.8,2.9,28.7,5.8s7.5,3.1,8.5,13.8c.9,10.3.2,26.4,4.6,34.7s15.6,17.5,32.6,18,36.9-9.2,36.9-9.2,18-6.8,28.2-7.3a39.61,39.61,0,0,1,18,3.4l40.6,8,2.2-14.9,12.6-31.5s3.8-6.3,8.7-1c3.3,3.7,3.2,22.1,2.8,33-.2,4.9-.4,8.3-.4,8.3,1.8,11.9,2.5,19.9,22.4,28.2s67-11.1,54.9-15.5-58.8-51.5-70.9-68.5-33.5-22.8-45.9-24.3c-8.5-.3-29.9-3.9-47.4,2.4s-49.8,5.6-49.8,5.6c1,.6,12.4-19.1,11.4-19.7Z" transform="translate(0.74 -134.89)"/></g><path class="cls-3" d="M1466.27,659.84c-4.3-3.5-10-2.3-16,.5a60,60,0,0,0-21.4-26.2c-8.7,11.4-17.5,24.3-14.6,31.6a24.35,24.35,0,0,0,8.3,10.7l-10,18.7,6.6,4.1-4.9,7.3,9.2,5.8-1.9,7.8,16,.5s15.1,0,23.8-8.3,19.9-18.9,21.9-20.9S1495,687,1495,687c14.4-.1,24.6,6.1,33,15.1l10.7-5.8-3.9-7.8,9.7-2.4-24.8-22.8s5.8-14.2,0-22.4l-10.7-17c-16.1,16.6-24.1,27.6-25.8,34.5C1478.37,656,1472.47,655.44,1466.27,659.84Z" transform="translate(0.74 -134.89)"/><g id="Layer_7-14" data-name="Layer 7"><circle class="cls-4" cx="1489.71" cy="567.76" r="8.7"/><circle class="cls-5" cx="1487.31" cy="565.36" r="4.6"/><circle class="cls-5" cx="1493.91" cy="571.86" r="1.9"/><circle class="cls-4" cx="1434.51" cy="566.46" r="7.4"/><circle class="cls-5" cx="1432.41" cy="564.36" r="3.9"/><circle class="cls-5" cx="1438.01" cy="569.96" r="1.7"/><path d="M1421.17,720.34s3.3,4.2,6.3,5.3c1.2.5,8.3-3.5,8.3-5.3Z" transform="translate(0.74 -134.89)"/><polygon class="cls-2" points="1450.91 541.46 1454.31 550.76 1464.01 541.06 1459.61 530.36 1450.91 541.46"/><polygon class="cls-6" points="1481.61 548.16 1489.11 542.06 1483.31 532.16 1476.21 540.06 1481.61 548.16"/><polygon class="cls-6" points="1436.81 547.26 1442.91 542.36 1438.31 534.26 1432.31 540.66 1436.81 547.26"/><path d="M1449.37,695.54c-4.9,15.9-23.6,25.9-27.7,24.8C1437.07,721.84,1447.47,704.84,1449.37,695.54Z" transform="translate(0.74 -134.89)"/></g></g><g id="Layer_12-14" data-name="Layer 12"><path class="cls-3" d="M1652.67,797.44c0,7.8,4.8,16.5,9.2,19.9s13.7,6.8,22.4,6.8,18,0,24.8-2.9,28.7-11.7,28.7-11.7-1.4,0-12.6-5.8-21.4-18-21.4-18l-14.1-6.3,1.9,6.3-17-6.8v6.8l-20.9-3.9C1653.17,786.94,1652.77,792.14,1652.67,797.44Z" transform="translate(0.74 -134.89)"/></g><g id="Layer_9-14" data-name="Layer 9"><path class="cls-2" d="M1499.07,788.14l-2.2,47.9s.6,13.9,12,2,21.4-47.6,21.4-47.6" transform="translate(0.74 -134.89)"/><path class="cls-2" d="M1584.67,792.84c-1.6-4.1,13.1,5.9,20.3,14.9a197.09,197.09,0,0,1,14.5,20.7s8,12.2,11.3-4.5-7.4-54.4-7.4-54.4" transform="translate(0.74 -134.89)"/></g></g></g><g id="_2-4" data-name="2"><g id="Layer_1-16" data-name="Layer 1"><g id="Layer_3-15" data-name="Layer 3"><g id="Layer_10-15" data-name="Layer 10"><path class="cls-1" d="M1905.87,789c.4-4.1,9.1,10.7,11.4,21.4a175.37,175.37,0,0,1,3.6,23.8s1.6,13.9,12.1,1.2,11.9-42.8,11.9-42.8" transform="translate(0.74 -134.89)"/><path class="cls-1" d="M1821.37,791.24l21.9,48.8s5.7,8.9,10.7-6.7-1.6-35-1.6-35" transform="translate(0.74 -134.89)"/></g><g id="Layer_5-15" data-name="Layer 5"><path class="cls-2" d="M1865.27,687.44s-58.3,4.4-92.3,38.4l3.9,9.2a6.69,6.69,0,0,0,4.4,2.9c5.4,1.9,23.8,2.9,28.7,5.8s7.5,3.1,8.5,13.8c.9,10.3.2,26.4,4.6,34.7s15.6,17.5,32.6,18,36.9-9.2,36.9-9.2,18-6.8,28.2-7.3a39.61,39.61,0,0,1,18,3.4l40.6,8,2.2-14.9,12.6-31.5s3.8-6.3,8.7-1c3.3,3.7,3.2,22.1,2.8,33-.2,4.9-.4,8.3-.4,8.3,1.8,11.9,2.5,19.9,22.4,28.2s67-11.1,54.9-15.5-58.8-51.5-70.9-68.5-33.5-22.8-45.9-24.3c-8.5-.3-29.9-3.9-47.4,2.4s-49.8,5.6-49.8,5.6c1,.6,12.4-19.1,11.4-19.7Z" transform="translate(0.74 -134.89)"/></g><path class="cls-3" d="M1818.37,664.94c-4.3-3.5-10-2.3-16,.5a60,60,0,0,0-21.4-26.2c-8.7,11.4-17.5,24.3-14.6,31.6a24.35,24.35,0,0,0,8.3,10.7l-10,18.7,6.6,4.1-4.9,7.3,9.2,5.8-1.9,7.8,16,.5s15.1,0,23.8-8.3,20-19,21.9-20.9,11.7-4.4,11.7-4.4c14.4-.1,24.6,6.1,33,15.1l10.7-5.8-3.9-7.8,9.7-2.4-24.8-22.8s5.8-14.2,0-22.4l-10.7-17c-16.1,16.6-24.1,27.6-25.8,34.5A15.36,15.36,0,0,0,1818.37,664.94Z" transform="translate(0.74 -134.89)"/><g id="Layer_7-15" data-name="Layer 7"><circle class="cls-4" cx="1841.81" cy="572.86" r="8.7"/><circle class="cls-5" cx="1839.41" cy="570.36" r="4.6"/><circle class="cls-5" cx="1846.01" cy="576.96" r="1.9"/><circle class="cls-4" cx="1786.61" cy="571.56" r="7.4"/><circle class="cls-5" cx="1784.51" cy="569.46" r="3.9"/><circle class="cls-5" cx="1790.11" cy="575.06" r="1.7"/><path d="M1773.27,725.44s3.3,4.2,6.3,5.3c1.2.5,8.3-3.5,8.3-5.3Z" transform="translate(0.74 -134.89)"/><polygon class="cls-2" points="1803.01 546.56 1806.41 555.86 1816.11 546.06 1811.71 535.46 1803.01 546.56"/><polygon class="cls-6" points="1833.71 553.16 1841.21 547.16 1835.41 537.26 1828.31 545.16 1833.71 553.16"/><polygon class="cls-6" points="1788.91 552.36 1795.11 547.46 1790.41 539.26 1784.51 545.76 1788.91 552.36"/><path d="M1801.47,700.64c-4.9,15.9-23.6,25.9-27.7,24.8C1789.27,726.94,1799.57,709.94,1801.47,700.64Z" transform="translate(0.74 -134.89)"/></g></g><g id="Layer_12-15" data-name="Layer 12"><path class="cls-3" d="M2004.87,802.54c0,7.8,4.8,16.5,9.2,19.9s13.7,6.8,22.4,6.8,18,0,24.8-2.9,28.7-11.7,28.7-11.7-1.4,0-12.6-5.8-21.4-18-21.4-18l-14.1-6.3,1.9,6.3-17-6.8v6.8l-20.9-3.9A133.29,133.29,0,0,0,2004.87,802.54Z" transform="translate(0.74 -134.89)"/></g><g id="Layer_9-15" data-name="Layer 9"><path class="cls-2" d="M1857.67,793.54l-2.2,47.9s.6,13.9,12,2,21.4-47.6,21.4-47.6" transform="translate(0.74 -134.89)"/><path class="cls-2" d="M1940.17,795.54c-.8-4.3,11.8,8.3,17.1,18.5a198.33,198.33,0,0,1,10.3,23.1s5.5,13.6,12-2.2,3.2-54.9,3.2-54.9" transform="translate(0.74 -134.89)"/></g></g><g id="Layer_1-17" data-name="Layer 1"><g id="Layer_3-16" data-name="Layer 3"><g id="Layer_10-16" data-name="Layer 10"><path class="cls-1" d="M500.87,789.54c.4-4.1,9.1,10.7,11.4,21.4a175.37,175.37,0,0,1,3.6,23.8s1.6,13.9,12.1,1.2,11.9-42.8,11.9-42.8" transform="translate(0.74 -134.89)"/><path class="cls-1" d="M416.37,791.74l21.9,48.8s5.6,9,10.7-6.7-1.6-35-1.6-35" transform="translate(0.74 -134.89)"/></g><g id="Layer_5-16" data-name="Layer 5"><path class="cls-2" d="M460.27,687.84s-58.3,4.4-92.3,38.4l3.9,9.2a6.69,6.69,0,0,0,4.4,2.9c5.4,1.9,23.8,2.9,28.7,5.8s7.5,3.1,8.5,13.8c.9,10.3.2,26.4,4.6,34.7s15.6,17.5,32.6,18,36.9-9.2,36.9-9.2,18-6.8,28.2-7.3a39.61,39.61,0,0,1,18,3.4l40.6,8,2.2-14.9,12.6-31.5s3.8-6.3,8.7-1c3.3,3.7,3.2,22.1,2.8,33-.2,4.9-.4,8.3-.4,8.3,1.8,11.9,2.5,19.9,22.4,28.2s67-11.1,54.9-15.5-58.8-51.5-70.9-68.5-33.5-22.8-45.9-24.3c-8.5-.3-29.9-3.9-47.4,2.4s-49.8,5.6-49.8,5.6c1,.6,12.4-19.1,11.4-19.7Z" transform="translate(0.74 -134.89)"/></g><path class="cls-3" d="M413.37,665.34c-4.3-3.5-10-2.3-16,.5a60,60,0,0,0-21.4-26.2c-8.7,11.4-17.5,24.3-14.6,31.6a24.35,24.35,0,0,0,8.3,10.7l-10,18.7,6.6,4.1-4.9,7.3,9.2,5.8-1.9,7.8,16,.5s15.1,0,23.8-8.3,20-19,21.9-20.9,11.7-4.4,11.7-4.4c14.4-.1,24.6,6.1,33,15.1l10.7-5.8-3.9-7.8,9.7-2.4-24.8-22.8s5.8-14.2,0-22.4l-10.7-17C440,646,432,657,430.27,663.94A15.75,15.75,0,0,0,413.37,665.34Z" transform="translate(0.74 -134.89)"/><g id="Layer_7-16" data-name="Layer 7"><circle class="cls-4" cx="436.81" cy="573.26" r="8.7"/><circle class="cls-5" cx="434.41" cy="570.86" r="4.6"/><circle class="cls-5" cx="440.91" cy="577.46" r="1.9"/><circle class="cls-4" cx="381.61" cy="571.96" r="7.4"/><circle class="cls-5" cx="379.51" cy="569.86" r="3.9"/><circle class="cls-5" cx="385.11" cy="575.46" r="1.7"/><path d="M368.27,725.94s3.3,4.2,6.3,5.3c1.2.5,8.3-3.5,8.3-5.3Z" transform="translate(0.74 -134.89)"/><polygon class="cls-2" points="397.91 547.06 401.31 556.26 411.11 546.56 406.71 535.86 397.91 547.06"/><polygon class="cls-6" points="428.61 553.66 436.11 547.56 430.41 537.76 423.21 545.66 428.61 553.66"/><polygon class="cls-6" points="383.81 552.86 390.01 547.86 385.41 539.76 379.41 546.26 383.81 552.86"/><path d="M396.47,701.14c-4.9,15.9-23.6,25.9-27.7,24.8C384.17,727.44,394.57,710.34,396.47,701.14Z" transform="translate(0.74 -134.89)"/></g></g><g id="Layer_12-16" data-name="Layer 12"><path class="cls-3" d="M599.77,802.94c0,7.8,4.8,16.5,9.2,19.9s13.7,6.8,22.4,6.8,18,.1,24.8-2.9,28.7-11.7,28.7-11.7-1.4,0-12.6-5.8-21.4-18-21.4-18l-14.1-6.3,1.9,6.3-17-6.8v6.8l-20.9-3.9C600.17,792.54,599.87,797.74,599.77,802.94Z" transform="translate(0.74 -134.89)"/></g><g id="Layer_9-16" data-name="Layer 9"><path class="cls-2" d="M452.57,793.94l-2.2,47.9s.6,13.9,12,2,21.4-47.6,21.4-47.6" transform="translate(0.74 -134.89)"/><path class="cls-2" d="M535.07,796c-.8-4.3,11.8,8.3,17.1,18.5a198.33,198.33,0,0,1,10.3,23.1s5.5,13.6,12-2.2,3.2-54.9,3.2-54.9" transform="translate(0.74 -134.89)"/></g></g></g><g id="_1-3" data-name="1"><g id="Layer_4_copy-2" data-name="Layer 4 copy"><g id="Layer_1-18" data-name="Layer 1"><g id="Layer_3-17" data-name="Layer 3"><g id="Layer_10-17" data-name="Layer 10"><path class="cls-1" d="M148.07,804c0-4.1,10,9.8,13.4,20.2a184.47,184.47,0,0,1,5.8,23.3s2.9,13.6,12.1,0,7.8-43.7,7.8-43.7" transform="translate(0.74 -134.89)"/><path class="cls-1" d="M69.57,795.44l7.3,53s2.9,10.2,12.1-3.4,8.3-34,8.3-34" transform="translate(0.74 -134.89)"/></g><g id="Layer_5-17" data-name="Layer 5"><path class="cls-2" d="M114.17,698.94s-58.3,4.4-92.3,38.4l3.9,9.2a6.69,6.69,0,0,0,4.4,2.9c5.4,1.9,23.8,2.9,28.7,5.8s7.5,3.1,8.5,13.8c.9,10.3.2,26.4,4.6,34.7s15.6,17.5,32.6,18,36.9-9.2,36.9-9.2,18-6.8,28.2-7.3a39.61,39.61,0,0,1,18,3.4l40.6,8,2.2-14.9,12.6-31.5s3.8-6.3,8.7-1c3.3,3.7,3.2,22.1,2.8,33-.2,4.9-.4,8.3-.4,8.3,1.8,11.9,2.5,19.9,22.4,28.2s67-11.1,54.9-15.5-58.8-51.5-70.9-68.5-33.5-22.8-45.9-24.3c-8.5-.3-29.9-3.9-47.4,2.4s-49.8,5.6-49.8,5.6c1,.6,12.4-19.1,11.4-19.7Z" transform="translate(0.74 -134.89)"/></g><path class="cls-3" d="M67.27,676.44c-4.3-3.5-10-2.3-16,.5a60,60,0,0,0-21.4-26.2c-8.7,11.4-17.5,24.3-14.6,31.6a24.35,24.35,0,0,0,8.3,10.7l-10,18.7,6.6,4.1-4.9,7.3,9.2,5.8-1.9,7.8,16,.5s15.1,0,23.8-8.3,20-19,21.9-20.9,11.7-4.4,11.7-4.4c14.4-.1,24.6,6.1,33,15.1l10.7-5.8-3.9-7.8,9.7-2.4-24.8-22.8s5.8-14.2,0-22.4l-10.7-17c-16.1,16.6-24.1,27.6-25.8,34.5A15.75,15.75,0,0,0,67.27,676.44Z" transform="translate(0.74 -134.89)"/><g id="Layer_7-17" data-name="Layer 7"><circle class="cls-4" cx="90.71" cy="584.36" r="8.7"/><circle class="cls-5" cx="88.31" cy="581.96" r="4.6"/><circle class="cls-5" cx="94.91" cy="588.46" r="1.9"/><circle class="cls-4" cx="35.51" cy="583.06" r="7.4"/><circle class="cls-5" cx="33.41" cy="580.96" r="3.9"/><circle class="cls-5" cx="39.01" cy="586.56" r="1.7"/><path d="M22.17,737s3.3,4.2,6.3,5.3c1.2.5,8.3-3.5,8.3-5.3Z" transform="translate(0.74 -134.89)"/><polygon class="cls-2" points="51.91 558.16 55.31 567.36 65.01 557.66 60.61 546.96 51.91 558.16"/><polygon class="cls-6" points="82.61 564.76 90.11 558.66 84.31 548.86 77.21 556.76 82.61 564.76"/><polygon class="cls-6" points="37.81 563.96 44.01 558.96 39.31 550.86 33.41 557.36 37.81 563.96"/><path d="M50.37,712.24c-4.9,15.9-23.6,25.9-27.7,24.8C38.07,738.54,48.47,721.44,50.37,712.24Z" transform="translate(0.74 -134.89)"/></g></g><g id="Layer_12-17" data-name="Layer 12"><path class="cls-3" d="M253.77,814c0,7.8,4.8,16.5,9.2,19.9s13.6,6.8,22.4,6.8,18,0,24.8-2.9,28.7-11.7,28.7-11.7-1.4,0-12.6-5.8-21.4-18-21.4-18l-14.1-6.3,1.9,6.3-17-6.8v6.8l-20.9-3.9A136.15,136.15,0,0,0,253.77,814Z" transform="translate(0.74 -134.89)"/></g><g id="Layer_9-17" data-name="Layer 9"><path class="cls-2" d="M104.17,805.24l5.8,47.6s2.9,13.6,12.1,0,13.1-50.5,13.1-50.5" transform="translate(0.74 -134.89)"/><path class="cls-2" d="M187.47,803.74c0-4.4,10,10.3,13.4,21.3a209.52,209.52,0,0,1,5.9,24.6s2.9,14.4,12.2,0,13.2-53.4,13.2-53.4" transform="translate(0.74 -134.89)"/></g></g></g><g id="Layer_1-19" data-name="Layer 1"><g id="Layer_3-18" data-name="Layer 3"><g id="Layer_10-18" data-name="Layer 10"><path class="cls-1" d="M2249.17,803.44c0-4.1,10,9.8,13.4,20.2a184.47,184.47,0,0,1,5.8,23.3s2.9,13.6,12.1,0,7.8-43.7,7.8-43.7" transform="translate(0.74 -134.89)"/><path class="cls-1" d="M2170.67,794.94l7.3,53s2.9,10.2,12.1-3.4,8.3-34,8.3-34" transform="translate(0.74 -134.89)"/></g><g id="Layer_5-18" data-name="Layer 5"><path class="cls-2" d="M2215.27,698.44s-58.3,4.4-92.3,38.4l3.9,9.2a6.69,6.69,0,0,0,4.4,2.9c5.4,1.9,23.8,2.9,28.7,5.8s7.5,3.1,8.5,13.8c.9,10.3.2,26.4,4.6,34.7s15.6,17.5,32.6,18,36.9-9.2,36.9-9.2,18-6.8,28.2-7.3a39.61,39.61,0,0,1,18,3.4l40.6,8,2.2-14.9,12.6-31.5s3.8-6.3,8.7-1c3.3,3.7,3.2,22.1,2.8,33-.2,4.9-.4,8.3-.4,8.3,1.8,11.9,2.5,19.9,22.4,28.2s67-11.1,54.9-15.5-58.8-51.5-70.9-68.5-33.5-22.8-45.9-24.3c-8.5-.3-29.9-3.9-47.4,2.4s-49.8,5.6-49.8,5.6c1,.6,12.4-19.1,11.4-19.7Z" transform="translate(0.74 -134.89)"/></g><path class="cls-3" d="M2168.37,675.94c-4.3-3.5-10-2.3-16,.5a60,60,0,0,0-21.4-26.2c-8.7,11.4-17.5,24.3-14.6,31.6a24.35,24.35,0,0,0,8.3,10.7l-10,18.7,6.6,4.1-4.9,7.3,9.2,5.8-1.9,7.8,16,.5s15.1,0,23.8-8.3,20-19,21.9-20.9,11.7-4.4,11.7-4.4c14.4-.1,24.6,6.1,33,15.1l10.7-5.8-3.9-7.8,9.7-2.4-24.8-22.8s5.8-14.2,0-22.4l-10.7-17c-16.1,16.6-24.1,27.6-25.8,34.5A15.36,15.36,0,0,0,2168.37,675.94Z" transform="translate(0.74 -134.89)"/><g id="Layer_7-18" data-name="Layer 7"><circle class="cls-4" cx="2191.81" cy="583.86" r="8.7"/><circle class="cls-5" cx="2189.41" cy="581.36" r="4.6"/><circle class="cls-5" cx="2196.01" cy="587.96" r="1.9"/><circle class="cls-4" cx="2136.61" cy="582.56" r="7.4"/><circle class="cls-5" cx="2134.51" cy="580.46" r="3.9"/><circle class="cls-5" cx="2140.11" cy="586.06" r="1.7"/><path d="M2123.27,736.44s3.3,4.2,6.3,5.3c1.2.5,8.3-3.5,8.3-5.3Z" transform="translate(0.74 -134.89)"/><polygon class="cls-2" points="2153.01 557.56 2156.41 566.86 2166.11 557.06 2161.71 546.46 2153.01 557.56"/><polygon class="cls-6" points="2183.71 564.16 2191.21 558.16 2185.41 548.26 2178.31 556.16 2183.71 564.16"/><polygon class="cls-6" points="2138.91 563.36 2145.11 558.46 2140.41 550.26 2134.51 556.76 2138.91 563.36"/><path d="M2151.47,711.64c-4.9,15.9-23.6,25.9-27.7,24.8C2139.27,737.94,2149.57,720.94,2151.47,711.64Z" transform="translate(0.74 -134.89)"/></g></g><g id="Layer_12-18" data-name="Layer 12"><path class="cls-3" d="M2354.77,813.54c0,7.8,4.8,16.5,9.2,19.9s13.6,6.8,22.4,6.8,18,0,24.8-2.9,28.7-11.7,28.7-11.7-1.4,0-12.5-5.8-21.4-18-21.4-18l-14.1-6.3,1.9,6.3-17-6.8v6.8l-20.9-3.9C2355.27,803,2354.87,808.24,2354.77,813.54Z" transform="translate(0.74 -134.89)"/></g><g id="Layer_9-18" data-name="Layer 9"><path class="cls-2" d="M2205.27,804.74l5.8,47.6s2.9,13.6,12.1,0,13.1-50.5,13.1-50.5" transform="translate(0.74 -134.89)"/><path class="cls-2" d="M2288.57,803.24c0-4.4,10,10.3,13.4,21.3a209.52,209.52,0,0,1,5.9,24.6s2.9,14.4,12.2,0,13.2-53.4,13.2-53.4" transform="translate(0.74 -134.89)"/></g></g></g></svg>
