<svg xmlns="http://www.w3.org/2000/svg" width="2450" height="500" viewBox="0 0 2450 500"><defs><style>.cls-1{fill:#3a221a;}.cls-1,.cls-5{stroke:#3a221a;}.cls-1,.cls-2,.cls-3,.cls-4,.cls-5,.cls-6{stroke-miterlimit:10;}.cls-2{fill:#5b3829;stroke:#5b3829;}.cls-3{stroke:#000;}.cls-4{fill:#ffff03;stroke:#ffff03;}.cls-5{fill:none;}.cls-6{fill:#fff;stroke:#fff;}</style></defs><title>rip_bear</title><g id="_1" data-name="1"><g id="Layer_23" data-name="Layer 23"><g id="legs-behind"><path class="cls-1" d="M244.2,289.8s10.8,25.4,5.2,29.5-17.7,3.1-17.7,7.3-2.1,2.8,2.8,6.3,25,2.1,29.9,0,13.4-40.2,13.2-40.3"/><path class="cls-1" d="M118.4,269.2c7.5,3.1.7,38.2-5.6,41.7S94,313,94,322c0,6.3,26.1,5.6,31.3,3.1s4.9-15.6,10.4-21.2,9.7-18.8,9.7-18.8"/><path class="cls-1" d="M329,235.2s9,2.8,11.1,5.6,1.4,4.9,0,8.3-11.1,7.6-11.1,7.6"/><path class="cls-1" d="M44.1,210.2s-2.1-2.8,0-7.6,9.4-.3,9.1-.6c3.1,1.5,1.3,5.5,1.3,5.5Z"/></g></g><g id="Layer_22" data-name="Layer 22"><g id="legs-behind-2" data-name="legs-behind"><path class="cls-1" d="M244.2,289.8s10.8,25.4,5.2,29.5-17.7,3.1-17.7,7.3-2.1,2.8,2.8,6.3,25,2.1,29.9,0,13.4-40.2,13.2-40.3"/><path class="cls-1" d="M118.4,269.2c7.5,3.1.7,38.2-5.6,41.7S94,313,94,322c0,6.3,26.1,5.6,31.3,3.1s4.9-15.6,10.4-21.2,9.7-18.8,9.7-18.8"/><path class="cls-1" d="M329,235.2s9,2.8,11.1,5.6,1.4,4.9,0,8.3-11.1,7.6-11.1,7.6"/><path class="cls-1" d="M44.1,210.2s-2.1-2.8,0-7.6,9.4-.3,9.1-.6c3.1,1.5,1.3,5.5,1.3,5.5Z"/></g><g id="body"><path class="cls-2" d="M13.5,251.9c-5.6-1.4-5.2-14.9-.3-19.1,3.8-2.4,10.8-2.4,15.3-6.3s4.9-8.7,7.3-11.5,8.3-7.6,14-8.3c6.7-1.6,24.1-4.9,28.8-6.7,9-3.5,17.6-9.4,31.6-12.9,0,0,31.7-11.5,32-11.5,5.3-2.2,19.4-3.1,35.4-3.1s25.7,1.4,36.1,6.9,19.5,11.1,28.5,19.5,16.7,13.2,27.8,12.5,18.1-2.8,33.3,4.2,19.5,6.3,27.8,22.2,9.7,61.8-2.8,68.1c-11,3.2-44.7-17.7-76.8-15.3-27.5,4.7-55-5.2-67.9-5.8s-31.1,17.8-48,1.9c-5-3.5-25.5-27.9-34.4-26.7-9-.7-16.7,0-29.2,2.1-6.4,1-17,4-29.7,3.7-12.2-.3-20.7,2.9-24.2.8s-5.2-6.6-2.4-8.7,18.8,2.8,22.2-3.5S19.1,253.2,13.5,251.9Z"/></g></g><g id="Layer_21" data-name="Layer 21"><g id="legs-behind-3" data-name="legs-behind"><path class="cls-1" d="M244.2,289.8s10.8,25.4,5.2,29.5-17.7,3.1-17.7,7.3-2.1,2.8,2.8,6.3,25,2.1,29.9,0,13.4-40.2,13.2-40.3"/><path class="cls-1" d="M118.4,269.2c7.5,3.1.7,38.2-5.6,41.7S94,313,94,322c0,6.3,26.1,5.6,31.3,3.1s4.9-15.6,10.4-21.2,9.7-18.8,9.7-18.8"/><path class="cls-1" d="M329,235.2s9,2.8,11.1,5.6,1.4,4.9,0,8.3-11.1,7.6-11.1,7.6"/><path class="cls-1" d="M44.1,210.2s-2.1-2.8,0-7.6,9.4-.3,9.1-.6c3.1,1.5,1.3,5.5,1.3,5.5Z"/></g><g id="body-2" data-name="body"><path class="cls-2" d="M13.5,251.9c-5.6-1.4-5.2-14.9-.3-19.1,3.8-2.4,10.8-2.4,15.3-6.3s4.9-8.7,7.3-11.5,8.3-7.6,14-8.3c6.7-1.6,24.1-4.9,28.8-6.7,9-3.5,17.6-9.4,31.6-12.9,0,0,31.7-11.5,32-11.5,5.3-2.2,19.4-3.1,35.4-3.1s25.7,1.4,36.1,6.9,19.5,11.1,28.5,19.5,16.7,13.2,27.8,12.5,18.1-2.8,33.3,4.2,19.5,6.3,27.8,22.2,9.7,61.8-2.8,68.1c-11,3.2-44.7-17.7-76.8-15.3-27.5,4.7-55-5.2-67.9-5.8s-31.1,17.8-48,1.9c-5-3.5-25.5-27.9-34.4-26.7-9-.7-16.7,0-29.2,2.1-6.4,1-17,4-29.7,3.7-12.2-.3-20.7,2.9-24.2.8s-5.2-6.6-2.4-8.7,18.8,2.8,22.2-3.5S19.1,253.2,13.5,251.9Z"/></g><g id="details"><path class="cls-3" d="M10.1,237.3s-2.8-6.3.7-6.3h6.9C16.3,233.1,13.7,235.2,10.1,237.3Z"/><path class="cls-1" d="M59.7,213.2s-1.7-7.2-.3-10,8.9-1.5,10.4,1.4-.7,9.7-.7,9.7a18.54,18.54,0,0,1-1.7-4.5c-.7-2.8-3.8-5.2-5.9-1C60.4,211.6,59.7,213.2,59.7,213.2Z"/></g></g><g id="Layer_20" data-name="Layer 20"><g id="legs-behind-4" data-name="legs-behind"><path class="cls-1" d="M244.2,289.8s10.8,25.4,5.2,29.5-17.7,3.1-17.7,7.3-2.1,2.8,2.8,6.3,25,2.1,29.9,0,13.4-40.2,13.2-40.3"/><path class="cls-1" d="M118.4,269.2c7.5,3.1.7,38.2-5.6,41.7S94,313,94,322c0,6.3,26.1,5.6,31.3,3.1s4.9-15.6,10.4-21.2,9.7-18.8,9.7-18.8"/><path class="cls-1" d="M329,235.2s9,2.8,11.1,5.6,1.4,4.9,0,8.3-11.1,7.6-11.1,7.6"/><path class="cls-1" d="M44.1,210.2s-2.1-2.8,0-7.6,9.4-.3,9.1-.6c3.1,1.5,1.3,5.5,1.3,5.5Z"/></g><g id="body-3" data-name="body"><path class="cls-2" d="M13.5,251.9c-5.6-1.4-5.2-14.9-.3-19.1,3.8-2.4,10.8-2.4,15.3-6.3s4.9-8.7,7.3-11.5,8.3-7.6,14-8.3c6.7-1.6,24.1-4.9,28.8-6.7,9-3.5,17.6-9.4,31.6-12.9,0,0,31.7-11.5,32-11.5,5.3-2.2,19.4-3.1,35.4-3.1s25.7,1.4,36.1,6.9,19.5,11.1,28.5,19.5,16.7,13.2,27.8,12.5,18.1-2.8,33.3,4.2,19.5,6.3,27.8,22.2,9.7,61.8-2.8,68.1c-11,3.2-44.7-17.7-76.8-15.3-27.5,4.7-55-5.2-67.9-5.8s-31.1,17.8-48,1.9c-5-3.5-25.5-27.9-34.4-26.7-9-.7-16.7,0-29.2,2.1-6.4,1-17,4-29.7,3.7-12.2-.3-20.7,2.9-24.2.8s-5.2-6.6-2.4-8.7,18.8,2.8,22.2-3.5S19.1,253.2,13.5,251.9Z"/></g><g id="details-2" data-name="details"><path class="cls-3" d="M10.1,237.3s-2.8-6.3.7-6.3h6.9C16.3,233.1,13.7,235.2,10.1,237.3Z"/><path class="cls-1" d="M59.7,213.2s-1.7-7.2-.3-10,8.9-1.5,10.4,1.4-.7,9.7-.7,9.7a18.54,18.54,0,0,1-1.7-4.5c-.7-2.8-3.8-5.2-5.9-1C60.4,211.6,59.7,213.2,59.7,213.2Z"/></g></g><g id="Layer_19" data-name="Layer 19"><g id="legs-behind-5" data-name="legs-behind"><path class="cls-1" d="M244.2,289.8s10.8,25.4,5.2,29.5-17.7,3.1-17.7,7.3-2.1,2.8,2.8,6.3,25,2.1,29.9,0,13.4-40.2,13.2-40.3"/><path class="cls-1" d="M118.4,269.2c7.5,3.1.7,38.2-5.6,41.7S94,313,94,322c0,6.3,26.1,5.6,31.3,3.1s4.9-15.6,10.4-21.2,9.7-18.8,9.7-18.8"/><path class="cls-1" d="M329,235.2s9,2.8,11.1,5.6,1.4,4.9,0,8.3-11.1,7.6-11.1,7.6"/><path class="cls-1" d="M44.1,210.2s-2.1-2.8,0-7.6,9.4-.3,9.1-.6c3.1,1.5,1.3,5.5,1.3,5.5Z"/></g><g id="body-4" data-name="body"><path class="cls-2" d="M13.5,251.9c-5.6-1.4-5.2-14.9-.3-19.1,3.8-2.4,10.8-2.4,15.3-6.3s4.9-8.7,7.3-11.5,8.3-7.6,14-8.3c6.7-1.6,24.1-4.9,28.8-6.7,9-3.5,17.6-9.4,31.6-12.9,0,0,31.7-11.5,32-11.5,5.3-2.2,19.4-3.1,35.4-3.1s25.7,1.4,36.1,6.9,19.5,11.1,28.5,19.5,16.7,13.2,27.8,12.5,18.1-2.8,33.3,4.2,19.5,6.3,27.8,22.2,9.7,61.8-2.8,68.1c-11,3.2-44.7-17.7-76.8-15.3-27.5,4.7-55-5.2-67.9-5.8s-31.1,17.8-48,1.9c-5-3.5-25.5-27.9-34.4-26.7-9-.7-16.7,0-29.2,2.1-6.4,1-17,4-29.7,3.7-12.2-.3-20.7,2.9-24.2.8s-5.2-6.6-2.4-8.7,18.8,2.8,22.2-3.5S19.1,253.2,13.5,251.9Z"/></g><g id="details-3" data-name="details"><path class="cls-3" d="M10.1,237.3s-2.8-6.3.7-6.3h6.9C16.3,233.1,13.7,235.2,10.1,237.3Z"/><path class="cls-1" d="M59.7,213.2s-1.7-7.2-.3-10,8.9-1.5,10.4,1.4-.7,9.7-.7,9.7a18.54,18.54,0,0,1-1.7-4.5c-.7-2.8-3.8-5.2-5.9-1C60.4,211.6,59.7,213.2,59.7,213.2Z"/></g><g id="legs"><path class="cls-2" d="M143.5,281c3,15.2,8.6,26,11.1,33.3,2.2,6.6-12.5,6.9-16.7,10.4s-4.2,9,0,9.7,28.5,1.4,31.3-2.1,13.2-47.9,13.2-47.9"/><path class="cls-2" d="M234.1,284.4c-7.5-5.4,18.7,4.8,29.8,10.4,6.9,2.6,18.2,4.3,25.7,6.3s10.9,16.2,7.5,18.3c-3.3,2.5-5.4,2.1-12.5,6.3-5.6,3.5-7.6,11.8,0,11.8s32.7,2.4,34.7-2.8c2.4-6,18.8-38.9,15.3-38.9"/></g></g><g id="Layer_18" data-name="Layer 18"><g id="legs-behind-6" data-name="legs-behind"><path class="cls-1" d="M244.2,289.8s10.8,25.4,5.2,29.5-17.7,3.1-17.7,7.3-2.1,2.8,2.8,6.3,25,2.1,29.9,0,13.4-40.2,13.2-40.3"/><path class="cls-1" d="M118.4,269.2c7.5,3.1.7,38.2-5.6,41.7S94,313,94,322c0,6.3,26.1,5.6,31.3,3.1s4.9-15.6,10.4-21.2,9.7-18.8,9.7-18.8"/><path class="cls-1" d="M329,235.2s9,2.8,11.1,5.6,1.4,4.9,0,8.3-11.1,7.6-11.1,7.6"/><path class="cls-1" d="M44.1,210.2s-2.1-2.8,0-7.6,9.4-.3,9.1-.6c3.1,1.5,1.3,5.5,1.3,5.5Z"/></g><g id="body-5" data-name="body"><path class="cls-2" d="M13.5,251.9c-5.6-1.4-5.2-14.9-.3-19.1,3.8-2.4,10.8-2.4,15.3-6.3s4.9-8.7,7.3-11.5,8.3-7.6,14-8.3c6.7-1.6,24.1-4.9,28.8-6.7,9-3.5,17.6-9.4,31.6-12.9,0,0,31.7-11.5,32-11.5,5.3-2.2,19.4-3.1,35.4-3.1s25.7,1.4,36.1,6.9,19.5,11.1,28.5,19.5,16.7,13.2,27.8,12.5,18.1-2.8,33.3,4.2,19.5,6.3,27.8,22.2,9.7,61.8-2.8,68.1c-11,3.2-44.7-17.7-76.8-15.3-27.5,4.7-55-5.2-67.9-5.8s-31.1,17.8-48,1.9c-5-3.5-25.5-27.9-34.4-26.7-9-.7-16.7,0-29.2,2.1-6.4,1-17,4-29.7,3.7-12.2-.3-20.7,2.9-24.2.8s-5.2-6.6-2.4-8.7,18.8,2.8,22.2-3.5S19.1,253.2,13.5,251.9Z"/></g><g id="details-4" data-name="details"><path class="cls-3" d="M10.1,237.3s-2.8-6.3.7-6.3h6.9C16.3,233.1,13.7,235.2,10.1,237.3Z"/><path class="cls-1" d="M59.7,213.2s-1.7-7.2-.3-10,8.9-1.5,10.4,1.4-.7,9.7-.7,9.7a18.54,18.54,0,0,1-1.7-4.5c-.7-2.8-3.8-5.2-5.9-1C60.4,211.6,59.7,213.2,59.7,213.2Z"/></g><g id="legs-2" data-name="legs"><path class="cls-2" d="M143.5,281c3,15.2,8.6,26,11.1,33.3,2.2,6.6-12.5,6.9-16.7,10.4s-4.2,9,0,9.7,28.5,1.4,31.3-2.1,13.2-47.9,13.2-47.9"/><path class="cls-2" d="M234.1,284.4c-7.5-5.4,18.7,4.8,29.8,10.4,6.9,2.6,18.2,4.3,25.7,6.3s10.9,16.2,7.5,18.3c-3.3,2.5-5.4,2.1-12.5,6.3-5.6,3.5-7.6,11.8,0,11.8s32.7,2.4,34.7-2.8c2.4-6,18.8-38.9,15.3-38.9"/></g><circle class="cls-4" cx="44.4" cy="224.2" r="3.7"/></g><g id="Layer_17" data-name="Layer 17"><g id="legs-behind-7" data-name="legs-behind"><path class="cls-1" d="M244.2,289.8s10.8,25.4,5.2,29.5-17.7,3.1-17.7,7.3-2.1,2.8,2.8,6.3,25,2.1,29.9,0,13.4-40.2,13.2-40.3"/><path class="cls-1" d="M118.4,269.2c7.5,3.1.7,38.2-5.6,41.7S94,313,94,322c0,6.3,26.1,5.6,31.3,3.1s4.9-15.6,10.4-21.2,9.7-18.8,9.7-18.8"/><path class="cls-1" d="M329,235.2s9,2.8,11.1,5.6,1.4,4.9,0,8.3-11.1,7.6-11.1,7.6"/><path class="cls-1" d="M44.1,210.2s-2.1-2.8,0-7.6,9.4-.3,9.1-.6c3.1,1.5,1.3,5.5,1.3,5.5Z"/></g><g id="body-6" data-name="body"><path class="cls-2" d="M13.5,251.9c-5.6-1.4-5.2-14.9-.3-19.1,3.8-2.4,10.8-2.4,15.3-6.3s4.9-8.7,7.3-11.5,8.3-7.6,14-8.3c6.7-1.6,24.1-4.9,28.8-6.7,9-3.5,17.6-9.4,31.6-12.9,0,0,31.7-11.5,32-11.5,5.3-2.2,19.4-3.1,35.4-3.1s25.7,1.4,36.1,6.9,19.5,11.1,28.5,19.5,16.7,13.2,27.8,12.5,18.1-2.8,33.3,4.2,19.5,6.3,27.8,22.2,9.7,61.8-2.8,68.1c-11,3.2-44.7-17.7-76.8-15.3-27.5,4.7-55-5.2-67.9-5.8s-31.1,17.8-48,1.9c-5-3.5-25.5-27.9-34.4-26.7-9-.7-16.7,0-29.2,2.1-6.4,1-17,4-29.7,3.7-12.2-.3-20.7,2.9-24.2.8s-5.2-6.6-2.4-8.7,18.8,2.8,22.2-3.5S19.1,253.2,13.5,251.9Z"/></g><g id="details-5" data-name="details"><path class="cls-3" d="M10.1,237.3s-2.8-6.3.7-6.3h6.9C16.3,233.1,13.7,235.2,10.1,237.3Z"/><path class="cls-1" d="M59.7,213.2s-1.7-7.2-.3-10,8.9-1.5,10.4,1.4-.7,9.7-.7,9.7a18.54,18.54,0,0,1-1.7-4.5c-.7-2.8-3.8-5.2-5.9-1C60.4,211.6,59.7,213.2,59.7,213.2Z"/></g><g id="legs-3" data-name="legs"><path class="cls-2" d="M143.5,281c3,15.2,8.6,26,11.1,33.3,2.2,6.6-12.5,6.9-16.7,10.4s-4.2,9,0,9.7,28.5,1.4,31.3-2.1,13.2-47.9,13.2-47.9"/><path class="cls-2" d="M234.1,284.4c-7.5-5.4,18.7,4.8,29.8,10.4,6.9,2.6,18.2,4.3,25.7,6.3s10.9,16.2,7.5,18.3c-3.3,2.5-5.4,2.1-12.5,6.3-5.6,3.5-7.6,11.8,0,11.8s32.7,2.4,34.7-2.8c2.4-6,18.8-38.9,15.3-38.9"/></g><circle class="cls-4" cx="44.4" cy="224.2" r="3.7"/><circle class="cls-5" cx="44.3" cy="224" r="4"/></g><g id="Layer_16" data-name="Layer 16"><g id="legs-behind-8" data-name="legs-behind"><path class="cls-1" d="M244.2,289.8s10.8,25.4,5.2,29.5-17.7,3.1-17.7,7.3-2.1,2.8,2.8,6.3,25,2.1,29.9,0,13.4-40.2,13.2-40.3"/><path class="cls-1" d="M118.4,269.2c7.5,3.1.7,38.2-5.6,41.7S94,313,94,322c0,6.3,26.1,5.6,31.3,3.1s4.9-15.6,10.4-21.2,9.7-18.8,9.7-18.8"/><path class="cls-1" d="M329,235.2s9,2.8,11.1,5.6,1.4,4.9,0,8.3-11.1,7.6-11.1,7.6"/><path class="cls-1" d="M44.1,210.2s-2.1-2.8,0-7.6,9.4-.3,9.1-.6c3.1,1.5,1.3,5.5,1.3,5.5Z"/></g><g id="body-7" data-name="body"><path class="cls-2" d="M13.5,251.9c-5.6-1.4-5.2-14.9-.3-19.1,3.8-2.4,10.8-2.4,15.3-6.3s4.9-8.7,7.3-11.5,8.3-7.6,14-8.3c6.7-1.6,24.1-4.9,28.8-6.7,9-3.5,17.6-9.4,31.6-12.9,0,0,31.7-11.5,32-11.5,5.3-2.2,19.4-3.1,35.4-3.1s25.7,1.4,36.1,6.9,19.5,11.1,28.5,19.5,16.7,13.2,27.8,12.5,18.1-2.8,33.3,4.2,19.5,6.3,27.8,22.2,9.7,61.8-2.8,68.1c-11,3.2-44.7-17.7-76.8-15.3-27.5,4.7-55-5.2-67.9-5.8s-31.1,17.8-48,1.9c-5-3.5-25.5-27.9-34.4-26.7-9-.7-16.7,0-29.2,2.1-6.4,1-17,4-29.7,3.7-12.2-.3-20.7,2.9-24.2.8s-5.2-6.6-2.4-8.7,18.8,2.8,22.2-3.5S19.1,253.2,13.5,251.9Z"/></g><g id="details-6" data-name="details"><path class="cls-3" d="M10.1,237.3s-2.8-6.3.7-6.3h6.9C16.3,233.1,13.7,235.2,10.1,237.3Z"/><path class="cls-1" d="M59.7,213.2s-1.7-7.2-.3-10,8.9-1.5,10.4,1.4-.7,9.7-.7,9.7a18.54,18.54,0,0,1-1.7-4.5c-.7-2.8-3.8-5.2-5.9-1C60.4,211.6,59.7,213.2,59.7,213.2Z"/></g><g id="legs-4" data-name="legs"><path class="cls-2" d="M143.5,281c3,15.2,8.6,26,11.1,33.3,2.2,6.6-12.5,6.9-16.7,10.4s-4.2,9,0,9.7,28.5,1.4,31.3-2.1,13.2-47.9,13.2-47.9"/><path class="cls-2" d="M234.1,284.4c-7.5-5.4,18.7,4.8,29.8,10.4,6.9,2.6,18.2,4.3,25.7,6.3s10.9,16.2,7.5,18.3c-3.3,2.5-5.4,2.1-12.5,6.3-5.6,3.5-7.6,11.8,0,11.8s32.7,2.4,34.7-2.8c2.4-6,18.8-38.9,15.3-38.9"/></g><circle class="cls-4" cx="44.4" cy="224.2" r="3.7"/><circle class="cls-5" cx="44.3" cy="224" r="4"/><circle class="cls-6" cx="42.3" cy="223.2" r="0.6"/></g><g id="Layer_15" data-name="Layer 15"><g id="legs-behind-9" data-name="legs-behind"><path class="cls-1" d="M244.2,289.8s10.8,25.4,5.2,29.5-17.7,3.1-17.7,7.3-2.1,2.8,2.8,6.3,25,2.1,29.9,0,13.4-40.2,13.2-40.3"/><path class="cls-1" d="M118.4,269.2c7.5,3.1.7,38.2-5.6,41.7S94,313,94,322c0,6.3,26.1,5.6,31.3,3.1s4.9-15.6,10.4-21.2,9.7-18.8,9.7-18.8"/><path class="cls-1" d="M329,235.2s9,2.8,11.1,5.6,1.4,4.9,0,8.3-11.1,7.6-11.1,7.6"/><path class="cls-1" d="M44.1,210.2s-2.1-2.8,0-7.6,9.4-.3,9.1-.6c3.1,1.5,1.3,5.5,1.3,5.5Z"/></g><g id="body-8" data-name="body"><path class="cls-2" d="M13.5,251.9c-5.6-1.4-5.2-14.9-.3-19.1,3.8-2.4,10.8-2.4,15.3-6.3s4.9-8.7,7.3-11.5,8.3-7.6,14-8.3c6.7-1.6,24.1-4.9,28.8-6.7,9-3.5,17.6-9.4,31.6-12.9,0,0,31.7-11.5,32-11.5,5.3-2.2,19.4-3.1,35.4-3.1s25.7,1.4,36.1,6.9,19.5,11.1,28.5,19.5,16.7,13.2,27.8,12.5,18.1-2.8,33.3,4.2,19.5,6.3,27.8,22.2,9.7,61.8-2.8,68.1c-11,3.2-44.7-17.7-76.8-15.3-27.5,4.7-55-5.2-67.9-5.8s-31.1,17.8-48,1.9c-5-3.5-25.5-27.9-34.4-26.7-9-.7-16.7,0-29.2,2.1-6.4,1-17,4-29.7,3.7-12.2-.3-20.7,2.9-24.2.8s-5.2-6.6-2.4-8.7,18.8,2.8,22.2-3.5S19.1,253.2,13.5,251.9Z"/></g><g id="details-7" data-name="details"><path class="cls-3" d="M10.1,237.3s-2.8-6.3.7-6.3h6.9C16.3,233.1,13.7,235.2,10.1,237.3Z"/><path class="cls-1" d="M59.7,213.2s-1.7-7.2-.3-10,8.9-1.5,10.4,1.4-.7,9.7-.7,9.7a18.54,18.54,0,0,1-1.7-4.5c-.7-2.8-3.8-5.2-5.9-1C60.4,211.6,59.7,213.2,59.7,213.2Z"/></g><g id="legs-5" data-name="legs"><path class="cls-2" d="M143.5,281c3,15.2,8.6,26,11.1,33.3,2.2,6.6-12.5,6.9-16.7,10.4s-4.2,9,0,9.7,28.5,1.4,31.3-2.1,13.2-47.9,13.2-47.9"/><path class="cls-2" d="M234.1,284.4c-7.5-5.4,18.7,4.8,29.8,10.4,6.9,2.6,18.2,4.3,25.7,6.3s10.9,16.2,7.5,18.3c-3.3,2.5-5.4,2.1-12.5,6.3-5.6,3.5-7.6,11.8,0,11.8s32.7,2.4,34.7-2.8c2.4-6,18.8-38.9,15.3-38.9"/></g><circle class="cls-4" cx="44.4" cy="224.2" r="3.7"/><circle class="cls-5" cx="44.3" cy="224" r="4"/><circle class="cls-6" cx="42.3" cy="223.2" r="0.6"/><circle class="cls-6" cx="45.3" cy="225.2" r="1.6"/></g></g><g id="_2" data-name="2"><g id="Layer_23_copy" data-name="Layer 23 copy"><g id="legs-behind-10" data-name="legs-behind"><path class="cls-1" d="M680,235.2s9,2.8,11.1,5.6,1.4,4.9,0,8.3-11.1,7.6-11.1,7.6"/><path class="cls-1" d="M395.1,210.2s-2.1-2.8,0-7.6,9.4-.3,9.1-.6c3.1,1.5,1.3,5.5,1.3,5.5Z"/></g></g><g id="Layer_22_copy" data-name="Layer 22 copy"><g id="body-9" data-name="body"><path class="cls-2" d="M364.5,251.9c-5.6-1.4-5.2-14.9-.3-19.1,3.8-2.4,10.8-2.4,15.3-6.3s4.9-8.7,7.3-11.5,8.3-7.6,14-8.3c6.7-1.6,24.1-4.9,28.8-6.7,9-3.5,17.6-9.4,31.6-12.9,0,0,31.7-11.5,32-11.5,5.3-2.2,19.4-3.1,35.4-3.1s25.7,1.4,36.1,6.9,19.5,11.1,28.5,19.5,16.7,13.2,27.8,12.5,18.1-2.8,33.3,4.2,19.5,6.3,27.8,22.2,9.7,61.8-2.8,68.1c-11,3.2-44.7-17.7-76.8-15.3-27.5,4.7-55-5.2-67.9-5.8s-31.1,17.8-48,1.9c-5-3.5-25.5-27.9-34.4-26.7-9-.7-16.7,0-29.2,2.1-6.4,1-17,4-29.7,3.7-12.2-.3-20.7,2.9-24.2.8s-5.2-6.6-2.4-8.7,18.8,2.8,22.2-3.5S370.1,253.2,364.5,251.9Z"/></g></g><g id="Layer_21_copy" data-name="Layer 21 copy"><g id="body-10" data-name="body"><path class="cls-2" d="M364.5,251.9c-5.6-1.4-5.2-14.9-.3-19.1,3.8-2.4,10.8-2.4,15.3-6.3s4.9-8.7,7.3-11.5,8.3-7.6,14-8.3c6.7-1.6,24.1-4.9,28.8-6.7,9-3.5,17.6-9.4,31.6-12.9,0,0,31.7-11.5,32-11.5,5.3-2.2,19.4-3.1,35.4-3.1s25.7,1.4,36.1,6.9,19.5,11.1,28.5,19.5,16.7,13.2,27.8,12.5,18.1-2.8,33.3,4.2,19.5,6.3,27.8,22.2,9.7,61.8-2.8,68.1c-11,3.2-44.7-17.7-76.8-15.3-27.5,4.7-55-5.2-67.9-5.8s-31.1,17.8-48,1.9c-5-3.5-25.5-27.9-34.4-26.7-9-.7-16.7,0-29.2,2.1-6.4,1-17,4-29.7,3.7-12.2-.3-20.7,2.9-24.2.8s-5.2-6.6-2.4-8.7,18.8,2.8,22.2-3.5S370.1,253.2,364.5,251.9Z"/></g><g id="details-8" data-name="details"><path class="cls-3" d="M361.1,237.3s-2.8-6.3.7-6.3h6.9C367.3,233.1,364.7,235.2,361.1,237.3Z"/><path class="cls-1" d="M410.7,213.2s-1.7-7.2-.3-10,8.9-1.5,10.4,1.4-.7,9.7-.7,9.7a18.54,18.54,0,0,1-1.7-4.5c-.7-2.8-3.8-5.2-5.9-1C411.4,211.6,410.7,213.2,410.7,213.2Z"/></g></g><g id="Layer_15_copy" data-name="Layer 15 copy"><g id="legs-behind-11" data-name="legs-behind"><path class="cls-1" d="M600,286.69c6.87,5.08,19,19.17,18.84,27.09s-13.35,6-12.88,11.64-2.77,5,4.48,5.8,22.77,5.95,29-5.13-4-35.77-7.37-48.19"/><path class="cls-1" d="M467.1,271c8.17,4.15,12.3,31.72,7.93,38.14s-18.08,5.55-14.17,15.25c2.74,6.78,24.91.43,29.74-4.39s1-14.8,3.4-21.27a59.79,59.79,0,0,0,3.61-20.85"/><path class="cls-1" d="M680,235.2s9,2.8,11.1,5.6,1.4,4.9,0,8.3-11.1,7.6-11.1,7.6"/><path class="cls-1" d="M395.1,210.2s-2.1-2.8,0-7.6,9.4-.3,9.1-.6c3.1,1.5,1.3,5.5,1.3,5.5Z"/></g><g id="body-11" data-name="body"><path class="cls-2" d="M364.5,251.9c-5.6-1.4-5.2-14.9-.3-19.1,3.8-2.4,10.8-2.4,15.3-6.3s4.9-8.7,7.3-11.5,8.3-7.6,14-8.3c6.7-1.6,24.1-4.9,28.8-6.7,9-3.5,17.6-9.4,31.6-12.9,0,0,31.7-11.5,32-11.5,5.3-2.2,19.4-3.1,35.4-3.1s25.7,1.4,36.1,6.9,19.5,11.1,28.5,19.5,16.7,13.2,27.8,12.5,18.1-2.8,33.3,4.2,19.5,6.3,27.8,22.2,9.7,61.8-2.8,68.1c-11,3.2-44.7-17.7-76.8-15.3-27.5,4.7-55-5.2-67.9-5.8s-31.1,17.8-48,1.9c-5-3.5-25.5-27.9-34.4-26.7-9-.7-16.7,0-29.2,2.1-6.4,1-17,4-29.7,3.7-12.2-.3-20.7,2.9-24.2.8s-5.2-6.6-2.4-8.7,18.8,2.8,22.2-3.5S370.1,253.2,364.5,251.9Z"/></g><g id="details-9" data-name="details"><path class="cls-3" d="M361.1,237.3s-2.8-6.3.7-6.3h6.9C367.3,233.1,364.7,235.2,361.1,237.3Z"/><path class="cls-1" d="M410.7,213.2s-1.7-7.2-.3-10,8.9-1.5,10.4,1.4-.7,9.7-.7,9.7a18.54,18.54,0,0,1-1.7-4.5c-.7-2.8-3.8-5.2-5.9-1C411.4,211.6,410.7,213.2,410.7,213.2Z"/></g><g id="legs-6" data-name="legs"><path class="cls-2" d="M495.15,287.07c7.06,10.08,2.31,21.95,8.59,29.39,5.65,6.7,18.17,8.05,24.49,8.45s8.79-3,5.7-7.51-18.17-5.74-12.4-9.53,9.08-26.19,3.51-35.05"/><path class="cls-2" d="M585,291.75c-4.4-3.52,27.39,4.37,30.78,5.28,8.05,1.51,18.29,1.1,25.92,1.86s11.22,9.74,7.48,14.38c-3.88,4.8-7.59,4.51-11.26,9.06-2.93,3.64-5.58,12.14,3.24,10.85s30.17-2.65,35-11.27c5.61-10,12-26.13,5.65-36.2"/></g><circle class="cls-4" cx="395.4" cy="224.2" r="3.7"/><circle class="cls-5" cx="395.3" cy="224" r="4"/><circle class="cls-6" cx="393.3" cy="223.2" r="0.6"/><circle class="cls-6" cx="396.3" cy="225.2" r="1.6"/></g></g><g id="_3" data-name="3"><g id="Layer_23_copy_2" data-name="Layer 23 copy 2"><g id="legs-behind-12" data-name="legs-behind"><path class="cls-1" d="M1029.75,235.2s9,2.8,11.1,5.6,1.4,4.9,0,8.3-11.1,7.6-11.1,7.6"/><path class="cls-1" d="M744.85,210.2s-2.1-2.8,0-7.6,9.4-.3,9.1-.6c3.1,1.5,1.3,5.5,1.3,5.5Z"/></g></g><g id="Layer_22_copy_2" data-name="Layer 22 copy 2"><g id="body-12" data-name="body"><path class="cls-2" d="M714.25,251.9c-5.6-1.4-5.2-14.9-.3-19.1,3.8-2.4,10.8-2.4,15.3-6.3s4.9-8.7,7.3-11.5,8.3-7.6,14-8.3c6.7-1.6,24.1-4.9,28.8-6.7,9-3.5,17.6-9.4,31.6-12.9,0,0,31.7-11.5,32-11.5,5.3-2.2,19.4-3.1,35.4-3.1s25.7,1.4,36.1,6.9S934,190.5,943,198.9s16.7,13.2,27.8,12.5,18.1-2.8,33.3,4.2,19.5,6.3,27.8,22.2,9.7,61.8-2.8,68.1c-11,3.2-44.7-17.7-76.8-15.3-27.5,4.7-55-5.2-67.9-5.8s-31.1,17.8-48,1.9c-5-3.5-25.5-27.9-34.4-26.7-9-.7-16.7,0-29.2,2.1-6.4,1-17,4-29.7,3.7-12.2-.3-20.7,2.9-24.2.8s-5.2-6.6-2.4-8.7,18.8,2.8,22.2-3.5S719.85,253.2,714.25,251.9Z"/></g></g><g id="Layer_21_copy_2" data-name="Layer 21 copy 2"><g id="body-13" data-name="body"><path class="cls-2" d="M714.25,251.9c-5.6-1.4-5.2-14.9-.3-19.1,3.8-2.4,10.8-2.4,15.3-6.3s4.9-8.7,7.3-11.5,8.3-7.6,14-8.3c6.7-1.6,24.1-4.9,28.8-6.7,9-3.5,17.6-9.4,31.6-12.9,0,0,31.7-11.5,32-11.5,5.3-2.2,19.4-3.1,35.4-3.1s25.7,1.4,36.1,6.9S934,190.5,943,198.9s16.7,13.2,27.8,12.5,18.1-2.8,33.3,4.2,19.5,6.3,27.8,22.2,9.7,61.8-2.8,68.1c-11,3.2-44.7-17.7-76.8-15.3-27.5,4.7-55-5.2-67.9-5.8s-31.1,17.8-48,1.9c-5-3.5-25.5-27.9-34.4-26.7-9-.7-16.7,0-29.2,2.1-6.4,1-17,4-29.7,3.7-12.2-.3-20.7,2.9-24.2.8s-5.2-6.6-2.4-8.7,18.8,2.8,22.2-3.5S719.85,253.2,714.25,251.9Z"/></g><g id="details-10" data-name="details"><path class="cls-3" d="M710.85,237.3s-2.8-6.3.7-6.3h6.9C717.05,233.1,714.45,235.2,710.85,237.3Z"/><path class="cls-1" d="M760.45,213.2s-1.7-7.2-.3-10,8.9-1.5,10.4,1.4-.7,9.7-.7,9.7a18.54,18.54,0,0,1-1.7-4.5c-.7-2.8-3.8-5.2-5.9-1C761.15,211.6,760.45,213.2,760.45,213.2Z"/></g></g><g id="Layer_15_copy_2" data-name="Layer 15 copy 2"><g id="legs-behind-13" data-name="legs-behind"><path class="cls-1" d="M949,292.63c8.24,3.05,24.31,11.84,27.31,19.48s-10.86,5.91-9.84,11.72-2.48,5.74,5.28,5.5,25.17,8.76,29.44-5.78-14.78-36.35-23.61-48.08"/><path class="cls-1" d="M832.13,282.38c10.46-1.7,27.83,18.36,27.77,26.72s-11.78,15.06-3.06,21c6.1,4.16,20.78-14.06,22-20.72s-7.2-13-8.84-19.69a58.57,58.57,0,0,0-8.88-19.07"/><path class="cls-1" d="M1029.75,235.2s9,2.8,11.1,5.6,1.4,4.9,0,8.3-11.1,7.6-11.1,7.6"/><path class="cls-1" d="M744.85,210.2s-2.1-2.8,0-7.6,9.4-.3,9.1-.6c3.1,1.5,1.3,5.5,1.3,5.5Z"/></g><g id="body-14" data-name="body"><path class="cls-2" d="M714.25,251.9c-5.6-1.4-5.2-14.9-.3-19.1,3.8-2.4,10.8-2.4,15.3-6.3s4.9-8.7,7.3-11.5,8.3-7.6,14-8.3c6.7-1.6,24.1-4.9,28.8-6.7,9-3.5,17.6-9.4,31.6-12.9,0,0,31.7-11.5,32-11.5,5.3-2.2,19.4-3.1,35.4-3.1s25.7,1.4,36.1,6.9S934,190.5,943,198.9s16.7,13.2,27.8,12.5,18.1-2.8,33.3,4.2,19.5,6.3,27.8,22.2,9.7,61.8-2.8,68.1c-11,3.2-44.7-17.7-76.8-15.3-27.5,4.7-55-5.2-67.9-5.8s-31.1,17.8-48,1.9c-5-3.5-25.5-27.9-34.4-26.7-9-.7-16.7,0-29.2,2.1-6.4,1-17,4-29.7,3.7-12.2-.3-20.7,2.9-24.2.8s-5.2-6.6-2.4-8.7,18.8,2.8,22.2-3.5S719.85,253.2,714.25,251.9Z"/></g><g id="details-11" data-name="details"><path class="cls-3" d="M710.85,237.3s-2.8-6.3.7-6.3h6.9C717.05,233.1,714.45,235.2,710.85,237.3Z"/><path class="cls-1" d="M760.45,213.2s-1.7-7.2-.3-10,8.9-1.5,10.4,1.4-.7,9.7-.7,9.7a18.54,18.54,0,0,1-1.7-4.5c-.7-2.8-3.8-5.2-5.9-1C761.15,211.6,760.45,213.2,760.45,213.2Z"/></g><g id="legs-7" data-name="legs"><path class="cls-2" d="M839.28,288.7c7.59,11.76,9.14,14.8,4.44,25.82-4.23,10-11,2.51-17.63,11.1s1.83,8.8,3.46,8.59c8-1,9.14-3,22.92-.78s24.33-43.53,10.81-56.14"/><path class="cls-2" d="M944.8,270c.13-3.61,20.92,16.58,23.91,19.28,7,6.29,12.94,7.9,19.41,12.39s2,13.43-2,17.44S977,322.4,972.77,326c-3.36,2.86-8.61,10.08,1,10.71s26.19,6.65,35.21-4.71c10.45-13.17,4.59-15.89,21.18-25"/></g><circle class="cls-4" cx="745.15" cy="224.2" r="3.7"/><circle class="cls-5" cx="745.05" cy="224" r="4"/><circle class="cls-6" cx="743.05" cy="223.2" r="0.6"/><circle class="cls-6" cx="746.05" cy="225.2" r="1.6"/></g></g><g id="_4" data-name="4"><g id="Layer_23_copy_3" data-name="Layer 23 copy 3"><g id="legs-behind-14" data-name="legs-behind"><path class="cls-1" d="M1373,239.2s9,2.8,11.1,5.6,1.4,4.9,0,8.3-11.1,7.6-11.1,7.6"/><path class="cls-1" d="M1088.1,214.2s-2.1-2.8,0-7.6,9.4-.3,9.1-.6c3.1,1.5,1.3,5.5,1.3,5.5Z"/></g></g><g id="Layer_22_copy_3" data-name="Layer 22 copy 3"><g id="body-15" data-name="body"><path class="cls-2" d="M1057.5,255.9c-5.6-1.4-5.2-14.9-.3-19.1,3.8-2.4,10.8-2.4,15.3-6.3s4.9-8.7,7.3-11.5,8.3-7.6,14-8.3c6.7-1.6,24.1-4.9,28.8-6.7,9-3.5,17.6-9.4,31.6-12.9,0,0,31.7-11.5,32-11.5,5.3-2.2,19.4-3.1,35.4-3.1s25.7,1.4,36.1,6.9,19.5,11.1,28.5,19.5,16.7,13.2,27.8,12.5,18.1-2.8,33.3,4.2,19.5,6.3,27.8,22.2,9.7,61.8-2.8,68.1c-11,3.2-44.7-17.7-76.8-15.3-27.5,4.7-55-5.2-67.9-5.8s-31.1,17.8-48,1.9c-5-3.5-25.5-27.9-34.4-26.7-9-.7-16.7,0-29.2,2.1-6.4,1-17,4-29.7,3.7-12.2-.3-20.7,2.9-24.2.8s-5.2-6.6-2.4-8.7,18.8,2.8,22.2-3.5S1063.1,257.2,1057.5,255.9Z"/></g></g><g id="Layer_21_copy_3" data-name="Layer 21 copy 3"><g id="body-16" data-name="body"><path class="cls-2" d="M1057.5,255.9c-5.6-1.4-5.2-14.9-.3-19.1,3.8-2.4,10.8-2.4,15.3-6.3s4.9-8.7,7.3-11.5,8.3-7.6,14-8.3c6.7-1.6,24.1-4.9,28.8-6.7,9-3.5,17.6-9.4,31.6-12.9,0,0,31.7-11.5,32-11.5,5.3-2.2,19.4-3.1,35.4-3.1s25.7,1.4,36.1,6.9,19.5,11.1,28.5,19.5,16.7,13.2,27.8,12.5,18.1-2.8,33.3,4.2,19.5,6.3,27.8,22.2,9.7,61.8-2.8,68.1c-11,3.2-44.7-17.7-76.8-15.3-27.5,4.7-55-5.2-67.9-5.8s-31.1,17.8-48,1.9c-5-3.5-25.5-27.9-34.4-26.7-9-.7-16.7,0-29.2,2.1-6.4,1-17,4-29.7,3.7-12.2-.3-20.7,2.9-24.2.8s-5.2-6.6-2.4-8.7,18.8,2.8,22.2-3.5S1063.1,257.2,1057.5,255.9Z"/></g><g id="details-12" data-name="details"><path class="cls-3" d="M1054.1,241.3s-2.8-6.3.7-6.3h6.9C1060.3,237.1,1057.7,239.2,1054.1,241.3Z"/><path class="cls-1" d="M1103.7,217.2s-1.7-7.2-.3-10,8.9-1.5,10.4,1.4-.7,9.7-.7,9.7a18.54,18.54,0,0,1-1.7-4.5c-.7-2.8-3.8-5.2-5.9-1C1104.4,215.6,1103.7,217.2,1103.7,217.2Z"/></g></g><g id="Layer_15_copy_3" data-name="Layer 15 copy 3"><g id="legs-behind-15" data-name="legs-behind"><path class="cls-1" d="M1287.42,293.29c7.53,3.47,23.82,10.18,24,19.61s-14.07,11.87-12.54,17-1.91,6.67,6.27,4.86,25.58,5.45,30.14-9.29-8.67-36.71-19.16-48.59"/><path class="cls-1" d="M1177.07,290.85c11.28-4.62,30.93,15.73,28.26,23.52s-13.41,8.3-9.39,14.3c2.81,4.19,23.56,2.49,26.93-.31s-2.27-23.36-5.54-30.08-7.81-17.55-13.84-23.32"/><path class="cls-1" d="M1373.07,239.19c3.38,1.37,8.63,2.63,10.85,5.63s1.69,5,0,8.36-7.36,5.89-10.83,7.49"/><path class="cls-1" d="M1088.07,214.22c-1-2.64-1.48-4.79.24-7.74s5.92-2.22,8.86-.46c2,1.4,2.19,3.29,1.33,5.48C1095,212.41,1091.61,213.28,1088.07,214.22Z"/></g><g id="body-17" data-name="body"><path class="cls-2" d="M1057.5,255.9c-5.6-1.4-5.2-14.9-.3-19.1,3.8-2.4,10.8-2.4,15.3-6.3s4.9-8.7,7.3-11.5,8.3-7.6,14-8.3c6.7-1.6,24.1-4.9,28.8-6.7,9-3.5,17.6-9.4,31.6-12.9,0,0,31.7-11.5,32-11.5,5.3-2.2,19.4-3.1,35.4-3.1s25.7,1.4,36.1,6.9,19.5,11.1,28.5,19.5,16.7,13.2,27.8,12.5,18.1-2.8,33.3,4.2,19.5,6.3,27.8,22.2,9.7,61.8-2.8,68.1c-11,3.2-44.7-17.7-76.8-15.3-27.5,4.7-55-5.2-67.9-5.8s-31.1,17.8-48,1.9c-5-3.5-25.5-27.9-34.4-26.7-9-.7-16.7,0-29.2,2.1-6.4,1-17,4-29.7,3.7-12.2-.3-20.7,2.9-24.2.8s-5.2-6.6-2.4-8.7,18.8,2.8,22.2-3.5S1063.1,257.2,1057.5,255.9Z"/></g><g id="details-13" data-name="details"><path class="cls-3" d="M1054.1,241.3s-2.8-6.3.7-6.3h6.9C1060.3,237.1,1057.7,239.2,1054.1,241.3Z"/><path class="cls-1" d="M1103.7,217.2s-1.7-7.2-.3-10,8.9-1.5,10.4,1.4-.7,9.7-.7,9.7a18.54,18.54,0,0,1-1.7-4.5c-.7-2.8-3.8-5.2-5.9-1C1104.4,215.6,1103.7,217.2,1103.7,217.2Z"/></g><g id="legs-8" data-name="legs"><path class="cls-2" d="M1174.78,277.9c3.67,11.07,4.92,25.45,1.87,36.05-2.74,9.55-9,9.59-14.88,13.05s-2.89,9.61-.27,9.46c12.84-.74,9.85.39,25-2.11s24.61-47.14,13.37-60.92"/><path class="cls-2" d="M1291.68,264.45c3.48-.84,17.62,19.39,20,22.34,5.67,6.86,12.85,12.08,17.84,18.36a19.63,19.63,0,0,1,2.51,20.41c-2.82,6-8.41,4.26-12.2,9.13-3,3.89-7.3,10.53,2.63,10.37s25.43,3.14,32.28-7.84c8-12.72,5.14-16.49,18.78-26.5"/></g><circle class="cls-4" cx="1088.4" cy="228.2" r="3.7"/><circle class="cls-5" cx="1088.3" cy="228" r="4"/><circle class="cls-6" cx="1086.3" cy="227.2" r="0.6"/><circle class="cls-6" cx="1089.3" cy="229.2" r="1.6"/></g></g><g id="_5" data-name="5"><g id="Layer_23_copy_4" data-name="Layer 23 copy 4"><g id="legs-behind-16" data-name="legs-behind"><path class="cls-1" d="M1733.5,235.2s9,2.8,11.1,5.6,1.4,4.9,0,8.3-11.1,7.6-11.1,7.6"/><path class="cls-1" d="M1448.6,210.2s-2.1-2.8,0-7.6,9.4-.3,9.1-.6c3.1,1.5,1.3,5.5,1.3,5.5Z"/></g></g><g id="Layer_22_copy_4" data-name="Layer 22 copy 4"><g id="body-18" data-name="body"><path class="cls-2" d="M1418,251.9c-5.6-1.4-5.2-14.9-.3-19.1,3.8-2.4,10.8-2.4,15.3-6.3s4.9-8.7,7.3-11.5,8.3-7.6,14-8.3c6.7-1.6,24.1-4.9,28.8-6.7,9-3.5,17.6-9.4,31.6-12.9,0,0,31.7-11.5,32-11.5,5.3-2.2,19.4-3.1,35.4-3.1s25.7,1.4,36.1,6.9,19.5,11.1,28.5,19.5,16.7,13.2,27.8,12.5,18.1-2.8,33.3,4.2,19.5,6.3,27.8,22.2,9.7,61.8-2.8,68.1c-11,3.2-44.7-17.7-76.8-15.3-27.5,4.7-55-5.2-67.9-5.8s-31.1,17.8-48,1.9c-5-3.5-25.5-27.9-34.4-26.7-9-.7-16.7,0-29.2,2.1-6.4,1-17,4-29.7,3.7-12.2-.3-20.7,2.9-24.2.8s-5.2-6.6-2.4-8.7,18.8,2.8,22.2-3.5S1423.6,253.2,1418,251.9Z"/></g></g><g id="Layer_21_copy_4" data-name="Layer 21 copy 4"><g id="body-19" data-name="body"><path class="cls-2" d="M1418,251.9c-5.6-1.4-5.2-14.9-.3-19.1,3.8-2.4,10.8-2.4,15.3-6.3s4.9-8.7,7.3-11.5,8.3-7.6,14-8.3c6.7-1.6,24.1-4.9,28.8-6.7,9-3.5,17.6-9.4,31.6-12.9,0,0,31.7-11.5,32-11.5,5.3-2.2,19.4-3.1,35.4-3.1s25.7,1.4,36.1,6.9,19.5,11.1,28.5,19.5,16.7,13.2,27.8,12.5,18.1-2.8,33.3,4.2,19.5,6.3,27.8,22.2,9.7,61.8-2.8,68.1c-11,3.2-44.7-17.7-76.8-15.3-27.5,4.7-55-5.2-67.9-5.8s-31.1,17.8-48,1.9c-5-3.5-25.5-27.9-34.4-26.7-9-.7-16.7,0-29.2,2.1-6.4,1-17,4-29.7,3.7-12.2-.3-20.7,2.9-24.2.8s-5.2-6.6-2.4-8.7,18.8,2.8,22.2-3.5S1423.6,253.2,1418,251.9Z"/></g><g id="details-14" data-name="details"><path class="cls-3" d="M1414.6,237.3s-2.8-6.3.7-6.3h6.9C1420.8,233.1,1418.2,235.2,1414.6,237.3Z"/><path class="cls-1" d="M1464.2,213.2s-1.7-7.2-.3-10,8.9-1.5,10.4,1.4-.7,9.7-.7,9.7a18.54,18.54,0,0,1-1.7-4.5c-.7-2.8-3.8-5.2-5.9-1C1464.9,211.6,1464.2,213.2,1464.2,213.2Z"/></g></g><g id="Layer_15_copy_4" data-name="Layer 15 copy 4"><g id="legs-behind-17" data-name="legs-behind"><path class="cls-1" d="M1648.92,270.49c7.63,8.57,15.88,22.39,13.79,33.36s-17.07,14.5-16.31,20.55,6.83,5.82,6.83,5.82,11,8.77,22.63-7.9,22-31.18,6.58-52.32"/><path class="cls-1" d="M1552.6,269.63c13.07,9.55,5.75,26.63-1.27,34.93s-15.52,5.23-14.85,15.88c.46,7.46,20.52,14.43,24.13,5.49s4-15.72,11.1-22.63,8.1-15,10.94-24"/><path class="cls-1" d="M1733.57,235.19c3.38,1.37,8.63,2.63,10.85,5.63s1.69,5,0,8.36-7.36,5.89-10.83,7.49"/><path class="cls-1" d="M1448.57,210.22c-1-2.64-1.48-4.79.24-7.74s5.92-2.22,8.86-.46c2,1.4,2.19,3.29,1.33,5.48C1455.51,208.41,1452.11,209.28,1448.57,210.22Z"/></g><g id="body-20" data-name="body"><path class="cls-2" d="M1418,251.9c-5.6-1.4-5.2-14.9-.3-19.1,3.8-2.4,10.8-2.4,15.3-6.3s4.9-8.7,7.3-11.5,8.3-7.6,14-8.3c6.7-1.6,24.1-4.9,28.8-6.7,9-3.5,17.6-9.4,31.6-12.9,0,0,31.7-11.5,32-11.5,5.3-2.2,19.4-3.1,35.4-3.1s25.7,1.4,36.1,6.9,19.5,11.1,28.5,19.5,16.7,13.2,27.8,12.5,18.1-2.8,33.3,4.2,19.5,6.3,27.8,22.2,9.7,61.8-2.8,68.1c-11,3.2-44.7-17.7-76.8-15.3-27.5,4.7-55-5.2-67.9-5.8s-31.1,17.8-48,1.9c-5-3.5-25.5-27.9-34.4-26.7-9-.7-16.7,0-29.2,2.1-6.4,1-17,4-29.7,3.7-12.2-.3-20.7,2.9-24.2.8s-5.2-6.6-2.4-8.7,18.8,2.8,22.2-3.5S1423.6,253.2,1418,251.9Z"/></g><g id="details-15" data-name="details"><path class="cls-3" d="M1414.6,237.3s-2.8-6.3.7-6.3h6.9C1420.8,233.1,1418.2,235.2,1414.6,237.3Z"/><path class="cls-1" d="M1464.2,213.2s-1.7-7.2-.3-10,8.9-1.5,10.4,1.4-.7,9.7-.7,9.7a18.54,18.54,0,0,1-1.7-4.5c-.7-2.8-3.8-5.2-5.9-1C1464.9,211.6,1464.2,213.2,1464.2,213.2Z"/></g><g id="legs-9" data-name="legs"><path class="cls-2" d="M1537.75,279.68c3.19,9,6.45,23.52,6.48,32.34,0,7.94-7.39,7.89-12,10.14s-3.62,9.52-1.19,9.31c11.87-1,13,2.29,25.82-1.05s17.49-47.18,5.74-57.34"/><path class="cls-2" d="M1652.18,260.45c3.48-.84,17.62,19.39,20,22.34,5.67,6.86,12.85,12.08,17.84,18.36a19.63,19.63,0,0,1,2.51,20.41c-2.82,6-8.41,4.26-12.2,9.13-3,3.89-7.3,10.53,2.63,10.37s25.43,3.14,32.28-7.84c8-12.72,5.14-16.49,18.78-26.5"/></g><circle class="cls-4" cx="1448.9" cy="224.2" r="3.7"/><circle class="cls-5" cx="1448.8" cy="224" r="4"/><circle class="cls-6" cx="1446.8" cy="223.2" r="0.6"/><circle class="cls-6" cx="1449.8" cy="225.2" r="1.6"/></g></g><g id="_6" data-name="6"><g id="Layer_23_copy_6" data-name="Layer 23 copy 6"><g id="legs-behind-18" data-name="legs-behind"><path class="cls-1" d="M2076.5,235.2s9,2.8,11.1,5.6,1.4,4.9,0,8.3-11.1,7.6-11.1,7.6"/><path class="cls-1" d="M1791.6,210.2s-2.1-2.8,0-7.6,9.4-.3,9.1-.6c3.1,1.5,1.3,5.5,1.3,5.5Z"/></g></g><g id="Layer_22_copy_6" data-name="Layer 22 copy 6"><g id="body-21" data-name="body"><path class="cls-2" d="M1761,251.9c-5.6-1.4-5.2-14.9-.3-19.1,3.8-2.4,10.8-2.4,15.3-6.3s4.9-8.7,7.3-11.5,8.3-7.6,14-8.3c6.7-1.6,24.1-4.9,28.8-6.7,9-3.5,17.6-9.4,31.6-12.9,0,0,31.7-11.5,32-11.5,5.3-2.2,19.4-3.1,35.4-3.1s25.7,1.4,36.1,6.9,19.5,11.1,28.5,19.5,16.7,13.2,27.8,12.5,18.1-2.8,33.3,4.2,19.5,6.3,27.8,22.2,9.7,61.8-2.8,68.1c-11,3.2-44.7-17.7-76.8-15.3-27.5,4.7-55-5.2-67.9-5.8s-31.1,17.8-48,1.9c-5-3.5-25.5-27.9-34.4-26.7-9-.7-16.7,0-29.2,2.1-6.4,1-17,4-29.7,3.7-12.2-.3-20.7,2.9-24.2.8s-5.2-6.6-2.4-8.7,18.8,2.8,22.2-3.5S1766.6,253.2,1761,251.9Z"/></g></g><g id="Layer_21_copy_6" data-name="Layer 21 copy 6"><g id="body-22" data-name="body"><path class="cls-2" d="M1761,251.9c-5.6-1.4-5.2-14.9-.3-19.1,3.8-2.4,10.8-2.4,15.3-6.3s4.9-8.7,7.3-11.5,8.3-7.6,14-8.3c6.7-1.6,24.1-4.9,28.8-6.7,9-3.5,17.6-9.4,31.6-12.9,0,0,31.7-11.5,32-11.5,5.3-2.2,19.4-3.1,35.4-3.1s25.7,1.4,36.1,6.9,19.5,11.1,28.5,19.5,16.7,13.2,27.8,12.5,18.1-2.8,33.3,4.2,19.5,6.3,27.8,22.2,9.7,61.8-2.8,68.1c-11,3.2-44.7-17.7-76.8-15.3-27.5,4.7-55-5.2-67.9-5.8s-31.1,17.8-48,1.9c-5-3.5-25.5-27.9-34.4-26.7-9-.7-16.7,0-29.2,2.1-6.4,1-17,4-29.7,3.7-12.2-.3-20.7,2.9-24.2.8s-5.2-6.6-2.4-8.7,18.8,2.8,22.2-3.5S1766.6,253.2,1761,251.9Z"/></g><g id="details-16" data-name="details"><path class="cls-3" d="M1757.6,237.3s-2.8-6.3.7-6.3h6.9C1763.8,233.1,1761.2,235.2,1757.6,237.3Z"/><path class="cls-1" d="M1807.2,213.2s-1.7-7.2-.3-10,8.9-1.5,10.4,1.4-.7,9.7-.7,9.7a18.54,18.54,0,0,1-1.7-4.5c-.7-2.8-3.8-5.2-5.9-1C1807.9,211.6,1807.2,213.2,1807.2,213.2Z"/></g></g><g id="Layer_15_copy_6" data-name="Layer 15 copy 6"><g id="legs-behind-19" data-name="legs-behind"><path class="cls-1" d="M1991.92,270.49c7.63,8.57,15.88,22.39,13.79,33.36s-17.07,14.5-16.31,20.55,6.83,5.82,6.83,5.82,11,8.77,22.63-7.9,22-31.18,6.58-52.32"/><path class="cls-1" d="M1880,263.45c18.62,11.63,1.18,25.83-5.16,35s-8.09,6.76-5.69,16.44c1.68,6.78,23.21,10.22,23.48-.53s-1-8.95,8.15-17.78,8.51-17.58,9.9-28.94"/><path class="cls-1" d="M2076.57,235.19c3.38,1.37,8.63,2.63,10.85,5.63s1.69,5,0,8.36-7.36,5.89-10.83,7.49"/><path class="cls-1" d="M1791.57,210.22c-1-2.64-1.48-4.79.24-7.74s5.92-2.22,8.86-.46c2,1.4,2.19,3.29,1.33,5.48C1798.51,208.41,1795.11,209.28,1791.57,210.22Z"/></g><g id="body-23" data-name="body"><path class="cls-2" d="M1761,251.9c-5.6-1.4-5.2-14.9-.3-19.1,3.8-2.4,10.8-2.4,15.3-6.3s4.9-8.7,7.3-11.5,8.3-7.6,14-8.3c6.7-1.6,24.1-4.9,28.8-6.7,9-3.5,17.6-9.4,31.6-12.9,0,0,31.7-11.5,32-11.5,5.3-2.2,19.4-3.1,35.4-3.1s25.7,1.4,36.1,6.9,19.5,11.1,28.5,19.5,16.7,13.2,27.8,12.5,18.1-2.8,33.3,4.2,19.5,6.3,27.8,22.2,9.7,61.8-2.8,68.1c-11,3.2-44.7-17.7-76.8-15.3-27.5,4.7-55-5.2-67.9-5.8s-31.1,17.8-48,1.9c-5-3.5-25.5-27.9-34.4-26.7-9-.7-16.7,0-29.2,2.1-6.4,1-17,4-29.7,3.7-12.2-.3-20.7,2.9-24.2.8s-5.2-6.6-2.4-8.7,18.8,2.8,22.2-3.5S1766.6,253.2,1761,251.9Z"/></g><g id="details-17" data-name="details"><path class="cls-3" d="M1757.6,237.3s-2.8-6.3.7-6.3h6.9C1763.8,233.1,1761.2,235.2,1757.6,237.3Z"/><path class="cls-1" d="M1807.2,213.2s-1.7-7.2-.3-10,8.9-1.5,10.4,1.4-.7,9.7-.7,9.7a18.54,18.54,0,0,1-1.7-4.5c-.7-2.8-3.8-5.2-5.9-1C1807.9,211.6,1807.2,213.2,1807.2,213.2Z"/></g><g id="legs-10" data-name="legs"><path class="cls-2" d="M1880.75,279.68c3.19,9,6.45,23.52,6.48,32.34,0,7.94-7.39,7.89-12,10.14s-3.62,9.52-1.19,9.31c11.87-1,13,2.29,25.82-1.05s17.49-47.18,5.74-57.34"/><path class="cls-2" d="M1995.7,257.4c6.86,1.11,16.5,17.49,19.51,21.2,7,8.63,12,11.74,17.77,19.43s1,18-3,24.46-9,4.77-13,10.22c-3.22,4.36-6.63,10,3.18,10s25.61,1.69,33.34-7.64c9-10.82,13.81-23.85,25.4-32.48"/></g><circle class="cls-4" cx="1791.9" cy="224.2" r="3.7"/><circle class="cls-5" cx="1791.8" cy="224" r="4"/><circle class="cls-6" cx="1789.8" cy="223.2" r="0.6"/><circle class="cls-6" cx="1792.8" cy="225.2" r="1.6"/></g></g><g id="_7" data-name="7"><g id="Layer_23_copy_5" data-name="Layer 23 copy 5"><g id="legs-behind-20" data-name="legs-behind"><path class="cls-1" d="M2343.2,293.8s10.8,25.4,5.2,29.5-17.7,3.1-17.7,7.3-2.1,2.8,2.8,6.3,25,2.1,29.9,0,13.4-40.2,13.2-40.3"/><path class="cls-1" d="M2217.4,273.2c7.5,3.1.7,38.2-5.6,41.7S2193,317,2193,326c0,6.3,26.1,5.6,31.3,3.1s4.9-15.6,10.4-21.2,9.7-18.8,9.7-18.8"/><path class="cls-1" d="M2428,239.2s9,2.8,11.1,5.6,1.4,4.9,0,8.3-11.1,7.6-11.1,7.6"/><path class="cls-1" d="M2143.1,214.2s-2.1-2.8,0-7.6,9.4-.3,9.1-.6c3.1,1.5,1.3,5.5,1.3,5.5Z"/></g></g><g id="Layer_22_copy_5" data-name="Layer 22 copy 5"><g id="legs-behind-21" data-name="legs-behind"><path class="cls-1" d="M2343.2,293.8s10.8,25.4,5.2,29.5-17.7,3.1-17.7,7.3-2.1,2.8,2.8,6.3,25,2.1,29.9,0,13.4-40.2,13.2-40.3"/><path class="cls-1" d="M2217.4,273.2c7.5,3.1.7,38.2-5.6,41.7S2193,317,2193,326c0,6.3,26.1,5.6,31.3,3.1s4.9-15.6,10.4-21.2,9.7-18.8,9.7-18.8"/><path class="cls-1" d="M2428,239.2s9,2.8,11.1,5.6,1.4,4.9,0,8.3-11.1,7.6-11.1,7.6"/><path class="cls-1" d="M2143.1,214.2s-2.1-2.8,0-7.6,9.4-.3,9.1-.6c3.1,1.5,1.3,5.5,1.3,5.5Z"/></g><g id="body-24" data-name="body"><path class="cls-2" d="M2112.5,255.9c-5.6-1.4-5.2-14.9-.3-19.1,3.8-2.4,10.8-2.4,15.3-6.3s4.9-8.7,7.3-11.5,8.3-7.6,14-8.3c6.7-1.6,24.1-4.9,28.8-6.7,9-3.5,17.6-9.4,31.6-12.9,0,0,31.7-11.5,32-11.5,5.3-2.2,19.4-3.1,35.4-3.1s25.7,1.4,36.1,6.9,19.5,11.1,28.5,19.5,16.7,13.2,27.8,12.5,18.1-2.8,33.3,4.2,19.5,6.3,27.8,22.2,9.7,61.8-2.8,68.1c-11,3.2-44.7-17.7-76.8-15.3-27.5,4.7-55-5.2-67.9-5.8s-31.1,17.8-48,1.9c-5-3.5-25.5-27.9-34.4-26.7-9-.7-16.7,0-29.2,2.1-6.4,1-17,4-29.7,3.7-12.2-.3-20.7,2.9-24.2.8s-5.2-6.6-2.4-8.7,18.8,2.8,22.2-3.5S2118.1,257.2,2112.5,255.9Z"/></g></g><g id="Layer_21_copy_5" data-name="Layer 21 copy 5"><g id="legs-behind-22" data-name="legs-behind"><path class="cls-1" d="M2343.2,293.8s10.8,25.4,5.2,29.5-17.7,3.1-17.7,7.3-2.1,2.8,2.8,6.3,25,2.1,29.9,0,13.4-40.2,13.2-40.3"/><path class="cls-1" d="M2217.4,273.2c7.5,3.1.7,38.2-5.6,41.7S2193,317,2193,326c0,6.3,26.1,5.6,31.3,3.1s4.9-15.6,10.4-21.2,9.7-18.8,9.7-18.8"/><path class="cls-1" d="M2428,239.2s9,2.8,11.1,5.6,1.4,4.9,0,8.3-11.1,7.6-11.1,7.6"/><path class="cls-1" d="M2143.1,214.2s-2.1-2.8,0-7.6,9.4-.3,9.1-.6c3.1,1.5,1.3,5.5,1.3,5.5Z"/></g><g id="body-25" data-name="body"><path class="cls-2" d="M2112.5,255.9c-5.6-1.4-5.2-14.9-.3-19.1,3.8-2.4,10.8-2.4,15.3-6.3s4.9-8.7,7.3-11.5,8.3-7.6,14-8.3c6.7-1.6,24.1-4.9,28.8-6.7,9-3.5,17.6-9.4,31.6-12.9,0,0,31.7-11.5,32-11.5,5.3-2.2,19.4-3.1,35.4-3.1s25.7,1.4,36.1,6.9,19.5,11.1,28.5,19.5,16.7,13.2,27.8,12.5,18.1-2.8,33.3,4.2,19.5,6.3,27.8,22.2,9.7,61.8-2.8,68.1c-11,3.2-44.7-17.7-76.8-15.3-27.5,4.7-55-5.2-67.9-5.8s-31.1,17.8-48,1.9c-5-3.5-25.5-27.9-34.4-26.7-9-.7-16.7,0-29.2,2.1-6.4,1-17,4-29.7,3.7-12.2-.3-20.7,2.9-24.2.8s-5.2-6.6-2.4-8.7,18.8,2.8,22.2-3.5S2118.1,257.2,2112.5,255.9Z"/></g><g id="details-18" data-name="details"><path class="cls-3" d="M2109.1,241.3s-2.8-6.3.7-6.3h6.9C2115.3,237.1,2112.7,239.2,2109.1,241.3Z"/><path class="cls-1" d="M2158.7,217.2s-1.7-7.2-.3-10,8.9-1.5,10.4,1.4-.7,9.7-.7,9.7a18.54,18.54,0,0,1-1.7-4.5c-.7-2.8-3.8-5.2-5.9-1C2159.4,215.6,2158.7,217.2,2158.7,217.2Z"/></g></g><g id="Layer_20_copy_5" data-name="Layer 20 copy 5"><g id="legs-behind-23" data-name="legs-behind"><path class="cls-1" d="M2343.2,293.8s10.8,25.4,5.2,29.5-17.7,3.1-17.7,7.3-2.1,2.8,2.8,6.3,25,2.1,29.9,0,13.4-40.2,13.2-40.3"/><path class="cls-1" d="M2217.4,273.2c7.5,3.1.7,38.2-5.6,41.7S2193,317,2193,326c0,6.3,26.1,5.6,31.3,3.1s4.9-15.6,10.4-21.2,9.7-18.8,9.7-18.8"/><path class="cls-1" d="M2428,239.2s9,2.8,11.1,5.6,1.4,4.9,0,8.3-11.1,7.6-11.1,7.6"/><path class="cls-1" d="M2143.1,214.2s-2.1-2.8,0-7.6,9.4-.3,9.1-.6c3.1,1.5,1.3,5.5,1.3,5.5Z"/></g><g id="body-26" data-name="body"><path class="cls-2" d="M2112.5,255.9c-5.6-1.4-5.2-14.9-.3-19.1,3.8-2.4,10.8-2.4,15.3-6.3s4.9-8.7,7.3-11.5,8.3-7.6,14-8.3c6.7-1.6,24.1-4.9,28.8-6.7,9-3.5,17.6-9.4,31.6-12.9,0,0,31.7-11.5,32-11.5,5.3-2.2,19.4-3.1,35.4-3.1s25.7,1.4,36.1,6.9,19.5,11.1,28.5,19.5,16.7,13.2,27.8,12.5,18.1-2.8,33.3,4.2,19.5,6.3,27.8,22.2,9.7,61.8-2.8,68.1c-11,3.2-44.7-17.7-76.8-15.3-27.5,4.7-55-5.2-67.9-5.8s-31.1,17.8-48,1.9c-5-3.5-25.5-27.9-34.4-26.7-9-.7-16.7,0-29.2,2.1-6.4,1-17,4-29.7,3.7-12.2-.3-20.7,2.9-24.2.8s-5.2-6.6-2.4-8.7,18.8,2.8,22.2-3.5S2118.1,257.2,2112.5,255.9Z"/></g><g id="details-19" data-name="details"><path class="cls-3" d="M2109.1,241.3s-2.8-6.3.7-6.3h6.9C2115.3,237.1,2112.7,239.2,2109.1,241.3Z"/><path class="cls-1" d="M2158.7,217.2s-1.7-7.2-.3-10,8.9-1.5,10.4,1.4-.7,9.7-.7,9.7a18.54,18.54,0,0,1-1.7-4.5c-.7-2.8-3.8-5.2-5.9-1C2159.4,215.6,2158.7,217.2,2158.7,217.2Z"/></g></g><g id="Layer_19_copy_5" data-name="Layer 19 copy 5"><g id="legs-behind-24" data-name="legs-behind"><path class="cls-1" d="M2343.2,293.8s10.8,25.4,5.2,29.5-17.7,3.1-17.7,7.3-2.1,2.8,2.8,6.3,25,2.1,29.9,0,13.4-40.2,13.2-40.3"/><path class="cls-1" d="M2217.4,273.2c7.5,3.1.7,38.2-5.6,41.7S2193,317,2193,326c0,6.3,26.1,5.6,31.3,3.1s4.9-15.6,10.4-21.2,9.7-18.8,9.7-18.8"/><path class="cls-1" d="M2428,239.2s9,2.8,11.1,5.6,1.4,4.9,0,8.3-11.1,7.6-11.1,7.6"/><path class="cls-1" d="M2143.1,214.2s-2.1-2.8,0-7.6,9.4-.3,9.1-.6c3.1,1.5,1.3,5.5,1.3,5.5Z"/></g><g id="body-27" data-name="body"><path class="cls-2" d="M2112.5,255.9c-5.6-1.4-5.2-14.9-.3-19.1,3.8-2.4,10.8-2.4,15.3-6.3s4.9-8.7,7.3-11.5,8.3-7.6,14-8.3c6.7-1.6,24.1-4.9,28.8-6.7,9-3.5,17.6-9.4,31.6-12.9,0,0,31.7-11.5,32-11.5,5.3-2.2,19.4-3.1,35.4-3.1s25.7,1.4,36.1,6.9,19.5,11.1,28.5,19.5,16.7,13.2,27.8,12.5,18.1-2.8,33.3,4.2,19.5,6.3,27.8,22.2,9.7,61.8-2.8,68.1c-11,3.2-44.7-17.7-76.8-15.3-27.5,4.7-55-5.2-67.9-5.8s-31.1,17.8-48,1.9c-5-3.5-25.5-27.9-34.4-26.7-9-.7-16.7,0-29.2,2.1-6.4,1-17,4-29.7,3.7-12.2-.3-20.7,2.9-24.2.8s-5.2-6.6-2.4-8.7,18.8,2.8,22.2-3.5S2118.1,257.2,2112.5,255.9Z"/></g><g id="details-20" data-name="details"><path class="cls-3" d="M2109.1,241.3s-2.8-6.3.7-6.3h6.9C2115.3,237.1,2112.7,239.2,2109.1,241.3Z"/><path class="cls-1" d="M2158.7,217.2s-1.7-7.2-.3-10,8.9-1.5,10.4,1.4-.7,9.7-.7,9.7a18.54,18.54,0,0,1-1.7-4.5c-.7-2.8-3.8-5.2-5.9-1C2159.4,215.6,2158.7,217.2,2158.7,217.2Z"/></g><g id="legs-11" data-name="legs"><path class="cls-2" d="M2242.5,285c3,15.2,8.6,26,11.1,33.3,2.2,6.6-12.5,6.9-16.7,10.4s-4.2,9,0,9.7,28.5,1.4,31.3-2.1,13.2-47.9,13.2-47.9"/><path class="cls-2" d="M2333.1,288.4c-7.5-5.4,18.7,4.8,29.8,10.4,6.9,2.6,18.2,4.3,25.7,6.3s10.9,16.2,7.5,18.3c-3.3,2.5-5.4,2.1-12.5,6.3-5.6,3.5-7.6,11.8,0,11.8s32.7,2.4,34.7-2.8c2.4-6,18.8-38.9,15.3-38.9"/></g></g><g id="Layer_18_copy_5" data-name="Layer 18 copy 5"><g id="legs-behind-25" data-name="legs-behind"><path class="cls-1" d="M2343.2,293.8s10.8,25.4,5.2,29.5-17.7,3.1-17.7,7.3-2.1,2.8,2.8,6.3,25,2.1,29.9,0,13.4-40.2,13.2-40.3"/><path class="cls-1" d="M2217.4,273.2c7.5,3.1.7,38.2-5.6,41.7S2193,317,2193,326c0,6.3,26.1,5.6,31.3,3.1s4.9-15.6,10.4-21.2,9.7-18.8,9.7-18.8"/><path class="cls-1" d="M2428,239.2s9,2.8,11.1,5.6,1.4,4.9,0,8.3-11.1,7.6-11.1,7.6"/><path class="cls-1" d="M2143.1,214.2s-2.1-2.8,0-7.6,9.4-.3,9.1-.6c3.1,1.5,1.3,5.5,1.3,5.5Z"/></g><g id="body-28" data-name="body"><path class="cls-2" d="M2112.5,255.9c-5.6-1.4-5.2-14.9-.3-19.1,3.8-2.4,10.8-2.4,15.3-6.3s4.9-8.7,7.3-11.5,8.3-7.6,14-8.3c6.7-1.6,24.1-4.9,28.8-6.7,9-3.5,17.6-9.4,31.6-12.9,0,0,31.7-11.5,32-11.5,5.3-2.2,19.4-3.1,35.4-3.1s25.7,1.4,36.1,6.9,19.5,11.1,28.5,19.5,16.7,13.2,27.8,12.5,18.1-2.8,33.3,4.2,19.5,6.3,27.8,22.2,9.7,61.8-2.8,68.1c-11,3.2-44.7-17.7-76.8-15.3-27.5,4.7-55-5.2-67.9-5.8s-31.1,17.8-48,1.9c-5-3.5-25.5-27.9-34.4-26.7-9-.7-16.7,0-29.2,2.1-6.4,1-17,4-29.7,3.7-12.2-.3-20.7,2.9-24.2.8s-5.2-6.6-2.4-8.7,18.8,2.8,22.2-3.5S2118.1,257.2,2112.5,255.9Z"/></g><g id="details-21" data-name="details"><path class="cls-3" d="M2109.1,241.3s-2.8-6.3.7-6.3h6.9C2115.3,237.1,2112.7,239.2,2109.1,241.3Z"/><path class="cls-1" d="M2158.7,217.2s-1.7-7.2-.3-10,8.9-1.5,10.4,1.4-.7,9.7-.7,9.7a18.54,18.54,0,0,1-1.7-4.5c-.7-2.8-3.8-5.2-5.9-1C2159.4,215.6,2158.7,217.2,2158.7,217.2Z"/></g><g id="legs-12" data-name="legs"><path class="cls-2" d="M2242.5,285c3,15.2,8.6,26,11.1,33.3,2.2,6.6-12.5,6.9-16.7,10.4s-4.2,9,0,9.7,28.5,1.4,31.3-2.1,13.2-47.9,13.2-47.9"/><path class="cls-2" d="M2333.1,288.4c-7.5-5.4,18.7,4.8,29.8,10.4,6.9,2.6,18.2,4.3,25.7,6.3s10.9,16.2,7.5,18.3c-3.3,2.5-5.4,2.1-12.5,6.3-5.6,3.5-7.6,11.8,0,11.8s32.7,2.4,34.7-2.8c2.4-6,18.8-38.9,15.3-38.9"/></g><circle class="cls-4" cx="2143.4" cy="228.2" r="3.7"/></g><g id="Layer_17_copy_5" data-name="Layer 17 copy 5"><g id="legs-behind-26" data-name="legs-behind"><path class="cls-1" d="M2343.2,293.8s10.8,25.4,5.2,29.5-17.7,3.1-17.7,7.3-2.1,2.8,2.8,6.3,25,2.1,29.9,0,13.4-40.2,13.2-40.3"/><path class="cls-1" d="M2217.4,273.2c7.5,3.1.7,38.2-5.6,41.7S2193,317,2193,326c0,6.3,26.1,5.6,31.3,3.1s4.9-15.6,10.4-21.2,9.7-18.8,9.7-18.8"/><path class="cls-1" d="M2428,239.2s9,2.8,11.1,5.6,1.4,4.9,0,8.3-11.1,7.6-11.1,7.6"/><path class="cls-1" d="M2143.1,214.2s-2.1-2.8,0-7.6,9.4-.3,9.1-.6c3.1,1.5,1.3,5.5,1.3,5.5Z"/></g><g id="body-29" data-name="body"><path class="cls-2" d="M2112.5,255.9c-5.6-1.4-5.2-14.9-.3-19.1,3.8-2.4,10.8-2.4,15.3-6.3s4.9-8.7,7.3-11.5,8.3-7.6,14-8.3c6.7-1.6,24.1-4.9,28.8-6.7,9-3.5,17.6-9.4,31.6-12.9,0,0,31.7-11.5,32-11.5,5.3-2.2,19.4-3.1,35.4-3.1s25.7,1.4,36.1,6.9,19.5,11.1,28.5,19.5,16.7,13.2,27.8,12.5,18.1-2.8,33.3,4.2,19.5,6.3,27.8,22.2,9.7,61.8-2.8,68.1c-11,3.2-44.7-17.7-76.8-15.3-27.5,4.7-55-5.2-67.9-5.8s-31.1,17.8-48,1.9c-5-3.5-25.5-27.9-34.4-26.7-9-.7-16.7,0-29.2,2.1-6.4,1-17,4-29.7,3.7-12.2-.3-20.7,2.9-24.2.8s-5.2-6.6-2.4-8.7,18.8,2.8,22.2-3.5S2118.1,257.2,2112.5,255.9Z"/></g><g id="details-22" data-name="details"><path class="cls-3" d="M2109.1,241.3s-2.8-6.3.7-6.3h6.9C2115.3,237.1,2112.7,239.2,2109.1,241.3Z"/><path class="cls-1" d="M2158.7,217.2s-1.7-7.2-.3-10,8.9-1.5,10.4,1.4-.7,9.7-.7,9.7a18.54,18.54,0,0,1-1.7-4.5c-.7-2.8-3.8-5.2-5.9-1C2159.4,215.6,2158.7,217.2,2158.7,217.2Z"/></g><g id="legs-13" data-name="legs"><path class="cls-2" d="M2242.5,285c3,15.2,8.6,26,11.1,33.3,2.2,6.6-12.5,6.9-16.7,10.4s-4.2,9,0,9.7,28.5,1.4,31.3-2.1,13.2-47.9,13.2-47.9"/><path class="cls-2" d="M2333.1,288.4c-7.5-5.4,18.7,4.8,29.8,10.4,6.9,2.6,18.2,4.3,25.7,6.3s10.9,16.2,7.5,18.3c-3.3,2.5-5.4,2.1-12.5,6.3-5.6,3.5-7.6,11.8,0,11.8s32.7,2.4,34.7-2.8c2.4-6,18.8-38.9,15.3-38.9"/></g><circle class="cls-4" cx="2143.4" cy="228.2" r="3.7"/><circle class="cls-5" cx="2143.3" cy="228" r="4"/></g><g id="Layer_16_copy_5" data-name="Layer 16 copy 5"><g id="legs-behind-27" data-name="legs-behind"><path class="cls-1" d="M2343.2,293.8s10.8,25.4,5.2,29.5-17.7,3.1-17.7,7.3-2.1,2.8,2.8,6.3,25,2.1,29.9,0,13.4-40.2,13.2-40.3"/><path class="cls-1" d="M2217.4,273.2c7.5,3.1.7,38.2-5.6,41.7S2193,317,2193,326c0,6.3,26.1,5.6,31.3,3.1s4.9-15.6,10.4-21.2,9.7-18.8,9.7-18.8"/><path class="cls-1" d="M2428,239.2s9,2.8,11.1,5.6,1.4,4.9,0,8.3-11.1,7.6-11.1,7.6"/><path class="cls-1" d="M2143.1,214.2s-2.1-2.8,0-7.6,9.4-.3,9.1-.6c3.1,1.5,1.3,5.5,1.3,5.5Z"/></g><g id="body-30" data-name="body"><path class="cls-2" d="M2112.5,255.9c-5.6-1.4-5.2-14.9-.3-19.1,3.8-2.4,10.8-2.4,15.3-6.3s4.9-8.7,7.3-11.5,8.3-7.6,14-8.3c6.7-1.6,24.1-4.9,28.8-6.7,9-3.5,17.6-9.4,31.6-12.9,0,0,31.7-11.5,32-11.5,5.3-2.2,19.4-3.1,35.4-3.1s25.7,1.4,36.1,6.9,19.5,11.1,28.5,19.5,16.7,13.2,27.8,12.5,18.1-2.8,33.3,4.2,19.5,6.3,27.8,22.2,9.7,61.8-2.8,68.1c-11,3.2-44.7-17.7-76.8-15.3-27.5,4.7-55-5.2-67.9-5.8s-31.1,17.8-48,1.9c-5-3.5-25.5-27.9-34.4-26.7-9-.7-16.7,0-29.2,2.1-6.4,1-17,4-29.7,3.7-12.2-.3-20.7,2.9-24.2.8s-5.2-6.6-2.4-8.7,18.8,2.8,22.2-3.5S2118.1,257.2,2112.5,255.9Z"/></g><g id="details-23" data-name="details"><path class="cls-3" d="M2109.1,241.3s-2.8-6.3.7-6.3h6.9C2115.3,237.1,2112.7,239.2,2109.1,241.3Z"/><path class="cls-1" d="M2158.7,217.2s-1.7-7.2-.3-10,8.9-1.5,10.4,1.4-.7,9.7-.7,9.7a18.54,18.54,0,0,1-1.7-4.5c-.7-2.8-3.8-5.2-5.9-1C2159.4,215.6,2158.7,217.2,2158.7,217.2Z"/></g><g id="legs-14" data-name="legs"><path class="cls-2" d="M2242.5,285c3,15.2,8.6,26,11.1,33.3,2.2,6.6-12.5,6.9-16.7,10.4s-4.2,9,0,9.7,28.5,1.4,31.3-2.1,13.2-47.9,13.2-47.9"/><path class="cls-2" d="M2333.1,288.4c-7.5-5.4,18.7,4.8,29.8,10.4,6.9,2.6,18.2,4.3,25.7,6.3s10.9,16.2,7.5,18.3c-3.3,2.5-5.4,2.1-12.5,6.3-5.6,3.5-7.6,11.8,0,11.8s32.7,2.4,34.7-2.8c2.4-6,18.8-38.9,15.3-38.9"/></g><circle class="cls-4" cx="2143.4" cy="228.2" r="3.7"/><circle class="cls-5" cx="2143.3" cy="228" r="4"/><circle class="cls-6" cx="2141.3" cy="227.2" r="0.6"/></g><g id="Layer_15_copy_5" data-name="Layer 15 copy 5"><g id="legs-behind-28" data-name="legs-behind"><path class="cls-1" d="M2343.2,293.8s10.8,25.4,5.2,29.5-17.7,3.1-17.7,7.3-2.1,2.8,2.8,6.3,25,2.1,29.9,0,13.4-40.2,13.2-40.3"/><path class="cls-1" d="M2217.4,273.2c7.5,3.1.7,38.2-5.6,41.7S2193,317,2193,326c0,6.3,26.1,5.6,31.3,3.1s4.9-15.6,10.4-21.2,9.7-18.8,9.7-18.8"/><path class="cls-1" d="M2428,239.2s9,2.8,11.1,5.6,1.4,4.9,0,8.3-11.1,7.6-11.1,7.6"/><path class="cls-1" d="M2143.1,214.2s-2.1-2.8,0-7.6,9.4-.3,9.1-.6c3.1,1.5,1.3,5.5,1.3,5.5Z"/></g><g id="body-31" data-name="body"><path class="cls-2" d="M2112.5,255.9c-5.6-1.4-5.2-14.9-.3-19.1,3.8-2.4,10.8-2.4,15.3-6.3s4.9-8.7,7.3-11.5,8.3-7.6,14-8.3c6.7-1.6,24.1-4.9,28.8-6.7,9-3.5,17.6-9.4,31.6-12.9,0,0,31.7-11.5,32-11.5,5.3-2.2,19.4-3.1,35.4-3.1s25.7,1.4,36.1,6.9,19.5,11.1,28.5,19.5,16.7,13.2,27.8,12.5,18.1-2.8,33.3,4.2,19.5,6.3,27.8,22.2,9.7,61.8-2.8,68.1c-11,3.2-44.7-17.7-76.8-15.3-27.5,4.7-55-5.2-67.9-5.8s-31.1,17.8-48,1.9c-5-3.5-25.5-27.9-34.4-26.7-9-.7-16.7,0-29.2,2.1-6.4,1-17,4-29.7,3.7-12.2-.3-20.7,2.9-24.2.8s-5.2-6.6-2.4-8.7,18.8,2.8,22.2-3.5S2118.1,257.2,2112.5,255.9Z"/></g><g id="details-24" data-name="details"><path class="cls-3" d="M2109.1,241.3s-2.8-6.3.7-6.3h6.9C2115.3,237.1,2112.7,239.2,2109.1,241.3Z"/><path class="cls-1" d="M2158.7,217.2s-1.7-7.2-.3-10,8.9-1.5,10.4,1.4-.7,9.7-.7,9.7a18.54,18.54,0,0,1-1.7-4.5c-.7-2.8-3.8-5.2-5.9-1C2159.4,215.6,2158.7,217.2,2158.7,217.2Z"/></g><g id="legs-15" data-name="legs"><path class="cls-2" d="M2242.5,285c3,15.2,8.6,26,11.1,33.3,2.2,6.6-12.5,6.9-16.7,10.4s-4.2,9,0,9.7,28.5,1.4,31.3-2.1,13.2-47.9,13.2-47.9"/><path class="cls-2" d="M2333.1,288.4c-7.5-5.4,18.7,4.8,29.8,10.4,6.9,2.6,18.2,4.3,25.7,6.3s10.9,16.2,7.5,18.3c-3.3,2.5-5.4,2.1-12.5,6.3-5.6,3.5-7.6,11.8,0,11.8s32.7,2.4,34.7-2.8c2.4-6,18.8-38.9,15.3-38.9"/></g><circle class="cls-4" cx="2143.4" cy="228.2" r="3.7"/><circle class="cls-5" cx="2143.3" cy="228" r="4"/><circle class="cls-6" cx="2141.3" cy="227.2" r="0.6"/><circle class="cls-6" cx="2144.3" cy="229.2" r="1.6"/></g></g></svg>
