<svg id="Layer_1" data-name="Layer 1" xmlns="http://www.w3.org/2000/svg" width="1601" height="901" viewBox="0 0 1601 901"><defs><style>.cls-1{fill:#5d8264;}.cls-1,.cls-5{stroke:#000;}.cls-1,.cls-2,.cls-3,.cls-4,.cls-5,.cls-7{stroke-miterlimit:10;}.cls-2{fill:#939393;stroke:#939393;}.cls-2,.cls-3,.cls-4,.cls-5,.cls-7{stroke-width:3px;}.cls-3,.cls-6{fill:#fff;}.cls-3,.cls-7{stroke:#fff;}.cls-4{fill:#c7eff9;stroke:#c7eff9;}.cls-7{fill:none;}</style></defs><title>titelblad</title><g id="_1" data-name=" 1"><rect class="cls-1" x="0.5" y="0.5" width="1600" height="900"/></g><g id="Layer_4_copy" data-name="Layer 4 copy"><g id="Layer_1-9" data-name="Layer 1-9"><g id="Layer_3-8" data-name="Layer 3-8"><g id="Layer_10-8" data-name="Layer 10-8"><path class="cls-2" d="M366.35,729.79s-3.31,66.52,17.24,96.57,26.74,0,26.74,0a407.33,407.33,0,0,1,12.82-51.49c7.51-23,29.61-53.7,29.61-44.64" transform="translate(1)"/><path class="cls-2" d="M565,745.7s-2.21,45.08,18.34,75.14,26.74,7.51,26.74,7.51l16.13-117.13" transform="translate(1)"/></g><g id="Layer_5-8" data-name="Layer 5-8"><path class="cls-3" d="M495.19,541.72c-2.21,1.32,23,44.86,25.19,43.53,0,0-71.38,1.55-110-12.37s-86-6-104.75-5.3c-27.41,3.31-74.7,16.13-101.44,53.7S74.19,762.94,47.45,772.66s77.35,52.6,121.33,34.25,45.53-36,49.5-62.32c0,0-.44-7.51-.88-18.34-.88-24.09-1.1-64.75,6.19-72.93,10.83-11.71,19.22,2.21,19.22,2.21l27.85,69.62,4.86,32.92,89.73-17.68A87.61,87.61,0,0,1,405,732.88C427.57,734,467.35,749,467.35,749s44,21.44,81.54,20.33,62.32-21.43,72.05-39.77,8.18-53.93,10.16-76.69c2.21-23.65,8-24.09,18.79-30.5s51.49-8.62,63.43-12.82a14.78,14.78,0,0,0,9.72-6.4l8.62-20.34c-75.14-75.13-204-84.86-204-84.86Z" transform="translate(1)"/></g><path class="cls-4" d="M594,445.14c-3.76-15.25-21.44-39.55-57-76.24l-23.65,37.57c-12.81,18.12,0,49.5,0,49.5l-54.8,50.39,21.43,5.3-8.62,17.24L495,541.72c18.56-19.89,41.11-33.59,72.93-33.37,0,0,21.44,5.3,25.86,9.72s29,27.85,48.39,46.19,52.6,18.34,52.6,18.34l35.36-1.1-4.2-17.24,20.33-12.82-10.83-16.13L750,526.25l-22.1-41.33a53.78,53.78,0,0,0,18.34-23.64c6.41-16.14-13-44.64-32.26-69.84a132.73,132.73,0,0,0-47.3,57.9c-13.26-6.19-25.85-8.84-35.35-1.1A34.81,34.81,0,0,0,594,445.14Z" transform="translate(1)"/><g id="Layer_7-8" data-name="Layer 7-8"><circle class="cls-5" cx="582.16" cy="542.82" r="19.23"/><circle class="cls-6" cx="587.46" cy="537.52" r="10.17"/><circle class="cls-6" cx="572.88" cy="551.88" r="4.2"/><circle class="cls-5" cx="704.15" cy="539.95" r="16.35"/><circle class="cls-6" cx="708.79" cy="535.31" r="8.62"/><circle class="cls-6" cx="696.41" cy="547.69" r="3.76"/><path d="M698.73,582.16c0,4,15.69,12.82,18.34,11.71,6.63-2.43,13.92-11.71,13.92-11.71Z" transform="translate(1)"/><polygon class="cls-3" points="648.68 460.17 638.96 483.82 660.39 505.25 667.9 484.92 648.68 460.17"/><polygon class="cls-7" points="611.99 481.83 596.3 464.37 583.49 486.03 600.06 499.51 611.99 481.83"/><polygon class="cls-7" points="708.79 483.15 695.75 468.79 685.36 486.69 699.07 497.74 708.79 483.15"/><path d="M729.89,582.16c-9.06,2.43-50.39-19.67-61.22-54.81C672.87,547.69,695.86,585.48,729.89,582.16Z" transform="translate(1)"/></g></g><g id="Layer_12-8" data-name="Layer 12-8"><path class="cls-4" d="M217,717.85l-46.19,8.62v-15l-37.57,15,4.2-13.92-31.16,13.92S83.7,753.21,59,766.25,31.1,779.07,31.1,779.07s48.4,19.22,63.43,25.85,35.35,6.41,54.8,6.41,39.78-7.51,49.51-15,20.33-26.74,20.33-44A303.29,303.29,0,0,0,217,717.85Z" transform="translate(1)"/></g><g id="Layer_9-8" data-name="Layer 9-8"><path class="cls-3" d="M481.27,726.47s8.62,81.55,29,111.6,26.74,0,26.74,0l12.82-105.19" transform="translate(1)"/><path class="cls-3" d="M266.9,713s8.62,86.19,29.17,118,27,0,27,0a462.69,462.69,0,0,1,13-54.36c7.52-24.31,29.62-56.8,29.62-47.07" transform="translate(1)"/></g></g></g></svg>
