<?xml version="1.0" encoding="utf-8"?>
<!-- Generator: Adobe Illustrator 22.1.0, SVG Export Plug-In . SVG Version: 6.00 Build 0)  -->
<svg version="1.1" id="Layer_1" xmlns="http://www.w3.org/2000/svg" xmlns:xlink="http://www.w3.org/1999/xlink" x="0px" y="0px"
	 viewBox="0 0 1403.8 999.6" style="enable-background:new 0 0 1403.8 999.6;" xml:space="preserve">
<style type="text/css">
	.st0{fill:#939393;stroke:#939393;stroke-width:3;stroke-miterlimit:10;}
	.st1{fill:#FFFFFF;stroke:#FFFFFF;stroke-width:3;stroke-miterlimit:10;}
	.st2{fill:#C7EFF9;stroke:#C7EFF9;stroke-width:3;stroke-miterlimit:10;}
	.st3{stroke:#000000;stroke-width:3;stroke-miterlimit:10;}
	.st4{fill:#FFFFFF;}
	.st5{fill:none;stroke:#FFFFFF;stroke-width:3;stroke-miterlimit:10;}
	.st6{fill:none;stroke:#000000;stroke-width:3;stroke-miterlimit:10;}
</style>
<title>virknupls</title>
<g id="Layer_1_copy_4">
	<g id="Layer_1-2">
		<g id="Layer_3">
			<g id="Layer_10">
				<path class="st0" d="M165.4,183.6c0,0-1.5,31.3,8.1,45.5s12.6,0,12.6,0c1.5-8.2,3.5-16.3,6.1-24.2c3.5-10.8,13.9-25.3,13.9-21"
					/>
				<path class="st0" d="M258.8,191.2c0,0-1,21.2,8.6,35.4s12.6,3.5,12.6,3.5l7.6-55"/>
			</g>
			<g id="Layer_5">
				<path class="st1" d="M226,95.2c-1,0.6,10.9,21.1,11.9,20.4c0,0-33.6,0.8-51.8-5.8s-40.4-2.8-49.2-2.5
					c-12.9,1.5-35.1,7.6-47.7,25.3S28,199.3,15.4,203.8s36.4,24.8,57.1,16.2s21.4-16.9,23.2-29.3c0,0-0.3-3.5-0.4-8.6
					c-0.4-11.4-0.6-30.5,2.9-34.3c5-5.5,9.1,1,9.1,1l13.1,32.8l2.3,15.5l42.2-8.4c5.9-2.6,12.3-3.8,18.7-3.5
					c10.6,0.5,29.3,7.6,29.3,7.6s20.7,10.1,38.4,9.6s29.3-10.1,33.8-18.7s3.8-25.3,4.8-36.1c1-11.1,3.8-11.4,8.8-14.4
					s24.3-4,29.8-6.1c1.9-0.4,3.5-1.4,4.5-3l4-9.6c-35.4-35.3-96-39.9-96-39.9L226,95.2z"/>
			</g>
			<path class="st2" d="M272.4,49.8c-1.8-7.1-10-18.6-26.8-35.9l-11.1,17.7c-6,8.5,0,23.2,0,23.2l-25.8,23.7l10.1,2.5l-4,8.1
				l11.1,6.1c8.7-9.4,19.3-15.8,34.3-15.7c0,0,10.1,2.5,12.1,4.6s13.6,13.1,22.7,21.7s24.7,8.6,24.7,8.6l16.7-0.5l-2-8.1l9.6-6.1
				l-5-7.6l6.8-4.3l-10.3-19.5c3.9-2.8,6.9-6.6,8.6-11.1c3-7.6-6.2-21-15.1-32.8c-9.9,6.7-17.7,16.2-22.3,27.3
				c-6.3-2.9-12.1-4.2-16.7-0.5C283.5,46.6,277.4,47.3,272.4,49.8z"/>
			<g id="Layer_7">
				<circle class="st3" cx="266.4" cy="95.7" r="9.1"/>
				<circle class="st4" cx="268.9" cy="93.2" r="4.8"/>
				<circle class="st4" cx="262.1" cy="100" r="2"/>
				<circle class="st3" cx="323.8" cy="94.4" r="7.7"/>
				<circle class="st4" cx="326" cy="92.2" r="4"/>
				<circle class="st4" cx="320.1" cy="98" r="1.7"/>
				<path d="M321.7,114.2c0,1.9,7.4,6,8.6,5.6c3.1-1.1,6.6-5.6,6.6-5.6H321.7z"/>
				<polygon class="st1" points="297.7,56.8 293.1,68 303.2,78.1 306.8,68.5 				"/>
				<polygon class="st5" points="280.5,67 273,58.8 267.1,69 274.9,75.3 				"/>
				<polygon class="st5" points="326,67.6 319.9,60.9 315,69.3 321.4,74.5 				"/>
				<path d="M336.4,114.2c-4.3,1.2-23.7-9.3-28.8-25.8C309.5,98,320.3,115.7,336.4,114.2z"/>
			</g>
		</g>
		<g id="Layer_12">
			<path class="st2" d="M95.2,178l-21.7,4v-7l-17.7,7.1l2-6.6l-14.7,6.6c0,0-10.6,12.6-22.2,18.7s-13.1,6.1-13.1,6.1
				s22.7,9.1,29.8,12.1s16.7,3,25.8,3s18.7-3.5,23.2-7.1s9.6-12.6,9.6-20.7C96.1,188.8,95.8,183.4,95.2,178z"/>
		</g>
		<g id="Layer_9">
			<path class="st1" d="M219.4,182.1c0,0,4,38.4,13.6,52.5s12.6,0,12.6,0l6.1-49.5"/>
			<path class="st1" d="M118.6,175.8c0,0,4,40.5,13.7,55.5c9.7,15,12.7,0,12.7,0c1.5-8.6,3.5-17.2,6.1-25.5
				c3.5-11.4,13.9-26.7,13.9-22.2"/>
		</g>
	</g>
</g>
<g id="Layer_1_copy_2">
	<g id="Layer_1-2-2">
		<g id="Layer_3-2">
			<g id="Layer_10-2">
				<path class="st0" d="M502.5,189.6c0,0,9.2,30,23,40c13.8,10,11.9-4.3,11.9-4.3c-1.4-8.2-2.2-16.5-2.5-24.9
					c-0.4-11.4,4.5-28.5,5.9-24.4"/>
				<path class="st0" d="M604.3,187.2c0,0-7.8,19.8-3.3,36.2s10.8,7.4,10.8,7.4l24.9-49.7"/>
			</g>
			<g id="Layer_5-2">
				<path class="st1" d="M576,95.2c-1,0.6,10.9,21.1,11.9,20.4c0,0-33.6,0.8-51.8-5.8s-40.4-2.8-49.2-2.5
					c-12.9,1.5-35.1,7.6-47.7,25.3s-61.1,66.7-73.7,71.2s36.4,24.8,57.1,16.2s21.4-16.9,23.2-29.3c0,0-0.3-3.5-0.4-8.6
					c-0.4-11.4-0.6-30.5,2.9-34.3c5-5.5,9.1,1,9.1,1l13.1,32.8l2.3,15.5l42.2-8.4c5.9-2.6,12.3-3.8,18.7-3.5
					c10.6,0.5,29.3,7.6,29.3,7.6s20.7,10.1,38.4,9.6s29.3-10.1,33.8-18.7s3.8-25.3,4.8-36.1c1-11.1,3.8-11.4,8.8-14.4
					s24.3-4,29.8-6.1c1.9-0.4,3.5-1.4,4.5-3l4-9.6c-35.4-35.3-96-39.9-96-39.9L576,95.2z"/>
			</g>
			<path class="st2" d="M622.4,49.8c-1.8-7.1-10-18.6-26.8-35.9l-11.1,17.7c-6,8.5,0,23.2,0,23.2l-25.8,23.7l10.1,2.5l-4,8.1
				l11.1,6.1c8.7-9.4,19.3-15.8,34.3-15.7c0,0,10.1,2.5,12.1,4.6s13.6,13.1,22.7,21.7s24.7,8.6,24.7,8.6l16.7-0.5l-2-8.1l9.6-6.1
				l-5-7.6l6.8-4.3l-10.4-19.5c3.9-2.8,6.9-6.6,8.6-11.1c3-7.6-6.2-21-15.2-32.8c-9.9,6.7-17.7,16.2-22.3,27.3
				c-6.3-2.9-12.1-4.2-16.7-0.5C633.5,46.6,627.4,47.3,622.4,49.8z"/>
			<g id="Layer_7-2">
				<circle class="st3" cx="616.4" cy="95.7" r="9.1"/>
				<circle class="st4" cx="618.9" cy="93.2" r="4.8"/>
				<circle class="st4" cx="612.1" cy="100" r="2"/>
				<circle class="st3" cx="673.8" cy="94.4" r="7.7"/>
				<circle class="st4" cx="676" cy="92.2" r="4"/>
				<circle class="st4" cx="670.2" cy="98" r="1.7"/>
				<path d="M671.7,114.2c0,1.9,7.4,6,8.6,5.6c3.1-1.1,6.6-5.6,6.6-5.6H671.7z"/>
				<polygon class="st1" points="647.7,56.8 643.1,68 653.2,78.1 656.8,68.5 				"/>
				<polygon class="st5" points="630.5,67 623,58.8 617.1,69 624.8,75.3 				"/>
				<polygon class="st5" points="676,67.6 669.8,60.9 665,69.3 671.4,74.5 				"/>
				<path d="M686.4,114.2c-4.3,1.2-23.7-9.3-28.8-25.8C659.5,98,670.3,115.7,686.4,114.2z"/>
			</g>
		</g>
		<g id="Layer_12-2">
			<path class="st2" d="M445.2,178l-21.7,4v-7l-17.6,7.1l2-6.6l-14.6,6.6c0,0-10.6,12.6-22.2,18.7s-13.1,6.1-13.1,6.1
				s22.7,9.1,29.8,12.1s16.7,3,25.8,3s18.7-3.5,23.2-7.1s9.6-12.6,9.6-20.7C446.1,188.8,445.8,183.4,445.2,178z"/>
		</g>
		<g id="Layer_9-2">
			<path class="st1" d="M564.8,191.4c0,0,14.3,35.8,27.4,46.8s12.2-3.4,12.2-3.4l-7.6-49.3"/>
			<path class="st1" d="M470.1,167.5c0,0-10.8,39.2-7.2,56.7s11.8,4.6,11.8,4.6c4.5-7.5,9.5-14.8,14.9-21.6
				c7.4-9.4,22.6-19.9,21-15.7"/>
		</g>
	</g>
</g>
<g id="Layer_1_copy_3">
	<g id="Layer_1-3">
		<g id="Layer_3-3">
			<g id="Layer_10-3">
				<path class="st0" d="M864.4,183.6c0,0-1.5,31.3,8.1,45.5s12.6,0,12.6,0c1.5-8.2,3.5-16.3,6.1-24.2c3.5-10.8,13.9-25.3,13.9-21"
					/>
				<path class="st0" d="M957.8,191.2c0,0-1,21.2,8.6,35.4s12.6,3.5,12.6,3.5l7.6-55"/>
			</g>
			<g id="Layer_5-3">
				<path class="st1" d="M925,95.2c-1,0.6,10.9,21.1,11.9,20.4c0,0-33.6,0.8-51.8-5.8s-40.4-2.8-49.2-2.5
					c-12.9,1.5-35.1,7.6-47.7,25.3s-61.1,66.7-73.7,71.2s36.4,24.8,57.1,16.2s21.4-16.9,23.2-29.3c0,0-0.3-3.5-0.4-8.6
					c-0.4-11.4-0.6-30.5,2.9-34.3c5-5.5,9.1,1,9.1,1l13.1,32.8l2.3,15.5l42.2-8.4c5.9-2.6,12.3-3.8,18.7-3.5
					c10.6,0.5,29.3,7.6,29.3,7.6s20.7,10.1,38.4,9.6s29.3-10.1,33.8-18.7s3.8-25.3,4.8-36.1c1-11.1,3.8-11.4,8.8-14.4
					s24.3-4,29.8-6.1c1.9-0.4,3.5-1.4,4.6-3l4-9.6c-35.4-35.3-96-39.9-96-39.9L925,95.2z"/>
			</g>
			<path class="st2" d="M971.4,49.8c-1.8-7.1-10-18.6-26.8-35.9l-11.1,17.7c-6,8.5,0,23.2,0,23.2l-25.8,23.7l10.1,2.5l-4,8.1
				l11.1,6.1c8.7-9.4,19.3-15.8,34.3-15.7c0,0,10.1,2.5,12.1,4.6s13.6,13.1,22.7,21.7s24.7,8.6,24.7,8.6l16.7-0.5l-2-8.1l9.6-6.1
				l-5-7.6l6.8-4.3l-10.3-19.5c3.9-2.8,6.9-6.6,8.6-11.1c3-7.6-6.2-21-15.2-32.8c-9.9,6.7-17.7,16.2-22.3,27.3
				c-6.3-2.9-12.1-4.2-16.7-0.5C982.5,46.6,976.4,47.3,971.4,49.8z"/>
			<g id="Layer_7-3">
				<circle class="st3" cx="965.4" cy="95.7" r="9.1"/>
				<circle class="st4" cx="967.9" cy="93.2" r="4.8"/>
				<circle class="st4" cx="961.1" cy="100" r="2"/>
				<circle class="st3" cx="1022.8" cy="94.4" r="7.7"/>
				<path class="st4" d="M1025,88.2c2.2,0,4,1.8,4,4s-1.8,4-4,4c-2.2,0-4-1.8-4-4S1022.8,88.2,1025,88.2z"/>
				<circle class="st4" cx="1019.2" cy="98" r="1.7"/>
				<path d="M1020.7,114.2c0,1.9,7.4,6,8.6,5.6c3.1-1.1,6.6-5.6,6.6-5.6H1020.7z"/>
				<polygon class="st1" points="996.7,56.8 992.1,68 1002.2,78.1 1005.8,68.5 				"/>
				<polygon class="st5" points="979.5,67 972,58.8 966.1,69 973.8,75.3 				"/>
				<polygon class="st5" points="1025,67.6 1018.8,60.9 1014,69.3 1020.4,74.5 				"/>
				<path d="M1035.4,114.2c-4.3,1.2-23.7-9.3-28.8-25.8C1008.5,98,1019.3,115.7,1035.4,114.2z"/>
			</g>
		</g>
		<g id="Layer_12-3">
			<path class="st2" d="M794.2,178l-21.7,4v-7l-17.7,7.1l2-6.6l-14.7,6.6c0,0-10.6,12.6-22.2,18.7s-13.1,6.1-13.1,6.1
				s22.7,9.1,29.8,12.1s16.7,3,25.8,3s18.7-3.5,23.2-7.1s9.6-12.6,9.6-20.7C795.1,188.8,794.8,183.4,794.2,178z"/>
		</g>
		<g id="Layer_9-3">
			<path class="st1" d="M918.4,182.1c0,0,4,38.4,13.6,52.5s12.6,0,12.6,0l6.1-49.5"/>
			<path class="st1" d="M817.6,175.8c0,0,4,40.5,13.7,55.5s12.7,0,12.7,0c1.5-8.6,3.5-17.2,6.1-25.5c3.5-11.4,13.9-26.7,13.9-22.2"
				/>
		</g>
	</g>
</g>
<g id="Layer_1_copy">
	<g id="Layer_1-4">
		<g id="Layer_3-4">
			<g id="Layer_10-4">
				<path class="st0" d="M1209.3,170.3c0,0-13.6,28.3-10.2,45s11.6,4.9,11.6,4.9c4.5-7,9.6-13.7,15-20c7.4-8.6,22.6-17.9,20.9-13.9"
					/>
				<path class="st0" d="M1305.6,196.9c0,0,2.7,21.1,14.6,33.3s13,1.3,13,1.3l-2.1-55.5"/>
			</g>
			<g id="Layer_5-4">
				<path class="st1" d="M1276,95.2c-1,0.6,10.9,21.1,11.9,20.4c0,0-33.6,0.8-51.8-5.8s-40.4-2.8-49.2-2.5
					c-12.9,1.5-35.1,7.6-47.7,25.3s-61.1,66.7-73.7,71.2s36.4,24.8,57.1,16.2s21.4-16.9,23.2-29.3c0,0-0.3-3.5-0.4-8.6
					c-0.4-11.4-0.6-30.5,2.9-34.3c5-5.5,9.1,1,9.1,1l13.1,32.8l8.4,15.5l36.1-8.3c5.9-2.6,12.3-3.8,18.7-3.5
					c10.6,0.5,29.3,7.6,29.3,7.6s20.7,10.1,38.4,9.6s29.3-10.1,33.8-18.7s3.8-25.4,4.8-36.1c1-11.1,3.8-11.4,8.8-14.4
					s24.3-4,29.8-6.1c1.9-0.4,3.5-1.4,4.6-3l4-9.6c-35.4-35.3-96-39.9-96-39.9L1276,95.2z"/>
			</g>
			<path class="st2" d="M1322.4,49.8c-1.8-7.1-10-18.6-26.8-35.9l-11.1,17.7c-6,8.5,0,23.2,0,23.2l-25.8,23.7l10.1,2.5l-4,8.1
				l11.1,6.1c8.7-9.4,19.3-15.8,34.3-15.7c0,0,10.1,2.5,12.1,4.6s13.6,13.1,22.7,21.7s24.7,8.6,24.7,8.6l16.7-0.5l-2-8.1l9.6-6.1
				l-5-7.6l6.8-4.3l-10.3-19.5c3.9-2.8,6.9-6.6,8.6-11.1c3-7.6-6.2-21-15.2-32.8c-9.9,6.7-17.7,16.2-22.3,27.3
				c-6.3-2.9-12.1-4.2-16.7-0.5C1333.5,46.6,1327.4,47.3,1322.4,49.8z"/>
			<g id="Layer_7-4">
				<circle class="st3" cx="1316.4" cy="95.7" r="9.1"/>
				<circle class="st4" cx="1318.9" cy="93.2" r="4.8"/>
				<circle class="st4" cx="1312.1" cy="100" r="2"/>
				<circle class="st3" cx="1373.8" cy="94.4" r="7.7"/>
				<circle class="st4" cx="1376" cy="92.2" r="4"/>
				<circle class="st4" cx="1370.2" cy="98" r="1.7"/>
				<path d="M1371.7,114.2c0,1.9,7.4,6,8.6,5.6c3.1-1.1,6.6-5.6,6.6-5.6H1371.7z"/>
				<polygon class="st1" points="1347.7,56.8 1343.1,68 1353.2,78.1 1356.8,68.5 				"/>
				<polygon class="st5" points="1330.4,67 1323,58.8 1317.1,69 1324.8,75.3 				"/>
				<polygon class="st5" points="1376,67.6 1369.8,60.9 1365,69.3 1371.4,74.5 				"/>
				<path d="M1386.4,114.2c-4.3,1.2-23.7-9.3-28.8-25.8C1359.5,98,1370.3,115.7,1386.4,114.2z"/>
			</g>
		</g>
		<g id="Layer_12-4">
			<path class="st2" d="M1145.2,178l-21.7,4v-7l-17.7,7.1l2-6.6l-14.7,6.6c0,0-10.6,12.6-22.2,18.7s-13.1,6.1-13.1,6.1
				s22.7,9.1,29.8,12.1s16.7,3,25.8,3s18.7-3.5,23.2-7.1s9.6-12.6,9.6-20.7C1146.1,188.8,1145.8,183.4,1145.2,178z"/>
		</g>
		<g id="Layer_9-4">
			<path class="st1" d="M1281.5,179.3c0,0-12,36.7-9,53.5s11.5,5.2,11.5,5.2l25.8-42.7"/>
			<path class="st1" d="M1168.2,173.9c0,0,8.4,39.8,19.7,53.6s12.6-1.4,12.6-1.4c0.5-8.7,1.6-17.5,3.3-26.1
				c2.3-11.7,10.9-28.1,11.4-23.6"/>
		</g>
	</g>
</g>
<g id="Layer_1_copy_4-2">
	<g id="Layer_1-3-2">
		<g id="Layer_3-2-2">
			<g id="Layer_10-2-2">
				<path class="st0" d="M1197.8,615.2c0-4.3,10.4,10.2,13.9,21c2.5,7.9,4.6,16,6.1,24.2c0,0,3,14.1,12.6,0s8.1-45.5,8.1-45.5"/>
				<path class="st0" d="M1116.2,606.4l7.6,55c0,0,3.1,10.6,12.6-3.5s8.6-35.4,8.6-35.4"/>
			</g>
			<g id="Layer_5-2-2">
				<path class="st1" d="M1162.7,505.9c0,0-60.6,4.5-96,39.9l4,9.6c1.1,1.6,2.7,2.6,4.6,3c5.6,2.1,24.8,3,29.8,6.1s7.8,3.3,8.8,14.4
					c1,10.8,0.3,27.5,4.8,36.1s16.2,18.2,33.8,18.7s38.4-9.6,38.4-9.6s18.7-7.1,29.3-7.6c6.4-0.3,12.8,0.9,18.7,3.5l42.2,8.4
					l2.3-15.5l13.1-32.8c0,0,4.1-6.5,9.1-1c3.5,3.8,3.3,23,2.9,34.3c-0.2,5-0.4,8.6-0.4,8.6c1.9,12.4,2.5,20.7,23.2,29.3
					s69.7-11.6,57.1-16.2s-61.1-53.5-73.7-71.2s-34.8-23.7-47.7-25.3c-8.8-0.3-31.1-4-49.2,2.5s-51.8,5.8-51.8,5.8
					c1,0.6,12.9-19.8,11.9-20.5L1162.7,505.9z"/>
			</g>
			<path class="st2" d="M1113.6,482.7c-4.5-3.7-10.4-2.4-16.7,0.5c-4.6-11.1-12.3-20.5-22.3-27.3c-9,11.8-18.2,25.3-15.2,32.8
				c1.7,4.5,4.7,8.3,8.6,11.1l-10.3,19.5l6.8,4.3l-5,7.6l9.6,6.1l-2,8.1l16.7,0.5c0,0,15.7,0,24.7-8.6s20.7-19.7,22.7-21.7
				s12.1-4.5,12.1-4.5c15-0.2,25.7,6.3,34.3,15.7l11.1-6.1l-4-8.1l10.1-2.5l-25.8-23.7c0,0,6-14.8,0-23.2l-11.1-17.7
				c-16.7,17.2-25,28.7-26.8,35.9C1126.3,478.7,1120.2,478,1113.6,482.7z"/>
			<g id="Layer_7-2-2">
				<circle class="st3" cx="1137.4" cy="527.1" r="9.1"/>
				<circle class="st4" cx="1134.9" cy="524.6" r="4.8"/>
				<circle class="st4" cx="1141.7" cy="531.4" r="2"/>
				<circle class="st3" cx="1080" cy="525.7" r="7.7"/>
				<circle class="st4" cx="1077.8" cy="523.6" r="4"/>
				<circle class="st4" cx="1083.6" cy="529.4" r="1.7"/>
				<path d="M1067,545.4c0,0,3.4,4.4,6.6,5.5c1.2,0.5,8.5-3.6,8.6-5.5H1067z"/>
				<polygon class="st1" points="1097,499.8 1100.5,509.4 1110.6,499.3 1106.1,488.2 				"/>
				<polygon class="st5" points="1128.9,506.7 1136.7,500.4 1130.7,490.1 1123.3,498.4 				"/>
				<polygon class="st5" points="1082.3,505.8 1088.8,500.7 1083.9,492.3 1077.8,499 				"/>
				<path d="M1096.2,519.8c-5.2,16.5-24.6,26.9-28.8,25.8C1083.5,547.1,1094.2,529.4,1096.2,519.8z"/>
			</g>
		</g>
		<g id="Layer_12-2-2">
			<path class="st2" d="M1307.6,625.6c0,8.1,5.1,17.2,9.6,20.7s14.1,7.1,23.2,7.1s18.7,0,25.8-3s29.8-12.1,29.8-12.1
				s-1.5,0-13.1-6.1s-22.2-18.7-22.2-18.7l-14.7-6.6l2,6.6l-17.7-7v7l-21.7-4C1308,614.8,1307.7,620.2,1307.6,625.6z"/>
		</g>
		<g id="Layer_9-2-2">
			<path class="st1" d="M1152,616.5l6.1,49.5c0,0,3,14.2,12.6,0s13.6-52.6,13.6-52.6"/>
			<path class="st1" d="M1238.7,614.9c0-4.5,10.4,10.8,13.9,22.2c2.6,8.4,4.6,16.9,6.1,25.5c0,0,3,15,12.7,0s13.7-55.5,13.7-55.5"/>
		</g>
	</g>
</g>
<g id="Layer_1_copy_2-2">
	<g id="Layer_1-2-3">
		<g id="Layer_3-2-3">
			<g id="Layer_10-2-3">
				<path class="st0" d="M863,607.4c1.5-4,6.3,13.1,5.9,24.4c-0.3,8.3-1.2,16.6-2.5,24.8c0,0-2,14.3,11.9,4.3s23-40,23-40"/>
				<path class="st0" d="M767,612.5l24.9,49.7c0,0,6.3,9.1,10.8-7.4s-3.3-36.2-3.3-36.2"/>
			</g>
			<g id="Layer_5-2-3">
				<path class="st1" d="M812.7,505.9c0,0-60.6,4.5-96,39.9l4,9.6c1.1,1.6,2.7,2.6,4.5,3c5.5,2.1,24.8,3,29.8,6.1s7.8,3.3,8.8,14.4
					c1,10.8,0.3,27.5,4.8,36.1s16.2,18.2,33.9,18.7s38.3-9.6,38.3-9.6s18.7-7.1,29.3-7.6c6.4-0.3,12.8,0.9,18.7,3.5l42.2,8.4
					l2.3-15.5l13.1-32.8c0,0,4-6.5,9.1-1c3.5,3.8,3.3,23,2.9,34.3c-0.2,5-0.4,8.6-0.4,8.6c1.9,12.4,2.5,20.7,23.2,29.3
					s69.7-11.6,57.1-16.2s-61.1-53.5-73.7-71.2s-34.8-23.7-47.8-25.3c-8.8-0.3-31.1-4-49.2,2.5s-51.8,5.8-51.8,5.8
					c1,0.6,12.9-19.8,11.9-20.5L812.7,505.9z"/>
			</g>
			<path class="st2" d="M763.6,482.7c-4.5-3.7-10.4-2.4-16.7,0.5c-4.6-11.1-12.3-20.5-22.3-27.3c-9,11.8-18.2,25.3-15.2,32.8
				c1.7,4.5,4.7,8.3,8.6,11.1l-10.3,19.5l6.8,4.3l-5,7.6l9.6,6.1l-2,8.1l16.7,0.5c0,0,15.7,0,24.7-8.6s20.7-19.7,22.7-21.7
				s12.1-4.5,12.1-4.5c15-0.2,25.7,6.3,34.3,15.7l11.1-6.1l-4-8.1l10.1-2.5l-25.8-23.7c0,0,6-14.8,0-23.2l-11.1-17.7
				c-16.8,17.2-25,28.7-26.8,35.9C776.3,478.7,770.2,478,763.6,482.7z"/>
			<g id="Layer_7-2-3">
				<circle class="st3" cx="787.4" cy="527.1" r="9.1"/>
				<circle class="st4" cx="784.9" cy="524.6" r="4.8"/>
				<circle class="st4" cx="791.7" cy="531.4" r="2"/>
				<circle class="st3" cx="730" cy="525.7" r="7.7"/>
				<circle class="st4" cx="727.8" cy="523.6" r="4"/>
				<circle class="st4" cx="733.6" cy="529.4" r="1.7"/>
				<path d="M717,545.4c0,0,3.4,4.4,6.6,5.5c1.2,0.5,8.6-3.6,8.6-5.5H717z"/>
				<polygon class="st1" points="747,499.8 750.5,509.4 760.6,499.3 756.1,488.2 				"/>
				<polygon class="st5" points="778.9,506.7 786.7,500.4 780.7,490.1 773.3,498.4 				"/>
				<polygon class="st5" points="732.3,505.8 738.8,500.7 733.9,492.3 727.8,499 				"/>
				<path d="M746.2,519.8c-5.2,16.5-24.5,26.9-28.8,25.8C733.5,547.1,744.2,529.4,746.2,519.8z"/>
			</g>
		</g>
		<g id="Layer_12-2-3">
			<path class="st2" d="M957.6,625.6c0,8.1,5.1,17.2,9.6,20.7s14.1,7.1,23.2,7.1s18.7,0,25.8-3s29.8-12.1,29.8-12.1s-1.5,0-13.1-6.1
				s-22.2-18.7-22.2-18.7l-14.7-6.6l2,6.6l-17.6-7v7l-21.7-4C958,614.8,957.7,620.2,957.6,625.6z"/>
		</g>
		<g id="Layer_9-2-3">
			<path class="st1" d="M807,616.9l-7.6,49.3c0,0-0.9,14.4,12.2,3.4s27.4-46.8,27.4-46.8"/>
			<path class="st1" d="M893.1,622.8c-1.6-4.2,13.6,6.3,21,15.7c5.4,6.9,10.4,14.1,14.9,21.7c0,0,8.2,12.9,11.8-4.6
				s-7.2-56.7-7.2-56.7"/>
		</g>
	</g>
</g>
<g id="Layer_1_copy_3-2">
	<g id="Layer_1-3-3">
		<g id="Layer_3-3-2">
			<g id="Layer_10-3-2">
				<path class="st0" d="M498.8,615.2c0-4.3,10.4,10.2,13.9,21c2.5,7.9,4.6,16,6.1,24.2c0,0,3,14.1,12.6,0s8.1-45.5,8.1-45.5"/>
				<path class="st0" d="M417.2,606.4l7.6,55c0,0,3,10.6,12.6-3.5s8.6-35.4,8.6-35.4"/>
			</g>
			<g id="Layer_5-3-2">
				<path class="st1" d="M463.7,505.9c0,0-60.6,4.5-96,39.9l4,9.6c1.1,1.6,2.7,2.6,4.5,3c5.5,2.1,24.8,3,29.8,6.1s7.8,3.3,8.8,14.4
					c1,10.8,0.3,27.5,4.8,36.1s16.2,18.2,33.9,18.7s38.4-9.6,38.4-9.6s18.7-7.1,29.3-7.6c6.4-0.3,12.8,0.9,18.7,3.5l42.2,8.4
					l2.3-15.5l13.1-32.8c0,0,4-6.5,9.1-1c3.5,3.8,3.3,23,2.9,34.3c-0.2,5-0.4,8.6-0.4,8.6c1.9,12.4,2.5,20.7,23.2,29.3
					s69.7-11.6,57.1-16.2s-61.1-53.5-73.7-71.2s-34.8-23.7-47.8-25.3c-8.8-0.3-31.1-4-49.2,2.5c-18.2,6.5-51.8,5.8-51.8,5.8
					c1,0.6,12.9-19.8,11.9-20.5L463.7,505.9z"/>
			</g>
			<path class="st2" d="M414.6,482.7c-4.5-3.7-10.4-2.4-16.7,0.5c-4.6-11.1-12.4-20.5-22.3-27.3c-9,11.8-18.1,25.3-15.1,32.8
				c1.7,4.5,4.7,8.3,8.6,11.1l-10.4,19.5l6.8,4.3l-5,7.6l9.6,6.1l-2,8.1l16.7,0.5c0,0,15.6,0,24.7-8.6s20.7-19.7,22.7-21.7
				s12.1-4.5,12.1-4.5c15-0.2,25.6,6.3,34.3,15.7l11.1-6.1l-4-8.1l10.1-2.5l-25.8-23.7c0,0,6-14.8,0-23.2l-11.1-17.7
				c-16.8,17.2-25,28.7-26.8,35.9C427.3,478.7,421.2,478,414.6,482.7z"/>
			<g id="Layer_7-3-2">
				<circle class="st3" cx="438.4" cy="527.1" r="9.1"/>
				<circle class="st4" cx="435.9" cy="524.6" r="4.8"/>
				<circle class="st4" cx="442.7" cy="531.4" r="2"/>
				<circle class="st3" cx="381" cy="525.7" r="7.7"/>
				<circle class="st4" cx="378.8" cy="523.6" r="4"/>
				<circle class="st4" cx="384.6" cy="529.4" r="1.7"/>
				<path d="M367.9,545.4c0,0,3.4,4.4,6.6,5.5c1.2,0.5,8.6-3.6,8.6-5.5H367.9z"/>
				<polygon class="st1" points="398,499.8 401.5,509.4 411.6,499.3 407.1,488.2 				"/>
				<polygon class="st5" points="429.9,506.7 437.7,500.4 431.7,490.1 424.3,498.4 				"/>
				<polygon class="st5" points="383.4,505.8 389.8,500.7 384.9,492.3 378.8,499 				"/>
				<path d="M397.2,519.8c-5.1,16.5-24.5,26.9-28.8,25.8C384.5,547.1,395.2,529.4,397.2,519.8z"/>
			</g>
		</g>
		<g id="Layer_12-3-2">
			<path class="st2" d="M608.6,625.6c0,8.1,5.1,17.2,9.6,20.7s14.1,7.1,23.2,7.1s18.7,0,25.8-3s29.8-12.1,29.8-12.1s-1.5,0-13.1-6.1
				s-22.2-18.7-22.2-18.7l-14.7-6.6l2,6.6l-17.6-7v7l-21.7-4C609,614.8,608.7,620.2,608.6,625.6z"/>
		</g>
		<g id="Layer_9-3-2">
			<path class="st1" d="M453,616.5l6.1,49.5c0,0,3,14.2,12.6,0s13.6-52.6,13.6-52.6"/>
			<path class="st1" d="M539.7,614.9c0-4.5,10.4,10.8,13.9,22.2c2.6,8.4,4.6,16.9,6.1,25.5c0,0,3,15,12.7,0s13.7-55.5,13.7-55.5"/>
		</g>
	</g>
</g>
<g id="Layer_1_copy-2">
	<g id="Layer_1-4-2">
		<g id="Layer_3-4-2">
			<g id="Layer_10-4-2">
				<path class="st0" d="M157.1,617.7c-1.7-4,13.5,5.3,20.9,13.9c5.4,6.3,10.4,13,15,20c0,0,8.3,11.8,11.6-4.9s-10.2-45-10.2-45"/>
				<path class="st0" d="M72.7,607.3l-2.1,55.5c0,0,1.1,11,13-1.3s14.6-33.3,14.6-33.3"/>
			</g>
			<g id="Layer_5-4-2">
				<path class="st1" d="M112.7,505.9c0,0-60.6,4.5-96,39.9l4,9.6c1.1,1.6,2.7,2.6,4.5,3c5.5,2.1,24.8,3,29.8,6.1s7.8,3.3,8.8,14.4
					c1,10.8,0.3,27.5,4.8,36.1s16.2,18.2,33.8,18.7s38.3-9.6,38.3-9.6s18.7-7.1,29.3-7.6c6.4-0.3,12.8,0.9,18.7,3.5l36.1,8.3
					l8.4-15.5l13.1-32.8c0,0,4.1-6.5,9.1-1c3.5,3.8,3.3,23,2.9,34.3c-0.1,5-0.4,8.6-0.4,8.6c1.9,12.4,2.5,20.7,23.2,29.3
					s69.7-11.6,57.1-16.2s-61.1-53.5-73.7-71.2s-34.8-23.7-47.8-25.3c-8.8-0.3-31.1-4-49.2,2.5s-51.8,5.8-51.8,5.8
					c1,0.6,12.9-19.8,11.9-20.5L112.7,505.9z"/>
			</g>
			<path class="st2" d="M63.6,482.7c-4.5-3.7-10.4-2.4-16.7,0.5c-4.6-11.1-12.4-20.5-22.3-27.3c-9,11.8-18.1,25.3-15.1,32.8
				c1.7,4.5,4.7,8.3,8.6,11.1L7.8,519.3l6.8,4.3l-5,7.6l9.6,6.1l-2,8.1l16.7,0.5c0,0,15.7,0,24.7-8.6s20.7-19.7,22.7-21.7
				s12.1-4.5,12.1-4.5c15-0.2,25.7,6.3,34.3,15.7l11.1-6.1l-4-8.1l10.1-2.5l-25.8-23.7c0,0,6-14.8,0-23.2l-11.1-17.7
				c-16.7,17.2-25,28.7-26.8,35.9C76.3,478.7,70.2,478,63.6,482.7z"/>
			<g id="Layer_7-4-2">
				<circle class="st3" cx="87.4" cy="527.1" r="9.1"/>
				<circle class="st4" cx="84.9" cy="524.6" r="4.8"/>
				<circle class="st4" cx="91.7" cy="531.4" r="2"/>
				<circle class="st3" cx="30" cy="525.7" r="7.7"/>
				<circle class="st4" cx="27.8" cy="523.6" r="4"/>

					<ellipse transform="matrix(7.935689e-03 -1 1 7.935689e-03 -496.0295 558.7973)" class="st4" cx="33.6" cy="529.4" rx="1.7" ry="1.7"/>
				<path d="M17,545.4c0,0,3.4,4.4,6.6,5.5c1.2,0.5,8.5-3.6,8.6-5.5H17z"/>
				<polygon class="st1" points="47,499.8 50.5,509.4 60.6,499.3 56.1,488.2 				"/>
				<polygon class="st5" points="78.9,506.7 86.7,500.4 80.7,490.1 73.3,498.4 				"/>
				<polygon class="st5" points="32.3,505.8 38.8,500.7 33.9,492.3 27.8,499 				"/>
				<path d="M46.2,519.8c-5.2,16.5-24.6,26.9-28.8,25.8C33.5,547.1,44.2,529.4,46.2,519.8z"/>
			</g>
		</g>
		<g id="Layer_12-4-2">
			<path class="st2" d="M257.6,625.6c0,8.1,5.1,17.2,9.6,20.7s14.1,7.1,23.2,7.1s18.7,0,25.8-3s29.8-12.1,29.8-12.1s-1.5,0-13.1-6.1
				s-22.2-18.7-22.2-18.7l-14.6-6.6l2,6.6l-17.7-7v7l-21.7-4C258,614.8,257.7,620.2,257.6,625.6z"/>
		</g>
		<g id="Layer_9-4-2">
			<path class="st1" d="M94,626.7l25.8,42.7c0,0,8.5,11.7,11.5-5.2s-9-53.5-9-53.5"/>
			<path class="st1" d="M188.6,607.9c0.5-4.5,9.2,11.8,11.4,23.6c1.6,8.6,2.7,17.3,3.3,26.1c0,0,1.4,15.2,12.6,1.4
				s19.7-53.6,19.7-53.6"/>
		</g>
	</g>
</g>
<g id="Layer_1_copy-2_1_">
	<g id="Layer_1-4-2_1_">
		<g id="Layer_3-4-2_1_">
			<g id="Layer_10-4-2_1_">
				<path class="st0" d="M155.4,933.7c-1.7-4,13.5,5.3,20.9,13.9c5.4,6.3,10.4,13,15,20c0,0,8.3,11.8,11.6-4.9s-10.2-45-10.2-45"/>
				<path class="st0" d="M71,923.3l-2.1,55.5c0,0,1.1,11,13-1.3s14.6-33.3,14.6-33.3"/>
			</g>
			<g id="Layer_5-4-2_1_">
				<path class="st1" d="M111.1,821.9c0,0-60.6,4.5-96,39.9l4,9.6c1.1,1.6,2.7,2.6,4.5,3c5.5,2.1,24.8,3,29.8,6.1s7.8,3.3,8.8,14.4
					c1,10.8,0.3,27.5,4.8,36.1s16.2,18.2,33.8,18.7s38.4-9.6,38.4-9.6s18.7-7.1,29.3-7.6c6.4-0.3,12.8,0.9,18.7,3.5l36.1,8.3
					l8.4-15.5l13.1-32.8c0,0,4.1-6.5,9.1-1c3.5,3.8,3.3,23,2.9,34.3c-0.1,5-0.4,8.6-0.4,8.6c1.9,12.4,2.5,20.7,23.2,29.3
					s69.7-11.6,57.1-16.2S275.6,897.7,263,880s-34.8-23.7-47.8-25.3c-8.8-0.3-31.1-4-49.2,2.5s-51.8,5.8-51.8,5.8
					c1,0.6,12.9-19.8,11.9-20.5L111.1,821.9z"/>
			</g>
			<path class="st2" d="M62,798.7c-4.5-3.7-10.4-2.4-16.7,0.5c-4.6-11.1-12.4-20.5-22.3-27.3c-9,11.8-18.1,25.3-15.1,32.8
				c1.7,4.5,4.7,8.3,8.6,11.1L6.1,835.3l6.8,4.3l-5,7.6l9.6,6.1l-2,8.1l16.7,0.5c0,0,15.7,0,24.7-8.6s20.7-19.7,22.7-21.7
				s12.1-4.5,12.1-4.5c15-0.2,25.7,6.3,34.3,15.7l11.1-6.1l-4-8.1l10.1-2.5l-25.8-23.7c0,0,6-14.8,0-23.2l-11.1-17.7
				c-16.7,17.2-25,28.7-26.8,35.9C74.7,794.7,68.6,794,62,798.7z"/>
			<g id="Layer_7-4-2_1_">
				<path class="st3" d="M85.7,852.2"/>
				<path d="M15.3,861.4c0,0,3.4,4.4,6.6,5.5c1.2,0.5,8.5-3.6,8.6-5.5H15.3z"/>
				<polygon class="st1" points="45.3,815.8 48.9,825.4 59,815.3 54.4,804.2 				"/>
				<polygon class="st5" points="77.2,822.7 85,816.4 79.1,806.1 71.6,814.4 				"/>
				<polygon class="st5" points="30.7,821.8 37.1,816.7 32.2,808.3 26.1,815 				"/>
				<path d="M44.6,835.8c-5.2,16.5-24.5,26.9-28.8,25.8C31.8,863.1,42.5,845.4,44.6,835.8z"/>
			</g>
		</g>
		<g id="Layer_12-4-2_1_">
			<path class="st2" d="M256,941.6c0,8.1,5.1,17.2,9.6,20.7s14.1,7.1,23.2,7.1s18.7,0,25.8-3s29.8-12.1,29.8-12.1s-1.5,0-13.1-6.1
				S309,929.4,309,929.4l-14.6-6.6l2,6.6l-17.7-7v7l-21.7-4C256.3,930.8,256,936.2,256,941.6z"/>
		</g>
		<g id="Layer_9-4-2_1_">
			<path class="st1" d="M92.3,942.7l25.8,42.7c0,0,8.5,11.7,11.5-5.2c3-16.8-9-53.5-9-53.5"/>
			<path class="st1" d="M186.9,923.9c0.5-4.5,9.2,11.8,11.4,23.6c1.6,8.6,2.7,17.3,3.3,26.1c0,0,1.4,15.2,12.6,1.4
				s19.7-53.6,19.7-53.6"/>
		</g>
		<line class="st6" x1="56.5" y1="832.8" x2="65.5" y2="844.7"/>
		<line class="st6" x1="65.5" y1="832.8" x2="56.5" y2="844.7"/>
		<line class="st6" x1="22.8" y1="831.3" x2="31.9" y2="840.2"/>
		<line class="st6" x1="31.9" y1="831.3" x2="22.8" y2="840.2"/>
	</g>
</g>
</svg>
