<svg id="Layer_1" data-name="Layer 1" xmlns="http://www.w3.org/2000/svg" width="1403.8" height="663.7" viewBox="0 0 1403.8 663.7"><defs><style>.cls-1{fill:#939393;stroke:#939393;}.cls-1,.cls-2,.cls-3,.cls-4,.cls-6{stroke-miterlimit:10;stroke-width:3px;}.cls-2,.cls-5{fill:#fff;}.cls-2,.cls-6{stroke:#fff;}.cls-3{fill:#c7eff9;stroke:#c7eff9;}.cls-4{stroke:#000;}.cls-6{fill:none;}</style></defs><title>virknupls</title><g id="Layer_1_copy_4" data-name="Layer 1 copy 4"><g id="Layer_1-2" data-name="Layer 1"><g id="Layer_3" data-name="Layer 3"><g id="Layer_10" data-name="Layer 10"><path class="cls-1" d="M163.46,306.19s-1.52,31.31,8.08,45.45,12.62,0,12.62,0a192.15,192.15,0,0,1,6.06-24.24c3.49-10.81,13.89-25.25,13.89-21" transform="translate(1.9 -134.07)"/><path class="cls-1" d="M256.89,313.75s-1,21.21,8.58,35.36,12.63,3.53,12.63,3.53l7.57-55.05" transform="translate(1.9 -134.07)"/></g><g id="Layer_5" data-name="Layer 5"><path class="cls-2" d="M224.06,217.8c-1,.6,10.86,21.06,11.87,20.45,0,0-33.59.76-51.77-5.81s-40.4-2.77-49.24-2.52c-12.87,1.51-35.1,7.57-47.72,25.25s-61.11,66.66-73.73,71.21,36.36,24.75,57.06,16.16,21.36-16.92,23.23-29.29c0,0-.25-3.54-.4-8.59-.4-11.36-.56-30.5,2.93-34.34,5-5.55,9.09,1,9.09,1l13.08,32.78,2.32,15.45L163,311.19a40.89,40.89,0,0,1,18.69-3.54c10.6.51,29.29,7.58,29.29,7.58s20.71,10.1,38.38,9.59,29.29-10.1,33.84-18.68S287,280.79,288,270c1-11.11,3.78-11.36,8.83-14.39s24.25-4,29.8-6.06a7.16,7.16,0,0,0,4.55-3l4-9.6c-35.36-35.35-96-39.9-96-39.9Z" transform="translate(1.9 -134.07)"/></g><path class="cls-3" d="M270.52,172.35c-1.76-7.12-10-18.64-26.76-35.86l-11.11,17.7c-6,8.48,0,23.23,0,23.23l-25.76,23.71,10.1,2.53-4,8.08,11.11,6.06c8.69-9.39,19.34-15.81,34.34-15.66,0,0,10.1,2.53,12.12,4.55s13.64,13.13,22.73,21.71S318,237,318,237l16.67-.51-2-8.08,9.6-6.06-5.05-7.57,6.81-4.29L333.71,191a24.52,24.52,0,0,0,8.59-11.11c3-7.57-6.17-21-15.15-32.82a61.46,61.46,0,0,0-22.26,27.27c-6.26-2.93-12.12-4.19-16.66-.51C281.63,169.19,275.52,169.92,270.52,172.35Z" transform="translate(1.9 -134.07)"/><g id="Layer_7" data-name="Layer 7"><circle class="cls-4" cx="266.36" cy="84.23" r="9.09"/><circle class="cls-5" cx="268.89" cy="81.71" r="4.8"/><circle class="cls-5" cx="262.07" cy="88.52" r="2.02"/><circle class="cls-4" cx="323.78" cy="82.87" r="7.73"/><circle class="cls-5" cx="325.96" cy="80.7" r="4.04"/><circle class="cls-5" cx="320.15" cy="86.51" r="1.72"/><path d="M319.76,236.74c.05,1.92,7.38,6,8.59,5.55,3.13-1.11,6.56-5.55,6.56-5.55Z" transform="translate(1.9 -134.07)"/><polygon class="cls-2" points="297.67 45.35 293.13 56.46 303.23 66.56 306.76 56.96 297.67 45.35"/><polygon class="cls-6" points="280.45 55.5 273.03 47.27 267.07 57.52 274.85 63.83 280.45 55.5"/><polygon class="cls-6" points="326.01 56.1 319.85 49.39 315 57.82 321.41 62.97 326.01 56.1"/><path d="M334.46,236.74c-4.29,1.16-23.69-9.3-28.84-25.76C307.64,220.58,318.4,238.3,334.46,236.74Z" transform="translate(1.9 -134.07)"/></g></g><g id="Layer_12" data-name="Layer 12"><path class="cls-3" d="M93.26,300.62l-21.72,4v-7l-17.65,7.07,2-6.56-14.65,6.56S30.64,317.29,19,323.35s-13.13,6.06-13.13,6.06,22.73,9.09,29.8,12.12,16.66,3,25.75,3,18.69-3.54,23.23-7.07,9.6-12.63,9.6-20.71A155,155,0,0,0,93.26,300.62Z" transform="translate(1.9 -134.07)"/></g><g id="Layer_9" data-name="Layer 9"><path class="cls-2" d="M217.5,304.66s4,38.38,13.63,52.53,12.63,0,12.63,0l6.06-49.5" transform="translate(1.9 -134.07)"/><path class="cls-2" d="M116.74,298.35s4,40.5,13.69,55.45,12.68,0,12.68,0a209.12,209.12,0,0,1,6.11-25.55c3.53-11.42,13.93-26.72,13.93-22.17" transform="translate(1.9 -134.07)"/></g></g></g><g id="Layer_1_copy_2" data-name="Layer 1 copy 2"><g id="Layer_1-2-2" data-name="Layer 1-2"><g id="Layer_3-2" data-name="Layer 3-2"><g id="Layer_10-2" data-name="Layer 10-2"><path class="cls-1" d="M500.6,312.19s9.22,30,23,40,11.88-4.3,11.88-4.3A190.07,190.07,0,0,1,533,323c-.4-11.35,4.47-28.47,5.93-24.44" transform="translate(1.9 -134.07)"/><path class="cls-1" d="M602.43,309.76s-7.79,19.75-3.27,36.23S610,353.4,610,353.4l24.92-49.66" transform="translate(1.9 -134.07)"/></g><g id="Layer_5-2" data-name="Layer 5-2"><path class="cls-2" d="M574.06,217.8c-1,.6,10.86,21.06,11.87,20.45,0,0-33.59.76-51.77-5.81s-40.4-2.77-49.24-2.52c-12.87,1.51-35.1,7.57-47.72,25.25s-61.11,66.66-73.73,71.21,36.36,24.75,57.06,16.16,21.37-16.92,23.23-29.29c0,0-.25-3.54-.4-8.59-.4-11.36-.56-30.5,2.93-34.34,5-5.55,9.09,1,9.09,1l13.08,32.78,2.32,15.45L513,311.19a40.89,40.89,0,0,1,18.69-3.54c10.6.51,29.29,7.58,29.29,7.58s20.71,10.1,38.38,9.59,29.29-10.1,33.84-18.68S637,280.79,638,270c1-11.11,3.78-11.36,8.83-14.39s24.25-4,29.8-6.06a7.16,7.16,0,0,0,4.55-3l4-9.6c-35.36-35.35-96-39.9-96-39.9Z" transform="translate(1.9 -134.07)"/></g><path class="cls-3" d="M620.52,172.35c-1.76-7.12-10-18.64-26.76-35.86l-11.11,17.7c-6,8.48,0,23.23,0,23.23l-25.76,23.71,10.1,2.53-4,8.08,11.11,6.06c8.69-9.39,19.34-15.81,34.34-15.66,0,0,10.1,2.53,12.12,4.55s13.64,13.13,22.73,21.71S668,237,668,237l16.67-.51-2-8.08,9.6-6.06-5-7.57,6.81-4.29L683.71,191a24.52,24.52,0,0,0,8.59-11.11c3-7.57-6.17-21-15.15-32.82a61.46,61.46,0,0,0-22.26,27.27c-6.26-2.93-12.12-4.19-16.66-.51C631.63,169.19,625.52,169.92,620.52,172.35Z" transform="translate(1.9 -134.07)"/><g id="Layer_7-2" data-name="Layer 7-2"><circle class="cls-4" cx="616.36" cy="84.23" r="9.09"/><circle class="cls-5" cx="618.89" cy="81.71" r="4.8"/><circle class="cls-5" cx="612.07" cy="88.52" r="2.02"/><circle class="cls-4" cx="673.78" cy="82.87" r="7.73"/><circle class="cls-5" cx="675.96" cy="80.7" r="4.04"/><circle class="cls-5" cx="670.15" cy="86.51" r="1.72"/><path d="M669.76,236.74c0,1.92,7.38,6,8.59,5.55,3.13-1.11,6.56-5.55,6.56-5.55Z" transform="translate(1.9 -134.07)"/><polygon class="cls-2" points="647.67 45.35 643.13 56.46 653.23 66.56 656.76 56.96 647.67 45.35"/><polygon class="cls-6" points="630.45 55.5 623.03 47.27 617.07 57.52 624.85 63.83 630.45 55.5"/><polygon class="cls-6" points="676.01 56.1 669.84 49.39 665 57.82 671.41 62.97 676.01 56.1"/><path d="M684.46,236.74c-4.29,1.16-23.69-9.3-28.84-25.76C657.64,220.58,668.4,238.3,684.46,236.74Z" transform="translate(1.9 -134.07)"/></g></g><g id="Layer_12-2" data-name="Layer 12-2"><path class="cls-3" d="M443.26,300.62l-21.72,4v-7l-17.65,7.07,2-6.56-14.65,6.56s-10.6,12.63-22.22,18.69-13.13,6.06-13.13,6.06,22.73,9.09,29.8,12.12,16.66,3,25.75,3,18.69-3.54,23.23-7.07,9.6-12.63,9.6-20.71A155,155,0,0,0,443.26,300.62Z" transform="translate(1.9 -134.07)"/></g><g id="Layer_9-2" data-name="Layer 9-2"><path class="cls-2" d="M562.89,313.93s14.33,35.83,27.41,46.83,12.15-3.44,12.15-3.44l-7.63-49.27" transform="translate(1.9 -134.07)"/><path class="cls-2" d="M468.24,290.1s-10.79,39.24-7.17,56.66,11.82,4.56,11.82,4.56a210.79,210.79,0,0,1,14.89-21.65c7.4-9.38,22.61-19.92,21-15.68" transform="translate(1.9 -134.07)"/></g></g></g><g id="Layer_1_copy_3" data-name="Layer 1 copy 3"><g id="Layer_1-3" data-name="Layer 1-3"><g id="Layer_3-3" data-name="Layer 3-3"><g id="Layer_10-3" data-name="Layer 10-3"><path class="cls-1" d="M862.46,306.19s-1.52,31.31,8.08,45.45,12.62,0,12.62,0a192.15,192.15,0,0,1,6.06-24.24c3.49-10.81,13.89-25.25,13.89-21" transform="translate(1.9 -134.07)"/><path class="cls-1" d="M955.89,313.75s-1,21.21,8.58,35.36,12.63,3.53,12.63,3.53l7.57-55.05" transform="translate(1.9 -134.07)"/></g><g id="Layer_5-3" data-name="Layer 5-3"><path class="cls-2" d="M923.06,217.8c-1,.6,10.86,21.06,11.87,20.45,0,0-33.59.76-51.77-5.81s-40.4-2.77-49.24-2.52c-12.87,1.51-35.1,7.57-47.72,25.25s-61.11,66.66-73.73,71.21,36.36,24.75,57.06,16.16,21.37-16.92,23.23-29.29c0,0-.25-3.54-.4-8.59-.4-11.36-.56-30.5,2.93-34.34,5.05-5.55,9.09,1,9.09,1l13.08,32.78,2.32,15.45L862,311.19a40.89,40.89,0,0,1,18.69-3.54c10.6.51,29.29,7.58,29.29,7.58s20.71,10.1,38.38,9.59,29.29-10.1,33.84-18.68S986,280.79,987,270c1-11.11,3.78-11.36,8.83-14.39s24.25-4,29.8-6.06a7.16,7.16,0,0,0,4.55-3l4-9.6c-35.36-35.35-96-39.9-96-39.9Z" transform="translate(1.9 -134.07)"/></g><path class="cls-3" d="M969.52,172.35c-1.76-7.12-10-18.64-26.76-35.86l-11.11,17.7c-6,8.48,0,23.23,0,23.23l-25.76,23.71,10.1,2.53-4,8.08,11.11,6.06c8.69-9.39,19.34-15.81,34.34-15.66,0,0,10.1,2.53,12.12,4.55s13.64,13.13,22.73,21.71S1017,237,1017,237l16.67-.51-2-8.08,9.6-6.06-5-7.57,6.81-4.29L1032.76,191a24.52,24.52,0,0,0,8.59-11.11c3-7.57-6.17-21-15.15-32.82a61.57,61.57,0,0,0-22.31,27.27c-6.26-2.93-12.12-4.19-16.66-.51C980.63,169.19,974.52,169.92,969.52,172.35Z" transform="translate(1.9 -134.07)"/><g id="Layer_7-3" data-name="Layer 7-3"><circle class="cls-4" cx="965.36" cy="84.23" r="9.09"/><circle class="cls-5" cx="967.89" cy="81.71" r="4.8"/><circle class="cls-5" cx="961.07" cy="88.52" r="2.02"/><circle class="cls-4" cx="1022.78" cy="82.87" r="7.73"/><path class="cls-5" d="M1023.06,210.73a4,4,0,1,1-4,4A4,4,0,0,1,1023.06,210.73Z" transform="translate(1.9 -134.07)"/><circle class="cls-5" cx="1019.15" cy="86.51" r="1.72"/><path d="M1018.76,236.74c0,1.92,7.38,6,8.59,5.55,3.13-1.11,6.56-5.55,6.56-5.55Z" transform="translate(1.9 -134.07)"/><polygon class="cls-2" points="996.67 45.35 992.13 56.46 1002.23 66.56 1005.76 56.96 996.67 45.35"/><polygon class="cls-6" points="979.45 55.5 972.03 47.27 966.07 57.52 973.85 63.83 979.45 55.5"/><polygon class="cls-6" points="1025.01 56.1 1018.84 49.39 1014 57.82 1020.41 62.97 1025.01 56.1"/><path d="M1033.46,236.74c-4.29,1.16-23.69-9.3-28.84-25.76C1006.64,220.58,1017.4,238.3,1033.46,236.74Z" transform="translate(1.9 -134.07)"/></g></g><g id="Layer_12-3" data-name="Layer 12-3"><path class="cls-3" d="M792.26,300.62l-21.72,4v-7l-17.65,7.07,2-6.56-14.65,6.56s-10.6,12.63-22.22,18.69-13.13,6.06-13.13,6.06,22.73,9.09,29.8,12.12,16.66,3,25.75,3,18.69-3.54,23.23-7.07,9.6-12.63,9.6-20.71A155,155,0,0,0,792.26,300.62Z" transform="translate(1.9 -134.07)"/></g><g id="Layer_9-3" data-name="Layer 9-3"><path class="cls-2" d="M916.5,304.66s4,38.38,13.63,52.53,12.63,0,12.63,0l6.06-49.5" transform="translate(1.9 -134.07)"/><path class="cls-2" d="M815.74,298.35s4,40.5,13.69,55.45,12.68,0,12.68,0a209.12,209.12,0,0,1,6.11-25.55c3.53-11.42,13.93-26.72,13.93-22.17" transform="translate(1.9 -134.07)"/></g></g></g><g id="Layer_1_copy" data-name="Layer 1 copy"><g id="Layer_1-4" data-name="Layer 1-4"><g id="Layer_3-4" data-name="Layer 3-4"><g id="Layer_10-4" data-name="Layer 10-4"><path class="cls-1" d="M1207.41,292.89s-13.58,28.26-10.24,45,11.63,4.91,11.63,4.91a187.22,187.22,0,0,1,15-20c7.41-8.6,22.61-17.86,20.94-13.9" transform="translate(1.9 -134.07)"/><path class="cls-1" d="M1303.7,319.44s2.7,21.07,14.62,33.32,13,1.27,13,1.27l-2.14-55.52" transform="translate(1.9 -134.07)"/></g><g id="Layer_5-4" data-name="Layer 5-4"><path class="cls-2" d="M1274.06,217.8c-1,.6,10.86,21.06,11.87,20.45,0,0-33.59.76-51.77-5.81s-40.4-2.77-49.24-2.52c-12.87,1.51-35.1,7.57-47.72,25.25s-61.11,66.66-73.73,71.21,36.36,24.75,57.06,16.16,21.37-16.92,23.23-29.29c0,0-.25-3.54-.4-8.59-.4-11.36-.56-30.5,2.93-34.34,5-5.55,9.09,1,9.09,1l13.08,32.78,8.43,15.45,36.06-8.33a40.89,40.89,0,0,1,18.69-3.54c10.6.51,29.29,7.58,29.29,7.58s20.71,10.1,38.38,9.59,29.29-10.1,33.84-18.68,3.84-25.35,4.8-36.11c1-11.11,3.78-11.36,8.83-14.39s24.25-4,29.8-6.06a7.16,7.16,0,0,0,4.55-3l4-9.6c-35.36-35.35-96-39.9-96-39.9Z" transform="translate(1.9 -134.07)"/></g><path class="cls-3" d="M1320.52,172.35c-1.76-7.12-10-18.64-26.76-35.86l-11.11,17.7c-6,8.48,0,23.23,0,23.23l-25.76,23.71,10.1,2.53-4,8.08,11.11,6.06c8.69-9.39,19.34-15.81,34.34-15.66,0,0,10.1,2.53,12.12,4.55s13.64,13.13,22.73,21.71S1368,237,1368,237l16.67-.51-2-8.08,9.6-6.06-5-7.57,6.81-4.29L1383.76,191a24.52,24.52,0,0,0,8.59-11.11c3-7.57-6.17-21-15.15-32.82a61.57,61.57,0,0,0-22.31,27.27c-6.26-2.93-12.12-4.19-16.66-.51C1331.63,169.19,1325.52,169.92,1320.52,172.35Z" transform="translate(1.9 -134.07)"/><g id="Layer_7-4" data-name="Layer 7-4"><circle class="cls-4" cx="1316.36" cy="84.23" r="9.09"/><circle class="cls-5" cx="1318.89" cy="81.71" r="4.8"/><circle class="cls-5" cx="1312.07" cy="88.52" r="2.02"/><circle class="cls-4" cx="1373.78" cy="82.87" r="7.73"/><circle class="cls-5" cx="1375.96" cy="80.7" r="4.04"/><circle class="cls-5" cx="1370.15" cy="86.51" r="1.72"/><path d="M1369.76,236.74c0,1.92,7.38,6,8.59,5.55,3.13-1.11,6.56-5.55,6.56-5.55Z" transform="translate(1.9 -134.07)"/><polygon class="cls-2" points="1347.67 45.35 1343.13 56.46 1353.23 66.56 1356.76 56.96 1347.67 45.35"/><polygon class="cls-6" points="1330.45 55.5 1323.03 47.27 1317.07 57.52 1324.85 63.83 1330.45 55.5"/><polygon class="cls-6" points="1376.01 56.1 1369.85 49.39 1365 57.82 1371.41 62.97 1376.01 56.1"/><path d="M1384.46,236.74c-4.29,1.16-23.69-9.3-28.84-25.76C1357.64,220.58,1368.4,238.3,1384.46,236.74Z" transform="translate(1.9 -134.07)"/></g></g><g id="Layer_12-4" data-name="Layer 12-4"><path class="cls-3" d="M1143.26,300.62l-21.72,4v-7l-17.65,7.07,2-6.56-14.65,6.56s-10.6,12.63-22.22,18.69-13.13,6.06-13.13,6.06,22.73,9.09,29.8,12.12,16.66,3,25.75,3,18.69-3.54,23.23-7.07,9.6-12.63,9.6-20.71A155,155,0,0,0,1143.26,300.62Z" transform="translate(1.9 -134.07)"/></g><g id="Layer_9-4" data-name="Layer 9-4"><path class="cls-2" d="M1279.63,301.91s-12,36.68-9,53.51,11.53,5.16,11.53,5.16l25.75-42.7" transform="translate(1.9 -134.07)"/><path class="cls-2" d="M1166.29,296.48s8.45,39.81,19.68,53.62,12.6-1.39,12.6-1.39a211.51,211.51,0,0,1,3.27-26.07c2.27-11.73,10.93-28.08,11.43-23.56" transform="translate(1.9 -134.07)"/></g></g></g><g id="Layer_1_copy_4-2" data-name="Layer 1 copy 4"><g id="Layer_1-3-2" data-name="Layer 1"><g id="Layer_3-2-2" data-name="Layer 3"><g id="Layer_10-2-2" data-name="Layer 10"><path class="cls-1" d="M1195.85,737.78c0-4.25,10.4,10.19,13.89,21A192.58,192.58,0,0,1,1215.8,783s3,14.14,12.62,0,8.08-45.45,8.08-45.45" transform="translate(1.9 -134.07)"/><path class="cls-1" d="M1114.29,729l7.57,55s3.05,10.62,12.63-3.53,8.58-35.36,8.58-35.36" transform="translate(1.9 -134.07)"/></g><g id="Layer_5-2-2" data-name="Layer 5"><path class="cls-2" d="M1160.83,628.46s-60.64,4.55-96,39.9l4,9.6a7.16,7.16,0,0,0,4.55,3c5.55,2.06,24.75,3,29.8,6.06s7.83,3.28,8.83,14.39c1,10.76.25,27.53,4.8,36.11s16.17,18.17,33.84,18.68,38.38-9.59,38.38-9.59,18.69-7.07,29.29-7.58a41,41,0,0,1,18.69,3.54l42.17,8.36,2.32-15.45,13.08-32.78s4.09-6.55,9.09-1c3.49,3.84,3.33,23,2.93,34.34-.15,5.05-.4,8.59-.4,8.59,1.87,12.37,2.53,20.7,23.23,29.29s69.68-11.61,57.06-16.16-61.11-53.53-73.73-71.21-34.85-23.74-47.72-25.25c-8.84-.25-31.06-4-49.24,2.52s-51.77,5.81-51.77,5.81c1,.61,12.87-19.85,11.87-20.45Z" transform="translate(1.9 -134.07)"/></g><path class="cls-3" d="M1111.73,605.24c-4.54-3.68-10.4-2.42-16.66.51a61.57,61.57,0,0,0-22.26-27.27c-9,11.82-18.15,25.25-15.15,32.82a24.52,24.52,0,0,0,8.59,11.11l-10.35,19.45,6.81,4.29-5,7.57,9.6,6.06-2,8.08,16.67.51s15.65,0,24.74-8.59,20.71-19.69,22.73-21.71,12.12-4.55,12.12-4.55c15-.15,25.65,6.27,34.34,15.66l11.11-6.06-4-8.08,10.1-2.53-25.76-23.71s6-14.75,0-23.23l-11.11-17.7c-16.71,17.22-25,28.74-26.76,35.86C1124.44,601.3,1118.33,600.57,1111.73,605.24Z" transform="translate(1.9 -134.07)"/><g id="Layer_7-2-2" data-name="Layer 7"><circle class="cls-4" cx="1137.4" cy="515.61" r="9.09"/><circle class="cls-5" cx="1134.87" cy="513.09" r="4.8"/><circle class="cls-5" cx="1141.69" cy="519.9" r="2.02"/><circle class="cls-4" cx="1079.98" cy="514.25" r="7.73"/><circle class="cls-5" cx="1077.8" cy="512.08" r="4.04"/><circle class="cls-5" cx="1083.61" cy="517.89" r="1.72"/><path d="M1065.05,668s3.43,4.44,6.56,5.55c1.21.45,8.54-3.63,8.59-5.55Z" transform="translate(1.9 -134.07)"/><polygon class="cls-2" points="1097 488.34 1100.53 497.94 1110.63 487.84 1106.09 476.73 1097 488.34"/><polygon class="cls-6" points="1128.91 495.21 1136.69 488.9 1130.73 478.65 1123.31 486.88 1128.91 495.21"/><polygon class="cls-6" points="1082.35 494.35 1088.76 489.2 1083.91 480.77 1077.75 487.48 1082.35 494.35"/><path d="M1094.34,642.36c-5.15,16.46-24.55,26.92-28.84,25.76C1081.56,669.68,1092.32,652,1094.34,642.36Z" transform="translate(1.9 -134.07)"/></g></g><g id="Layer_12-2-2" data-name="Layer 12"><path class="cls-3" d="M1305.73,748.13c0,8.08,5.06,17.18,9.6,20.71s14.14,7.07,23.23,7.07,18.68,0,25.75-3,29.8-12.12,29.8-12.12-1.51,0-13.13-6.06S1358.76,736,1358.76,736l-14.65-6.56,2,6.56L1328.46,729v7l-21.72-4A155.19,155.19,0,0,0,1305.73,748.13Z" transform="translate(1.9 -134.07)"/></g><g id="Layer_9-2-2" data-name="Layer 9"><path class="cls-2" d="M1150.14,739.07l6.06,49.5s3,14.15,12.63,0S1182.46,736,1182.46,736" transform="translate(1.9 -134.07)"/><path class="cls-2" d="M1236.81,737.46c0-4.55,10.4,10.75,13.93,22.17a209.12,209.12,0,0,1,6.11,25.55s3,15,12.68,0,13.69-55.45,13.69-55.45" transform="translate(1.9 -134.07)"/></g></g></g><g id="Layer_1_copy_2-2" data-name="Layer 1 copy 2"><g id="Layer_1-2-3" data-name="Layer 1-2"><g id="Layer_3-2-3" data-name="Layer 3-2"><g id="Layer_10-2-3" data-name="Layer 10-2"><path class="cls-1" d="M861.05,730c1.46-4,6.33,13.09,5.93,24.44a190.07,190.07,0,0,1-2.55,24.85s-1.95,14.3,11.88,4.3,23.05-40,23.05-40" transform="translate(1.9 -134.07)"/><path class="cls-1" d="M765.07,735.12,790,784.78s6.29,9.07,10.81-7.41-3.27-36.23-3.27-36.23" transform="translate(1.9 -134.07)"/></g><g id="Layer_5-2-3" data-name="Layer 5-2"><path class="cls-2" d="M810.83,628.46s-60.64,4.55-96,39.9l4,9.6a7.16,7.16,0,0,0,4.55,3c5.55,2.06,24.75,3,29.8,6.06S761,690.3,762,701.41c1,10.76.25,27.53,4.8,36.11S783,755.69,800.65,756.2,839,746.61,839,746.61s18.69-7.07,29.29-7.58A41,41,0,0,1,887,742.57l42.17,8.36,2.32-15.45,13.08-32.78s4-6.55,9.09-1c3.49,3.84,3.33,23,2.93,34.34-.15,5.05-.4,8.59-.4,8.59,1.86,12.37,2.53,20.7,23.23,29.29s69.68-11.61,57.06-16.16-61.11-53.53-73.73-71.21S927.91,662.81,915,661.3c-8.84-.25-31.06-4-49.24,2.52S814,669.63,814,669.63c1,.61,12.87-19.85,11.87-20.45Z" transform="translate(1.9 -134.07)"/></g><path class="cls-3" d="M761.73,605.24c-4.54-3.68-10.4-2.42-16.66.51a61.57,61.57,0,0,0-22.26-27.27c-9,11.82-18.15,25.25-15.15,32.82a24.52,24.52,0,0,0,8.59,11.11L705.9,641.86l6.81,4.29-5.05,7.57,9.6,6.06-2,8.08,16.67.51s15.65,0,24.74-8.59,20.71-19.69,22.73-21.71,12.12-4.55,12.12-4.55c15-.15,25.65,6.27,34.34,15.66L837,643.12,833,635l10.1-2.53L817.31,608.8s6-14.75,0-23.23l-11.11-17.7c-16.76,17.22-25,28.74-26.76,35.86C774.44,601.3,768.33,600.57,761.73,605.24Z" transform="translate(1.9 -134.07)"/><g id="Layer_7-2-3" data-name="Layer 7-2"><circle class="cls-4" cx="787.4" cy="515.61" r="9.09"/><circle class="cls-5" cx="784.87" cy="513.09" r="4.8"/><circle class="cls-5" cx="791.69" cy="519.9" r="2.02"/><circle class="cls-4" cx="729.98" cy="514.25" r="7.73"/><circle class="cls-5" cx="727.8" cy="512.08" r="4.04"/><circle class="cls-5" cx="733.61" cy="517.89" r="1.72"/><path d="M715.05,668s3.43,4.44,6.56,5.55c1.21.45,8.59-3.63,8.59-5.55Z" transform="translate(1.9 -134.07)"/><polygon class="cls-2" points="747 488.34 750.53 497.94 760.63 487.84 756.09 476.73 747 488.34"/><polygon class="cls-6" points="778.91 495.21 786.69 488.9 780.73 478.65 773.31 486.88 778.91 495.21"/><polygon class="cls-6" points="732.35 494.35 738.76 489.2 733.92 480.77 727.75 487.48 732.35 494.35"/><path d="M744.34,642.36c-5.15,16.46-24.55,26.92-28.84,25.76C731.56,669.68,742.32,652,744.34,642.36Z" transform="translate(1.9 -134.07)"/></g></g><g id="Layer_12-2-3" data-name="Layer 12-2"><path class="cls-3" d="M955.73,748.13c0,8.08,5.06,17.18,9.6,20.71s14.14,7.07,23.23,7.07,18.68,0,25.75-3,29.8-12.12,29.8-12.12-1.51,0-13.13-6.06S1008.76,736,1008.76,736l-14.65-6.56,2,6.56L978.46,729v7l-21.72-4A155.19,155.19,0,0,0,955.73,748.13Z" transform="translate(1.9 -134.07)"/></g><g id="Layer_9-2-3" data-name="Layer 9-2"><path class="cls-2" d="M805.14,739.43l-7.63,49.27s-.93,14.44,12.15,3.44,27.41-46.83,27.41-46.83" transform="translate(1.9 -134.07)"/><path class="cls-2" d="M891.18,745.37c-1.61-4.24,13.6,6.3,21,15.68a210.79,210.79,0,0,1,14.89,21.65s8.2,12.86,11.82-4.56-7.17-56.66-7.17-56.66" transform="translate(1.9 -134.07)"/></g></g></g><g id="Layer_1_copy_3-2" data-name="Layer 1 copy 3"><g id="Layer_1-3-3" data-name="Layer 1-3"><g id="Layer_3-3-2" data-name="Layer 3-3"><g id="Layer_10-3-2" data-name="Layer 10-3"><path class="cls-1" d="M496.85,737.78c0-4.25,10.4,10.19,13.89,21A192.58,192.58,0,0,1,516.8,783s3,14.14,12.62,0,8.08-45.45,8.08-45.45" transform="translate(1.9 -134.07)"/><path class="cls-1" d="M415.29,729l7.57,55s3.05,10.62,12.63-3.53,8.58-35.36,8.58-35.36" transform="translate(1.9 -134.07)"/></g><g id="Layer_5-3-2" data-name="Layer 5-3"><path class="cls-2" d="M461.83,628.46s-60.64,4.55-96,39.9l4,9.6a7.16,7.16,0,0,0,4.55,3c5.55,2.06,24.75,3,29.8,6.06S412,690.3,413,701.41c1,10.76.25,27.53,4.8,36.11S434,755.69,451.65,756.2,490,746.61,490,746.61s18.69-7.07,29.29-7.58A41,41,0,0,1,538,742.57l42.17,8.36,2.32-15.45,13.08-32.78s4-6.55,9.09-1c3.49,3.84,3.33,23,2.93,34.34-.15,5.05-.4,8.59-.4,8.59,1.86,12.37,2.53,20.7,23.23,29.29s69.68-11.61,57.06-16.16-61.11-53.53-73.73-71.21S578.91,662.81,566,661.3c-8.84-.25-31.06-4-49.24,2.52S465,669.63,465,669.63c1,.61,12.87-19.85,11.87-20.45Z" transform="translate(1.9 -134.07)"/></g><path class="cls-3" d="M412.73,605.24c-4.54-3.68-10.4-2.42-16.66.51a61.57,61.57,0,0,0-22.31-27.27c-9,11.82-18.15,25.25-15.15,32.82a24.52,24.52,0,0,0,8.59,11.11l-10.35,19.45,6.81,4.29-5,7.57,9.6,6.06-2,8.08,16.67.51s15.65,0,24.74-8.59,20.71-19.69,22.73-21.71,12.12-4.55,12.12-4.55c15-.15,25.65,6.27,34.34,15.66L488,643.12,484,635l10.1-2.53L468.31,608.8s6-14.75,0-23.23l-11.11-17.7c-16.76,17.22-25,28.74-26.76,35.86C425.44,601.3,419.33,600.57,412.73,605.24Z" transform="translate(1.9 -134.07)"/><g id="Layer_7-3-2" data-name="Layer 7-3"><circle class="cls-4" cx="438.4" cy="515.61" r="9.09"/><circle class="cls-5" cx="435.87" cy="513.09" r="4.8"/><circle class="cls-5" cx="442.69" cy="519.9" r="2.02"/><circle class="cls-4" cx="380.98" cy="514.25" r="7.73"/><circle class="cls-5" cx="378.8" cy="512.08" r="4.04"/><circle class="cls-5" cx="384.61" cy="517.89" r="1.72"/><path d="M366.05,668s3.43,4.44,6.56,5.55c1.21.45,8.59-3.63,8.59-5.55Z" transform="translate(1.9 -134.07)"/><polygon class="cls-2" points="398 488.34 401.53 497.94 411.63 487.84 407.09 476.73 398 488.34"/><polygon class="cls-6" points="429.91 495.21 437.69 488.9 431.73 478.65 424.31 486.88 429.91 495.21"/><polygon class="cls-6" points="383.35 494.35 389.76 489.2 384.92 480.77 378.75 487.48 383.35 494.35"/><path d="M395.34,642.36c-5.15,16.46-24.55,26.92-28.84,25.76C382.56,669.68,393.32,652,395.34,642.36Z" transform="translate(1.9 -134.07)"/></g></g><g id="Layer_12-3-2" data-name="Layer 12-3"><path class="cls-3" d="M606.73,748.13c0,8.08,5.06,17.18,9.6,20.71s14.14,7.07,23.23,7.07,18.68,0,25.75-3,29.8-12.12,29.8-12.12-1.51,0-13.13-6.06S659.76,736,659.76,736l-14.65-6.56,2,6.56L629.46,729v7l-21.72-4A155.19,155.19,0,0,0,606.73,748.13Z" transform="translate(1.9 -134.07)"/></g><g id="Layer_9-3-2" data-name="Layer 9-3"><path class="cls-2" d="M451.14,739.07l6.06,49.5s3,14.15,12.63,0S483.46,736,483.46,736" transform="translate(1.9 -134.07)"/><path class="cls-2" d="M537.81,737.46c0-4.55,10.4,10.75,13.93,22.17a209.12,209.12,0,0,1,6.11,25.55s3,15,12.68,0,13.69-55.45,13.69-55.45" transform="translate(1.9 -134.07)"/></g></g></g><g id="Layer_1_copy-2" data-name="Layer 1 copy"><g id="Layer_1-4-2" data-name="Layer 1-4"><g id="Layer_3-4-2" data-name="Layer 3-4"><g id="Layer_10-4-2" data-name="Layer 10-4"><path class="cls-1" d="M155.22,740.28c-1.67-4,13.53,5.3,20.94,13.9a188.23,188.23,0,0,1,15,20s8.29,11.83,11.63-4.91-10.24-45-10.24-45" transform="translate(1.9 -134.07)"/><path class="cls-1" d="M70.78,729.89l-2.14,55.52s1.08,11,13-1.27,14.62-33.32,14.62-33.32" transform="translate(1.9 -134.07)"/></g><g id="Layer_5-4-2" data-name="Layer 5-4"><path class="cls-2" d="M110.83,628.49s-60.64,4.55-96,39.9l4,9.6a7.16,7.16,0,0,0,4.55,3c5.55,2.06,24.75,3,29.8,6.06S61,690.33,62,701.44c1,10.76.25,27.53,4.8,36.11S83,755.72,100.65,756.23,139,746.64,139,746.64s18.69-7.07,29.29-7.58A41,41,0,0,1,187,742.6l36.06,8.33,8.43-15.45,13.08-32.78s4.09-6.55,9.09-1c3.49,3.84,3.33,23,2.93,34.34-.15,5.05-.4,8.59-.4,8.59,1.86,12.37,2.53,20.7,23.23,29.29s69.68-11.61,57.06-16.16-61.11-53.53-73.73-71.21S227.91,662.81,215,661.3c-8.84-.25-31.06-4-49.24,2.52S114,669.63,114,669.63c1,.61,12.87-19.85,11.87-20.45Z" transform="translate(1.9 -134.07)"/></g><path class="cls-3" d="M61.73,605.24c-4.54-3.68-10.4-2.42-16.66.51a61.57,61.57,0,0,0-22.31-27.27c-9,11.82-18.15,25.25-15.15,32.82a24.52,24.52,0,0,0,8.59,11.11L5.85,641.86l6.81,4.29-5,7.57,9.6,6.06-2,8.08,16.67.51s15.65,0,24.74-8.59,20.71-19.69,22.73-21.71,12.12-4.55,12.12-4.55c15-.15,25.65,6.27,34.34,15.66L137,643.12,133,635l10.1-2.53L117.31,608.8s6-14.75,0-23.23l-11.11-17.7c-16.71,17.22-25,28.74-26.76,35.86C74.44,601.3,68.33,600.57,61.73,605.24Z" transform="translate(1.9 -134.07)"/><g id="Layer_7-4-2" data-name="Layer 7-4"><circle class="cls-4" cx="87.4" cy="515.61" r="9.09"/><circle class="cls-5" cx="84.87" cy="513.09" r="4.8"/><circle class="cls-5" cx="91.69" cy="519.9" r="2.02"/><circle class="cls-4" cx="29.98" cy="514.25" r="7.73"/><circle class="cls-5" cx="27.8" cy="512.08" r="4.04"/><circle class="cls-5" cx="33.61" cy="517.89" r="1.72"/><path d="M15.05,668s3.43,4.44,6.56,5.55c1.21.45,8.54-3.63,8.59-5.55Z" transform="translate(1.9 -134.07)"/><polygon class="cls-2" points="47 488.34 50.53 497.94 60.63 487.84 56.09 476.73 47 488.34"/><polygon class="cls-6" points="78.91 495.21 86.69 488.9 80.73 478.65 73.31 486.88 78.91 495.21"/><polygon class="cls-6" points="32.35 494.35 38.76 489.2 33.91 480.77 27.75 487.48 32.35 494.35"/><path d="M44.34,642.36c-5.15,16.46-24.55,26.92-28.84,25.76C31.56,669.68,42.32,652,44.34,642.36Z" transform="translate(1.9 -134.07)"/></g></g><g id="Layer_12-4-2" data-name="Layer 12-4"><path class="cls-3" d="M255.73,748.13c0,8.08,5.06,17.18,9.6,20.71s14.14,7.07,23.23,7.07,18.68,0,25.75-3,29.8-12.12,29.8-12.12-1.51,0-13.13-6.06S308.76,736,308.76,736l-14.65-6.56,2,6.56L278.46,729v7l-21.72-4A155.19,155.19,0,0,0,255.73,748.13Z" transform="translate(1.9 -134.07)"/></g><g id="Layer_9-4-2" data-name="Layer 9-4"><path class="cls-2" d="M92.05,749.26,117.8,792s8.53,11.67,11.53-5.16-9-53.51-9-53.51" transform="translate(1.9 -134.07)"/><path class="cls-2" d="M186.69,730.46c.5-4.52,9.16,11.83,11.43,23.56a211.51,211.51,0,0,1,3.27,26.07s1.37,15.2,12.6,1.39,19.68-53.62,19.68-53.62" transform="translate(1.9 -134.07)"/></g></g></g></svg>
